<svg width="83" height="90" viewBox="0 0 83 90" fill="none" xmlns="http://www.w3.org/2000/svg">
<path d="M33.5432 75.5042C33.5432 75.5042 8.03862 46.8799 1.91031 50.4392C-4.21801 53.9985 16.1578 77.2129 16.1578 77.2129C16.1578 77.2129 8.31991 73.9375 8.46465 77.2129C8.60939 80.4883 20.1478 88.322 20.1478 88.322L33.5405 75.5042H33.5432Z" fill="#F1B149"/>
<mask id="mask0_2409_33055" style="mask-type:luminance" maskUnits="userSpaceOnUse" x="0" y="50" width="34" height="39">
<path d="M33.5432 75.5023C33.5432 75.5023 8.03862 46.878 1.91031 50.4373C-4.21801 53.9965 16.1578 77.211 16.1578 77.211C16.1578 77.211 8.31991 73.9355 8.46465 77.211C8.60939 80.4864 20.1478 88.32 20.1478 88.32L33.5405 75.5023H33.5432Z" fill="white"/>
</mask>
<g mask="url(#mask0_2409_33055)">
<path d="M33.5432 75.5031C33.5432 75.5031 16.3572 56.0363 11.8674 59.0279C7.37772 62.0194 29.1081 85.2311 29.1081 85.2311C29.1081 85.2311 16.1414 77.9679 14.4318 79.8894C12.7222 81.811 27.6825 91.9238 27.6825 91.9238L1.18114 80.2416L-4.87344 52.9738L-0.812473 48.1562L19.2056 50.49L33.5432 75.5004" fill="#ED8C3D"/>
<mask id="mask1_2409_33055" style="mask-type:luminance" maskUnits="userSpaceOnUse" x="-5" y="48" width="39" height="44">
<path d="M33.5432 75.5051C33.5432 75.5051 16.3572 56.0383 11.8674 59.0298C7.37772 62.0213 29.1081 85.233 29.1081 85.233C29.1081 85.233 16.1414 77.9698 14.4318 79.8914C12.7222 81.813 27.6825 91.9258 27.6825 91.9258L1.18114 80.2435L-4.87344 52.9758L-0.812473 48.1582L19.2056 50.4919L33.5432 75.5024" fill="white"/>
</mask>
<g mask="url(#mask1_2409_33055)">
<path d="M39.1089 80.4317C2.98899 44.4378 -0.430199 55.6997 -0.430199 55.6997C-0.430199 55.6997 -26.8251 32.0486 2.66946 42.942C32.164 53.8355 39.1089 80.4317 39.1089 80.4317Z" fill="#AA6C35"/>
</g>
<path d="M33.5432 75.5031C33.5432 75.5031 16.3572 56.0363 11.8674 59.0279C7.37772 62.0194 29.1081 85.2311 29.1081 85.2311C29.1081 85.2311 16.1414 77.9679 14.4318 79.8894C12.7222 81.811 27.6825 91.9238 27.6825 91.9238L1.18114 80.2416L-4.87344 52.9738L-0.812474 48.1562L19.2056 50.49L33.5432 75.5004" stroke="#744A1D" stroke-width="1.32831" stroke-miterlimit="10"/>
</g>
<path d="M33.5432 75.5042C33.5432 75.5042 8.03862 46.8799 1.91031 50.4392C-4.21801 53.9985 16.1578 77.2129 16.1578 77.2129C16.1578 77.2129 8.31991 73.9375 8.46465 77.2129C8.60939 80.4883 20.1478 88.322 20.1478 88.322L33.5405 75.5042H33.5432Z" stroke="#744A1D" stroke-width="1.32831" stroke-miterlimit="10"/>
<path d="M67.3172 79.3667C68.7591 90.787 70.1356 112.634 60.0173 114.888C58.4661 115.235 56.8466 114.82 55.5767 113.868C53.8781 112.593 50.3551 110.751 47.5777 111.605C44.9723 112.405 37.8254 116.223 33.7644 112.486C30.8395 109.795 27.8983 107.079 31.6561 97.305C33.8272 91.6549 36.3479 85.5572 37.0498 80.2019C38.0029 72.9333 44.0602 67.3924 51.3874 67.1358C52.996 67.0785 54.6782 67.1849 56.3906 67.5207C62.1993 68.6643 66.5744 73.4956 67.3145 79.3667H67.3172Z" fill="#F1B149"/>
<mask id="mask2_2409_33055" style="mask-type:luminance" maskUnits="userSpaceOnUse" x="29" y="67" width="40" height="49">
<path d="M67.3172 79.3648C68.7591 90.785 70.1356 112.632 60.0173 114.886C58.4661 115.233 56.8466 114.818 55.5767 113.866C53.8781 112.591 50.3551 110.749 47.5777 111.603C44.9723 112.403 37.8254 116.221 33.7644 112.485C30.8395 109.793 27.8983 107.077 31.6561 97.3031C33.8272 91.653 36.3479 85.5553 37.0498 80.2C38.0029 72.9313 44.0602 67.3904 51.3874 67.1339C52.996 67.0765 54.6782 67.183 56.3906 67.5187C62.1993 68.6624 66.5744 73.4936 67.3145 79.3648H67.3172Z" fill="white"/>
</mask>
<g mask="url(#mask2_2409_33055)">
<path d="M72.1182 95.1454C72.1182 95.1454 52.3869 111.522 29.4494 91.4415L45.3082 66.5293L64.6025 70.3397L72.1182 95.1427V95.1454Z" fill="white"/>
<mask id="mask3_2409_33055" style="mask-type:luminance" maskUnits="userSpaceOnUse" x="29" y="66" width="44" height="36">
<path d="M72.1182 95.1454C72.1182 95.1454 52.3869 111.522 29.4494 91.4415L45.3082 66.5293L64.6025 70.3397L72.1182 95.1427V95.1454Z" fill="white"/>
</mask>
<g mask="url(#mask3_2409_33055)">
<path d="M61.47 71.4539C61.47 71.4539 63.8842 86.2178 59.5255 100.793C58.1764 105.302 71.5637 108.834 71.5637 108.834L81.1494 89.1847L61.4673 71.4512" fill="#D1D3D4"/>
</g>
<path d="M72.1182 95.1454C72.1182 95.1454 52.3869 111.522 29.4494 91.4415L45.3082 66.5293L64.6025 70.3397L72.1182 95.1427V95.1454Z" stroke="#744A1D" stroke-width="1.32831" stroke-miterlimit="10"/>
<path d="M56.6772 79.3477C56.6772 79.3477 55.5603 97.275 54.0118 101.432L56.6772 79.3477Z" fill="#F1B149"/>
<path d="M56.6772 79.3477C56.6772 79.3477 55.5603 97.275 54.0118 101.432" stroke="#744A1D" stroke-width="1.32831" stroke-miterlimit="10"/>
</g>
<path d="M67.3172 79.3667C68.7591 90.787 70.1356 112.634 60.0173 114.888C58.4661 115.235 56.8466 114.82 55.5767 113.868C53.8781 112.593 50.3551 110.751 47.5777 111.605C44.9723 112.405 37.8254 116.223 33.7644 112.486C30.8395 109.795 27.8983 107.079 31.6561 97.305C33.8272 91.6549 36.3479 85.5572 37.0498 80.2019C38.0029 72.9333 44.0602 67.3924 51.3874 67.1358C52.996 67.0785 54.6782 67.1849 56.3906 67.5207C62.1993 68.6643 66.5744 73.4956 67.3145 79.3667H67.3172Z" stroke="#744A1D" stroke-width="1.32831" stroke-miterlimit="10"/>
<path d="M58.843 72.5229C58.843 72.5229 62.1556 84.6992 66.1101 92.4947C70.0646 100.29 66.8584 111.653 62.4779 113.823C62.4779 113.823 77.9735 116.312 81.7176 100.216C86.2265 80.8397 60.4461 67.3969 58.843 72.5229Z" fill="#ED8C3D"/>
<mask id="mask4_2409_33055" style="mask-type:luminance" maskUnits="userSpaceOnUse" x="58" y="71" width="25" height="43">
<path d="M58.843 72.5229C58.843 72.5229 62.1556 84.6992 66.1101 92.4947C70.0646 100.29 66.8584 111.653 62.4779 113.823C62.4779 113.823 77.9735 116.312 81.7176 100.216C86.2265 80.8397 60.4461 67.3969 58.843 72.5229Z" fill="white"/>
</mask>
<g mask="url(#mask4_2409_33055)">
<path d="M77.1487 81.9199C77.1487 81.9199 91.8468 105.476 63.3136 107.812L61.2462 118.042L86.4668 110.23V82.6241L77.1487 81.9199Z" fill="#AA6C35"/>
</g>
<path d="M58.843 72.5229C58.843 72.5229 62.1556 84.6992 66.1101 92.4947C70.0646 100.29 66.8584 111.653 62.4779 113.823C62.4779 113.823 77.9735 116.312 81.7176 100.216C86.2265 80.8397 60.4461 67.3969 58.843 72.5229Z" stroke="#744A1D" stroke-width="1.32831" stroke-miterlimit="10"/>
<path d="M52.5017 71.9164C52.5017 71.9164 49.6041 84.4203 34.4417 96.4574C31.7544 98.5918 30.1814 101.886 30.3835 105.312C30.4982 107.25 31.1645 109.417 32.8605 111.628C32.8605 111.628 15.5188 116.32 13.0418 99.8556C9.89024 78.9203 49.6259 63.8071 52.5044 71.9164H52.5017Z" fill="#ED8C3D"/>
<mask id="mask5_2409_33055" style="mask-type:luminance" maskUnits="userSpaceOnUse" x="12" y="69" width="41" height="44">
<path d="M52.5017 71.9184C52.5017 71.9184 49.6041 84.4222 34.4417 96.4593C31.7544 98.5938 30.1814 101.888 30.3835 105.314C30.4982 107.252 31.1645 109.419 32.8605 111.63C32.8605 111.63 15.5188 116.322 13.0418 99.8575C9.89024 78.9223 49.6259 63.809 52.5044 71.9184H52.5017Z" fill="white"/>
</mask>
<g mask="url(#mask5_2409_33055)">
<path d="M42.9979 88.3223C42.9979 88.3223 33.9966 98.2113 28.5647 100.228C24.8233 101.618 21.6117 102.936 18.2307 109.525C16.9472 112.031 26.5684 117.656 26.5684 117.656C26.5684 117.656 45.9529 105.666 42.9952 88.3223" fill="#AA6C35"/>
</g>
<path d="M52.5017 71.9164C52.5017 71.9164 49.6041 84.4203 34.4417 96.4574C31.7544 98.5918 30.1814 101.886 30.3835 105.312C30.4982 107.25 31.1645 109.417 32.8605 111.628C32.8605 111.628 15.5188 116.32 13.0418 99.8556C9.89024 78.9203 49.6259 63.8071 52.5044 71.9164H52.5017Z" stroke="#744A1D" stroke-width="1.32831" stroke-miterlimit="10"/>
<path d="M62.3961 65.3662C62.3961 65.3662 60.9706 61.3074 62.8959 52.3355C64.8213 43.3637 65.8891 39.021 62.8959 33.2536C59.9028 27.4862 60.5445 24.0688 60.5445 24.0688C60.5445 24.0688 73.9018 9.29402 66.6701 1.71147C62.3606 -2.81132 55.058 10.2548 55.058 10.2548C55.058 10.2548 48.2196 1.42487 43.7299 4.4164C39.2402 7.40794 41.3785 18.5852 41.3785 18.5852C41.3785 18.5852 31.476 17.7309 30.5502 24.7812C30.5502 24.7812 29.9795 28.6981 32.3308 31.332C32.3308 31.332 24.1379 34.4655 27.4151 39.3786C30.6922 44.2917 38.3854 48.1376 40.6658 50.9135C43.7982 54.7293 44.5519 56.6809 42.4464 64.3699L56.4809 71.0627L62.3934 65.3662H62.3961Z" fill="#F1B149"/>
<mask id="mask6_2409_33055" style="mask-type:luminance" maskUnits="userSpaceOnUse" x="26" y="0" width="43" height="72">
<path d="M62.3961 65.3662C62.3961 65.3662 60.9706 61.3074 62.8959 52.3355C64.8213 43.3637 65.8891 39.021 62.8959 33.2536C59.9028 27.4862 60.5445 24.0688 60.5445 24.0688C60.5445 24.0688 73.9018 9.29402 66.6701 1.71147C62.3606 -2.81132 55.058 10.2548 55.058 10.2548C55.058 10.2548 48.2196 1.42487 43.7299 4.4164C39.2402 7.40794 41.3785 18.5852 41.3785 18.5852C41.3785 18.5852 31.476 17.7309 30.5502 24.7812C30.5502 24.7812 29.9795 28.6981 32.3308 31.332C32.3308 31.332 24.1379 34.4655 27.4151 39.3786C30.6922 44.2917 38.3854 48.1376 40.6658 50.9135C43.7982 54.7293 44.5519 56.6809 42.4464 64.3699L56.4809 71.0627L62.3934 65.3662H62.3961Z" fill="white"/>
</mask>
<g mask="url(#mask6_2409_33055)">
<path d="M62.5189 32.4966C62.5189 32.4966 58.406 25.9513 53.8644 26.4863C53.8644 26.4863 68.7865 15.672 67.309 2.46939C67.309 2.46939 78.1701 10.576 62.5161 32.4966" fill="#C3903B"/>
<path d="M55.1481 17.2236C55.1481 17.2236 54.4818 24.2275 50.4918 25.0109C50.4918 25.0109 52.5373 22.1722 51.5979 15.313C50.5328 7.53663 55.1509 17.2236 55.1509 17.2236H55.1481Z" fill="#C3903B"/>
<path d="M60.5444 24.0667C60.5444 24.0667 67.0442 11.107 62.7702 8.97254C58.4962 6.83807 54.2222 19.0826 54.2222 19.0826C54.2222 19.0826 49.7161 10.3236 47.7307 12.6028C45.7453 14.8819 46.0293 23.9957 46.0293 23.9957C46.0293 23.9957 38.4781 23.7828 37.1236 27.9835C35.769 32.1842 38.8332 34.9629 38.8332 34.9629C38.8332 34.9629 25.3312 38.2874 33.5433 45.2968L19.5962 40.2308L23.7281 -0.640764L64.6027 -6.4082L76.0127 7.47678L60.5444 24.0667Z" fill="#ED8C3D"/>
<mask id="mask7_2409_33055" style="mask-type:luminance" maskUnits="userSpaceOnUse" x="19" y="-7" width="58" height="53">
<path d="M60.5447 24.0647C60.5447 24.0647 67.0444 11.1051 62.7704 8.97059C58.4965 6.83612 54.2225 19.0807 54.2225 19.0807C54.2225 19.0807 49.7164 10.3217 47.7309 12.6008C45.7455 14.88 46.0295 23.9938 46.0295 23.9938C46.0295 23.9938 38.4784 23.7809 37.1238 27.9816C35.7693 32.1823 38.8334 34.9609 38.8334 34.9609C38.8334 34.9609 25.3315 38.2854 33.5435 45.2948L19.5964 40.2289L23.7284 -0.642717L64.6029 -6.41016L76.0129 7.47482L60.5447 24.0647Z" fill="white"/>
</mask>
<g mask="url(#mask7_2409_33055)">
<path d="M63.4395 31.7916C63.4395 31.7916 59.3267 25.2462 54.7851 25.7812C54.7851 25.7812 69.7071 14.9669 68.2297 1.76431C68.2297 1.76431 79.0908 9.87093 63.4368 31.7916" fill="#AE672A"/>
<path d="M53.4414 19.9172C53.4414 19.9172 55.7436 16.2187 55.1127 11.2074C54.4819 6.19598 46.999 0.226562 46.999 0.226562C46.999 0.226562 51.1337 6.44437 51.7127 16.1559C51.9994 20.9762 47.171 27.1913 53.4441 19.9199" fill="#AE672A"/>
<path d="M46.5703 24.4878C46.5703 24.4878 45.9832 22.4489 41.9222 19.0752C37.8612 15.7015 30.0069 19.9213 30.0069 19.9213C30.0069 19.9213 37.8612 18.7477 46.5703 24.4878Z" fill="#AE672A"/>
<path d="M38.8335 34.9594C38.8335 34.9594 35.0674 31.613 32.3337 31.3291C29.6 31.0453 25.326 34.4899 25.326 34.4899C25.326 34.4899 31.3205 31.8013 38.8362 34.9621" fill="#AE672A"/>
</g>
<path d="M60.5444 24.0667C60.5444 24.0667 67.0442 11.107 62.7702 8.97254C58.4962 6.83807 54.2222 19.0826 54.2222 19.0826C54.2222 19.0826 49.7161 10.3236 47.7307 12.6028C45.7453 14.8819 46.0293 23.9957 46.0293 23.9957C46.0293 23.9957 38.4781 23.7828 37.1236 27.9835C35.769 32.1842 38.8332 34.9629 38.8332 34.9629C38.8332 34.9629 25.3312 38.2874 33.5433 45.2968L19.5962 40.2308L23.7281 -0.640764L64.6027 -6.4082L76.0127 7.47678L60.5444 24.0667Z" stroke="#744A1D" stroke-width="1.32831" stroke-miterlimit="10"/>
<path d="M62.0192 58.0078C62.0192 58.0078 60.5746 68.7702 52.0375 68.9422C43.5005 69.1142 58.3515 73.0228 58.3515 73.0228L65.9409 66.0162L62.0192 58.0078Z" fill="#C3903B"/>
</g>
<path d="M62.3961 65.3662C62.3961 65.3662 60.9706 61.3074 62.8959 52.3355C64.8213 43.3637 65.8891 39.021 62.8959 33.2536C59.9028 27.4862 60.5445 24.0688 60.5445 24.0688C60.5445 24.0688 73.9018 9.29402 66.6701 1.71147C62.3606 -2.81132 55.058 10.2548 55.058 10.2548C55.058 10.2548 48.2196 1.42487 43.7299 4.4164C39.2402 7.40794 41.3785 18.5852 41.3785 18.5852C41.3785 18.5852 31.476 17.7309 30.5502 24.7812C30.5502 24.7812 29.9795 28.6981 32.3308 31.332C32.3308 31.332 24.1379 34.4655 27.4151 39.3786C30.6922 44.2917 38.3854 48.1376 40.6658 50.9135C43.7982 54.7293 44.5519 56.6809 42.4464 64.3699L56.4809 71.0627L62.3934 65.3662H62.3961Z" stroke="#744A1D" stroke-width="1.32831" stroke-miterlimit="10"/>
<path d="M61.8907 61.1307C61.8907 61.1307 66.1374 60.2764 66.9922 62.5719C67.847 64.8674 66.9922 73.378 66.9922 73.378L56.0382 78.1109L37.1098 71.9696C37.1098 71.9696 36.1895 71.7021 37.1098 67.5368C37.6697 65.0066 37.5932 63.6009 37.4485 62.8858C37.3611 62.4518 37.5522 62.0123 37.9373 61.7994C38.9532 61.2426 40.955 60.4674 43.1917 61.3272L42.4489 64.3679L56.4834 71.0606L62.3959 65.3642C62.3959 65.3642 61.806 63.7046 61.8907 61.128V61.1307Z" fill="white"/>
<mask id="mask8_2409_33055" style="mask-type:luminance" maskUnits="userSpaceOnUse" x="36" y="60" width="32" height="19">
<path d="M61.8909 61.1288C61.8909 61.1288 66.1376 60.2744 66.9924 62.5699C67.8472 64.8654 66.9924 73.376 66.9924 73.376L56.0385 78.109L37.1101 71.9676C37.1101 71.9676 36.1897 71.7001 37.1101 67.5349C37.6699 65.0046 37.5934 63.599 37.4487 62.8838C37.3613 62.4498 37.5525 62.0104 37.9375 61.7975C38.9535 61.2407 40.9553 60.4655 43.1919 61.3253L42.4491 64.3659L56.4836 71.0587L62.3962 65.3622C62.3962 65.3622 61.8063 63.7027 61.8909 61.126V61.1288Z" fill="white"/>
</mask>
<g mask="url(#mask8_2409_33055)">
<path d="M56.4835 71.0621C56.4835 71.0621 53.9464 77.4218 45.3247 79.701C36.703 81.9801 76.4688 81.0794 76.4688 81.0794C76.4688 81.0794 73.0496 56.6994 72.8666 56.6285C72.6836 56.5575 57.6469 56.6012 57.6469 56.6012L56.4835 71.0594" fill="#D1D3D4"/>
</g>
<path d="M61.8907 61.1307C61.8907 61.1307 66.1374 60.2764 66.9922 62.5719C67.847 64.8674 66.9922 73.378 66.9922 73.378L56.0382 78.1109L37.1098 71.9696C37.1098 71.9696 36.1895 71.7021 37.1098 67.5368C37.6697 65.0066 37.5932 63.6009 37.4485 62.8858C37.3611 62.4518 37.5522 62.0123 37.9373 61.7994C38.9532 61.2426 40.955 60.4674 43.1917 61.3272L42.4489 64.3679L56.4834 71.0606L62.3959 65.3642C62.3959 65.3642 61.806 63.7046 61.8907 61.128V61.1307Z" stroke="#744A1D" stroke-width="1.32831" stroke-miterlimit="10"/>
<path d="M58.8102 73.6699C58.8102 73.6699 65.2226 67.635 68.8548 68.2218C72.487 68.8087 73.096 72.2205 68.5298 73.6699C68.5298 73.6699 70.4578 75.6461 69.0678 77.5676C67.6777 79.4892 65.2881 77.7805 65.2881 77.7805C65.2881 77.7805 65.7332 81.4026 62.0847 79.8577C58.4361 78.3128 55.6587 76.6587 58.8102 73.6672V73.6699Z" fill="#ED8C3D" stroke="#744A1D" stroke-width="1.32831" stroke-miterlimit="10"/>
<path d="M55.4976 55.7022C54.1039 55.7022 52.9742 54.7038 52.9742 53.4722C52.9742 52.2406 54.1039 51.2422 55.4976 51.2422C56.8912 51.2422 58.021 52.2406 58.021 53.4722C58.021 54.7038 56.8912 55.7022 55.4976 55.7022Z" fill="#ED8C3D" stroke="#744A1D" stroke-width="1.32831" stroke-miterlimit="10"/>
<path d="M54.0391 73.6699C54.0391 73.6699 47.6267 67.635 43.9945 68.2218C40.3623 68.8087 39.7533 72.2205 44.3195 73.6699C44.3195 73.6699 42.3915 75.6461 43.7815 77.5676C45.1716 79.4892 47.5612 77.7805 47.5612 77.7805C47.5612 77.7805 47.116 81.4026 50.7646 79.8577C54.4132 78.3128 57.1906 76.6587 54.0391 73.6672V73.6699Z" fill="#ED8C3D" stroke="#744A1D" stroke-width="1.32831" stroke-miterlimit="10"/>
<path d="M56.6773 79.3465C54.9292 79.3465 53.5121 77.9302 53.5121 76.183C53.5121 74.4359 54.9292 73.0195 56.6773 73.0195C58.4254 73.0195 59.8425 74.4359 59.8425 76.183C59.8425 77.9302 58.4254 79.3465 56.6773 79.3465Z" fill="#ED8C3D" stroke="#744A1D" stroke-width="1.32831" stroke-miterlimit="10"/>
<path d="M55.2217 52.5675C51.5762 52.5675 48.621 49.6138 48.621 45.9703C48.621 42.3267 51.5762 39.373 55.2217 39.373C58.8672 39.373 61.8225 42.3267 61.8225 45.9703C61.8225 49.6138 58.8672 52.5675 55.2217 52.5675Z" fill="white" stroke="#744A1D" stroke-width="1.32831" stroke-miterlimit="10"/>
<path d="M55.522 50.4929C52.9051 50.4929 50.7838 48.3726 50.7838 45.7572C50.7838 43.1417 52.9051 41.0215 55.522 41.0215C58.1389 41.0215 60.2603 43.1417 60.2603 45.7572C60.2603 48.3726 58.1389 50.4929 55.522 50.4929Z" fill="#DAF0F5" stroke="#744A1D" stroke-width="0.796985" stroke-miterlimit="10"/>
<path d="M53.7225 50.8955C53.7225 50.8955 55.8335 48.8675 58.2641 50.8955C60.6947 52.9235 59.0916 56.7967 57.8108 57.2225C57.8108 57.2225 57.169 53.3766 53.5095 53.2183C53.5095 53.2183 52.9742 52.6587 53.7225 50.8955Z" fill="#ED8C3D" stroke="#744A1D" stroke-width="1.32831" stroke-miterlimit="10"/>
<path d="M58.4607 44.6353C58.4607 44.6353 57.5922 47.4794 56.3633 48.0936C55.1344 48.7077 52.7693 44.769 52.7693 44.769C52.7693 44.769 54.7985 44.4088 55.828 46.1584C55.828 46.1584 57.2318 44.4633 58.4607 44.6353Z" fill="#744A1D"/>
<path d="M58.6165 83.3283C58.2273 83.3283 57.9119 83.0131 57.9119 82.6241C57.9119 82.2352 58.2273 81.9199 58.6165 81.9199C59.0056 81.9199 59.321 82.2352 59.321 82.6241C59.321 83.0131 59.0056 83.3283 58.6165 83.3283Z" fill="#ED8C3D"/>
<path d="M58.3516 87.176C57.9624 87.176 57.647 86.8607 57.647 86.4718C57.647 86.0829 57.9624 85.7676 58.3516 85.7676C58.7407 85.7676 59.0562 86.0829 59.0562 86.4718C59.0562 86.8607 58.7407 87.176 58.3516 87.176Z" fill="#ED8C3D"/>
<path d="M58.0837 91.0217C57.6946 91.0217 57.3791 90.7064 57.3791 90.3175C57.3791 89.9286 57.6946 89.6133 58.0837 89.6133C58.4729 89.6133 58.7883 89.9286 58.7883 90.3175C58.7883 90.7064 58.4729 91.0217 58.0837 91.0217Z" fill="#ED8C3D"/>
<path d="M49.5822 52.0544C49.0512 52.0544 48.6208 51.6242 48.6208 51.0936C48.6208 50.563 49.0512 50.1328 49.5822 50.1328C50.1131 50.1328 50.5435 50.563 50.5435 51.0936C50.5435 51.6242 50.1131 52.0544 49.5822 52.0544Z" fill="#ED8C3D" stroke="#744A1D" stroke-width="0.796985" stroke-miterlimit="10"/>
<path d="M49.5822 53.9782C49.0512 53.9782 48.6208 53.5481 48.6208 53.0174C48.6208 52.4868 49.0512 52.0566 49.5822 52.0566C50.1131 52.0566 50.5435 52.4868 50.5435 53.0174C50.5435 53.5481 50.1131 53.9782 49.5822 53.9782Z" fill="#ED8C3D" stroke="#744A1D" stroke-width="0.796985" stroke-miterlimit="10"/>
<path d="M49.5822 55.9001C49.0512 55.9001 48.6208 55.4699 48.6208 54.9393C48.6208 54.4087 49.0512 53.9785 49.5822 53.9785C50.1131 53.9785 50.5435 54.4087 50.5435 54.9393C50.5435 55.4699 50.1131 55.9001 49.5822 55.9001Z" fill="#ED8C3D" stroke="#744A1D" stroke-width="0.796985" stroke-miterlimit="10"/>
<path d="M49.5822 57.822C49.0512 57.822 48.6208 57.3918 48.6208 56.8612C48.6208 56.3305 49.0512 55.9004 49.5822 55.9004C50.1131 55.9004 50.5435 56.3305 50.5435 56.8612C50.5435 57.3918 50.1131 57.822 49.5822 57.822Z" fill="#ED8C3D" stroke="#744A1D" stroke-width="0.796985" stroke-miterlimit="10"/>
</svg>
