<svg width="256" height="302" viewBox="0 0 256 302" fill="none" xmlns="http://www.w3.org/2000/svg">
<path d="M86.7402 231.628C101.13 226.365 106.789 215.833 108.897 209.951L124.785 219.668C123.165 228.896 117.455 236.375 107.789 241.913C102.391 245.003 97.0809 246.674 94.1863 247.432L86.7402 231.628Z" fill="#E1F3F9"/>
<path d="M110.312 214.362L121.374 221.124C119.48 228.486 114.467 234.555 106.426 239.199C102.526 241.452 98.6585 242.918 95.8244 243.807L90.8355 233.224C101.814 228.286 107.463 220.356 110.312 214.362ZM107.059 205.283C107.059 205.283 104.145 223.735 82.5332 229.808L92.4876 250.932C92.4876 250.932 125.013 245.049 128.056 218.122L107.059 205.283Z" fill="#AFE1F1"/>
<path d="M107.059 205.283C107.059 205.283 104.145 223.735 82.5332 229.808L92.4876 250.932C92.4876 250.932 125.013 245.049 128.056 218.122L107.059 205.283Z" stroke="#268ECE" stroke-width="3.25764" stroke-miterlimit="10"/>
<path d="M154.895 262.161L141.26 271.087L128.085 216.419L143.782 200.261L147.756 214.399L174.255 199.945L182.339 236.979L231.855 170.305L175.242 291.912L154.895 262.161Z" fill="#E1F3F9"/>
<path d="M216.585 195.943L174.743 285.821L159.069 262.901L155.723 258.01L150.762 261.254L143.195 266.205L131.421 217.332L142.297 206.135L143.823 211.561L145.88 218.872L152.545 215.237L172.165 204.534L177.968 231.125L180.807 244.119L188.737 233.438L216.585 195.938M247.128 144.672L183.878 229.836L176.353 195.356L149.645 209.923L145.275 194.384L124.757 215.507L139.323 275.964L154.076 266.312L175.748 298L247.132 144.667L247.128 144.672Z" fill="#AFE1F1"/>
<path d="M124.753 215.507L139.324 275.969L154.072 266.317L175.744 298L247.129 144.672L183.879 229.836L176.349 195.356L149.641 209.922L145.271 194.383L124.753 215.507Z" stroke="#268ECE" stroke-width="3.25764" stroke-miterlimit="10"/>
<path d="M143.168 172.674L131.571 140.87L45.4805 192.564L76.3164 196.934L71.7045 213.203L90.8873 204.705L125.125 225.587C141.879 227.774 155.235 209.806 155.235 209.806L142.609 173.144L143.177 172.678L143.168 172.674Z" fill="#268ECE" stroke="#268ECE" stroke-width="2.32689" stroke-miterlimit="10"/>
<path d="M113.89 148.432L84.9346 170.286L116.836 181.865L113.89 148.432Z" fill="#E1F3F9" stroke="#268ECE" stroke-width="2.32689" stroke-miterlimit="10"/>
<path d="M90.6783 168.5L77.9316 178.091L99.5438 178.822L101.847 187.561L116.297 181.856L90.6783 168.5Z" fill="white" stroke="#268ECE" stroke-width="2.32689" stroke-miterlimit="10"/>
<path d="M111.885 153.407L124.892 144.169L119.028 164.981L126.656 169.83L116.836 181.865L111.885 153.407Z" fill="white" stroke="#268ECE" stroke-width="2.32689" stroke-miterlimit="10"/>
<path d="M138.924 206.232L149.088 194.672L160.69 202.961L161.983 199.07C165.581 188.241 165.246 179.752 160.987 173.847C156.799 168.039 150.065 166.494 146.351 166.089L142.977 149.289C145.984 148.437 151.47 147.176 157.674 147.176C173.683 147.176 184.233 155.134 189.031 170.831C193.471 185.36 188.789 198.833 175.107 210.886C167.056 217.978 158.069 222.516 154.174 224.303L138.928 206.228L138.924 206.232Z" fill="#E1F3F9"/>
<path d="M157.669 150.206C164.003 150.206 169.453 151.583 173.874 154.301C179.542 157.787 183.665 163.646 186.136 171.72C188.384 179.073 188.11 185.905 185.294 192.606C182.972 198.135 178.909 203.491 173.213 208.527C166.618 214.363 159.326 218.425 154.979 220.575L142.917 206.274L149.553 198.726L155.594 203.045L162.267 207.815L164.855 200.034C168.778 188.227 168.303 178.826 163.44 172.088C159.345 166.415 153.248 164.251 148.902 163.432L146.509 151.523C149.413 150.862 153.365 150.215 157.674 150.215M157.669 144.156C147.617 144.156 139.473 147.232 139.473 147.232L143.843 168.984C143.843 168.984 143.899 168.984 144.001 168.984C146.109 168.984 168.573 169.644 159.112 198.121L148.622 190.624L134.936 206.195L153.318 227.984C153.318 227.984 203.579 208.075 191.926 169.952C185.48 148.865 170.118 144.156 157.674 144.156H157.669Z" fill="#AFE1F1"/>
<path d="M143.848 168.984C143.848 168.984 169.038 168.253 159.112 198.121L148.622 190.624L134.936 206.195L153.318 227.984C153.318 227.984 203.579 208.075 191.926 169.952C180.273 131.833 139.478 147.227 139.478 147.227L143.848 168.979V168.984Z" stroke="#268ECE" stroke-width="3.25764" stroke-miterlimit="10"/>
<path d="M79.7455 259.173C76.553 254.454 69.7958 243.402 68.4834 232.721L84.1527 223.567L95.9453 247.865L79.7455 259.178V259.173Z" fill="#E1F3F9"/>
<path d="M82.8595 227.822L92.0972 246.856L80.5745 254.902C77.5309 250.039 73.2355 242.132 71.7835 234.295L82.8595 227.826M85.4516 219.305L65.3008 231.079C66.2734 246.739 79.0201 263.372 79.0201 263.372L99.7992 248.861L85.4516 219.305Z" fill="#AFE1F1"/>
<path d="M85.4516 219.305L99.7992 248.861L79.0201 263.372C79.0201 263.372 66.2734 246.739 65.3008 231.079L85.4516 219.305Z" stroke="#268ECE" stroke-width="3.25764" stroke-miterlimit="10"/>
<path d="M92.6416 170.524L116.092 168.318L108.907 178.998H117.953" stroke="#268ECE" stroke-width="2.32689" stroke-miterlimit="10"/>
<path d="M113.849 155.427L104.053 176.466L117.223 174.8L113.849 181.576" stroke="#268ECE" stroke-width="2.32689" stroke-miterlimit="10"/>
<path d="M67.6881 173.549C54.5272 173.549 43.9399 166.224 36.2146 151.774C31.3561 142.68 29.3922 132.223 30.3834 120.687C31.1886 111.305 33.9343 101.187 38.5369 90.6187C43.2279 79.8545 48.9287 70.789 52.8193 65.1532L53.9269 76.0012L58.5807 69.4906C76.884 43.8995 107.078 25.0238 121.677 16.875L94.1308 70.1095L166.153 21.3333L115.082 86.5141L135.74 77.1507L119.033 105.148L140.911 99.8611L119.378 134.22L127.941 134.895C108.167 159.201 85.9076 173.554 67.6788 173.554L67.6881 173.549Z" fill="#E1F3F9"/>
<path d="M114.213 24.735L96.9238 58.1491L85.9874 79.2819L105.687 65.9395L151.876 34.6568L120.328 74.9213L105.1 94.3554L127.587 84.159L128.206 83.8798L120.137 97.4037L112.756 109.769L126.75 106.385L134.41 104.533L119.471 128.37L114.171 136.826L121.84 137.431C114.064 146.343 105.85 153.826 97.7103 159.383C87.0485 166.666 76.6659 170.514 67.6841 170.514C55.7286 170.514 46.0347 163.725 38.8819 150.34C34.3119 141.791 32.4643 131.925 33.3904 121.012C34.1583 111.975 36.8017 102.197 41.2553 91.9494C44.2291 85.1084 47.6217 78.9561 50.6839 73.9719L51.7356 84.2661L61.0478 71.2494C73.6223 53.6721 92.0001 39.3944 105.203 30.515C108.372 28.3835 111.406 26.4522 114.208 24.735M180.45 8L102.299 60.932L128.807 9.69863C128.807 9.69863 81.571 32.1624 56.1334 67.7312L55.0398 57.0461C55.0398 57.0461 10.9686 110.951 33.5533 153.198C42.2792 169.528 54.3138 176.574 67.6934 176.574C88.9332 176.574 113.575 158.833 133.833 132.321L124.604 131.59L147.427 95.1698L125.33 100.512L143.299 70.4025L125.088 78.6583L180.45 8Z" fill="#AFE1F1"/>
<path d="M55.0398 57.0461C55.0398 57.0461 10.9686 110.951 33.5533 153.198C56.1381 195.445 100.81 175.536 133.833 132.316L124.604 131.586L147.427 95.1652L125.33 100.508L143.299 70.3978L125.088 78.6536L180.45 8L102.299 60.932L128.807 9.69863C128.807 9.69863 81.571 32.1624 56.1334 67.7312L55.0398 57.0461Z" stroke="#268ECE" stroke-width="3.25764" stroke-miterlimit="10"/>
<path d="M49.4873 140.544L123.399 110.313L82.5384 169.36L49.4873 140.544Z" fill="#268ECE"/>
<mask id="mask0_2675_62784" style="mask-type:luminance" maskUnits="userSpaceOnUse" x="49" y="110" width="75" height="60">
<path d="M49.4873 140.543L123.399 110.312L82.5384 169.359L49.4873 140.543Z" fill="white"/>
</mask>
<g mask="url(#mask0_2675_62784)">
<path d="M73.3935 163.585C73.3935 163.585 70.08 141.717 108.664 130.641C147.254 119.565 84.502 175.652 84.502 175.652L73.3888 163.58" fill="#AFE1F1"/>
<path d="M52.824 148.8L66.0267 142.242L72.9469 146.794L75.9486 137.872L128.806 114.925L128.057 103.365L40.2588 141.242L52.824 148.8Z" fill="white" stroke="#268ECE" stroke-width="2.32689" stroke-miterlimit="10"/>
<path d="M68.9678 163.091L80.0763 157.507L83.0547 148.888L87.5456 152.29L112.555 137.114L83.3107 181.259L68.9678 163.091Z" fill="white" stroke="#268ECE" stroke-width="2.32689" stroke-miterlimit="10"/>
</g>
<path d="M49.4873 140.544L123.399 110.313L82.5384 169.36L49.4873 140.544Z" stroke="#268ECE" stroke-width="2.32689" stroke-miterlimit="10"/>
<path d="M57.4079 114.655L3.86621 42.4194L20.1358 92.2893L5.81149 90.0089L36.4054 145.37L57.4079 122.301C57.4079 122.301 75.0131 155.325 90.3101 141.726C105.607 128.128 92.8278 82.9678 92.8278 82.9678L57.4079 114.655Z" fill="#268ECE"/>
<mask id="mask1_2675_62784" style="mask-type:luminance" maskUnits="userSpaceOnUse" x="3" y="42" width="95" height="104">
<path d="M57.4079 114.656L3.86621 42.4199L20.1358 92.2898L5.81149 90.0094L36.4054 145.371L57.4079 122.302C57.4079 122.302 75.0131 155.325 90.3101 141.727C105.607 128.128 92.8278 82.9683 92.8278 82.9683L57.4079 114.656Z" fill="white"/>
</mask>
<g mask="url(#mask1_2675_62784)">
<path d="M60.4045 127.258L78.168 110.919L82.6263 117.657L102.749 98.6279V105.185L81.3512 126.309L76.8928 118.844L61.4144 132.866L58.6826 128.403L60.4045 127.258Z" fill="#F8FCFF" stroke="#268ECE" stroke-width="0.465377" stroke-miterlimit="10"/>
<path d="M20.3586 121.827L38.1221 105.487L42.585 112.226L62.708 93.1968V99.7493L41.3099 120.877L36.8469 113.408L21.3685 127.43L18.6367 122.972L20.3586 121.827Z" fill="#F8FCFF" stroke="#268ECE" stroke-width="0.465377" stroke-miterlimit="10"/>
</g>
<path d="M57.4079 114.655L3.86621 42.4194L20.1358 92.2893L5.81149 90.0089L36.4054 145.37L57.4079 122.301C57.4079 122.301 75.0131 155.325 90.3101 141.726C105.607 128.128 92.8278 82.9678 92.8278 82.9678L57.4079 114.655Z" stroke="#268ECE" stroke-width="2.32689" stroke-miterlimit="10"/>
<path d="M160.504 158.689L140.832 156.018L150.791 129.31L132.958 140.014L144.56 171.818L160.504 158.689Z" fill="#268ECE" stroke="#268ECE" stroke-width="2.32689" stroke-miterlimit="10"/>
</svg>
