<svg width="205" height="294" viewBox="0 0 205 294" fill="none" xmlns="http://www.w3.org/2000/svg">
<path d="M69.6334 277.923L97.143 269.834L114.134 283.857L131.393 268.216L165.105 273.069L162.95 258.508L176.705 256.353L162.95 242.329L160.794 192.438C160.794 192.438 110.091 175.178 67.7519 200.796L73.1432 253.655L57.7705 261.206L72.3317 264.442L69.6334 277.928V277.923Z" fill="#86722D"/>
<mask id="mask0_2675_62179" style="mask-type:luminance" maskUnits="userSpaceOnUse" x="57" y="186" width="120" height="98">
<path d="M69.6334 277.923L97.143 269.834L114.134 283.857L131.393 268.216L165.105 273.069L162.95 258.508L176.705 256.353L162.95 242.329L160.794 192.438C160.794 192.438 110.091 175.178 67.7519 200.796L73.1432 253.655L57.7705 261.206L72.3317 264.442L69.6334 277.928V277.923Z" fill="white"/>
</mask>
<g mask="url(#mask0_2675_62179)">
<path d="M115.055 208.93C140.851 206.687 161.287 199.406 160.701 192.669C160.115 185.931 138.729 182.288 112.933 184.531C87.1379 186.774 66.7015 194.055 67.2874 200.792C67.8733 207.53 89.2597 211.173 115.055 208.93Z" fill="#86722C" stroke="#66652B" stroke-width="2.06761" stroke-miterlimit="10"/>
<path d="M85.8335 208.838C83.1869 212.24 82.8406 216.638 83.7969 220.732C84.8462 225.229 87.3118 229.215 88.7333 233.583C89.4156 235.676 89.8291 237.821 89.6999 240.028C89.5862 241.982 89.0796 243.89 88.5059 245.75C87.3273 249.57 85.7249 253.313 85.4665 257.35C85.3114 259.8 85.8697 262.079 86.6709 264.374C87.3997 266.458 88.3973 269.016 87.3584 271.172C87.0534 271.802 87.1878 272.567 87.8236 272.94C88.387 273.27 89.2864 273.105 89.5914 272.474C90.589 270.402 90.496 268.117 89.9015 265.935C89.3329 263.873 88.3405 261.898 88.0975 259.753C87.653 255.861 89.1365 252.057 90.3512 248.433C91.6848 244.448 92.7445 240.442 92.057 236.219C91.323 231.685 88.9401 227.674 87.3428 223.431C85.849 219.471 84.8204 214.318 87.6633 210.663C88.0924 210.115 88.2009 209.371 87.6633 208.833C87.2188 208.389 86.2677 208.28 85.8335 208.833V208.838Z" fill="#66652B"/>
<path d="M97.6448 268.495C96.089 264.747 94.4504 260.72 95.6754 256.642C96.7247 253.148 99.0456 250.129 99.5625 246.459C99.8727 244.252 99.4488 242.086 98.7924 239.977C98.1359 237.868 97.3967 235.878 96.6834 233.836C95.3498 230.006 94.0524 226.062 93.8714 221.979C93.6905 217.895 94.4607 213.936 97.0142 210.865C97.4587 210.328 97.5414 209.563 97.0142 209.035C96.5542 208.575 95.6341 208.498 95.1844 209.035C89.7776 215.533 90.8941 224.429 93.3028 231.903C93.98 234.002 94.7398 236.069 95.4583 238.147C96.1768 240.225 96.9884 242.293 97.0866 244.459C97.2572 248.268 94.776 251.556 93.5044 254.988C92.6619 257.262 92.4706 259.588 92.8325 261.982C93.2098 264.489 94.1816 266.856 95.1482 269.182C95.417 269.828 96.0062 270.288 96.7403 270.087C97.3502 269.921 97.9136 269.146 97.6448 268.495Z" fill="#66652B"/>
<path d="M100.229 209.769C98.363 213.698 96.5796 218.407 98.2027 222.728C98.916 224.62 100.146 226.171 101.345 227.773C102.545 229.375 103.506 231.014 103.863 233.03C104.219 235.046 104.013 237.305 103.899 239.409C103.78 241.595 103.723 243.797 104.178 245.952C104.39 246.966 104.907 248.02 104.86 249.069C104.819 249.99 103.997 250.682 103.48 251.375C102.209 253.081 101.723 255.231 101.599 257.319C101.444 259.919 101.935 262.504 101.821 265.104C101.707 267.714 100.839 270.221 100.012 272.671C99.4795 274.253 101.976 274.93 102.503 273.359C103.258 271.126 103.977 268.893 104.276 266.546C104.581 264.168 104.266 261.806 104.173 259.428C104.095 257.521 104.152 255.464 105.047 253.727C105.507 252.832 106.225 252.155 106.763 251.313C107.419 250.279 107.528 249.121 107.336 247.932C107.161 246.842 106.747 245.808 106.566 244.717C106.396 243.704 106.38 242.665 106.396 241.642C106.427 239.517 106.67 237.403 106.633 235.278C106.597 233.154 106.23 230.942 105.227 228.993C104.333 227.251 102.994 225.798 101.899 224.186C100.606 222.289 100.007 220.314 100.219 218.009C100.436 215.584 101.433 213.238 102.467 211.062C102.767 210.431 102.643 209.666 102.002 209.294C101.439 208.963 100.534 209.123 100.234 209.759L100.229 209.769Z" fill="#66652B"/>
<path d="M101.831 258.565C102.048 259.505 102.291 260.441 102.741 261.299C103.191 262.157 103.899 262.788 104.612 263.429C105.998 264.674 107.176 266.117 108.107 267.734C108.567 268.536 108.872 269.332 108.975 270.257C109.084 271.255 109.12 272.273 109.389 273.25C109.869 274.981 110.913 276.449 112.02 277.83C113.126 279.21 114.857 280.781 115.152 282.683C115.261 283.376 116.124 283.753 116.744 283.588C117.483 283.386 117.752 282.688 117.649 281.996C117.364 280.145 116.031 278.646 114.878 277.256C113.849 276.01 112.707 274.739 112.097 273.214C111.379 271.404 111.704 269.399 110.929 267.595C110.169 265.843 108.975 264.225 107.688 262.824C106.964 262.038 106.065 261.408 105.377 260.601C104.736 259.852 104.54 258.802 104.328 257.867C103.956 256.249 101.459 256.931 101.837 258.554L101.831 258.565Z" fill="#66652B"/>
<path d="M119.432 279.086C120.725 277.215 120.487 274.739 119.712 272.713C118.936 270.686 117.499 268.644 117.561 266.318C117.592 265.052 117.887 263.811 117.939 262.545C117.985 261.367 117.768 260.198 117.386 259.087C116.657 256.978 115.494 255.034 115.463 252.745C115.432 250.455 116.15 248.206 116.708 245.994C117.303 243.647 117.711 241.274 117.442 238.85C117.174 236.426 116.46 234.084 115.649 231.774C114.837 229.463 113.865 227.127 113.467 224.697C113.044 222.097 114.15 219.859 115.235 217.574C116.496 214.923 117.329 212.235 117.318 209.268C117.318 207.603 114.729 207.603 114.734 209.268C114.739 211.677 114.124 213.904 113.095 216.07C112.067 218.236 111.022 220.257 110.805 222.614C110.573 225.142 111.488 227.701 112.304 230.053C113.085 232.301 113.948 234.529 114.486 236.85C115.023 239.171 115.075 241.295 114.615 243.539C114.155 245.782 113.385 248.025 113.054 250.325C112.702 252.755 112.95 254.998 113.876 257.273C114.279 258.265 114.734 259.242 115.044 260.271C115.385 261.418 115.38 262.53 115.24 263.713C115.075 265.093 114.863 266.422 115.07 267.812C115.266 269.12 115.804 270.33 116.357 271.518C117.23 273.379 118.533 275.824 117.189 277.773C116.791 278.347 117.081 279.205 117.654 279.541C118.295 279.918 119.024 279.655 119.422 279.076L119.432 279.086Z" fill="#66652B"/>
<path d="M116.435 262.323C116.9 260.338 116.011 258.58 114.801 257.06C114.279 256.404 113.695 255.799 113.245 255.091C112.796 254.383 112.496 253.556 112.289 252.708C111.84 250.847 111.705 248.904 111.777 246.991C111.85 245.079 112.294 243.14 112.646 241.202C112.997 239.263 113.039 237.537 112.692 235.666C112.387 234.043 111.809 232.487 111.183 230.962C109.927 227.912 108.407 224.873 108.294 221.513C108.154 217.492 109.162 213.408 107.265 209.64C106.515 208.151 104.288 209.459 105.032 210.942C106.552 213.966 105.688 217.616 105.694 220.846C105.704 224.335 106.908 227.437 108.247 230.6C109.472 233.495 110.697 236.498 110.284 239.703C110.036 241.646 109.488 243.533 109.296 245.492C109.105 247.451 109.162 249.369 109.426 251.297C109.689 253.225 110.17 255.272 111.39 256.921C112.331 258.187 114.362 259.836 113.943 261.625C113.566 263.243 116.057 263.935 116.435 262.312V262.323Z" fill="#66652B"/>
<path d="M99.113 239.398C98.3532 237.087 98.4359 234.74 99.2681 232.461C100.1 230.181 100.979 227.736 101.636 225.291C102.065 223.684 99.5731 222.996 99.1441 224.604C98.4514 227.194 97.4848 229.659 96.6319 232.192C95.779 234.725 95.7945 237.542 96.6319 240.085C97.1488 241.657 99.6455 240.985 99.1234 239.398H99.113Z" fill="#66652B"/>
<path d="M119.029 210.477C119.587 212.777 120.161 215.078 120.693 217.383C121.185 219.502 121.81 221.983 121.257 224.149C120.998 225.162 120.378 226.015 119.939 226.951C119.463 227.969 119.096 229.029 118.915 230.14C118.569 232.234 118.776 234.322 119.313 236.364C120.275 240.039 122.317 243.58 122.373 247.451C122.404 249.576 121.645 251.576 121.097 253.597C120.549 255.618 120.295 257.779 120.73 259.919C121.583 264.142 124.524 267.616 125.242 271.885C125.356 272.573 126.209 272.96 126.834 272.79C127.563 272.588 127.853 271.89 127.739 271.198C127.093 267.378 124.71 264.209 123.573 260.56C122.999 258.72 122.947 256.942 123.397 255.06C123.914 252.894 124.725 250.821 124.927 248.583C125.289 244.588 123.449 240.866 122.255 237.165C121.665 235.335 121.221 233.453 121.345 231.52C121.412 230.481 121.67 229.422 122.084 228.465C122.518 227.452 123.154 226.542 123.547 225.509C124.493 223.017 123.934 220.071 123.392 217.554C122.849 215.036 122.156 212.374 121.536 209.79C121.143 208.172 118.652 208.859 119.045 210.477H119.029Z" fill="#66652B"/>
<path d="M122.555 248.449C122.157 250.413 122.456 252.465 123.563 254.161C124.586 255.722 126.075 256.844 127.326 258.198C128.576 259.552 129.419 261.103 129.905 262.814C130.463 264.788 130.432 266.871 131.032 268.836C131.518 270.423 134.009 269.745 133.523 268.148C132.955 266.287 132.96 264.318 132.479 262.442C131.998 260.565 131.156 258.896 130.008 257.402C128.044 254.853 124.276 252.9 125.041 249.142C125.18 248.459 124.844 247.746 124.136 247.55C123.5 247.374 122.684 247.767 122.544 248.454L122.555 248.449Z" fill="#66652B"/>
<path d="M130.711 257.055C130.432 255.282 130.695 253.37 131.424 251.731C132.272 249.829 133.812 248.382 134.872 246.614C135.932 244.846 136.697 242.773 136.95 240.67C137.219 238.416 136.557 236.281 135.999 234.12C135.379 231.717 134.862 229.298 135.001 226.801C135.094 225.137 132.51 225.147 132.417 226.801C132.287 229.096 132.675 231.381 133.208 233.609C133.709 235.697 134.541 237.801 134.427 239.977C134.324 242.014 133.492 243.998 132.401 245.699C131.311 247.4 129.801 248.956 128.974 250.935C128.07 253.106 127.852 255.432 128.214 257.748C128.323 258.441 129.186 258.818 129.806 258.653C130.54 258.451 130.819 257.753 130.711 257.061V257.055Z" fill="#66652B"/>
<path d="M134.718 246.361C135.049 242.406 132.268 239.377 130.686 236.033C129.208 232.901 128.654 229.251 129.13 225.819C129.228 225.126 128.965 224.434 128.225 224.227C127.621 224.062 126.732 224.434 126.633 225.132C126.111 228.874 126.499 232.689 127.946 236.193C128.67 237.951 129.678 239.527 130.614 241.171C131.549 242.815 132.278 244.469 132.123 246.356C132.066 247.053 132.759 247.648 133.415 247.648C134.165 247.648 134.651 247.053 134.707 246.356L134.718 246.361Z" fill="#66652B"/>
<path d="M138.951 230.627C140.099 232.699 141.138 234.834 141.753 237.129C142.368 239.424 142.585 241.73 141.577 243.906C140.486 246.258 139.215 248.537 138.026 250.837C137.406 252.037 136.708 253.231 136.227 254.497C135.746 255.764 135.757 257.014 135.762 258.291C135.772 261.279 135.788 264.267 135.803 267.254C135.808 268.919 138.393 268.919 138.388 267.254C138.377 264.561 138.362 261.868 138.352 259.175C138.346 257.929 138.228 256.611 138.636 255.412C139.044 254.213 139.83 252.977 140.43 251.804C141.65 249.432 143.019 247.09 144.058 244.635C145.097 242.179 144.989 239.641 144.405 237.109C143.774 234.364 142.533 231.779 141.179 229.324C140.373 227.866 138.14 229.169 138.946 230.627H138.951Z" fill="#66652B"/>
<path d="M138.17 254.228C138.552 255.334 139.121 256.347 139.741 257.335C140.015 257.774 140.299 258.213 140.553 258.668C140.682 258.896 140.816 259.134 140.909 259.382C140.785 259.061 140.935 259.475 140.956 259.537C140.997 259.661 141.033 259.79 141.069 259.919C141.24 260.576 142 261.036 142.661 260.824C143.323 260.612 143.747 259.935 143.566 259.232C143.282 258.131 142.692 257.159 142.088 256.208C141.803 255.753 141.519 255.303 141.261 254.833C141.126 254.59 141.002 254.347 140.883 254.099C140.852 254.037 140.826 253.975 140.801 253.913C140.863 254.063 140.868 254.073 140.811 253.933C140.764 253.804 140.713 253.675 140.671 253.546C140.454 252.91 139.772 252.419 139.079 252.641C138.449 252.848 137.942 253.546 138.175 254.233L138.17 254.228Z" fill="#66652B"/>
<path d="M83.6882 243.791C83.6003 242.809 84.2465 241.915 84.5308 241.005C84.8667 239.925 84.9701 238.762 85.027 237.635C85.1407 235.366 85.1769 233.138 84.1896 231.039C83.7502 230.109 83.1558 229.261 82.6182 228.383C82.0186 227.411 81.4862 226.408 81.0158 225.369C80.1371 223.425 79.5271 221.291 79.5788 219.145C79.6409 216.752 80.6695 214.364 81.8119 212.296C82.6182 210.839 80.3852 209.536 79.5788 210.994C78.4933 212.958 77.5267 215.17 77.1701 217.398C76.8134 219.626 77.0925 222.05 77.8214 224.263C78.5502 226.475 79.6615 228.558 80.9124 230.533C81.4604 231.401 82.0238 232.28 82.2822 233.283C82.5407 234.286 82.5148 235.397 82.4787 236.457C82.4425 237.718 82.4218 238.989 82.0651 240.209C81.7085 241.429 80.9796 242.484 81.0985 243.791C81.1606 244.484 81.6464 245.084 82.3908 245.084C83.0421 245.084 83.7451 244.489 83.683 243.791H83.6882Z" fill="#66652B"/>
</g>
<path d="M69.6334 277.923L97.143 269.834L114.134 283.857L131.393 268.216L165.105 273.069L162.95 258.508L176.705 256.353L162.95 242.329L160.794 192.438C160.794 192.438 110.091 175.178 67.7519 200.796L73.1432 253.655L57.7705 261.206L72.3317 264.442L69.6334 277.928V277.923Z" stroke="#66652B" stroke-width="2.58452" stroke-miterlimit="10"/>
<path d="M126.436 167.151C126.436 167.151 128.658 168.164 134.122 146.319C134.122 146.319 97.5099 166.949 67.1729 154.207C67.1729 154.207 69.1733 166.499 84.5666 177.607L126.436 167.151Z" fill="#C39C3D" stroke="#66652B" stroke-width="2.58452" stroke-miterlimit="10"/>
<path d="M132.132 161.015C132.132 161.015 107.052 180.838 72.0576 170.924C72.0576 170.924 99.7688 197.823 110.893 193.781C122.016 189.739 132.132 161.015 132.132 161.015Z" fill="#BEBB32" stroke="#66652B" stroke-width="2.58452" stroke-linecap="round" stroke-linejoin="round"/>
<path d="M40.2061 205.743L78.2346 213.429L104.157 192.618C104.157 192.618 97.6547 176.01 64.8882 180.662C64.8882 180.662 50.5286 190.98 40.2112 205.743H40.2061Z" fill="#BEBB32" stroke="#66652B" stroke-width="2.58452" stroke-linecap="round" stroke-linejoin="round"/>
<path d="M132.856 163.558C132.856 163.558 118.362 169.999 113.979 191.523L157.972 205.164L179.982 196.738C179.982 196.738 152.069 170.097 132.856 163.558Z" fill="#BEBB32" stroke="#66652B" stroke-width="2.58452" stroke-linecap="round" stroke-linejoin="round"/>
<path d="M40.2063 205.743L49.5106 284.896C49.5106 284.896 71.9597 284.896 87.3324 271.343L78.2297 213.429L40.2012 205.743H40.2063Z" fill="#BEBB32" stroke="#66652B" stroke-width="2.58452" stroke-linecap="round" stroke-linejoin="round"/>
<path d="M16.2427 112.162L3.34082 166.83L40.3201 156.089L46.5953 117.042L16.2427 112.162Z" fill="#BEBB32" stroke="#66652B" stroke-width="2.58452" stroke-linecap="round" stroke-linejoin="round"/>
<path d="M179.982 196.743L186.118 278.853L142.429 280.874C142.429 280.874 140.878 223.689 146.978 200.703L179.982 196.743Z" fill="#F9ED31"/>
<mask id="mask1_2675_62179" style="mask-type:luminance" maskUnits="userSpaceOnUse" x="142" y="196" width="45" height="85">
<path d="M179.982 196.743L186.118 278.853L142.429 280.874C142.429 280.874 140.878 223.689 146.978 200.703L179.982 196.743Z" fill="white"/>
</mask>
<g mask="url(#mask1_2675_62179)">
<path d="M153.335 188.126V306.797C153.335 306.797 119.685 302.212 119.954 300.325C120.223 298.439 132.132 185.774 132.132 185.774L153.335 188.131V188.126Z" fill="#BEBB32"/>
</g>
<path d="M179.982 196.743L186.118 278.853L142.429 280.874C142.429 280.874 140.878 223.689 146.978 200.703L179.982 196.743Z" stroke="#66652B" stroke-width="2.58452" stroke-miterlimit="10"/>
<path d="M40.2061 205.742C40.2061 205.742 49.7791 240.328 78.2346 213.429C78.2346 213.429 65.5601 176.817 40.2061 205.742Z" fill="#C39C3D" stroke="#66652B" stroke-width="2.58452" stroke-miterlimit="10"/>
<path d="M21.1894 74.5781H57.7654L73.2415 100.061L60.2931 129.055L24.1564 133.908L4.73633 104.243L21.1894 74.5781Z" fill="#C39C3D" stroke="#66652B" stroke-width="2.58452" stroke-miterlimit="10"/>
<path d="M146.978 200.703C146.978 200.703 188.676 236.664 179.982 196.743C179.982 196.743 168.858 173.627 146.978 200.703Z" fill="#C39C3D" stroke="#66652B" stroke-width="2.58452" stroke-miterlimit="10"/>
<path d="M142.43 280.875L159.384 266.649H173.444L186.118 278.853C186.118 278.853 179.745 287.553 170.037 291.998C170.037 291.998 153.926 292.402 142.43 280.875Z" fill="#C39C3D" stroke="#66652B" stroke-width="2.58452" stroke-miterlimit="10"/>
<path d="M46.1915 256.668L30.1934 286.984C30.1934 286.984 59.3622 287.93 79.6351 276.801C79.6351 276.801 75.2311 263.656 70.243 259.743L46.1915 256.663V256.668Z" fill="#C39C3D" stroke="#66652B" stroke-width="2.58452" stroke-miterlimit="10"/>
<path d="M138.774 146.314C138.774 146.314 153.946 111.118 149.092 85.2315C144.238 59.345 83.9621 57.3187 57.7706 71.0735C31.5791 84.8283 30.9692 102.424 40.2734 116.99C49.5777 131.556 64.3766 156.027 64.3766 156.027C64.3766 156.027 94.6826 178.274 138.774 146.319V146.314Z" fill="#F9ED31"/>
<mask id="mask2_2675_62179" style="mask-type:luminance" maskUnits="userSpaceOnUse" x="34" y="62" width="117" height="102">
<path d="M138.774 146.315C138.774 146.315 153.946 111.119 149.092 85.2325C144.238 59.346 83.9621 57.3197 57.7706 71.0745C31.5791 84.8293 30.9692 102.425 40.2734 116.991C49.5777 131.557 64.3766 156.028 64.3766 156.028C64.3766 156.028 94.6826 178.275 138.774 146.32V146.315Z" fill="white"/>
</mask>
<g mask="url(#mask2_2675_62179)">
<path d="M73.1173 122.78C73.1173 122.78 65.5447 129.949 70.8016 141.735C76.0585 153.52 85.7711 173.018 85.7711 173.018C85.7711 173.018 51.9915 174.755 51.9915 174.351C51.9915 173.948 26.6426 95.87 26.6426 95.87L44.1708 88.3232L73.1173 122.78Z" fill="#BEBB32"/>
<path d="M98.7321 120.948C130.547 114.602 153.476 95.11 149.946 77.4107C146.416 59.7115 117.763 50.5076 85.948 56.8533C54.133 63.199 31.2036 82.6914 34.7339 100.391C38.2641 118.09 66.9171 127.294 98.7321 120.948Z" fill="#F9ED31"/>
<mask id="mask3_2675_62179" style="mask-type:luminance" maskUnits="userSpaceOnUse" x="34" y="54" width="117" height="69">
<path d="M98.7321 120.948C130.547 114.602 153.476 95.11 149.946 77.4107C146.416 59.7115 117.763 50.5076 85.948 56.8533C54.133 63.199 31.2036 82.6914 34.7339 100.391C38.2641 118.09 66.9171 127.294 98.7321 120.948Z" fill="white"/>
</mask>
<g mask="url(#mask3_2675_62179)">
<path d="M63.0737 122.171C89.5717 122.171 111.053 104.948 111.053 83.7028C111.053 62.4575 89.5717 45.2349 63.0737 45.2349C36.5756 45.2349 15.0947 62.4575 15.0947 83.7028C15.0947 104.948 36.5756 122.171 63.0737 122.171Z" fill="#BEBB32"/>
</g>
<path d="M98.7321 120.948C130.547 114.602 153.476 95.11 149.946 77.4107C146.416 59.7115 117.763 50.5076 85.948 56.8533C54.133 63.199 31.2036 82.6914 34.7339 100.391C38.2641 118.09 66.9171 127.294 98.7321 120.948Z" stroke="#66652B" stroke-width="2.58452" stroke-miterlimit="10"/>
</g>
<path d="M138.774 146.314C138.774 146.314 153.946 111.118 149.092 85.2315C144.238 59.345 83.9621 57.3187 57.7706 71.0735C31.5791 84.8283 30.9692 102.424 40.2734 116.99C49.5777 131.556 64.3766 156.027 64.3766 156.027C64.3766 156.027 94.6826 178.274 138.774 146.319V146.314Z" stroke="#66652B" stroke-width="2.58452" stroke-miterlimit="10"/>
<path d="M153.336 125.55L166.01 163.558L203.227 173.012L184.433 110.446L153.336 125.55Z" fill="#F9ED31"/>
<mask id="mask4_2675_62179" style="mask-type:luminance" maskUnits="userSpaceOnUse" x="153" y="110" width="51" height="64">
<path d="M153.335 125.55L166.009 163.558L203.226 173.012L184.432 110.446L153.335 125.55Z" fill="white"/>
</mask>
<g mask="url(#mask4_2675_62179)">
<path d="M159.533 124.351L178.286 176.739C178.286 176.739 138.701 163.088 139.105 161.015C139.508 158.942 148.61 122.94 148.61 122.94L160.484 123.751" fill="#BEBB32"/>
</g>
<path d="M153.336 125.55L166.01 163.558L203.227 173.012L184.433 110.446L153.336 125.55Z" stroke="#66652B" stroke-width="2.58452" stroke-linecap="round" stroke-linejoin="round"/>
<path d="M138.238 74.8476L127.176 106.131L150.049 131.753L181.657 124.47L193.789 92.6497L167.443 68.376L138.238 74.8476Z" fill="#C39C3D" stroke="#66652B" stroke-width="2.58452" stroke-miterlimit="10"/>
<path d="M200.803 180.027L157.279 203.634L125.02 189.196L166.01 163.558L200.803 180.027Z" fill="#BEBB32"/>
<mask id="mask5_2675_62179" style="mask-type:luminance" maskUnits="userSpaceOnUse" x="125" y="163" width="76" height="41">
<path d="M200.803 180.027L157.279 203.634L125.02 189.197L166.01 163.559L200.803 180.027Z" fill="white"/>
</mask>
<g mask="url(#mask5_2675_62179)">
<path d="M134.122 192.572L184.696 158.502L214.883 177.602L193.788 219.957L149.081 215.574L134.122 192.572Z" fill="#F9ED31"/>
</g>
<path d="M200.803 180.027L157.279 203.634L125.02 189.196L166.01 163.558L200.803 180.027Z" stroke="#66652B" stroke-width="2.58452" stroke-linecap="round" stroke-linejoin="round"/>
<path d="M198.869 158.502L202.855 169.947C204.385 174.346 202.467 179.199 198.337 181.36L166.01 163.558L198.869 158.502Z" fill="#C39C3D" stroke="#66652B" stroke-width="2.58452" stroke-linecap="round" stroke-linejoin="round"/>
<path d="M67.1729 186.746L11.0527 184.363C15.4619 178.31 15.4981 168.644 27.5264 161.351C34.8768 156.895 35.3989 153.933 40.9246 152.326C48.1147 153.075 61.7351 154.15 68.9252 154.895L67.1729 186.741V186.746Z" fill="#F9ED31"/>
<mask id="mask6_2675_62179" style="mask-type:luminance" maskUnits="userSpaceOnUse" x="11" y="152" width="58" height="35">
<path d="M67.1739 186.747L11.0537 184.364C15.4629 178.311 15.4991 168.645 27.5274 161.352C34.8778 156.896 35.3998 153.934 40.9255 152.327C48.1157 153.076 61.7361 154.151 68.9262 154.896L67.1739 186.742V186.747Z" fill="white"/>
</mask>
<g mask="url(#mask6_2675_62179)">
<path d="M21.2715 169.54C21.2715 169.54 52.5493 176.507 64.9136 176.507C77.2779 176.507 57.7649 197.949 57.7649 197.949C57.7649 197.949 11.6054 194.713 10.3907 194.444C9.17597 194.175 3.33496 173.018 3.33496 173.018L21.2663 169.54H21.2715Z" fill="#BEBB32"/>
</g>
<path d="M67.1729 186.746L11.0527 184.363C15.4619 178.31 15.4981 168.644 27.5264 161.351C34.8768 156.895 35.3989 153.933 40.9246 152.326C48.1147 153.075 61.7351 154.15 68.9252 154.895L67.1729 186.741V186.746Z" stroke="#66652B" stroke-width="2.58452" stroke-linecap="round" stroke-linejoin="round"/>
<path d="M107.491 154.947C107.491 154.947 93.6021 132.834 67.1729 154.208V186.752C67.1729 186.752 96.1608 191.419 103.749 183.604L107.491 154.952V154.947Z" fill="#F9ED31"/>
<mask id="mask7_2675_62179" style="mask-type:luminance" maskUnits="userSpaceOnUse" x="67" y="144" width="41" height="45">
<path d="M107.492 154.947C107.492 154.947 93.6031 132.834 67.1738 154.208V186.752C67.1738 186.752 96.1617 191.42 103.75 183.604L107.492 154.952V154.947Z" fill="white"/>
</mask>
<g mask="url(#mask7_2675_62179)">
<path d="M72.7308 150.212C72.7308 150.212 70.0997 165.683 81.4406 168.345C92.7814 171.007 111.204 159.94 117.231 152.326C123.258 144.712 107.487 205.164 107.487 205.164L59.2137 215.569C59.2137 215.569 50.0335 165.409 50.4367 163.553C50.8399 161.698 72.7256 150.207 72.7256 150.207" fill="#BEBB32"/>
</g>
<path d="M107.491 154.947C107.491 154.947 93.6021 132.834 67.1729 154.208V186.752C67.1729 186.752 96.1608 191.419 103.749 183.604L107.491 154.952V154.947Z" stroke="#66652B" stroke-width="2.58452" stroke-miterlimit="10"/>
<path d="M175.392 217.414L167.333 226.786L157.45 233.423L156.339 214.142L164.025 214.447L169.458 212.018L175.392 217.414Z" fill="#BEBB32"/>
<mask id="mask8_2675_62179" style="mask-type:luminance" maskUnits="userSpaceOnUse" x="156" y="212" width="20" height="22">
<path d="M175.391 217.414L167.332 226.786L157.449 233.423L156.338 214.142L164.024 214.447L169.457 212.018L175.391 217.414Z" fill="white"/>
</mask>
<g mask="url(#mask8_2675_62179)">
<path d="M156.338 220.763L166.015 218.132L174.234 212.012L188.19 216.917L168.77 240.379C168.77 240.379 145.308 241.997 145.308 241.392C145.308 240.788 156.338 220.763 156.338 220.763Z" fill="#F9ED31"/>
</g>
<path d="M175.392 217.414L167.333 226.786L157.45 233.423L156.339 214.142L164.025 214.447L169.458 212.018L175.392 217.414Z" stroke="#66652B" stroke-width="2.58452" stroke-linecap="round" stroke-linejoin="round"/>
<path d="M125.02 189.196L121.649 227.561L157.45 233.423L161.229 202.62L125.02 189.196Z" fill="#F9ED31"/>
<mask id="mask9_2675_62179" style="mask-type:luminance" maskUnits="userSpaceOnUse" x="121" y="189" width="41" height="45">
<path d="M125.021 189.196L121.65 227.56L157.451 233.422L161.23 202.62L125.021 189.196Z" fill="white"/>
</mask>
<g mask="url(#mask9_2675_62179)">
<path d="M130.741 199.193C129.542 203.163 127.686 211.242 129.594 221.172C131.346 230.29 135.45 236.71 137.885 239.982C126.911 243.435 114.164 241.584 109.569 233.427C108.897 232.228 119.411 194.2 119.411 194.2L130.736 199.198L130.741 199.193Z" fill="#BEBB32"/>
</g>
<path d="M125.02 189.196L121.649 227.561L157.45 233.423L161.229 202.62L125.02 189.196Z" stroke="#66652B" stroke-width="2.58452" stroke-linecap="round" stroke-linejoin="round"/>
<path d="M124.043 200.33L161.317 204.709L130.494 185.774L125.02 189.196L124.043 200.33Z" fill="#C39C3D" stroke="#66652B" stroke-width="2.58452" stroke-linecap="round" stroke-linejoin="round"/>
<path d="M67.1733 154.202L57.7656 186.281L72.058 187.377L67.1733 154.202Z" fill="#C39C3D" stroke="#66652B" stroke-width="2.58452" stroke-linecap="round" stroke-linejoin="round"/>
<path d="M4.96908 161.015L40.9249 152.331L11.053 184.369C4.66928 183.976 0.275604 177.794 1.99689 171.632L4.96908 161.02V161.015Z" fill="#C39C3D" stroke="#66652B" stroke-width="2.58452" stroke-linecap="round" stroke-linejoin="round"/>
<path d="M83.7354 37.4441L93.0034 11.2061L95.2416 37.3458L83.7354 37.4441Z" fill="#F9ED31" stroke="#66652B" stroke-width="2.58452" stroke-miterlimit="10"/>
<path d="M56.4522 55.5981C56.4522 55.5981 63.8801 32.9422 92.4286 37.3927C120.977 41.8433 119.158 65.9103 118.749 70.7692C118.341 75.628 111.776 102.109 83.3518 101.111C53.6195 100.067 50.7869 68.9807 56.4522 55.6032V55.5981Z" fill="#BEBB32"/>
<mask id="mask10_2675_62179" style="mask-type:luminance" maskUnits="userSpaceOnUse" x="54" y="36" width="65" height="66">
<path d="M56.4532 55.5976C56.4532 55.5976 63.8811 32.9417 92.4296 37.3922C120.978 41.8428 119.159 65.9098 118.75 70.7687C118.342 75.6276 111.777 102.109 83.3528 101.111C53.6205 100.067 50.7879 68.9802 56.4532 55.6027V55.5976Z" fill="white"/>
</mask>
<g mask="url(#mask10_2675_62179)">
<path d="M92.1295 95.8908C109.347 95.8908 123.304 81.9336 123.304 64.7164C123.304 47.4993 109.347 33.542 92.1295 33.542C74.9123 33.542 60.9551 47.4993 60.9551 64.7164C60.9551 81.9336 74.9123 95.8908 92.1295 95.8908Z" fill="#F9ED31"/>
</g>
<path d="M56.4522 55.5981C56.4522 55.5981 63.8801 32.9422 92.4286 37.3927C120.977 41.8433 119.158 65.9103 118.749 70.7692C118.341 75.628 111.776 102.109 83.3518 101.111C53.6195 100.067 50.7869 68.9807 56.4522 55.6032V55.5981Z" stroke="#66652B" stroke-width="2.58452" stroke-miterlimit="10"/>
<path d="M128.757 42.0444C135.405 43.7037 139.318 45.394 139.183 46.8206C138.873 50.1598 116.527 50.8163 89.2763 48.2835C62.0252 45.7506 40.186 40.99 40.4962 37.6456C40.6306 36.2189 44.7865 35.2834 51.6251 34.875C34.8619 35.0301 23.8002 36.7824 23.5107 39.9045C23.03 45.0632 52.1834 51.9897 88.6199 55.3754C125.056 58.7611 154.985 57.3241 155.466 52.1706C155.755 49.0537 145.205 45.2854 128.757 42.0444Z" fill="#C39C3D" stroke="#66652B" stroke-width="2.58452" stroke-linejoin="round"/>
<path d="M108.365 25.9789C111.244 27.0231 112.914 28.1654 112.816 29.2302C112.583 31.7217 102.736 32.8434 90.8162 31.7372C78.8964 30.631 69.4267 27.7105 69.6593 25.2191C69.7576 24.1542 71.6132 23.3375 74.6319 22.8413C67.2557 23.4306 62.3348 25.0537 62.1177 27.3797C61.7611 31.2255 74.389 35.5468 90.3251 37.0303C106.261 38.5138 119.468 36.5909 119.825 32.7452C120.042 30.4191 115.503 27.9173 108.365 25.9789Z" fill="#C39C3D" stroke="#66652B" stroke-width="2.58452" stroke-linejoin="round"/>
<path d="M97.0506 17.3262C97.857 17.8896 98.3067 18.5461 98.2447 19.2129C98.0999 20.7687 95.2001 21.7715 91.773 21.4562C88.346 21.1357 85.6787 19.616 85.8235 18.0602C85.8855 17.3934 86.4489 16.8299 87.3432 16.4268C85.1825 17.0212 83.699 18.1842 83.5646 19.6367C83.3424 22.0403 86.878 24.3354 91.4629 24.7592C96.0478 25.1831 99.9453 23.5807 100.173 21.1823C100.307 19.7298 99.0665 18.3135 97.0506 17.3313V17.3262Z" fill="#C39C3D" stroke="#66652B" stroke-width="2.58452" stroke-linejoin="round"/>
<path d="M93.3176 11.7074C95.9982 11.7074 98.1713 9.53436 98.1713 6.85372C98.1713 4.17308 95.9982 2 93.3176 2C90.637 2 88.4639 4.17308 88.4639 6.85372C88.4639 9.53436 90.637 11.7074 93.3176 11.7074Z" fill="#C39C3D" stroke="#66652B" stroke-width="2.58452" stroke-miterlimit="10"/>
<path d="M74.0686 78.1445C73.6396 78.5735 72.978 78.6407 72.368 78.6717C69.9489 78.8061 67.5195 78.8319 65.1004 78.7544C64.3302 78.7286 63.5497 78.6975 62.8053 78.894C62.2936 79.0335 61.8129 79.2765 61.3632 79.5608C60.3035 80.2379 59.3628 81.1994 59.0164 82.4089C58.5357 84.1095 59.2284 86.1978 58.0653 87.5263C57.7087 87.9346 57.2073 88.2086 56.6697 88.2913C55.2689 88.498 53.8888 87.1799 53.9456 85.7636C53.6096 86.3684 53.9611 87.1696 54.5245 87.5624C55.088 87.9553 55.8065 88.0587 56.4939 88.1414C57.5794 88.2758 58.8097 88.374 59.6315 87.6555C60.2622 87.1076 60.4793 86.2185 60.9962 85.5568C61.7095 84.6419 62.9294 84.2594 64.0872 84.2388C65.2451 84.2181 66.3823 84.4972 67.5298 84.6678C68.5378 84.8177 69.5561 84.8849 70.5796 84.8694C71.0396 84.859 71.51 84.8332 71.9442 84.6781C73.102 84.2594 73.7585 82.9982 73.9601 81.7835C74.1617 80.5687 74.0273 79.3178 74.172 78.0928" fill="#66652B"/>
<path d="M73.1536 77.2302C72.9313 77.4266 72.3834 77.3801 72.1197 77.3956C71.4529 77.4318 70.7861 77.4577 70.1142 77.4783C68.7754 77.5145 67.4418 77.5197 66.103 77.4938C64.8986 77.468 63.6477 77.3388 62.464 77.6541C61.2803 77.9694 60.2051 78.6827 59.3522 79.5149C58.4994 80.3471 57.9101 81.3241 57.6878 82.4406C57.4862 83.4537 57.5793 84.472 57.4862 85.4955C57.4242 86.1623 57.1709 87.0721 56.3284 87.0307C55.7132 86.9997 55.248 86.3639 55.248 85.7746C55.248 84.5754 53.3872 83.9034 52.8393 85.1233C52.3534 86.2088 52.5136 87.3874 53.3613 88.2609C54.2091 89.1345 55.3049 89.2947 56.4007 89.4343C57.3725 89.5584 58.4063 89.6359 59.3419 89.2947C60.4481 88.8916 61.089 88.0593 61.6215 87.0514C62.0401 86.2605 62.4898 85.8263 63.3789 85.6247C64.3869 85.3973 65.462 85.6351 66.4597 85.8056C68.6668 86.1882 71.6959 86.7723 73.5722 85.2009C75.6915 83.4227 75.216 80.5384 75.4745 78.1038C75.5468 77.4111 74.8283 76.8115 74.1822 76.8115C73.4223 76.8115 72.9623 77.406 72.8899 78.1038C72.7607 79.3288 72.9365 80.6159 72.647 81.8151C72.4764 82.513 72.1353 83.2987 71.3909 83.5106C70.8223 83.6708 70.1504 83.6036 69.5714 83.5778C68.9925 83.5519 68.4446 83.5106 67.8863 83.4331C66.5992 83.2521 65.3121 82.911 64.0044 82.9627C62.9189 83.004 61.792 83.278 60.903 83.9241C60.4532 84.2446 60.0914 84.6168 59.7813 85.0768C59.4918 85.5058 59.3161 86.0072 59.0163 86.4311C58.5355 87.1134 57.6361 86.9842 56.8918 86.9066C56.4317 86.8601 55.8373 86.8394 55.4238 86.612C55.3256 86.5603 55.2635 86.4673 55.1757 86.4104C54.9948 86.2967 55.2222 86.0899 55.0723 86.4208L52.6635 85.7695C52.6635 87.7595 54.3073 89.5687 56.3284 89.61C57.388 89.6307 58.4373 89.1138 59.1041 88.3023C59.7709 87.4907 59.9984 86.519 60.0759 85.4955C60.1379 84.6529 60.0294 83.769 60.2206 82.942C60.4119 82.1149 60.965 81.4481 61.6318 80.9416C62.402 80.3575 63.2135 80.0422 64.1801 80.0318C65.3225 80.0163 66.47 80.0887 67.6124 80.0939C68.9511 80.0939 70.2847 80.068 71.6235 80.006C72.8537 79.9491 74.0168 79.9078 74.9886 79.0601C75.5158 78.6 75.4589 77.7006 74.9886 77.2302C74.4665 76.7081 73.686 76.7702 73.1587 77.2302H73.1536Z" fill="#66652B"/>
<path d="M77.9403 78.1445C78.3693 78.5735 79.031 78.6407 79.6409 78.6717C82.06 78.8061 84.4895 78.8319 86.9086 78.7544C87.6788 78.7286 88.4593 78.6975 89.2036 78.894C89.7154 79.0335 90.1961 79.2765 90.6458 79.5608C91.7054 80.2379 92.6462 81.1994 92.9925 82.4089C93.4732 84.1095 92.7806 86.1978 93.9436 87.5263C94.3003 87.9346 94.8017 88.2086 95.3393 88.2913C96.7401 88.498 98.1202 87.1799 98.0633 85.7636C98.3993 86.3684 98.0478 87.1696 97.4844 87.5624C96.921 87.9553 96.2025 88.0587 95.515 88.1414C94.4295 88.2758 93.1993 88.374 92.3774 87.6555C91.7468 87.1076 91.5297 86.2185 91.0128 85.5568C90.2995 84.6419 89.0796 84.2594 87.9217 84.2388C86.7638 84.2181 85.6266 84.4972 84.4791 84.6678C83.4712 84.8177 82.4529 84.8849 81.4294 84.8694C80.9693 84.859 80.499 84.8332 80.0648 84.6781C78.9069 84.2594 78.2504 82.9982 78.0488 81.7835C77.8473 80.5687 77.9816 79.3178 77.8369 78.0928" fill="#66652B"/>
<path d="M77.0251 79.0598C77.8625 79.7886 78.8136 79.923 79.8887 79.9799C81.0569 80.0419 82.2251 80.0781 83.3985 80.0884C84.5719 80.0987 85.7401 80.0884 86.9083 80.0522C87.9576 80.0212 88.8725 80.016 89.7978 80.564C90.5214 80.993 91.2037 81.5719 91.5811 82.3369C91.9584 83.1019 91.8912 83.9238 91.9067 84.725C91.9481 86.7668 92.5477 88.9274 94.791 89.5064C97.0344 90.0853 99.3501 88.0797 99.3501 85.7743L96.9414 86.4256C96.7915 86.0948 97.0137 86.3016 96.838 86.4153C96.7501 86.4722 96.6881 86.56 96.5899 86.6169C96.1763 86.8443 95.5819 86.865 95.1219 86.9115C94.3827 86.9891 93.4781 87.1131 92.9974 86.436C92.6976 86.0121 92.527 85.5107 92.2324 85.0817C91.9222 84.6268 91.5552 84.2495 91.1107 83.929C90.2165 83.288 89.0948 83.0141 88.0093 82.9675C86.7015 82.9159 85.4144 83.257 84.1273 83.4379C83.5691 83.5155 83.0057 83.562 82.4422 83.5827C81.8788 83.6033 81.1913 83.6757 80.6227 83.5155C79.8784 83.3035 79.5321 82.5127 79.3667 81.82C79.0772 80.6208 79.2529 79.3286 79.1237 78.1087C79.0513 77.416 78.581 76.8164 77.8315 76.8164C77.1905 76.8164 76.4668 77.4108 76.5392 78.1087C76.777 80.3624 76.3893 82.7246 77.8935 84.6268C79.4752 86.6324 82.3078 86.2861 84.5615 85.9708C86.1071 85.7537 88.8156 84.8439 90.0045 86.3843C90.6713 87.2527 90.9091 88.2503 91.8705 88.9068C92.7234 89.4909 93.8244 89.5994 94.8272 89.5219C96.0523 89.4288 97.4066 89.2996 98.3939 88.4932C99.4328 87.6404 99.7171 86.3326 99.1744 85.1282C98.6316 83.9238 96.7656 84.5803 96.7656 85.7795C96.7656 86.3688 96.3004 87.0046 95.6853 87.0356C94.8427 87.0769 94.5843 86.1723 94.5274 85.5004C94.4344 84.4769 94.5274 83.4586 94.3258 82.4455C94.1036 81.3238 93.4729 80.3055 92.6614 79.5198C91.8085 78.6876 90.7075 77.9691 89.5497 77.659C88.3918 77.3488 87.115 77.4729 85.9107 77.4987C84.5719 77.5246 83.2383 77.5194 81.8995 77.4832C81.2327 77.4625 80.5607 77.4367 79.8939 77.4005C79.6303 77.385 79.0824 77.4315 78.8601 77.2351C78.3328 76.7751 77.5472 76.7182 77.0303 77.2351C76.5599 77.7055 76.503 78.5997 77.0303 79.0649L77.0251 79.0598Z" fill="#66652B"/>
<path d="M89.8116 75.2059C91.6741 74.9215 92.8903 72.767 92.528 70.3936C92.1656 68.0203 90.362 66.3268 88.4994 66.6111C86.6369 66.8955 85.4207 69.05 85.783 71.4233C86.1453 73.7967 87.949 75.4902 89.8116 75.2059Z" fill="#66652B"/>
<path d="M84.1998 60.2757C84.1998 60.2757 81.6721 60.9838 81.4705 62.55C81.2689 64.1163 82.1787 68.6185 83.29 69.0734C84.4014 69.5282 101.04 67.962 103.568 65.4809C103.568 65.4809 104.276 61.4852 102.302 60.2705C102.302 60.2705 88.1748 63.2685 86.6602 62.9687C85.1457 62.6689 84.1998 60.2705 84.1998 60.2705V60.2757Z" fill="#66652B" stroke="#66652B" stroke-width="0.516903" stroke-miterlimit="10"/>
<path d="M68.2751 70.1562C68.6374 67.7828 67.4212 65.6283 65.5586 65.344C63.696 65.0596 61.8924 66.7531 61.5301 69.1265C61.1677 71.4998 62.3839 73.6543 64.2465 73.9387C66.1091 74.223 67.9127 72.5295 68.2751 70.1562Z" fill="#66652B"/>
<path d="M69.8558 59.0198C69.8558 59.0198 72.3834 59.728 72.585 61.2942C72.7866 62.8604 71.8769 67.3626 70.7655 67.8175C69.6542 68.2724 56.9022 66.7062 54.3745 64.225C54.3745 64.225 53.6664 60.2294 55.6409 59.0146C55.6409 59.0146 65.8756 62.0127 67.3953 61.7129C68.915 61.4131 69.8558 59.0146 69.8558 59.0146V59.0198Z" fill="#66652B" stroke="#66652B" stroke-width="0.516903" stroke-miterlimit="10"/>
<path d="M73.1181 86.3945C73.1181 86.3945 63.8139 93.4761 61.8393 96.6085C61.8393 96.6085 58.4019 96.6085 55.4659 100.351L58.5621 99.4929C58.5621 99.4929 56.0706 100.403 56.0241 102.274L58.0969 101.059C58.0969 101.059 54.6078 104.801 55.4659 108.596C55.4659 108.596 57.642 103.132 59.3581 102.021C59.3581 102.021 58.5466 106.823 61.281 110.312C61.281 110.312 60.6246 104.848 61.5343 101.819C61.5343 101.819 61.1828 107.381 62.8989 108.596C62.8989 108.596 64.0103 102.982 62.9506 99.2396C62.9506 99.2396 63.4417 101.162 64.5168 103.184C64.5168 103.184 64.7184 99.4929 63.2039 96.9652C63.2039 96.9652 65.6799 93.2745 73.1129 86.3945H73.1181Z" fill="#66652B"/>
<path d="M98.296 137.428L84.1225 135.712C81.4191 135.387 78.9638 137.309 78.633 140.013L76.6895 156.032C80.2819 159.133 84.9547 161.015 90.0721 161.015C93.9902 161.015 97.6499 159.914 100.762 158.006L102.591 142.918C102.917 140.214 100.994 137.759 98.2908 137.428H98.296Z" fill="#C39C3D"/>
<mask id="mask11_2675_62179" style="mask-type:luminance" maskUnits="userSpaceOnUse" x="76" y="135" width="27" height="27">
<path d="M98.296 137.427L84.1225 135.711C81.4191 135.386 78.9638 137.308 78.633 140.012L76.6895 156.031C80.2819 159.132 84.9547 161.014 90.0721 161.014C93.9902 161.014 97.6499 159.913 100.762 158.005L102.591 142.917C102.917 140.213 100.994 137.758 98.2908 137.427H98.296Z" fill="white"/>
</mask>
<g mask="url(#mask11_2675_62179)">
<path d="M75.3869 143.636C75.3869 143.636 86.7122 156.698 107.14 146.313L105.186 163.557C105.186 163.557 71.6083 169.895 70.8019 154.201C69.9956 138.508 75.3869 143.631 75.3869 143.631V143.636Z" fill="white" stroke="#66652B" stroke-width="2.86881" stroke-miterlimit="10"/>
</g>
<path d="M98.296 137.428L84.1225 135.712C81.4191 135.387 78.9638 137.309 78.633 140.013L76.6895 156.032C80.2819 159.133 84.9547 161.015 90.0721 161.015C93.9902 161.015 97.6499 159.914 100.762 158.006L102.591 142.918C102.917 140.214 100.994 137.759 98.2908 137.428H98.296Z" stroke="#66652B" stroke-width="2.86881" stroke-miterlimit="10"/>
<path d="M102.81 141.127C103.137 138.429 98.0375 135.592 91.42 134.79C84.8025 133.988 79.1729 135.525 78.8459 138.223C78.519 140.921 83.6184 143.759 90.2359 144.561C96.8534 145.362 102.483 143.825 102.81 141.127Z" fill="#C39C3D" stroke="#66652B" stroke-width="2.86881" stroke-miterlimit="10"/>
<path d="M89.3378 140.726C90.0123 139.714 89.556 138.225 88.3184 137.4C87.0809 136.575 85.5308 136.727 84.8562 137.739C84.1816 138.751 84.638 140.24 85.8755 141.065C87.1131 141.89 88.6632 141.738 89.3378 140.726Z" fill="#66652B"/>
<path d="M101.082 135.495C98.8132 131.97 87.6843 134.798 88.5269 139.455C90.2688 143.482 97.5106 142.101 100.043 139.625C101.16 138.638 101.992 136.927 101.124 135.563L101.082 135.495ZM90.915 138.974L92.8585 139.424C92.3313 139.382 91.5559 139.305 91.1217 138.953C90.7289 138.416 92.3054 137.744 92.7138 138.147C93.1221 138.354 93.7528 139.341 92.9567 139.419H92.8585L90.915 138.974ZM98.6013 137.144C98.4617 138.059 97.1281 138.767 96.2287 138.721C95.4327 138.685 94.7762 137.734 95.2001 137.144C95.7325 136.333 98.2446 136.064 98.591 137.077V137.144H98.6013Z" fill="white" stroke="#66652B" stroke-width="1.03381" stroke-miterlimit="10"/>
<path d="M63.3382 67.6777C63.3382 67.6777 63.3072 69.8746 65.0595 69.8539C66.8118 69.8332 66.8428 68.2515 66.8428 68.2515L63.333 67.6829L63.3382 67.6777Z" fill="white"/>
<path d="M90.6827 68.8408C90.6827 68.8408 90.5844 71.0377 88.8321 70.9084C87.0798 70.7792 87.1419 69.2027 87.1419 69.2027L90.6775 68.8408H90.6827Z" fill="white"/>
</svg>
