<svg width="86" height="85" viewBox="0 0 86 85" fill="none" xmlns="http://www.w3.org/2000/svg">
<path d="M84.3031 82.8195C84.0111 87.6829 65.5108 90.7012 42.9435 89.565C20.347 88.4262 2.22631 83.5469 2.4732 78.6729C2.47851 78.5429 2.49974 78.4128 2.5316 78.2854C2.55018 78.2243 2.56876 78.1606 2.58735 78.0995C2.59 78.0942 2.59266 78.0889 2.59266 78.0836C4.23855 73.5548 22.1602 70.8125 43.8328 71.9062C65.009 72.976 82.2511 77.3244 84.1359 81.8798C84.1359 81.8824 84.1359 81.8851 84.1359 81.8877C84.1969 82.1983 84.25 82.5063 84.3005 82.8195H84.3031Z" fill="#AF4132" stroke="#86211A" stroke-width="1.32733" stroke-miterlimit="10"/>
<path d="M69.1849 81.1781C68.9964 84.3132 57.0876 86.2617 42.5613 85.529C28.0164 84.7937 16.3519 81.6479 16.5111 78.5048C16.5138 78.4199 16.5271 78.3376 16.5483 78.2553C16.5616 78.2155 16.5722 78.1756 16.5855 78.1358C16.5855 78.1332 16.5881 78.1278 16.5881 78.1252C17.6473 75.2051 29.1845 73.4371 43.1347 74.1405C56.7664 74.8308 67.8629 77.6341 69.0761 80.5728C69.0761 80.5728 69.0761 80.5754 69.0761 80.5781C69.1159 80.7772 69.1504 80.9763 69.1823 81.1781H69.1849Z" fill="#86211A"/>
<path d="M32.6806 59.0489C32.6806 59.0489 19.7311 58.9109 20.2833 69.2986C20.8355 79.6863 39.6039 61.0585 39.6039 61.0585L32.6779 59.0489H32.6806Z" fill="#AB5954" stroke="#86211A" stroke-width="1.32733" stroke-miterlimit="10"/>
<path d="M54.8232 80.3533L72.2059 54.7305C72.2059 54.7305 80.0319 66.5729 69.5751 73.637C69.5751 73.637 75.3915 77.5154 63.411 81.9461C51.4305 86.3793 54.8232 80.3533 54.8232 80.3533Z" fill="#E1675A" stroke="#86211A" stroke-width="1.32733" stroke-miterlimit="10"/>
<path d="M32.1101 58.3894L23.7983 88.7906L58.9089 90.9674L51.0829 57.9727L32.1101 58.3894Z" fill="#E1675A"/>
<mask id="mask0_2409_33162" style="mask-type:luminance" maskUnits="userSpaceOnUse" x="23" y="57" width="36" height="34">
<path d="M32.1098 58.3894L23.7981 88.7906L58.9086 90.9674L51.0827 57.9727L32.1098 58.3894Z" fill="white"/>
</mask>
<g mask="url(#mask0_2409_33162)">
<path d="M27.8572 54.7324L60.8653 55.5182L58.9088 76.7104C58.9088 76.7104 53.5145 80.7746 45.5027 79.8322C37.491 78.8898 17.2625 72.139 17.2625 72.139L27.8572 54.7324Z" fill="#AB5954"/>
</g>
<path d="M32.1101 58.3894L23.7983 88.7906L58.9089 90.9674L51.0829 57.9727L32.1101 58.3894Z" stroke="#86211A" stroke-width="1.32733" stroke-miterlimit="10"/>
<path d="M31.6535 60.0568C31.6535 60.0568 31.7278 73.2452 51.4891 59.5684L52.1846 62.3027L46.7213 64.7768L51.0829 92.0057L23.7983 88.7909L31.6535 60.0568Z" fill="white"/>
<mask id="mask1_2409_33162" style="mask-type:luminance" maskUnits="userSpaceOnUse" x="23" y="59" width="30" height="34">
<path d="M31.6535 60.0568C31.6535 60.0568 31.7278 73.2452 51.4891 59.5684L52.1846 62.3027L46.7213 64.7768L51.0829 92.0057L23.7983 88.7909L31.6535 60.0568Z" fill="white"/>
</mask>
<g mask="url(#mask1_2409_33162)">
<path d="M28.7466 89.8047L35.2797 57.9727L20.2676 59.0478L16.5112 90.4206L28.7466 89.8047Z" fill="#BCBEC0"/>
<path d="M58.2902 56.4941L23.0256 58.8488L27.504 69.1542L51.6349 73.983L58.2902 56.4941Z" fill="#BCBEC0"/>
</g>
<path d="M31.6535 60.0568C31.6535 60.0568 31.7278 73.2452 51.4891 59.5684L52.1846 62.3027L46.7213 64.7768L51.0829 92.0057L23.7983 88.7909L31.6535 60.0568Z" stroke="#86211A" stroke-width="1.32733" stroke-miterlimit="10"/>
<path d="M20.1692 35.8113C20.1692 35.8113 13.4184 36.1218 13.936 38.7712C14.4537 41.4205 20.8435 41.471 20.8435 41.471C20.8435 41.471 14.7139 40.8471 14.2466 43.8602C13.7794 46.8732 23.0256 46.6131 23.0256 46.6131L20.1692 35.8086V35.8113Z" fill="#AB5954" stroke="#86211A" stroke-width="1.32733" stroke-miterlimit="10"/>
<path d="M49.976 67.2188C49.976 67.2188 48.9513 61.1237 54.38 60.7786C59.8088 60.4335 61.0167 72.7538 58.7709 74.3121C52.1846 78.8834 41.5262 79.0612 31.6243 71.7901C21.7224 64.519 31.6243 71.5087 40.7643 68.9496C49.9043 66.3906 49.976 67.2188 49.976 67.2188Z" fill="#E1675A"/>
<mask id="mask2_2409_33162" style="mask-type:luminance" maskUnits="userSpaceOnUse" x="27" y="60" width="33" height="18">
<path d="M49.976 67.2188C49.976 67.2188 48.9513 61.1237 54.38 60.7786C59.8088 60.4335 61.0167 72.7538 58.7709 74.3121C52.1846 78.8834 41.5262 79.0612 31.6243 71.7901C21.7224 64.519 31.6243 71.5087 40.7643 68.9496C49.9043 66.3906 49.976 67.2188 49.976 67.2188Z" fill="white"/>
</mask>
<g mask="url(#mask2_2409_33162)">
<path d="M49.9757 67.2188C49.9757 67.2188 50.3341 62.1829 56.1 61.1343C56.1 61.1343 48.821 58.3522 49.9757 67.2188Z" fill="#AB5954"/>
<path d="M30.8276 68.9763C30.8276 68.9763 49.3147 72.8096 50.3022 67.9569C51.9826 59.6982 30.8276 68.9763 30.8276 68.9763Z" fill="#AB5954"/>
</g>
<path d="M49.976 67.2188C49.976 67.2188 48.9513 61.1237 54.38 60.7786C59.8088 60.4335 61.0167 72.7538 58.7709 74.3121C52.1846 78.8834 41.5262 79.0612 31.6243 71.7901C21.7224 64.519 31.6243 71.5087 40.7643 68.9496C49.9043 66.3906 49.976 67.2188 49.976 67.2188Z" stroke="#86211A" stroke-width="1.32733" stroke-linejoin="round"/>
<path d="M20.7 65.7451C20.7 65.7451 31.1435 55.891 44.9397 67.8555C44.9397 67.8555 25.9801 78.437 21.1327 71.7871C21.1327 71.7871 19.5054 70.2102 20.7 65.7451Z" fill="#E1675A"/>
<mask id="mask3_2409_33162" style="mask-type:luminance" maskUnits="userSpaceOnUse" x="20" y="61" width="25" height="13">
<path d="M20.7003 65.747C20.7003 65.747 31.1437 55.8929 44.94 67.8575C44.94 67.8575 25.9804 78.439 21.133 71.789C21.133 71.789 19.5057 70.2122 20.7003 65.747Z" fill="white"/>
</mask>
<g mask="url(#mask3_2409_33162)">
<path d="M26.7156 62.5537C26.7156 62.5537 23.8512 65.511 24.921 69.1532C25.9909 72.7954 31.1436 73.3874 31.1436 73.3874L23.0229 78.2852L15.7412 68.6594C15.7412 68.6594 23.4902 61.3113 26.7129 62.5511" fill="#AB5954"/>
</g>
<path d="M20.7 65.7451C20.7 65.7451 31.1435 55.891 44.9397 67.8555C44.9397 67.8555 25.9801 78.437 21.1327 71.7871C21.1327 71.7871 19.5054 70.2102 20.7 65.7451Z" stroke="#86211A" stroke-width="1.32733" stroke-miterlimit="10"/>
<path d="M72.8883 44.177C72.1954 45.9768 68.5957 45.9078 68.5957 45.9078C68.5957 45.9078 71.7813 49.1624 70.1885 49.7146C68.5957 50.2694 64.1704 49.3005 64.1704 49.3005C64.1704 49.3005 63.3342 51.4189 61.1441 53.8638C62.3679 48.8678 63.0421 38.2252 44.4091 43.4496C44.4091 43.4496 38.3777 32.9504 26.1875 42.0426C26.1875 42.0426 20.6047 38.8597 18.0748 41.1454C18.035 40.2136 18.0695 39.303 18.1784 38.427C19.288 29.425 23.3045 17.8587 31.1278 10.7283C38.9537 3.59518 37.7777 7.95679 37.7777 7.95679L39.0918 17.2375C39.0918 17.2375 44.494 16.8897 49.8618 18.7267C49.8618 18.7267 56.509 13.8422 62.5351 12.3901C62.5351 12.3901 68.6647 25.9979 68.0409 40.5401C68.0409 40.5401 73.5812 42.3745 72.8883 44.177Z" fill="#E1675A"/>
<mask id="mask4_2409_33162" style="mask-type:luminance" maskUnits="userSpaceOnUse" x="18" y="6" width="55" height="48">
<path d="M72.888 44.175C72.1952 45.9749 68.5955 45.9059 68.5955 45.9059C68.5955 45.9059 71.781 49.1605 70.1883 49.7127C68.5955 50.2675 64.1701 49.2985 64.1701 49.2985C64.1701 49.2985 63.3339 51.417 61.1438 53.8619C62.3676 48.8658 63.0419 38.2233 44.4088 43.4477C44.4088 43.4477 38.3774 32.9485 26.1872 42.0407C26.1872 42.0407 20.6045 38.8577 18.0746 41.1434C18.0348 40.2116 18.0693 39.3011 18.1781 38.425C19.2878 29.4231 23.3043 17.8567 31.1276 10.7263C38.9535 3.59323 37.7775 7.95483 37.7775 7.95483L39.0915 17.2355C39.0915 17.2355 44.4938 16.8878 49.8615 18.7248C49.8615 18.7248 56.5088 13.8402 62.5349 12.3881C62.5349 12.3881 68.6645 25.9959 68.0406 40.5381C68.0406 40.5381 73.5809 42.3725 72.888 44.175Z" fill="white"/>
</mask>
<g mask="url(#mask4_2409_33162)">
<path d="M37.305 6.63477C37.305 6.63477 10.6336 30.5426 27.8597 57.1848L14.1458 52.9745C14.1458 52.9745 17.2623 13.9032 37.305 6.63477Z" fill="#AB5954"/>
<path d="M62.5351 12.3867C62.5351 12.3867 58.9115 13.6716 52.1846 24.8291L51.1758 13.3397L62.5351 12.3867Z" fill="#AB5954"/>
</g>
<path d="M72.8883 44.177C72.1954 45.9768 68.5957 45.9078 68.5957 45.9078C68.5957 45.9078 71.7813 49.1624 70.1885 49.7146C68.5957 50.2694 64.1704 49.3005 64.1704 49.3005C64.1704 49.3005 63.3342 51.4189 61.1441 53.8638C62.3679 48.8678 63.0421 38.2252 44.4091 43.4496C44.4091 43.4496 38.3777 32.9504 26.1875 42.0426C26.1875 42.0426 20.6047 38.8597 18.0748 41.1454C18.035 40.2136 18.0695 39.303 18.1784 38.427C19.288 29.425 23.3045 17.8587 31.1278 10.7283C38.9537 3.59518 37.7777 7.95679 37.7777 7.95679L39.0918 17.2375C39.0918 17.2375 44.494 16.8897 49.8618 18.7267C49.8618 18.7267 56.509 13.8422 62.5351 12.3901C62.5351 12.3901 68.6647 25.9979 68.0409 40.5401C68.0409 40.5401 73.5811 42.3745 72.8883 44.177Z" stroke="#86211A" stroke-width="1.32733" stroke-linecap="round" stroke-linejoin="round"/>
<path d="M61.1439 53.863C57.9477 57.4283 51.8712 61.689 41.3083 61.0731C25.2449 60.1334 18.4331 49.7749 18.0747 41.1446C20.6046 38.8589 26.1874 42.0418 26.1874 42.0418C38.3776 32.9496 44.4089 43.4488 44.4089 43.4488C63.042 38.2244 62.3677 48.867 61.1439 53.863Z" fill="#F9B7B1"/>
<mask id="mask5_2409_33162" style="mask-type:luminance" maskUnits="userSpaceOnUse" x="18" y="38" width="44" height="24">
<path d="M61.1439 53.865C57.9477 57.4302 51.8712 61.6909 41.3083 61.0751C25.2449 60.1353 18.4331 49.7768 18.0747 41.1465C20.6046 38.8609 26.1874 42.0438 26.1874 42.0438C38.3776 32.9516 44.4089 43.4508 44.4089 43.4508C63.042 38.2264 62.3677 48.8689 61.1439 53.865Z" fill="white"/>
</mask>
<g mask="url(#mask5_2409_33162)">
<path d="M22.1365 40.6205C22.1365 40.6205 21.9108 54.7327 32.333 59.0492C40.2864 62.3436 27.8573 57.1909 27.8573 57.1909C27.8573 57.1909 18.2713 58.8899 17.6527 52.5001C17.0342 46.1104 16.5112 40.6232 16.5112 40.6232C16.5112 40.6232 20.5277 39.41 22.1365 40.6232" fill="#C39797"/>
</g>
<path d="M61.1439 53.863C57.9477 57.4283 51.8712 61.689 41.3083 61.0731C25.2449 60.1334 18.4331 49.7749 18.0747 41.1446C20.6046 38.8589 26.1874 42.0418 26.1874 42.0418C38.3776 32.9496 44.4089 43.4488 44.4089 43.4488C63.042 38.2244 62.3677 48.867 61.1439 53.863Z" stroke="#86211A" stroke-width="1.32733" stroke-linecap="round" stroke-linejoin="round"/>
<path d="M31.8657 33.961C31.8657 33.961 33.1639 33.5973 32.9037 32.2992C32.6436 31.001 29.4765 28.0411 27.9183 29.8569C26.36 31.6727 30.3075 34.5822 31.8657 33.961Z" fill="#F9B7B1" stroke="#86211A" stroke-width="0.796398" stroke-miterlimit="10"/>
<path d="M45.0541 34.619C45.0541 34.619 43.3869 34.25 43.7533 33.1006C44.1196 31.9511 48.2821 29.4238 50.2492 31.1016C52.2163 32.7767 47.0504 35.2296 45.0541 34.619Z" fill="#F9B7B1" stroke="#86211A" stroke-width="0.796398" stroke-miterlimit="10"/>
<path d="M68.7177 39.1648C63.573 40.4656 58.4043 41.7133 53.0154 40.2373C53.0154 40.2373 53.3446 39.4277 53.5145 38.4507C58.9565 39.3985 63.2199 38.3047 68.5584 37.0703L68.7177 39.1648Z" fill="white" stroke="#86211A" stroke-width="0.777816" stroke-linejoin="round"/>
<path d="M30.6739 36.8198C30.1005 36.3154 28.4785 35.5614 27.3476 34.6721C27.1325 34.5022 26.9122 34.3456 26.6414 34.3058C25.8902 34.1996 24.8973 34.2792 24.9239 34.6111C24.9557 35.0252 26.0441 37.0958 28.2103 38.1099C28.5422 38.2639 28.9271 38.2559 29.2456 38.0728L30.6845 37.2418C30.8491 37.1463 30.8172 36.9472 30.6739 36.8224V36.8198Z" fill="#86211A"/>
<path d="M42.7738 37.7947C42.6836 37.8452 42.9809 39.146 44.1596 39.1805C45.3383 39.215 49.8034 37.3806 50.3237 36.7223C50.844 36.0639 46.862 35.5463 42.7765 37.7947H42.7738Z" fill="#86211A"/>
<path d="M24.0556 44.1607C23.7317 45.0845 24.1193 46.1331 24.8281 46.7702C25.6351 47.4976 26.7634 47.6861 27.8173 47.6117C30.0923 47.4551 32.2452 46.4039 34.5442 46.4782C36.5962 46.5445 38.3934 47.7073 40.2225 48.5063C41.2499 48.955 42.2958 49.3027 43.4081 49.462C44.5204 49.6213 45.7176 49.6585 46.8698 49.547C48.0219 49.4355 49.2218 49.1514 49.9784 48.2462C50.6686 47.4153 50.9473 46.1702 50.3102 45.2278C49.835 44.5244 48.6829 45.188 49.1634 45.8968C49.5138 46.4145 49.2988 47.0834 48.8555 47.5082C48.2635 48.0763 47.3317 48.1931 46.5512 48.2488C44.5576 48.3869 42.625 48.132 40.7906 47.3197C39.0916 46.5658 37.4404 45.5597 35.5795 45.2597C33.5062 44.9252 31.5311 45.557 29.5269 46.0057C28.5287 46.2286 27.4084 46.4782 26.4023 46.1676C25.7042 45.9526 25.0723 45.2703 25.3352 44.5137C25.4546 44.1766 25.1998 43.789 24.8706 43.6961C24.5042 43.5952 24.1724 43.8209 24.053 44.1607H24.0556Z" fill="#86211A"/>
<path d="M37.467 41.0726C37.2945 40.6001 36.7476 40.3957 36.2591 40.2789C35.845 40.178 35.415 40.101 34.9929 40.1674C34.5708 40.2337 34.1566 40.4673 33.9708 40.8523C33.9416 40.916 33.9177 40.9823 33.9177 41.0514C33.9177 41.131 33.9496 41.2053 33.9788 41.277C34.2177 41.8425 34.4566 42.4106 34.7991 42.9203C34.9159 43.0955 35.0725 43.276 35.2822 43.2893C35.484 43.3025 35.6565 43.1565 35.8025 43.0185C36.429 42.4238 36.9573 41.7734 37.4617 41.0726" fill="#86211A"/>
<path d="M38.1068 40.8958C37.9449 40.4896 37.6847 40.171 37.2945 39.9587C36.9574 39.7728 36.5804 39.6667 36.2061 39.587C35.3407 39.4065 34.3425 39.4251 33.6921 40.1126C33.3364 40.487 33.1479 40.9834 33.355 41.4825C33.5275 41.8966 33.7001 42.3134 33.9072 42.7089C34.1142 43.1044 34.3452 43.5239 34.7168 43.7681C35.2186 44.0973 35.776 43.9274 36.1955 43.5611C36.9043 42.9425 37.4936 42.1647 38.0405 41.4055C38.2449 41.1241 38.0989 40.6542 37.8015 40.4976C37.4591 40.3171 37.1113 40.4339 36.8936 40.7365C36.806 40.8586 36.7158 40.9807 36.6255 41.1002C36.599 41.1347 36.5751 41.1692 36.5485 41.2011C36.5671 41.1798 36.6149 41.1161 36.5353 41.2196C36.4822 41.286 36.4291 41.3524 36.376 41.4187C36.1742 41.6656 35.9645 41.9072 35.7468 42.1382C35.6433 42.247 35.5398 42.3532 35.4309 42.4594C35.3725 42.5151 35.3115 42.5682 35.2557 42.624C35.2637 42.616 35.3433 42.5709 35.2796 42.6054C35.2584 42.6213 35.2345 42.6372 35.2106 42.6505L35.2716 42.6266C35.2716 42.6266 35.1044 42.6425 35.2902 42.624C35.3274 42.6213 35.3646 42.6266 35.3991 42.6399C35.4256 42.6478 35.5132 42.7328 35.4628 42.677C35.4469 42.6585 35.4256 42.6399 35.407 42.6213C35.3221 42.5364 35.3938 42.6054 35.4097 42.6293C35.3885 42.5974 35.3646 42.5656 35.3433 42.5337C35.2955 42.462 35.2531 42.3903 35.2106 42.3187C35.0487 42.0452 34.9106 41.7585 34.7832 41.4692C34.754 41.4002 34.7248 41.3338 34.6956 41.2648C34.685 41.2382 34.608 41.0604 34.6505 41.1612C34.6372 41.1294 34.6213 41.0789 34.6027 41.0471C34.5761 41.002 34.6 40.9462 34.5867 41.0524C34.5814 41.0896 34.5708 41.1214 34.5629 41.1559C34.5443 41.2409 34.5867 41.1188 34.5974 41.0975C34.6133 41.0657 34.6743 41.0046 34.5814 41.1081C34.5974 41.0896 34.6133 41.071 34.6319 41.0524C34.6743 41.0073 34.7726 40.9382 34.669 41.0073C34.7274 40.9701 34.7832 40.9356 34.8442 40.9011C34.8549 40.8958 34.9345 40.8533 34.8575 40.8905C34.7726 40.9329 34.9027 40.8745 34.9239 40.8692C34.9823 40.8506 35.0407 40.8347 35.0991 40.8241C35.115 40.8214 35.2186 40.8082 35.1522 40.8135C35.0858 40.8188 35.1947 40.8135 35.1973 40.8135C35.2876 40.8135 35.3752 40.8082 35.4654 40.8135C35.4999 40.8135 35.5318 40.8188 35.5663 40.8214C35.6035 40.8241 35.7176 40.8427 35.6247 40.8268C35.8052 40.856 35.9831 40.8958 36.1583 40.9409C36.2167 40.9568 36.5406 41.0126 36.5618 41.071C36.5618 41.0736 36.4477 41.0152 36.5167 41.0524C36.5539 41.071 36.591 41.0869 36.6255 41.1081C36.6468 41.1214 36.7662 41.217 36.7875 41.2117C36.7397 41.2249 36.7025 41.1294 36.7636 41.1984C36.7795 41.217 36.8804 41.2993 36.806 41.2356C36.7503 41.1878 36.7954 41.217 36.8087 41.2435C36.8273 41.2754 36.891 41.4108 36.8273 41.2542C36.9547 41.5754 37.2759 41.8355 37.6449 41.7187C37.9555 41.6178 38.2475 41.2462 38.1095 40.9011L38.1068 40.8958Z" fill="#86211A"/>
<path d="M36.5272 3.63196C36.5272 3.63196 34.0504 0.863153 30.6153 2.52497C27.1802 4.18679 29.5348 9.38196 29.5348 9.38196L32.9408 20.8076V23.5074C32.9408 23.5074 34.4513 27.3169 43.1081 27.5239C51.765 27.731 52.8029 23.7835 52.8029 23.7835L53.148 21.2908L57.7194 8.8935C57.7194 8.8935 59.0361 3.77001 55.2957 3.00812C51.5553 2.24623 49.4103 4.32483 49.4103 4.32483C49.4103 4.32483 44.5629 -2.6702 36.5299 3.63196H36.5272Z" fill="white"/>
<mask id="mask6_2409_33162" style="mask-type:luminance" maskUnits="userSpaceOnUse" x="28" y="1" width="30" height="27">
<path d="M36.5272 3.63196C36.5272 3.63196 34.0504 0.863153 30.6153 2.52497C27.1802 4.18679 29.5348 9.38196 29.5348 9.38196L32.9408 20.8076V23.5074C32.9408 23.5074 34.4513 27.3169 43.1081 27.5239C51.765 27.731 52.8029 23.7835 52.8029 23.7835L53.148 21.2908L57.7194 8.8935C57.7194 8.8935 59.0361 3.77001 55.2957 3.00812C51.5553 2.24623 49.4103 4.32483 49.4103 4.32483C49.4103 4.32483 44.5629 -2.6702 36.5299 3.63196H36.5272Z" fill="white"/>
</mask>
<g mask="url(#mask6_2409_33162)">
<path d="M35.2795 2.67235C35.2795 2.67235 30.5834 3.49264 32.0381 8.40907C33.4929 13.3255 35.2795 20.1135 35.2795 20.1135V25.237L31.4833 26.1369C31.4833 26.1369 23.384 4.1855 22.9672 3.56431C22.5504 2.94312 34.5335 -1.63086 34.5335 -1.63086L35.2821 2.67235" fill="#BCBEC0"/>
<path d="M42.5321 1.39795C42.5321 1.39795 38.0351 2.57662 37.8254 9.03275L36.3547 4.21189C36.3547 4.21189 36.4025 0.774104 42.5321 1.39795Z" fill="#BCBEC0"/>
<path d="M49.2801 5.20729L48.6562 8.7725C48.6562 8.7725 51.2791 2.87915 55.6805 3.10745C55.6805 3.10745 49.8323 0.739494 49.2801 5.20729Z" fill="#BCBEC0"/>
</g>
<path d="M36.5272 3.63196C36.5272 3.63196 34.0504 0.863153 30.6153 2.52497C27.1802 4.18679 29.5348 9.38196 29.5348 9.38196L32.9408 20.8076V23.5074C32.9408 23.5074 34.4513 27.3169 43.1081 27.5239C51.765 27.731 52.8029 23.7835 52.8029 23.7835L53.148 21.2908L57.7194 8.8935C57.7194 8.8935 59.0361 3.77001 55.2957 3.00812C51.5553 2.24623 49.4103 4.32483 49.4103 4.32483C49.4103 4.32483 44.5629 -2.6702 36.5299 3.63196H36.5272Z" stroke="#86211A" stroke-width="1.32733" stroke-miterlimit="10"/>
<path d="M48.1626 11.1797L46.8645 17.5164" stroke="#86211A" stroke-width="1.32733" stroke-miterlimit="10"/>
<path d="M37.8254 11.1797C37.8254 11.2938 38.8767 17.2376 38.8767 17.2376" stroke="#86211A" stroke-width="1.32733" stroke-miterlimit="10"/>
<path d="M35.2795 21.7734C35.2795 21.7734 42.6542 25.8775 51.173 22.1371" stroke="#86211A" stroke-width="1.32733" stroke-miterlimit="10"/>
<path d="M40.1801 34.4534C40.1616 34.0605 40.4562 33.7234 40.8465 33.6862C43.4746 33.434 52.6969 32.6164 53.8092 33.4181C55.1073 34.3525 53.0314 42.0404 50.7696 42.8713C48.5078 43.7022 41.0695 43.8854 40.7376 42.067C40.4748 40.6149 40.2545 36.1816 40.1775 34.4561L40.1801 34.4534Z" fill="#86211A" fill-opacity="0.5" stroke="#86211A" stroke-width="1.32733" stroke-miterlimit="10"/>
<path d="M84.3031 82.718C84.0111 87.5814 65.5108 90.5997 42.9435 89.4635C20.347 88.3247 2.22631 83.4454 2.4732 78.5715C2.47851 78.4414 2.49974 78.3113 2.5316 78.1839C2.55018 78.1228 2.56876 78.0591 2.58735 77.998L16.5588 78.8051C17.3632 81.8101 28.6667 84.7196 42.609 85.4231C55.946 86.0948 67.077 84.5179 68.9937 81.834L84.3031 82.718Z" fill="#AF4132"/>
<path d="M84.7944 88.8527C84.7944 110.576 66.0365 128.187 42.8959 128.187C19.7552 128.187 1 110.576 1 88.8527C1 85.1919 1.53359 81.6479 2.53174 78.2871C2.49988 78.4145 2.47865 78.5446 2.47334 78.6747C2.22645 83.5487 20.3472 88.4279 42.9436 89.5668C65.5109 90.703 84.0113 87.6846 84.3033 82.8213C84.6271 84.7884 84.7944 86.8006 84.7944 88.8527Z" fill="#AB5954"/>
<mask id="mask7_2409_33162" style="mask-type:luminance" maskUnits="userSpaceOnUse" x="1" y="78" width="84" height="51">
<path d="M84.7944 88.8507C84.7944 110.574 66.0365 128.185 42.8959 128.185C19.7552 128.185 1 110.574 1 88.8507C1 85.1899 1.53359 81.646 2.53174 78.2852C2.49988 78.4126 2.47865 78.5427 2.47334 78.6727C2.22645 83.5467 20.3472 88.426 42.9436 89.5648C65.5109 90.701 84.0113 87.6827 84.3033 82.8193C84.6271 84.7864 84.7944 86.7987 84.7944 88.8507Z" fill="white"/>
</mask>
<g mask="url(#mask7_2409_33162)">
<path d="M91.0217 90.2271C91.5515 70.773 70.6535 54.4214 44.3448 53.7049C18.0361 52.9884 -3.72084 68.1783 -4.25065 87.6325C-4.78046 107.087 16.1175 123.438 42.4262 124.155C68.7349 124.871 90.4919 109.681 91.0217 90.2271Z" fill="#C39797"/>
<mask id="mask8_2409_33162" style="mask-type:luminance" maskUnits="userSpaceOnUse" x="-5" y="53" width="97" height="72">
<path d="M91.0217 90.2271C91.5515 70.773 70.6535 54.4214 44.3448 53.7049C18.0361 52.9884 -3.72084 68.1783 -4.25065 87.6325C-4.78046 107.087 16.1175 123.438 42.4262 124.155C68.7349 124.871 90.4919 109.681 91.0217 90.2271Z" fill="white"/>
</mask>
<g mask="url(#mask8_2409_33162)">
<path d="M51.5209 132.489C72.3986 132.489 89.3233 116.902 89.3233 97.6733C89.3233 78.445 72.3986 62.8574 51.5209 62.8574C30.6432 62.8574 13.7185 78.445 13.7185 97.6733C13.7185 116.902 30.6432 132.489 51.5209 132.489Z" fill="#F9B7B1"/>
</g>
<path d="M91.0217 90.2271C91.5515 70.773 70.6535 54.4214 44.3448 53.7049C18.0361 52.9884 -3.72084 68.1783 -4.25065 87.6325C-4.78046 107.087 16.1175 123.438 42.4262 124.155C68.7349 124.871 90.4919 109.681 91.0217 90.2271Z" stroke="#86211A" stroke-width="1.44945" stroke-linecap="round" stroke-linejoin="round"/>
</g>
<path d="M84.7944 88.8527C84.7944 110.576 66.0365 128.187 42.8959 128.187C19.7552 128.187 1 110.576 1 88.8527C1 85.1919 1.53359 81.6479 2.53174 78.2871C2.49988 78.4145 2.47865 78.5446 2.47334 78.6747C2.22645 83.5487 20.3472 88.4279 42.9436 89.5668C65.5109 90.703 84.0113 87.6846 84.3033 82.8213C84.6271 84.7884 84.7944 86.8006 84.7944 88.8527Z" stroke="#86211A" stroke-width="1.32733" stroke-linecap="round" stroke-linejoin="round"/>
<path d="M11.0826 78.3216C12.773 78.3216 14.1434 77.9615 14.1434 77.5173C14.1434 77.073 12.773 76.7129 11.0826 76.7129C9.39211 76.7129 8.02173 77.073 8.02173 77.5173C8.02173 77.9615 9.39211 78.3216 11.0826 78.3216Z" fill="white" stroke="#86211A" stroke-width="1.32733" stroke-miterlimit="10"/>
<path d="M10.6338 77.1775C10.6789 77.2147 10.8462 77.3421 11.0957 77.3368C11.3293 77.3341 11.4859 77.2147 11.5337 77.1775V67.6738H10.6338V77.1775Z" fill="white" stroke="#86211A" stroke-width="1.32733" stroke-miterlimit="10"/>
<path d="M14.7696 63.5151C14.7696 66.7564 13.1184 69.3845 11.0797 69.3845C9.04088 69.3845 7.39233 66.7564 7.39233 63.5151C7.39233 62.1877 7.66842 60.9666 8.13298 59.9844H14.029C14.4936 60.9666 14.7696 62.1877 14.7696 63.5151Z" fill="white" stroke="#86211A" stroke-width="1.32733" stroke-miterlimit="10"/>
<path d="M84.3032 64.5117L76.0047 72.8102L67.7036 64.5117H84.3032Z" fill="white" stroke="#86211A" stroke-width="1.32733" stroke-miterlimit="10"/>
<path d="M76.0049 83.4544C77.6954 83.4544 79.0657 83.0943 79.0657 82.6501C79.0657 82.2058 77.6954 81.8457 76.0049 81.8457C74.3145 81.8457 72.9441 82.2058 72.9441 82.6501C72.9441 83.0943 74.3145 83.4544 76.0049 83.4544Z" fill="white" stroke="#86211A" stroke-width="1.32733" stroke-miterlimit="10"/>
<path d="M75.5535 82.3142C75.5986 82.3514 75.7658 82.4788 76.0154 82.4735C76.249 82.4709 76.4056 82.3514 76.4534 82.3142V72.8105H75.5535V82.3142Z" fill="white" stroke="#86211A" stroke-width="1.32733" stroke-miterlimit="10"/>
<path d="M68.2718 81.3161C66.4082 83.9999 55.5798 85.5768 42.6038 84.9052C29.0412 84.2017 18.0456 81.2922 17.2625 78.2871" stroke="#86211A" stroke-width="1.30875" stroke-miterlimit="10"/>
<path d="M30.8038 72.1387L28.1731 84.3926C27.682 84.666 26.6413 85.1598 25.237 85.1837C23.7159 85.2076 22.5903 84.6687 22.0939 84.3926C21.2179 80.3071 20.3392 76.2242 19.4631 72.1387C19.71 72.7652 22.1576 73.2563 25.1335 73.2563C28.1094 73.2563 30.557 72.7652 30.8038 72.1387Z" fill="white" stroke="#86211A" stroke-width="1.32733" stroke-miterlimit="10"/>
<path d="M30.8277 72.0324L30.8038 72.1386C30.5569 72.7651 28.1093 73.2562 25.1335 73.2562C22.1576 73.2562 19.71 72.7651 19.4631 72.1386L19.4392 72.0324C19.4392 71.3555 21.9903 70.8086 25.1335 70.8086C28.2766 70.8086 30.8277 71.3555 30.8277 72.0324Z" fill="white" stroke="#86211A" stroke-width="1.44414" stroke-miterlimit="10"/>
</svg>
