<svg width="112" height="74" viewBox="0 0 112 74" fill="none" xmlns="http://www.w3.org/2000/svg">
<path d="M64.9393 56.0336L45.5298 33.2706C45.5298 33.2706 41.5353 27.839 36.6651 30.5558C31.7948 33.2726 39.141 43.8948 39.141 43.8948C39.141 43.8948 30.9947 43.4948 32.2725 49.9653C33.5502 56.4358 63.4492 59.3097 63.4492 59.3097L64.9393 56.0357V56.0336Z" fill="#EABED9" stroke="#77236A" stroke-width="1.02058" stroke-miterlimit="10"/>
<path d="M77.5264 58.5665C76.5393 58.1907 75.4344 58.6863 75.0586 59.6735C74.6828 60.6607 75.1784 61.7656 76.1656 62.1414L88.1551 66.7053C89.1422 67.0811 90.2471 66.5854 90.6229 65.5983C90.9987 64.6111 90.5031 63.5062 89.5159 63.1304L77.5264 58.5665Z" fill="#77236A"/>
<path d="M67.0948 56.193L27.2063 47.7058C27.2063 47.7058 19.5806 45.9198 17.323 51.9943C15.0655 58.0709 29.5741 61.9144 29.5741 61.9144C29.5741 61.9144 22.0728 67.7072 28.084 72.4611C34.0953 77.2149 65.4169 61.5592 65.4169 61.5592L67.0948 56.195V56.193Z" fill="#EABED9" stroke="#77236A" stroke-width="1.18592" stroke-miterlimit="10"/>
<path d="M67.2642 35.8228C67.2642 35.8228 66.7641 27.2274 63.4493 15.0866C60.1344 2.94574 76.6413 -2.99201 84.7876 3.95815C92.9339 10.9083 90.0865 19.4118 90.0865 19.4118C90.0865 19.4118 96.7693 12.3433 104.197 14.3416C111.625 16.3399 110.267 24.3249 106.912 28.5583C103.556 32.7916 94.0525 37.8231 94.0525 37.8231C94.0525 37.8231 109.467 30.5545 106.991 20.9692C104.515 11.3839 88.4087 21.2856 88.4087 21.2856C88.4087 21.2856 90.9111 7.2179 77.6783 3.71526C68.591 1.31076 63.8514 9.38765 64.6597 14.4987C65.817 21.8204 68.7502 30.0646 67.2642 35.8207V35.8228Z" fill="#BF489A" stroke="#77236A" stroke-width="1.02058" stroke-miterlimit="10"/>
<path d="M73.5529 36.2603C73.5529 36.2603 68.4541 21.1312 75.7207 14.6607C82.9872 8.19017 85.2264 22.0885 84.5854 26.9607C84.5854 26.9607 98.4041 22.2007 98.3225 28.7978C98.2408 35.3948 89.2965 37.8238 89.2965 37.8238C89.2965 37.8238 85.1427 42.0572 92.5705 43.4942C99.9983 44.9311 99.2002 53.304 84.5834 54.5899C84.5834 54.5899 92.4909 52.8406 92.0908 49.7258C91.6907 46.611 88.184 47.7561 85.0651 47.4622C81.9462 47.1683 80.1888 44.6127 85.4611 39.1812C85.4611 39.1812 82.7851 39.7874 78.0129 39.8425C73.2407 39.8976 73.5489 36.2582 73.5489 36.2582L73.5529 36.2603Z" fill="#BF489A"/>
<mask id="mask0_2409_33303" style="mask-type:luminance" maskUnits="userSpaceOnUse" x="71" y="12" width="28" height="43">
<path d="M73.5532 36.2583C73.5532 36.2583 68.4544 21.1292 75.7209 14.6587C82.9875 8.18822 85.2266 22.0865 84.5857 26.9588C84.5857 26.9588 98.4044 22.1988 98.3227 28.7958C98.2411 35.3929 89.2967 37.8218 89.2967 37.8218C89.2967 37.8218 85.1429 42.0552 92.5707 43.4922C99.9985 44.9292 99.2004 53.302 84.5836 54.588C84.5836 54.588 92.4911 52.8387 92.0911 49.7239C91.691 46.6091 88.1843 47.7542 85.0654 47.4602C81.9465 47.1663 80.189 44.6108 85.4613 39.1792C85.4613 39.1792 82.7854 39.7854 78.0131 39.8406C73.2409 39.8957 73.5491 36.2563 73.5491 36.2563L73.5532 36.2583Z" fill="white"/>
</mask>
<g mask="url(#mask0_2409_33303)">
<path d="M95.6305 62.6399C106.317 62.6399 114.981 53.9765 114.981 43.2897C114.981 32.6029 106.317 23.9395 95.6305 23.9395C84.9437 23.9395 76.2803 32.6029 76.2803 43.2897C76.2803 53.9765 84.9437 62.6399 95.6305 62.6399Z" fill="#D976AF"/>
<path d="M81.6076 42.7737C85.4461 42.7737 88.5578 36.1025 88.5578 27.8732C88.5578 19.6438 85.4461 12.9727 81.6076 12.9727C77.7692 12.9727 74.6575 19.6438 74.6575 27.8732C74.6575 36.1025 77.7692 42.7737 81.6076 42.7737Z" fill="#D976AF"/>
</g>
<path d="M73.5529 36.2603C73.5529 36.2603 68.4541 21.1312 75.7207 14.6607C82.9872 8.19017 85.2264 22.0885 84.5854 26.9607C84.5854 26.9607 98.4041 22.2007 98.3225 28.7978C98.2408 35.3948 89.2965 37.8238 89.2965 37.8238C89.2965 37.8238 85.1427 42.0572 92.5705 43.4942C99.9983 44.9311 99.2002 53.304 84.5834 54.5899C84.5834 54.5899 92.4909 52.8406 92.0908 49.7258C91.6907 46.611 88.184 47.7561 85.0651 47.4622C81.9462 47.1683 80.1888 44.6127 85.4611 39.1812C85.4611 39.1812 82.7851 39.7874 78.0129 39.8425C73.2407 39.8976 73.5489 36.2582 73.5489 36.2582L73.5529 36.2603Z" stroke="#77236A" stroke-width="1.02058" stroke-miterlimit="10"/>
<path d="M55.852 117.077C72.482 117.077 85.9632 105.527 85.9632 91.2787C85.9632 77.0308 72.482 65.4805 55.852 65.4805C39.222 65.4805 25.7407 77.0308 25.7407 91.2787C25.7407 105.527 39.222 117.077 55.852 117.077Z" fill="#BF489A"/>
<mask id="mask1_2409_33303" style="mask-type:luminance" maskUnits="userSpaceOnUse" x="25" y="65" width="61" height="53">
<path d="M55.8522 117.079C72.4822 117.079 85.9635 105.529 85.9635 91.2807C85.9635 77.0327 72.4822 65.4824 55.8522 65.4824C39.2222 65.4824 25.741 77.0327 25.741 91.2807C25.741 105.529 39.2222 117.079 55.8522 117.079Z" fill="white"/>
</mask>
<g mask="url(#mask1_2409_33303)">
<path d="M85.0694 122.018C99.8382 122.018 111.811 110.045 111.811 95.2765C111.811 80.5076 99.8382 68.5352 85.0694 68.5352C70.3006 68.5352 58.3281 80.5076 58.3281 95.2765C58.3281 110.045 70.3006 122.018 85.0694 122.018Z" fill="#D976AF"/>
</g>
<path d="M55.852 117.077C72.482 117.077 85.9632 105.527 85.9632 91.2787C85.9632 77.0308 72.482 65.4805 55.852 65.4805C39.222 65.4805 25.7407 77.0308 25.7407 91.2787C25.7407 105.527 39.222 117.077 55.852 117.077Z" stroke="#77236A" stroke-width="1.02058" stroke-miterlimit="10"/>
<path d="M27.0656 91.2788C27.1105 100.093 33.1503 107.8 40.7577 111.764C48.4794 115.907 57.8851 116.687 66.2539 114.109C76.3352 111.17 85.1939 102.201 85.2633 91.2788C85.5266 80.2095 76.6985 70.8406 66.5009 67.6992C59.6548 65.4846 52.0658 65.5744 45.285 67.9421C35.3588 71.2672 26.8431 80.4381 27.0656 91.2788ZM24.4161 91.2788C24.4325 79.4645 33.8974 69.6506 44.7972 66.4602C51.9433 64.2476 59.7487 64.3395 66.8295 66.7031C79.5888 70.7977 89.2966 83.1794 86.0532 96.9124C81.0932 116.624 56.093 123.717 39.2228 114.648C30.6295 110.227 24.2059 101.14 24.4161 91.2788Z" fill="#EABED9" stroke="#77236A" stroke-width="1.02058" stroke-miterlimit="10"/>
<path d="M76.1754 66.8765C75.8581 65.8689 74.7842 65.3094 73.7766 65.6267C72.7691 65.944 72.2096 67.0179 72.5269 68.0254L76.3803 80.2617C76.6976 81.2692 77.7715 81.8288 78.779 81.5115C79.7865 81.1942 80.3461 80.1203 80.0288 79.1128L76.1754 66.8765Z" fill="#77236A"/>
<path d="M63.3902 77.2681C63.8229 78.4642 65.3191 78.8622 66.2845 78.0355C68.9748 75.7331 73.694 70.8996 76.5394 63.4024C76.5394 63.4024 79.7338 55.2561 67.7542 54.6173C60.0161 54.2049 58.4465 58.222 58.3056 61.1204C58.2444 62.3778 58.4608 63.631 58.8894 64.8149L63.3902 77.2681Z" fill="#BF489A"/>
<mask id="mask2_2409_33303" style="mask-type:luminance" maskUnits="userSpaceOnUse" x="58" y="54" width="19" height="25">
<path d="M63.3899 77.27C63.8227 78.4661 65.3188 78.8642 66.2843 78.0375C68.9746 75.7351 73.6937 70.9016 76.5391 63.4044C76.5391 63.4044 79.7335 55.2581 67.7539 54.6192C60.0159 54.2069 58.4462 58.2239 58.3054 61.1224C58.2442 62.3797 58.4605 63.633 58.8892 64.8169L63.3899 77.27Z" fill="white"/>
</mask>
<g mask="url(#mask2_2409_33303)">
<path d="M76.925 61.1895C76.925 61.1895 75.5187 65.4453 65.7354 63.2102C65.7354 63.2102 65.7231 75.5633 73.1917 73.9671C73.1917 73.9671 77.7272 68.0621 76.925 61.1915" fill="#D976AF"/>
</g>
<path d="M63.3902 77.2681C63.8229 78.4642 65.3191 78.8622 66.2845 78.0355C68.9748 75.7331 73.694 70.8996 76.5394 63.4024C76.5394 63.4024 79.7338 55.2561 67.7542 54.6173C60.0161 54.2049 58.4465 58.222 58.3056 61.1204C58.2444 62.3778 58.4608 63.631 58.8894 64.8149L63.3902 77.2681Z" stroke="#77236A" stroke-width="1.08998" stroke-miterlimit="10"/>
<path d="M50.6286 75.4167C50.6286 75.4167 54.0577 71.9732 54.1026 68.7482C54.1476 65.5232 51.3879 63.5963 50.3489 53.2129C50.3489 53.2129 48.1527 61.1591 50.6286 75.4167Z" fill="#77236A" stroke="#77236A" stroke-width="1.02058" stroke-miterlimit="10"/>
<path d="M52.8821 86.0487C52.8821 86.0487 57.6809 85.2853 59.6179 82.7052C61.555 80.1252 60.4589 76.943 65.7353 67.9395C65.7353 67.9395 59.2791 73.0669 52.8821 86.0466V86.0487Z" fill="#77236A" stroke="#77236A" stroke-width="1.02058" stroke-miterlimit="10"/>
<path d="M81.6074 86.6428C81.6074 86.6428 77.2516 84.9139 76.1188 82.142C74.9859 79.3722 76.9066 76.7003 74.3674 67.3477C74.3674 67.3477 79.0989 73.4181 81.6095 86.6428H81.6074Z" fill="#77236A" stroke="#77236A" stroke-width="0.983841" stroke-miterlimit="10"/>
<path d="M82.5791 66.8399C82.5791 66.8399 86.3022 63.7169 89.5191 63.9456C92.7359 64.1742 94.4219 67.089 104.679 69.0076C104.679 69.0076 96.5733 70.5201 82.5791 66.8399Z" fill="#77236A" stroke="#77236A" stroke-width="1.02058" stroke-miterlimit="10"/>
<path d="M49.8162 53.8499C49.8162 53.8499 45.2644 50.5758 42.6272 50.7738C42.6272 50.7738 45.5032 48.6571 48.3384 50.2554C48.3384 50.2554 47.6587 48.1795 49.1365 47.459C49.1365 47.459 49.0569 49.2164 50.4551 50.2146C51.8533 51.2127 49.8162 53.8478 49.8162 53.8478V53.8499Z" fill="#77236A" stroke="#77236A" stroke-width="1.02058" stroke-miterlimit="10"/>
<path d="M103.18 69.1319C103.18 69.1319 108.726 69.9668 110.474 71.9488C110.474 71.9488 109.892 68.4257 106.748 67.5909C106.748 67.5909 108.683 66.5785 108.128 65.0312C108.128 65.0312 106.959 66.3458 105.26 66.0845C103.562 65.8232 103.18 69.1319 103.18 69.1319Z" fill="#77236A" stroke="#77236A" stroke-width="1.02058" stroke-miterlimit="10"/>
<path d="M67.8682 62.4914C67.8682 62.4914 68.2948 64.0631 69.7849 63.8488L68.454 61.5586C68.454 61.5586 63.9022 61.6647 65.18 64.753C65.18 64.753 64.0615 63.4222 61.9856 63.661C61.9856 63.661 65.576 65.7777 65.7373 67.9413C65.7373 67.9413 68.6786 65.9777 69.3522 67.7882C69.3522 67.7882 69.8931 65.4184 67.3641 65.8716C67.3641 65.8716 65.2617 64.1672 67.8703 62.4894L67.8682 62.4914Z" fill="#77236A"/>
<path d="M72.1325 62.4914C72.1325 62.4914 71.7059 64.0631 70.2158 63.8488L71.5467 61.5586C71.5467 61.5586 76.0985 61.6647 74.8207 64.753C74.8207 64.753 75.9393 63.4222 78.0151 63.661C78.0151 63.661 74.4247 65.7777 74.2635 67.9413C74.2635 67.9413 71.3221 65.9777 70.6485 67.7882C70.6485 67.7882 70.1076 65.4184 72.6366 65.8716C72.6366 65.8716 74.739 64.1672 72.1304 62.4894L72.1325 62.4914Z" fill="#77236A"/>
<path d="M61.2333 61.2981C61.7274 60.3645 61.3711 59.2071 60.4375 58.713C59.5039 58.2189 58.3465 58.5752 57.8524 59.5088L51.8515 70.8474C51.3574 71.781 51.7136 72.9384 52.6472 73.4325C53.5808 73.9266 54.7382 73.5703 55.2323 72.6367L61.2333 61.2981Z" fill="#77236A"/>
<path d="M61.8258 66.2156C61.9682 65.169 61.2352 64.205 60.1886 64.0626C59.1419 63.9202 58.178 64.6532 58.0355 65.6998L56.3056 78.4113C56.1631 79.458 56.8961 80.4219 57.9428 80.5643C58.9894 80.7068 59.9533 79.9738 60.0958 78.9272L61.8258 66.2156Z" fill="#77236A"/>
<path d="M72.7037 59.0798C72.8288 57.8178 70.9104 56.5945 68.4189 56.3476C65.9273 56.1007 63.8061 56.9236 63.6811 58.1856C63.556 59.4476 65.4744 60.6709 67.9659 60.9178C70.4574 61.1647 72.5786 60.3418 72.7037 59.0798Z" stroke="#77236A" stroke-width="1.02058" stroke-miterlimit="10"/>
<path d="M69.5809 58.3805C69.4279 58.4683 68.9359 58.7295 68.2746 58.6458C67.5888 58.5601 67.1683 58.158 67.0479 58.0355C67.2234 56.7496 67.3989 55.4637 67.5724 54.1777L70.1055 54.5227L69.5809 58.3805Z" fill="#BF489A" stroke="#77236A" stroke-width="1.02058" stroke-miterlimit="10"/>
<path d="M77.0047 38.5515C77.0047 38.5515 73.5694 34.0793 65.7436 36.1552C57.9178 38.231 58.0688 47.6265 59.0588 49.8126C60.4713 52.9274 63.5861 55.4462 70.0566 55.0462C76.5271 54.6461 80.1216 52.1293 80.1195 47.4959C80.1195 41.5051 77.0047 38.5495 77.0047 38.5495V38.5515Z" fill="#BF489A"/>
<mask id="mask3_2409_33303" style="mask-type:luminance" maskUnits="userSpaceOnUse" x="58" y="35" width="23" height="21">
<path d="M77.0047 38.5515C77.0047 38.5515 73.5694 34.0793 65.7436 36.1552C57.9178 38.231 58.0688 47.6265 59.0588 49.8126C60.4713 52.9274 63.5861 55.4462 70.0566 55.0462C76.5271 54.6461 80.1216 52.1293 80.1195 47.4959C80.1195 41.5051 77.0047 38.5495 77.0047 38.5495V38.5515Z" fill="white"/>
</mask>
<g mask="url(#mask3_2409_33303)">
<path d="M74.3675 54.4579C80.1709 54.4579 84.8754 50.0238 84.8754 44.5541C84.8754 39.0844 80.1709 34.6504 74.3675 34.6504C68.5642 34.6504 63.8596 39.0844 63.8596 44.5541C63.8596 50.0238 68.5642 54.4579 74.3675 54.4579Z" fill="#D976AF"/>
</g>
<path d="M77.0047 38.5515C77.0047 38.5515 73.5694 34.0793 65.7436 36.1552C57.9178 38.231 58.0688 47.6265 59.0588 49.8126C60.4713 52.9274 63.5861 55.4462 70.0566 55.0462C76.5271 54.6461 80.1216 52.1293 80.1195 47.4959C80.1195 41.5051 77.0047 38.5495 77.0047 38.5495V38.5515Z" stroke="#77236A" stroke-width="1.02058" stroke-miterlimit="10"/>
<path d="M68.2664 49.7901C68.2664 49.7901 67.846 37.2063 59.0587 43.64L56.542 43.5196C56.542 43.5196 60.8774 52.6252 68.2644 49.7901H68.2664Z" fill="#77236A"/>
<mask id="mask4_2409_33303" style="mask-type:luminance" maskUnits="userSpaceOnUse" x="56" y="41" width="13" height="10">
<path d="M68.2664 49.792C68.2664 49.792 67.846 37.2082 59.0587 43.642L56.542 43.5216C56.542 43.5216 60.8774 52.6272 68.2644 49.792H68.2664Z" fill="white"/>
</mask>
<g mask="url(#mask4_2409_33303)">
<path d="M67.6112 51.1751C70.0079 51.1751 71.9508 49.2323 71.9508 46.8356C71.9508 44.439 70.0079 42.4961 67.6112 42.4961C65.2146 42.4961 63.2717 44.439 63.2717 46.8356C63.2717 49.2323 65.2146 51.1751 67.6112 51.1751Z" fill="white"/>
</g>
<path d="M68.2664 49.7901C68.2664 49.7901 67.846 37.2063 59.0587 43.64L56.542 43.5196C56.542 43.5196 60.8774 52.6252 68.2644 49.7901H68.2664Z" stroke="#77236A" stroke-width="1.02058" stroke-linejoin="round"/>
<path d="M73.1917 49.2993C73.1917 49.2993 73.4958 42.8288 80.1194 43.7351L82.5096 42.8574L79.9438 45.0986C79.9438 45.0986 77.5842 44.3209 73.1917 49.2993Z" fill="#77236A" stroke="#77236A" stroke-width="1.02058" stroke-linejoin="round"/>
</svg>
