<svg width="100" height="83" viewBox="0 0 100 83" fill="none" xmlns="http://www.w3.org/2000/svg">
<path d="M80.3494 52.3934C79.6341 53.1186 77.7577 54.9717 74.84 57.0444C75.1228 55.5373 75.2692 53.9836 75.2692 52.3934C75.2692 38.447 63.961 27.1388 50.0113 27.1388C36.0616 27.1388 24.7567 38.447 24.7567 52.3934C24.7567 53.9803 24.9031 55.5306 25.1859 57.0377C22.2515 54.9584 20.3752 53.102 19.6765 52.3934C19.6765 35.639 33.2603 22.0586 50.0113 22.0586C66.7623 22.0586 80.3494 35.639 80.3494 52.3934Z" fill="#D8EEEB" stroke="#386B34" stroke-width="1.66346" stroke-miterlimit="10"/>
<path d="M10.5107 51.9258C8.43141 51.9258 6.6748 50.1692 6.6748 48.0898C6.6748 46.0105 8.43141 44.2539 10.5107 44.2539C10.9832 44.2539 11.409 44.3271 11.8149 44.4801C16.1066 46.087 20.6478 46.9088 25.219 46.9088C25.7879 46.9088 26.3535 46.8955 26.9224 46.8722C27.0122 46.8689 27.1087 46.8655 27.2085 46.8655C28.1134 46.8655 28.4261 47.0252 28.5459 47.0851C28.832 47.2315 29.0982 47.4577 29.0982 48.0898C29.0982 48.7219 28.832 48.9449 28.5459 49.0946C28.4261 49.1544 28.1167 49.3141 27.2085 49.3141C27.112 49.3141 27.0122 49.3141 26.9124 49.3075C26.3468 49.2809 25.7813 49.2709 25.219 49.2709C20.6445 49.2709 16.1033 50.0926 11.8116 51.6995C11.4057 51.8526 10.9798 51.9258 10.5074 51.9258H10.5107Z" fill="#B0D461"/>
<path d="M10.5107 51.9258C8.43141 51.9258 6.6748 50.1692 6.6748 48.0898C6.6748 46.0105 8.43141 44.2539 10.5107 44.2539C10.9832 44.2539 11.409 44.3271 11.8149 44.4801C16.1066 46.087 20.6478 46.9088 25.219 46.9088C25.7879 46.9088 26.3535 46.8955 26.9224 46.8722C27.0122 46.8689 27.1087 46.8655 27.2085 46.8655C28.1134 46.8655 28.4261 47.0252 28.5459 47.0851C28.832 47.2315 29.0982 47.4577 29.0982 48.0898C29.0982 48.7219 28.832 48.9449 28.5459 49.0946C28.4261 49.1544 28.1167 49.3141 27.2085 49.3141C27.112 49.3141 27.0122 49.3141 26.9124 49.3075C26.3468 49.2809 25.7813 49.2709 25.219 49.2709C20.6445 49.2709 16.1033 50.0926 11.8116 51.6995C11.4057 51.8526 10.9798 51.9258 10.5074 51.9258H10.5107Z" stroke="#386B34" stroke-width="1.66346" stroke-miterlimit="10"/>
<path d="M89.518 51.9258C89.0456 51.9258 88.6198 51.8526 88.2139 51.6995C83.9222 50.0926 79.3809 49.2709 74.8064 49.2709C74.2409 49.2709 73.6786 49.2842 73.113 49.3075C73.0132 49.3108 72.9134 49.3141 72.8169 49.3141C71.912 49.3141 71.5993 49.1544 71.4795 49.0946C71.1934 48.9482 70.9272 48.7219 70.9272 48.0898C70.9272 47.4577 71.1934 47.2348 71.4795 47.0851C71.596 47.0252 71.9087 46.8655 72.8169 46.8655C72.9167 46.8655 73.0132 46.8655 73.103 46.8722C73.672 46.8988 74.2409 46.9088 74.8064 46.9088C79.3809 46.9088 83.9222 46.087 88.2105 44.4801C88.6164 44.3271 89.0423 44.2539 89.5147 44.2539C91.594 44.2539 93.3506 46.0105 93.3506 48.0898C93.3506 50.1692 91.594 51.9258 89.5147 51.9258H89.518Z" fill="#8CC756"/>
<path d="M89.518 51.9258C89.0456 51.9258 88.6198 51.8526 88.2139 51.6995C83.9222 50.0926 79.3809 49.2709 74.8064 49.2709C74.2409 49.2709 73.6786 49.2842 73.113 49.3075C73.0132 49.3108 72.9134 49.3141 72.8169 49.3141C71.912 49.3141 71.5993 49.1544 71.4795 49.0946C71.1934 48.9482 70.9272 48.7219 70.9272 48.0898C70.9272 47.4577 71.1934 47.2348 71.4795 47.0851C71.596 47.0252 71.9087 46.8655 72.8169 46.8655C72.9167 46.8655 73.0132 46.8655 73.103 46.8722C73.672 46.8988 74.2409 46.9088 74.8064 46.9088C79.3809 46.9088 83.9222 46.087 88.2105 44.4801C88.6164 44.3271 89.0423 44.2539 89.5147 44.2539C91.594 44.2539 93.3506 46.0105 93.3506 48.0898C93.3506 50.1692 91.594 51.9258 89.5147 51.9258H89.518Z" stroke="#386B34" stroke-width="1.66346" stroke-miterlimit="10"/>
<path d="M57.0907 5.18752C55.6335 6.50497 53.6973 7.11047 51.7444 7.47643V13.3185H48.2811V7.47643C46.3315 7.11047 44.3952 6.50497 42.9347 5.18752C42.276 4.58867 41.7071 3.76027 41.8169 2.87864C41.8867 2.32637 42.2228 1.83066 42.6652 1.49797C43.1077 1.16195 43.65 0.975646 44.1989 0.889146C45.3866 0.699512 46.6442 0.955684 47.6623 1.60443C48.6803 2.24985 49.4521 3.27454 49.7848 4.43231C49.7848 4.43231 49.9612 5.04446 50.0044 5.91278C50.0044 6.02922 50.2406 4.43231 50.2406 4.43231C50.5733 3.27454 51.3451 2.24985 52.3632 1.60443C52.6759 1.40482 53.0153 1.2418 53.3646 1.1187C54.1497 0.839242 55.0014 0.759397 55.8265 0.889146C56.3754 0.975646 56.9177 1.16195 57.3602 1.49797C57.8027 1.83066 58.142 2.32637 58.2119 2.87864C58.3217 3.76027 57.7495 4.58867 57.0907 5.18752Z" fill="#B0D461"/>
<path d="M57.0907 5.18899C55.6335 6.50644 53.6972 7.11194 51.7443 7.4779V13.32H48.281V10.5653C49.0262 10.1095 49.7083 9.34097 50.1108 8.07342C50.1108 8.07342 56.5018 5.52168 53.4643 1.26989C53.4277 1.21666 53.3945 1.16675 53.3645 1.12018C54.1497 0.840715 55.0014 0.760869 55.8264 0.890618C56.3754 0.977118 56.9177 1.16343 57.3601 1.49944C57.8026 1.83213 58.142 2.32784 58.2118 2.88011C58.3216 3.76174 57.7494 4.59014 57.0907 5.18899Z" fill="#8CC756"/>
<path d="M56.5019 4.6026C55.1212 5.8269 53.2981 6.33925 51.5215 6.67859C51.1655 6.74513 50.9093 7.1377 50.9093 7.48038V13.3224L51.7411 12.4907H48.2777L49.1095 13.3224V7.48038C49.1095 7.14103 48.8533 6.74513 48.4973 6.67859C47.2664 6.44571 46.0254 6.1363 44.9109 5.55077C44.0393 5.09165 42.7551 4.29985 42.6353 3.21195C42.4989 1.98432 44.2056 1.64497 45.0939 1.66826C46.2949 1.6982 47.4127 2.25712 48.1846 3.1687C48.5506 3.59787 48.8267 4.12352 48.9797 4.66581C49.1161 5.15486 49.1095 5.65057 49.1993 6.14628C49.3257 6.85824 50.397 6.94474 50.7197 6.3459C50.9825 5.85684 50.9193 5.19811 51.0391 4.66581C51.272 3.62449 52.1103 2.69628 53.0186 2.18726C54.0466 1.61503 55.5204 1.41874 56.5884 1.99763C57.0109 2.22718 57.4134 2.62974 57.3902 3.14874C57.3635 3.7376 56.9044 4.22666 56.4985 4.60592C55.7134 5.33784 56.8911 6.51224 57.6763 5.78365C58.6244 4.89869 59.3996 3.55462 58.8972 2.23384C58.3982 0.91638 57.1273 0.234363 55.7866 0.0580367C53.0818 -0.297943 50.5068 1.31894 49.5553 3.85072C49.4388 4.15679 49.3989 4.44956 49.3523 4.77227C49.3224 4.97188 49.2925 5.16817 49.2625 5.36446C49.2359 5.52082 49.1061 5.83688 49.2858 5.50419L50.8062 5.7038C50.8361 5.87015 50.8129 5.61731 50.8129 5.60733C50.8095 5.51417 50.7929 5.41769 50.7829 5.32121C50.7563 5.10829 50.7264 4.89537 50.6898 4.68244C50.6598 4.52608 50.6299 4.36971 50.5866 4.21668C50.3737 3.45481 49.9811 2.75616 49.4887 2.14068C48.4707 0.869803 46.9204 0.117921 45.3035 0.0114599C43.6866 -0.0950013 41.7869 0.533785 41.1482 2.17063C40.5094 3.80747 41.7936 5.43765 43.0944 6.37917C44.5416 7.43047 46.3182 7.94947 48.0582 8.28216L47.446 7.48038V13.3224C47.446 13.7716 47.8286 14.1542 48.2777 14.1542H51.7411C52.1902 14.1542 52.5728 13.7716 52.5728 13.3224V7.48038L51.9606 8.28216C54.0366 7.88626 56.0694 7.20091 57.6729 5.78032C58.4747 5.06836 57.297 3.89729 56.4952 4.6026H56.5019Z" fill="#386B34"/>
<path d="M80.9215 61.6387C82.1059 61.5356 88.4969 61.0997 93.6968 65.7707C94.4088 66.4095 98.5408 70.2354 98.9866 76.327C99.0332 76.9658 99.4956 84.448 95.4701 86.2911C94.2158 86.8633 92.2396 86.9299 90.7858 86.0416C89.0724 84.997 89.1523 83.257 87.8282 83.0075C86.4641 82.7513 86.1714 84.5545 83.9224 84.8306C82.4086 85.0169 80.5921 84.4414 79.3279 83.4566C79.2713 83.4133 79.2281 83.3767 79.1982 83.3535C75.798 80.6121 76.8094 71.8357 80.9215 61.6387Z" fill="#ACC19B"/>
<mask id="mask0_2409_33499" style="mask-type:luminance" maskUnits="userSpaceOnUse" x="77" y="61" width="23" height="26">
<path d="M80.9215 61.6407C82.1059 61.5375 88.4969 61.1017 93.6968 65.7727C94.4088 66.4114 98.5408 70.2374 98.9866 76.329C99.0332 76.9677 99.4956 84.45 95.4701 86.2931C94.2158 86.8653 92.2396 86.9318 90.7858 86.0436C89.0724 84.9989 89.1523 83.2589 87.8282 83.0094C86.4641 82.7532 86.1714 84.5564 83.9224 84.8326C82.4086 85.0189 80.5921 84.4433 79.3279 83.4585C79.2713 83.4153 79.2281 83.3787 79.1982 83.3554C75.798 80.614 76.8094 71.8376 80.9215 61.6407Z" fill="white"/>
</mask>
<g mask="url(#mask0_2409_33499)">
<path d="M101.924 78.9996C101.924 78.9996 89.0356 72.7517 77.3847 79.1293C69.8426 83.258 71.7356 55.2754 71.7356 55.2754L106.502 56.6095L101.924 78.9996Z" fill="#7A956C" stroke="#386B34" stroke-width="0.998073" stroke-miterlimit="10"/>
<path d="M77.3284 77.3122C77.3284 77.3122 86.7003 68.3961 103.255 76.6401" stroke="#386B34" stroke-width="0.998073" stroke-miterlimit="10"/>
<path d="M99.8715 70.8216C99.8715 70.8216 86.6802 66.0708 77.5845 75.4094" stroke="#386B34" stroke-width="0.998073" stroke-miterlimit="10"/>
<path d="M78.6589 72.5164C78.6589 72.5164 85.8617 64.5019 95.8424 65.8626" stroke="#386B34" stroke-width="0.998073" stroke-miterlimit="10"/>
<path d="M79.3943 71.7344C79.3943 71.7344 80.9213 61.6439 94.7114 61.584" stroke="#386B34" stroke-width="0.998073" stroke-miterlimit="10"/>
</g>
<path d="M80.9215 61.6387C82.1059 61.5356 88.4969 61.0997 93.6968 65.7707C94.4088 66.4095 98.5408 70.2354 98.9866 76.327C99.0332 76.9658 99.4956 84.448 95.4701 86.2911C94.2158 86.8633 92.2396 86.9299 90.7858 86.0416C89.0724 84.9969 89.1523 83.257 87.8282 83.0075C86.4641 82.7513 86.1714 84.5545 83.9224 84.8306C82.4086 85.0169 80.5921 84.4414 79.3279 83.4566C79.2713 83.4133 79.2281 83.3767 79.1982 83.3535C75.798 80.6121 76.8094 71.8357 80.9215 61.6387Z" stroke="#386B34" stroke-width="1.66346" stroke-miterlimit="10"/>
<path d="M19.1041 61.6387C17.9197 61.5356 11.5287 61.0997 6.32877 65.7707C5.61681 66.4095 1.48478 70.2354 1.03898 76.327C0.992401 76.9658 0.52996 84.448 4.55552 86.2911C5.80977 86.8633 7.78595 86.9299 9.23981 86.0416C10.9532 84.997 10.8733 83.257 12.1974 83.0075C13.5615 82.7513 13.8542 84.5545 16.1032 84.8306C17.617 85.0169 19.4335 84.4414 20.6977 83.4566C20.7543 83.4133 20.7975 83.3767 20.8274 83.3535C24.2275 80.6121 23.2162 71.8357 19.1041 61.6387Z" fill="#D4E8BC"/>
<mask id="mask1_2409_33499" style="mask-type:luminance" maskUnits="userSpaceOnUse" x="1" y="61" width="22" height="26">
<path d="M19.1041 61.6407C17.9197 61.5375 11.5287 61.1017 6.32877 65.7727C5.61681 66.4114 1.48478 70.2374 1.03898 76.329C0.992401 76.9677 0.52996 84.45 4.55552 86.2931C5.80977 86.8653 7.78595 86.9318 9.23981 86.0436C10.9532 84.9989 10.8733 83.2589 12.1974 83.0094C13.5615 82.7532 13.8542 84.5564 16.1032 84.8326C17.617 85.0189 19.4335 84.4433 20.6977 83.4585C20.7543 83.4153 20.7975 83.3787 20.8274 83.3554C24.2275 80.614 23.2162 71.8376 19.1041 61.6407Z" fill="white"/>
</mask>
<g mask="url(#mask1_2409_33499)">
<path d="M1.00244 91.0851C1.00244 91.0851 14.3866 80.6552 11.9413 76.2803C9.49605 71.9054 31.1942 79.1548 31.1942 79.1747C31.1942 79.1947 27.6943 100.024 27.6943 100.024L1.00577 91.0851H1.00244Z" fill="#ACC19B"/>
<path d="M-1.89849 78.9996C-1.89849 78.9996 10.99 72.7517 22.6408 79.1293C30.1829 83.258 28.2899 55.2754 28.2899 55.2754L-6.47632 56.6095L-1.89849 78.9996Z" fill="#A1C18F"/>
<mask id="mask2_2409_33499" style="mask-type:luminance" maskUnits="userSpaceOnUse" x="-7" y="55" width="36" height="25">
<path d="M-1.89824 78.9976C-1.89824 78.9976 10.9902 72.7497 22.6411 79.1274C30.1832 83.2561 28.2901 55.2734 28.2901 55.2734L-6.47607 56.6075L-1.89824 78.9976Z" fill="white"/>
</mask>
<g mask="url(#mask2_2409_33499)">
<path d="M7.38696 77.7602C7.38696 77.7602 20.485 73.9543 22.8737 61.5815C25.2625 49.2087 31.4272 88.2034 31.4272 88.2034L7.38696 77.7636V77.7602Z" fill="#7A956C"/>
</g>
<path d="M-1.89849 78.9996C-1.89849 78.9996 10.99 72.7517 22.6408 79.1293C30.1829 83.258 28.2899 55.2754 28.2899 55.2754L-6.47632 56.6095L-1.89849 78.9996Z" stroke="#386B34" stroke-width="0.998073" stroke-miterlimit="10"/>
<path d="M22.6971 77.3122C22.6971 77.3122 13.3252 68.3961 -3.22949 76.6401" stroke="#386B34" stroke-width="0.998073" stroke-miterlimit="10"/>
<path d="M0.157471 70.8216C0.157471 70.8216 13.3487 66.0708 22.4445 75.4094" stroke="#386B34" stroke-width="0.998073" stroke-miterlimit="10"/>
<path d="M21.3698 72.5144C21.3698 72.5144 14.167 64.4999 4.18628 65.8606" stroke="#386B34" stroke-width="0.998073" stroke-miterlimit="10"/>
<path d="M20.6313 71.7324C20.6313 71.7324 19.1043 61.6419 5.31421 61.582" stroke="#386B34" stroke-width="0.998073" stroke-miterlimit="10"/>
</g>
<path d="M19.1041 61.6387C17.9197 61.5356 11.5287 61.0997 6.32877 65.7707C5.61681 66.4095 1.48478 70.2354 1.03898 76.327C0.992401 76.9658 0.52996 84.448 4.55552 86.2911C5.80977 86.8633 7.78595 86.9299 9.23981 86.0416C10.9532 84.9969 10.8733 83.257 12.1974 83.0075C13.5615 82.7513 13.8542 84.5545 16.1032 84.8306C17.617 85.0169 19.4335 84.4414 20.6977 83.4566C20.7543 83.4133 20.7975 83.3767 20.8274 83.3535C24.2275 80.6121 23.2162 71.8357 19.1041 61.6387Z" stroke="#386B34" stroke-width="1.66346" stroke-miterlimit="10"/>
<path d="M76.0873 53.2123C76.0873 54.8524 75.9375 56.4593 75.6448 58.013C70.3184 61.7924 61.6219 66.2837 50.2105 66.3336C38.6129 66.3835 29.7733 61.829 24.3871 58.0063C24.0943 56.4493 23.9446 54.8491 23.9446 53.2123C23.9446 38.8167 35.6187 27.1426 50.0143 27.1426C64.4098 27.1426 76.0873 38.8167 76.0873 53.2123Z" fill="#B0D461"/>
<mask id="mask3_2409_33499" style="mask-type:luminance" maskUnits="userSpaceOnUse" x="23" y="27" width="54" height="40">
<path d="M76.0873 53.2123C76.0873 54.8524 75.9375 56.4593 75.6448 58.013C70.3184 61.7924 61.6219 66.2837 50.2105 66.3336C38.6129 66.3835 29.7733 61.829 24.3871 58.0063C24.0943 56.4493 23.9446 54.8491 23.9446 53.2123C23.9446 38.8167 35.6187 27.1426 50.0143 27.1426C64.4098 27.1426 76.0873 38.8167 76.0873 53.2123Z" fill="white"/>
</mask>
<g mask="url(#mask3_2409_33499)">
<path d="M59.1567 66.3347C59.1567 66.3347 72.0718 61.4175 74.7067 39.4698C77.3416 17.5189 84.3281 75.9727 84.3281 75.9727L59.1567 66.3347Z" fill="#8CC756"/>
</g>
<path d="M76.0873 53.2123C76.0873 54.8524 75.9375 56.4593 75.6448 58.013C70.3184 61.7924 61.6219 66.2837 50.2105 66.3336C38.6129 66.3835 29.7733 61.829 24.3871 58.0063C24.0943 56.4493 23.9446 54.8491 23.9446 53.2123C23.9446 38.8167 35.6187 27.1426 50.0143 27.1426C64.4098 27.1426 76.0873 38.8167 76.0873 53.2123Z" stroke="#386B34" stroke-width="1.71669" stroke-miterlimit="10"/>
<path d="M80.3494 52.3945V61.4803C79.6341 62.2056 77.7577 64.0587 74.84 66.1313C69.68 69.791 61.2562 74.1425 50.2009 74.1925C38.9659 74.2424 30.4025 69.8275 25.1859 66.1247C22.2515 64.0454 20.3752 62.189 19.6765 61.4803V52.3945C20.3752 53.1032 22.2515 54.9596 25.1859 57.0389C30.4025 60.7417 38.9659 65.1566 50.2009 65.1067C61.2562 65.0568 69.68 60.7052 74.84 57.0456C77.7577 54.9729 79.6341 53.1198 80.3494 52.3945Z" fill="#A1C18F"/>
<mask id="mask4_2409_33499" style="mask-type:luminance" maskUnits="userSpaceOnUse" x="19" y="52" width="62" height="23">
<path d="M80.3492 52.3926V61.4784C79.6339 62.2036 77.7575 64.0567 74.8398 66.1294C69.6797 69.789 61.256 74.1406 50.2007 74.1905C38.9657 74.2404 30.4022 69.8256 25.1856 66.1227C22.2513 64.0434 20.3749 62.187 19.6763 61.4784V52.3926C20.3749 53.1012 22.2513 54.9576 25.1856 57.0369C30.4022 60.7398 38.9657 65.1546 50.2007 65.1047C61.256 65.0548 69.6797 60.7032 74.8398 57.0436C77.7575 54.9709 79.6339 53.1178 80.3492 52.3926Z" fill="white"/>
</mask>
<g mask="url(#mask4_2409_33499)">
<path d="M60.5607 75.7056C60.5607 75.7056 72.4877 68.413 71.5994 54.786C70.7111 41.1589 110.335 26.8066 110.335 26.8066L113.528 72.9542L60.5574 75.7056H60.5607Z" fill="#7A956C"/>
</g>
<path d="M80.3494 52.3945V61.4803C79.6341 62.2056 77.7577 64.0587 74.84 66.1313C69.68 69.7909 61.2562 74.1425 50.2009 74.1925C38.9659 74.2424 30.4025 69.8275 25.1859 66.1247C22.2515 64.0454 20.3752 62.189 19.6765 61.4803V52.3945C20.3752 53.1032 22.2515 54.9596 25.1859 57.0389C30.4025 60.7417 38.9659 65.1566 50.2009 65.1067C61.2562 65.0568 69.68 60.7052 74.84 57.0456C77.7577 54.9729 79.6341 53.1198 80.3494 52.3945Z" stroke="#386B34" stroke-width="1.38732" stroke-miterlimit="10"/>
<path d="M19.6765 57.041C20.3752 57.7496 22.2515 59.6061 25.1859 61.6854C30.4025 65.3882 38.9659 69.803 50.2009 69.7531C61.2562 69.7032 69.68 65.3516 74.84 61.692C77.7577 59.6194 79.6341 57.7663 80.3494 57.041" stroke="#386B34" stroke-width="1.68674" stroke-miterlimit="10"/>
<path d="M80.3494 61.4805V81.1858C80.3494 89.8457 73.3296 96.8655 64.6697 96.8655H35.3562C26.6963 96.8655 19.6765 89.8457 19.6765 81.1858V61.4805C20.3752 62.1891 22.2515 64.0455 25.1859 66.1248C30.4025 69.8277 38.9659 74.2425 50.2009 74.1926C61.2562 74.1427 69.68 69.7911 74.84 66.1315C77.7577 64.0588 79.6341 62.2057 80.3494 61.4805Z" fill="#D4E8BC"/>
<mask id="mask5_2409_33499" style="mask-type:luminance" maskUnits="userSpaceOnUse" x="19" y="61" width="62" height="36">
<path d="M80.3492 61.4785V81.1838C80.3492 89.8438 73.3294 96.8635 64.6694 96.8635H35.356C26.6961 96.8635 19.6763 89.8438 19.6763 81.1838V61.4785C20.3749 62.1871 22.2513 64.0436 25.1856 66.1229C30.4022 69.8257 38.9657 74.2405 50.2007 74.1906C61.256 74.1407 69.6797 69.7891 74.8398 66.1295C77.7575 64.0569 79.6339 62.2038 80.3492 61.4785Z" fill="white"/>
</mask>
<g mask="url(#mask5_2409_33499)">
<path d="M35.1431 81.8027H29.677V85.0132H35.1431V81.8027Z" fill="#A1C18F" stroke="#386B34" stroke-width="1.38732" stroke-miterlimit="10"/>
<path d="M35.1431 78.6152H29.677V81.8257H35.1431V78.6152Z" fill="#A1C18F" stroke="#386B34" stroke-width="1.38732" stroke-miterlimit="10"/>
<path d="M35.1431 75.4238H29.677V78.6343H35.1431V75.4238Z" fill="#A1C18F" stroke="#386B34" stroke-width="1.38732" stroke-miterlimit="10"/>
<path d="M35.1431 72.2344H29.677V75.4448H35.1431V72.2344Z" fill="#A1C18F" stroke="#386B34" stroke-width="1.38732" stroke-miterlimit="10"/>
<path d="M35.1431 69.043H29.677V72.2534H35.1431V69.043Z" fill="#A1C18F" stroke="#386B34" stroke-width="1.38732" stroke-miterlimit="10"/>
<path d="M35.1431 65.8516H29.677V69.062H35.1431V65.8516Z" fill="#A1C18F" stroke="#386B34" stroke-width="1.38732" stroke-miterlimit="10"/>
<path d="M66.4726 67.6622C66.4726 67.6622 70.7975 98.2498 58.325 99.7203C58.325 99.7203 97.6723 104.544 97.6723 102.332C97.6723 100.12 85.6954 51.6797 85.6954 51.6797L66.4726 67.6622Z" fill="#ACC19B"/>
</g>
<path d="M80.3494 61.4805V81.1858C80.3494 89.8457 73.3296 96.8655 64.6697 96.8655H35.3562C26.6963 96.8655 19.6765 89.8457 19.6765 81.1858V61.4805C20.3752 62.1891 22.2515 64.0455 25.1859 66.1248C30.4025 69.8277 38.9659 74.2425 50.2009 74.1926C61.2562 74.1427 69.68 69.7911 74.84 66.1315C77.7577 64.0588 79.6341 62.2057 80.3494 61.4805Z" stroke="#386B34" stroke-width="1.66346" stroke-miterlimit="10"/>
<path d="M69.3173 73.7756C68.4489 74.1016 67.5773 74.431 66.7955 74.93C66.0136 75.4257 65.3216 76.1111 64.9723 76.9694C64.623 77.8278 64.6662 78.8757 65.2218 79.6176C65.7941 80.3795 66.7822 80.6989 67.7237 80.8486C68.4223 80.9584 69.1842 80.985 69.7864 80.6157C70.2288 80.3462 70.5316 79.8871 70.7179 79.4014C70.8842 78.9656 70.9707 78.4931 70.9308 78.0274C70.7977 76.477 69.3372 75.2328 69.3705 73.6758" fill="#B0D461"/>
<path d="M69.1807 73.2728C67.6869 73.835 66.1199 74.4472 65.1019 75.7414C64.1571 76.9424 63.851 78.7123 64.8524 79.9799C65.7141 81.0744 67.4474 81.5269 68.7914 81.4271C69.6099 81.3672 70.3118 81.0212 70.7976 80.3491C71.2833 79.6771 71.5162 78.8254 71.4496 78.027C71.3831 77.2285 71.0338 76.5165 70.6612 75.8245C70.2886 75.1325 69.8893 74.4638 69.8893 73.6754C69.8893 73.0067 68.848 73.0067 68.8513 73.6754C68.8513 74.8864 69.5533 75.8645 70.059 76.9124C70.3218 77.4581 70.4915 78.0403 70.3917 78.6491C70.2985 79.2147 70.0291 79.8501 69.5267 80.1662C68.9844 80.5055 68.2525 80.419 67.6536 80.3092C67.0914 80.2061 66.5158 80.0464 66.0501 79.707C65.0287 78.9651 65.1219 77.5612 65.7606 76.5997C66.5924 75.3488 68.1161 74.7865 69.4602 74.2809C70.079 74.048 69.8128 73.0432 69.184 73.2795L69.1807 73.2728Z" fill="#386B34"/>
<path d="M67.6768 77.1323C67.4672 78.7458 67.2876 80.366 67.1346 81.9862C67.1079 82.2657 67.3907 82.5052 67.6536 82.5052C67.9563 82.5052 68.1459 82.2657 68.1726 81.9862C68.3256 80.366 68.5052 78.7458 68.7148 77.1323C68.7514 76.8528 68.4487 76.6133 68.1958 76.6133C67.8864 76.6133 67.7134 76.8528 67.6768 77.1323Z" fill="#386B34"/>
<path d="M44.7811 53.8709C44.4417 54.4331 44.9075 54.9787 45.4331 55.1617C45.9854 55.3547 46.6641 55.4012 47.2297 55.2648C48.2011 55.032 48.9863 54.167 50.011 54.167C50.5033 54.167 50.5067 53.3984 50.011 53.3984C49.1193 53.3984 48.4107 53.9108 47.6455 54.2934C47.2729 54.4764 46.8903 54.5928 46.4711 54.5695C46.2283 54.5562 45.9787 54.5229 45.7459 54.4564C45.6627 54.4331 45.5562 54.4065 45.4897 54.3433C45.4664 54.32 45.4431 54.3 45.4298 54.2668C45.4098 54.2202 45.4198 54.2901 45.4398 54.2568C45.696 53.8343 45.0339 53.4483 44.7777 53.8709H44.7811Z" fill="#386B34"/>
<path d="M54.582 54.2607C54.6053 54.3006 54.602 54.2307 54.5953 54.2607C54.5887 54.2873 54.5787 54.3073 54.5587 54.3239C54.4855 54.3838 54.409 54.4204 54.3192 54.4503C54.0896 54.5202 53.8401 54.5568 53.6006 54.5701C53.1648 54.6 52.7722 54.4902 52.3829 54.2973C51.6178 53.918 50.9091 53.4057 50.0175 53.4023C49.5251 53.4023 49.5218 54.1709 50.0175 54.1709C51.0422 54.1709 51.8307 55.0359 52.7988 55.2687C53.3644 55.4051 54.0464 55.3586 54.5953 55.1656C55.1443 54.9726 55.5868 54.4337 55.2474 53.8748C54.9912 53.4522 54.3259 53.8382 54.5854 54.2607H54.582Z" fill="#386B34"/>
<path d="M42.3957 52.5166C42.3957 52.5166 45.2802 52.6796 45.4432 49.4891C45.6062 46.2986 41.0184 45.224 37.9576 47.6327C34.8969 50.0414 36.038 51.279 36.72 51.6017C37.402 51.9244 40.689 52.5532 42.3924 52.5133L42.3957 52.5166Z" fill="#386B34"/>
<path d="M43.5801 47.9948L43.8197 48.73H44.5948C44.8876 48.73 45.0107 49.1059 44.7745 49.2789L44.149 49.7347L44.3886 50.47C44.4784 50.7494 44.159 50.9823 43.9228 50.8093L43.2973 50.3535L42.6719 50.8093C42.4323 50.9823 42.1129 50.7494 42.2061 50.47L42.4456 49.7347L41.8202 49.2789C41.5806 49.1059 41.7037 48.73 41.9998 48.73H42.775L43.0145 47.9948C43.1044 47.7153 43.5003 47.7153 43.5934 47.9948H43.5801Z" fill="white"/>
<path d="M42.1695 45.4964C42.8879 45.4964 43.4703 45.0198 43.4703 44.4318C43.4703 43.8438 42.8879 43.3672 42.1695 43.3672C41.451 43.3672 40.8687 43.8438 40.8687 44.4318C40.8687 45.0198 41.451 45.4964 42.1695 45.4964Z" fill="#386B34"/>
<path d="M57.633 52.5166C57.633 52.5166 54.7485 52.6796 54.5855 49.4891C54.4225 46.2986 59.0103 45.224 62.0711 47.6327C65.1318 50.0414 63.9907 51.279 63.3087 51.6017C62.6267 51.9244 59.3397 52.5532 57.6363 52.5133L57.633 52.5166Z" fill="#386B34"/>
<path d="M60.8501 48.0221L61.0897 48.7573H61.8648C62.1576 48.7573 62.2807 49.1333 62.0445 49.3063L61.419 49.7621L61.6586 50.4973C61.7484 50.7768 61.429 51.0097 61.1928 50.8367L60.5674 50.3809L59.9419 50.8367C59.7024 51.0097 59.383 50.7768 59.4761 50.4973L59.7157 49.7621L59.0902 49.3063C58.8507 49.1333 58.9738 48.7573 59.2699 48.7573H60.045L60.2846 48.0221C60.3744 47.7426 60.7703 47.7426 60.8634 48.0221H60.8501Z" fill="white"/>
<path d="M57.8592 45.4964C58.5776 45.4964 59.16 45.0198 59.16 44.4318C59.16 43.8438 58.5776 43.3672 57.8592 43.3672C57.1407 43.3672 56.5583 43.8438 56.5583 44.4318C56.5583 45.0198 57.1407 45.4964 57.8592 45.4964Z" fill="#386B34"/>
<path d="M83.8923 48.4339C83.8724 48.4506 83.8524 48.4705 83.8291 48.4872C82.2688 49.8412 82.3719 46.674 82.3719 46.654C82.3719 30.6882 66.4726 15.747 50.0077 15.747C33.5428 15.747 17.6502 30.6882 17.6502 46.654C17.6502 46.6707 17.7533 49.8412 16.193 48.4872C16.173 48.4705 16.1531 48.4506 16.1331 48.4339C14.8689 47.3327 14.1835 45.7225 14.3066 44.079C15.6673 26.1037 31.1342 11.9277 50.0111 11.9277C68.888 11.9277 84.3581 26.1004 85.7188 44.079C85.8419 45.7225 85.1566 47.3327 83.8923 48.4339Z" fill="#A1C18F"/>
<mask id="mask6_2409_33499" style="mask-type:luminance" maskUnits="userSpaceOnUse" x="14" y="11" width="72" height="38">
<path d="M83.8923 48.4359C83.8724 48.4525 83.8524 48.4725 83.8291 48.4891C82.2688 49.8432 82.3719 46.676 82.3719 46.656C82.3719 30.6901 66.4726 15.749 50.0077 15.749C33.5428 15.749 17.6502 30.6901 17.6502 46.656C17.6502 46.6726 17.7533 49.8432 16.193 48.4891C16.173 48.4725 16.1531 48.4525 16.1331 48.4359C14.8689 47.3347 14.1835 45.7245 14.3066 44.081C15.6673 26.1057 31.1342 11.9297 50.0111 11.9297C68.888 11.9297 84.3581 26.1023 85.7188 44.081C85.8419 45.7245 85.1566 47.3347 83.8923 48.4359Z" fill="white"/>
</mask>
<g mask="url(#mask6_2409_33499)">
<path d="M57.3901 8.5918C57.3901 8.5918 64.8657 17.0022 65.5377 25.0833C66.2098 33.1644 100.254 75.2465 100.254 75.2465C100.254 75.2465 116.223 35.7627 116.223 34.5883C116.223 33.4139 57.3901 8.5918 57.3901 8.5918Z" fill="#7A956C"/>
</g>
<path d="M83.8923 48.4339C83.8724 48.4506 83.8524 48.4705 83.8291 48.4872C82.2688 49.8412 82.3719 46.674 82.3719 46.654C82.3719 30.6882 66.4726 15.747 50.0077 15.747C33.5428 15.747 17.6502 30.6882 17.6502 46.654C17.6502 46.6707 17.7533 49.8412 16.193 48.4872C16.173 48.4705 16.1531 48.4506 16.1331 48.4339C14.8689 47.3327 14.1835 45.7225 14.3066 44.079C15.6673 26.1037 31.1342 11.9277 50.0111 11.9277C68.888 11.9277 84.3581 26.1004 85.7188 44.079C85.8419 45.7225 85.1566 47.3327 83.8923 48.4339Z" stroke="#386B34" stroke-width="1.69007" stroke-miterlimit="10"/>
<path d="M35.4758 34.5876C39.7675 31.111 44.7812 29.5574 47.293 28.9552L46.6842 24.1777C40.4961 24.6269 35.6821 27.0954 32.1389 29.89L35.4725 34.5876H35.4758Z" fill="white"/>
<path d="M31.3305 30.5527C28.8619 32.6454 27.0787 34.8411 25.9409 36.4647L30.8481 39.8015C31.9327 38.035 33.2501 36.5379 34.6774 35.267L31.3305 30.5527Z" fill="white"/>
<path d="M25.3586 37.3262C24.7099 38.3209 24.3938 38.9497 24.3938 38.9497L29.8699 41.6146C30.0163 41.3052 30.1693 41.0024 30.329 40.7063L25.3586 37.3262Z" fill="white"/>
<path d="M48.3143 28.7326C48.6902 28.6594 48.8998 28.6262 48.8998 28.6262L48.7035 24.1016C48.3742 24.1016 48.0515 24.1082 47.7288 24.1215L48.3143 28.7326Z" fill="white"/>
<path d="M19.6762 37.8926H11.7183V58.2865H19.6762V37.8926Z" fill="#A1C18F" stroke="#386B34" stroke-width="1.38732" stroke-miterlimit="10"/>
<path d="M88.3071 37.8926H80.3491V58.2865H88.3071V37.8926Z" fill="#7A956C"/>
<path d="M88.3071 37.8926H80.3491V58.2865H88.3071V37.8926Z" stroke="#386B34" stroke-width="1.66346" stroke-miterlimit="10"/>
</svg>
