<svg width="194" height="293" viewBox="0 0 194 293" fill="none" xmlns="http://www.w3.org/2000/svg">
<path d="M91.1819 188.16C91.1819 188.16 90.8126 210.207 98.0351 208.723C105.258 207.239 102.41 185.749 102.41 185.749L91.1819 188.157V188.16Z" fill="#77236A" stroke="#77236A" stroke-width="1.77543" stroke-miterlimit="10"/>
<path d="M94.263 206.735C94.263 206.735 91.3123 215.139 91.1773 221.066C91.0424 226.992 99.7491 259.23 99.1916 265.714L101.567 205.048L94.2595 206.735H94.263Z" fill="#77236A" stroke="#77236A" stroke-width="1.77543" stroke-miterlimit="10"/>
<path d="M99.1776 261.808C99.1776 261.808 98.439 279.701 109.312 291C109.312 291 99.1457 289.253 98.439 279.701C98.439 279.701 96.5038 287.62 97.7218 290.325C97.7218 290.325 93.2654 288.798 95.5309 277.617C95.5309 277.617 90.1549 278.82 88.4824 273.036L95.0551 274.627C95.0551 274.627 90.0164 274.467 91.1207 259.742L96.9761 269.187L99.1812 261.808H99.1776Z" fill="#77236A" stroke="#77236A" stroke-width="1.77543" stroke-miterlimit="10"/>
<path d="M78.0187 183C78.0187 183 75.1034 204.856 82.4537 204.22C89.804 203.585 89.4525 181.907 89.4525 181.907L78.0187 183Z" fill="#77236A" stroke="#77236A" stroke-width="1.77543" stroke-miterlimit="10"/>
<path d="M80.3444 195.649C80.3444 195.649 73.651 189.772 68.204 187.428C62.757 185.085 29.6025 181.115 23.7969 178.175L79.1797 203.052L80.348 195.645L80.3444 195.649Z" fill="#77236A" stroke="#77236A" stroke-width="1.77543" stroke-miterlimit="10"/>
<path d="M30.9837 180.923C30.9837 180.923 18.1082 173.626 3.14844 178.335C3.14844 178.335 9.23817 170.008 18.1047 173.626C18.1047 173.626 11.8729 168.367 8.91149 168.257C8.91149 168.257 12.2635 164.944 21.2649 171.95C21.2649 171.95 22.5823 166.599 28.5052 167.675L24.1554 172.852C24.1554 172.852 26.5415 168.414 39.2359 175.952L28.1714 176.989L30.9837 180.916V180.923Z" fill="#77236A" stroke="#77236A" stroke-width="1.77543" stroke-miterlimit="10"/>
<path d="M112.639 96.7394L78.8737 57.1401C78.8737 57.1401 71.9246 47.6913 63.4523 52.4175C54.9799 57.1437 67.7595 75.6224 67.7595 75.6224C67.7595 75.6224 53.588 74.9264 55.8108 86.1826C58.0337 97.4389 110.047 102.438 110.047 102.438L112.639 96.7429V96.7394Z" fill="#EABED9" stroke="#77236A" stroke-width="1.77543" stroke-miterlimit="10"/>
<path d="M134.536 101.145C132.819 100.491 130.897 101.353 130.243 103.071C129.59 104.788 130.452 106.71 132.169 107.364L153.026 115.303C154.744 115.957 156.666 115.095 157.319 113.378C157.973 111.66 157.111 109.738 155.394 109.084L134.536 101.145Z" fill="#77236A"/>
<path d="M116.389 97.0162L46.9979 82.2517C46.9979 82.2517 33.7319 79.1447 29.8046 89.7121C25.8774 100.283 51.1169 106.969 51.1169 106.969C51.1169 106.969 38.0675 117.047 48.5248 125.317C58.9821 133.587 113.47 106.351 113.47 106.351L116.389 97.0198V97.0162Z" fill="#EABED9" stroke="#77236A" stroke-width="2.06305" stroke-miterlimit="10"/>
<path d="M116.683 61.5786C116.683 61.5786 115.813 46.6259 110.047 25.5054C104.28 4.38486 132.996 -5.94461 147.168 6.14609C161.339 18.2368 156.386 33.0297 156.386 33.0297C156.386 33.0297 168.011 20.733 180.933 24.2093C193.854 27.6856 191.493 41.5766 185.655 48.9411C179.818 56.3056 163.285 65.0585 163.285 65.0585C163.285 65.0585 190.101 52.4139 185.794 35.739C181.487 19.0641 153.467 36.2894 153.467 36.2894C153.467 36.2894 157.82 11.8168 134.8 5.72353C118.991 1.54061 110.746 15.5914 112.152 24.4828C114.166 37.2197 119.268 51.5616 116.683 61.5751V61.5786Z" fill="#BF489A" stroke="#77236A" stroke-width="1.77543" stroke-miterlimit="10"/>
<path d="M127.624 62.3384C127.624 62.3384 118.754 36.0194 131.395 24.7632C144.036 13.5069 147.931 37.6848 146.816 46.1607C146.816 46.1607 170.856 37.8801 170.714 49.3565C170.572 60.8329 155.012 65.0584 155.012 65.0584C155.012 65.0584 147.786 72.4229 160.707 74.9227C173.629 77.4225 172.241 91.9882 146.813 94.2252C146.813 94.2252 160.569 91.1821 159.873 85.7635C159.177 80.3449 153.077 82.3369 147.651 81.8256C142.225 81.3143 139.168 76.8686 148.34 67.4197C148.34 67.4197 143.685 68.4743 135.383 68.5702C127.081 68.6661 127.617 62.3349 127.617 62.3349L127.624 62.3384Z" fill="#BF489A"/>
<mask id="mask0_2675_62905" style="mask-type:luminance" maskUnits="userSpaceOnUse" x="124" y="21" width="47" height="74">
<path d="M127.624 62.3384C127.624 62.3384 118.754 36.0194 131.395 24.7632C144.036 13.5069 147.931 37.6848 146.816 46.1607C146.816 46.1607 170.856 37.8801 170.714 49.3565C170.572 60.8329 155.012 65.0584 155.012 65.0584C155.012 65.0584 147.786 72.4229 160.707 74.9227C173.629 77.4225 172.241 91.9882 146.813 94.2252C146.813 94.2252 160.569 91.1821 159.873 85.7635C159.177 80.3449 153.077 82.3369 147.651 81.8256C142.225 81.3143 139.168 76.8686 148.34 67.4197C148.34 67.4197 143.685 68.4743 135.383 68.5702C127.081 68.6661 127.617 62.3349 127.617 62.3349L127.624 62.3384Z" fill="white"/>
</mask>
<g mask="url(#mask0_2675_62905)">
<path d="M166.031 108.234C184.622 108.234 199.694 93.1625 199.694 74.5714C199.694 55.9803 184.622 40.9092 166.031 40.9092C147.44 40.9092 132.369 55.9803 132.369 74.5714C132.369 93.1625 147.44 108.234 166.031 108.234Z" fill="#D976AF"/>
<path d="M141.637 73.6727C148.314 73.6727 153.727 62.0673 153.727 47.7514C153.727 33.4354 148.314 21.8301 141.637 21.8301C134.959 21.8301 129.546 33.4354 129.546 47.7514C129.546 62.0673 134.959 73.6727 141.637 73.6727Z" fill="#D976AF"/>
</g>
<path d="M127.624 62.3384C127.624 62.3384 118.754 36.0194 131.395 24.7632C144.036 13.5069 147.931 37.6848 146.816 46.1607C146.816 46.1607 170.856 37.8801 170.714 49.3565C170.572 60.8329 155.012 65.0584 155.012 65.0584C155.012 65.0584 147.786 72.4229 160.707 74.9227C173.629 77.4225 172.241 91.9882 146.813 94.2252C146.813 94.2252 160.569 91.1821 159.873 85.7635C159.177 80.3449 153.077 82.3369 147.651 81.8256C142.225 81.3143 139.168 76.8686 148.34 67.4197C148.34 67.4197 143.685 68.4743 135.383 68.5702C127.081 68.6661 127.617 62.3349 127.617 62.3349L127.624 62.3384Z" stroke="#77236A" stroke-width="1.77543" stroke-miterlimit="10"/>
<path d="M96.8306 202.932C125.761 202.932 149.213 182.838 149.213 158.052C149.213 133.266 125.761 113.173 96.8306 113.173C67.9006 113.173 44.4482 133.266 44.4482 158.052C44.4482 182.838 67.9006 202.932 96.8306 202.932Z" fill="#BF489A"/>
<mask id="mask1_2675_62905" style="mask-type:luminance" maskUnits="userSpaceOnUse" x="44" y="113" width="106" height="90">
<path d="M96.8306 202.932C125.761 202.932 149.213 182.838 149.213 158.052C149.213 133.266 125.761 113.173 96.8306 113.173C67.9006 113.173 44.4482 133.266 44.4482 158.052C44.4482 182.838 67.9006 202.932 96.8306 202.932Z" fill="white"/>
</mask>
<g mask="url(#mask1_2675_62905)">
<path d="M147.659 211.525C173.351 211.525 194.178 190.697 194.178 165.005C194.178 139.313 173.351 118.485 147.659 118.485C121.966 118.485 101.139 139.313 101.139 165.005C101.139 190.697 121.966 211.525 147.659 211.525Z" fill="#D976AF"/>
</g>
<path d="M96.8306 202.932C125.761 202.932 149.213 182.838 149.213 158.052C149.213 133.266 125.761 113.173 96.8306 113.173C67.9006 113.173 44.4482 133.266 44.4482 158.052C44.4482 182.838 67.9006 202.932 96.8306 202.932Z" stroke="#77236A" stroke-width="1.77543" stroke-miterlimit="10"/>
<path d="M46.7535 158.052C46.8316 173.385 57.3386 186.793 70.5727 193.689C84.0056 200.897 100.368 202.253 114.927 197.769C132.464 192.655 147.875 177.053 147.996 158.052C148.454 138.796 133.096 122.497 115.356 117.033C103.447 113.18 90.2445 113.336 78.4485 117.455C61.1807 123.24 46.3664 139.194 46.7535 158.052ZM42.1445 158.052C42.1729 137.5 58.6382 120.427 77.5998 114.877C90.0314 111.028 103.61 111.188 115.928 115.3C138.124 122.423 155.012 143.962 149.37 167.853C140.741 202.143 97.2503 214.483 67.9024 198.706C52.9533 191.015 41.7787 175.206 42.1445 158.052Z" fill="#EABED9" stroke="#77236A" stroke-width="1.77543" stroke-miterlimit="10"/>
<path d="M132.186 115.602C131.634 113.849 129.766 112.876 128.013 113.428C126.261 113.98 125.287 115.848 125.839 117.601L132.543 138.887C133.095 140.64 134.963 141.613 136.716 141.062C138.468 140.51 139.442 138.641 138.89 136.889L132.186 115.602Z" fill="#77236A"/>
<path d="M109.944 133.679C110.697 135.759 113.3 136.452 114.979 135.014C119.659 131.008 127.869 122.6 132.819 109.558C132.819 109.558 138.376 95.3861 117.536 94.2747C104.074 93.5575 101.344 100.546 101.099 105.588C100.992 107.775 101.369 109.955 102.114 112.015L109.944 133.679Z" fill="#BF489A"/>
<mask id="mask2_2675_62905" style="mask-type:luminance" maskUnits="userSpaceOnUse" x="101" y="94" width="33" height="42">
<path d="M109.944 133.679C110.697 135.759 113.3 136.452 114.979 135.014C119.659 131.008 127.869 122.6 132.819 109.558C132.819 109.558 138.376 95.3861 117.536 94.2747C104.074 93.5575 101.344 100.546 101.099 105.588C100.992 107.775 101.369 109.955 102.114 112.015L109.944 133.679Z" fill="white"/>
</mask>
<g mask="url(#mask2_2675_62905)">
<path d="M133.49 105.705C133.49 105.705 131.044 113.109 114.024 109.22C114.024 109.22 114.003 130.71 126.996 127.933C126.996 127.933 134.886 117.661 133.49 105.709" fill="#D976AF"/>
</g>
<path d="M109.944 133.679C110.697 135.759 113.3 136.452 114.979 135.014C119.659 131.008 127.869 122.6 132.819 109.558C132.819 109.558 138.376 95.3861 117.536 94.2747C104.074 93.5575 101.344 100.546 101.099 105.588C100.992 107.775 101.369 109.955 102.114 112.015L109.944 133.679Z" stroke="#77236A" stroke-width="1.89616" stroke-miterlimit="10"/>
<path d="M87.7444 130.458C87.7444 130.458 93.7099 124.468 93.788 118.857C93.8661 113.247 89.0654 109.895 87.258 91.8315C87.258 91.8315 83.4372 105.655 87.7444 130.458Z" fill="#77236A" stroke="#77236A" stroke-width="1.77543" stroke-miterlimit="10"/>
<path d="M91.6641 148.954C91.6641 148.954 100.012 147.626 103.382 143.138C106.752 138.65 104.845 133.114 114.024 117.451C114.024 117.451 102.792 126.371 91.6641 148.951V148.954Z" fill="#77236A" stroke="#77236A" stroke-width="1.77543" stroke-miterlimit="10"/>
<path d="M141.636 149.988C141.636 149.988 134.058 146.981 132.088 142.159C130.117 137.34 133.458 132.692 129.041 116.422C129.041 116.422 137.272 126.982 141.639 149.988H141.636Z" fill="#77236A" stroke="#77236A" stroke-width="1.71152" stroke-miterlimit="10"/>
<path d="M143.326 115.537C143.326 115.537 149.803 110.105 155.399 110.502C160.995 110.9 163.928 115.971 181.771 119.308C181.771 119.308 167.671 121.94 143.326 115.537Z" fill="#77236A" stroke="#77236A" stroke-width="1.77543" stroke-miterlimit="10"/>
<path d="M86.3313 92.9395C86.3313 92.9395 78.4129 87.244 73.8252 87.5884C73.8252 87.5884 78.8284 83.9061 83.7605 86.6865C83.7605 86.6865 82.5781 83.0752 85.1489 81.8218C85.1489 81.8218 85.0104 84.8791 87.4428 86.6154C89.8751 88.3518 86.3313 92.936 86.3313 92.936V92.9395Z" fill="#77236A" stroke="#77236A" stroke-width="1.77543" stroke-miterlimit="10"/>
<path d="M179.165 119.525C179.165 119.525 188.813 120.978 191.852 124.425C191.852 124.425 190.84 118.297 185.372 116.844C185.372 116.844 188.738 115.083 187.772 112.392C187.772 112.392 185.738 114.678 182.783 114.224C179.829 113.769 179.165 119.525 179.165 119.525Z" fill="#77236A" stroke="#77236A" stroke-width="1.77543" stroke-miterlimit="10"/>
<path d="M117.735 107.971C117.735 107.971 118.477 110.705 121.069 110.332L118.754 106.348C118.754 106.348 110.835 106.533 113.058 111.905C113.058 111.905 111.112 109.59 107.501 110.006C107.501 110.006 113.747 113.688 114.027 117.452C114.027 117.452 119.144 114.036 120.316 117.185C120.316 117.185 121.257 113.063 116.857 113.851C116.857 113.851 113.2 110.886 117.738 107.967L117.735 107.971Z" fill="#77236A"/>
<path d="M125.153 107.971C125.153 107.971 124.41 110.705 121.818 110.332L124.134 106.348C124.134 106.348 132.052 106.533 129.829 111.905C129.829 111.905 131.775 109.59 135.386 110.006C135.386 110.006 129.14 113.688 128.86 117.452C128.86 117.452 123.743 114.036 122.571 117.185C122.571 117.185 121.63 113.063 126.03 113.851C126.03 113.851 129.687 110.886 125.149 107.967L125.153 107.971Z" fill="#77236A"/>
<path d="M106.192 105.896C107.052 104.272 106.432 102.259 104.808 101.399C103.184 100.54 101.17 101.159 100.311 102.783L89.8714 122.508C89.0118 124.133 89.6316 126.146 91.2557 127.006C92.8798 127.865 94.8932 127.245 95.7528 125.621L106.192 105.896Z" fill="#77236A"/>
<path d="M107.223 114.451C107.471 112.631 106.196 110.954 104.375 110.706C102.554 110.458 100.877 111.733 100.629 113.554L97.62 135.667C97.3722 137.488 98.6473 139.165 100.468 139.413C102.289 139.661 103.966 138.386 104.214 136.565L107.223 114.451Z" fill="#77236A"/>
<path d="M126.147 102.036C126.364 99.8409 123.027 97.7129 118.693 97.2834C114.358 96.8538 110.668 98.2853 110.451 100.481C110.233 102.676 113.57 104.804 117.905 105.234C122.239 105.663 125.929 104.232 126.147 102.036Z" stroke="#77236A" stroke-width="1.77543" stroke-miterlimit="10"/>
<path d="M120.714 100.819C120.448 100.972 119.592 101.426 118.442 101.281C117.249 101.132 116.517 100.432 116.308 100.219C116.613 97.9819 116.918 95.7449 117.22 93.5078L121.627 94.1079L120.714 100.819Z" fill="#BF489A" stroke="#77236A" stroke-width="1.77543" stroke-miterlimit="10"/>
<path d="M133.629 66.3262C133.629 66.3262 127.653 58.5462 114.039 62.1575C100.425 65.7687 100.687 82.1133 102.41 85.9163C104.867 91.3349 110.285 95.7167 121.542 95.0207C132.798 94.3248 139.051 89.9465 139.047 81.8861C139.047 71.4643 133.629 66.3226 133.629 66.3226V66.3262Z" fill="#BF489A"/>
<mask id="mask3_2675_62905" style="mask-type:luminance" maskUnits="userSpaceOnUse" x="101" y="61" width="39" height="35">
<path d="M133.628 66.3267C133.628 66.3267 127.652 58.5467 114.038 62.158C100.424 65.7692 100.686 82.1138 102.409 85.9168C104.866 91.3354 110.284 95.7172 121.541 95.0212C132.797 94.3252 139.05 89.947 139.046 81.8866C139.046 71.4648 133.628 66.3231 133.628 66.3231V66.3267Z" fill="white"/>
</mask>
<g mask="url(#mask3_2675_62905)">
<path d="M129.041 93.9947C139.136 93.9947 147.32 86.2811 147.32 76.7659C147.32 67.2507 139.136 59.5371 129.041 59.5371C118.945 59.5371 110.761 67.2507 110.761 76.7659C110.761 86.2811 118.945 93.9947 129.041 93.9947Z" fill="#D976AF"/>
</g>
<path d="M133.629 66.3262C133.629 66.3262 127.653 58.5462 114.039 62.1575C100.425 65.7687 100.687 82.1133 102.41 85.9163C104.867 91.3349 110.285 95.7167 121.542 95.0207C132.798 94.3248 139.051 89.9465 139.047 81.8861C139.047 71.4643 133.629 66.3226 133.629 66.3226V66.3262Z" stroke="#77236A" stroke-width="1.77543" stroke-miterlimit="10"/>
<path d="M118.427 85.877C118.427 85.877 117.696 63.9859 102.409 75.1782L98.0312 74.9687C98.0312 74.9687 105.573 90.8091 118.424 85.877H118.427Z" fill="#77236A"/>
<mask id="mask4_2675_62905" style="mask-type:luminance" maskUnits="userSpaceOnUse" x="98" y="71" width="21" height="16">
<path d="M118.426 85.877C118.426 85.877 117.695 63.9859 102.408 75.1782L98.0303 74.9687C98.0303 74.9687 105.572 90.8091 118.423 85.877H118.426Z" fill="white"/>
</mask>
<g mask="url(#mask4_2675_62905)">
<path d="M117.286 88.2848C121.456 88.2848 124.836 84.9049 124.836 80.7357C124.836 76.5664 121.456 73.1865 117.286 73.1865C113.117 73.1865 109.737 76.5664 109.737 80.7357C109.737 84.9049 113.117 88.2848 117.286 88.2848Z" fill="white"/>
</g>
<path d="M118.427 85.877C118.427 85.877 117.696 63.9859 102.409 75.1782L98.0312 74.9687C98.0312 74.9687 105.573 90.8091 118.424 85.877H118.427Z" stroke="#77236A" stroke-width="1.77543" stroke-linejoin="round"/>
<path d="M126.995 85.0215C126.995 85.0215 127.524 73.7652 139.047 75.3418L143.205 73.8149L138.741 77.7138C138.741 77.7138 134.637 76.3609 126.995 85.0215Z" fill="#77236A" stroke="#77236A" stroke-width="1.77543" stroke-linejoin="round"/>
</svg>
