<svg width="104" height="78" viewBox="0 0 104 78" fill="none" xmlns="http://www.w3.org/2000/svg">
<path d="M64.1012 84.4923C64.1012 84.4923 65.2249 85.0045 67.9871 73.9609C67.9871 73.9609 49.4775 84.3904 34.1404 77.9487C34.1404 77.9487 35.1517 84.163 42.9339 89.7789L64.1012 84.4923Z" fill="#C39C3D" stroke="#66652B" stroke-width="1.30662" stroke-miterlimit="10"/>
<path d="M8.39204 56.6934L1.86938 84.331L20.5645 78.9007L23.737 59.1603L8.39204 56.6934Z" fill="#BEBB32" stroke="#66652B" stroke-width="1.30662" stroke-linecap="round" stroke-linejoin="round"/>
<path d="M10.8929 37.6934H29.3842L37.2083 50.5766L30.6621 65.2343L12.3929 67.6882L2.57495 52.6908L10.8929 37.6934Z" fill="#C39C3D" stroke="#66652B" stroke-width="1.30662" stroke-miterlimit="10"/>
<path d="M70.3391 73.9585C70.3391 73.9585 78.0089 56.165 75.5551 43.0779C73.1012 29.9907 42.6282 28.9664 29.3869 35.9202C16.1456 42.874 15.8373 51.7695 20.5411 59.1336C25.2449 66.4977 32.7267 78.8688 32.7267 78.8688C32.7267 78.8688 48.0481 90.1162 70.3391 73.9612V73.9585Z" fill="#F9ED31"/>
<mask id="mask0_2409_33365" style="mask-type:luminance" maskUnits="userSpaceOnUse" x="17" y="31" width="60" height="52">
<path d="M70.3388 73.9605C70.3388 73.9605 78.0087 56.1669 75.5548 43.0798C73.101 29.9927 42.628 28.9683 29.3867 35.9221C16.1454 42.876 15.837 51.7715 20.5409 59.1356C25.2447 66.4997 32.7264 78.8708 32.7264 78.8708C32.7264 78.8708 48.0478 90.1182 70.3388 73.9631V73.9605Z" fill="white"/>
</mask>
<g mask="url(#mask0_2409_33365)">
<path d="M37.1453 62.0625C37.1453 62.0625 33.3169 65.687 35.9746 71.6452C38.6323 77.6034 43.5425 87.4606 43.5425 87.4606C43.5425 87.4606 26.465 88.3386 26.465 88.1348C26.465 87.9309 13.6497 48.4579 13.6497 48.4579L22.5112 44.6426L37.1453 62.0625Z" fill="#BEBB32"/>
<path d="M50.0949 61.1358C66.1792 57.9276 77.7713 48.0731 75.9866 39.1252C74.2018 30.1772 59.7161 25.5241 43.6318 28.7322C27.5475 31.9403 15.9554 41.7948 17.7401 50.7428C19.5248 59.6908 34.0106 64.3439 50.0949 61.1358Z" fill="#F9ED31"/>
<mask id="mask1_2409_33365" style="mask-type:luminance" maskUnits="userSpaceOnUse" x="17" y="27" width="60" height="36">
<path d="M50.0949 61.1358C66.1792 57.9276 77.7713 48.0731 75.9866 39.1252C74.2018 30.1772 59.7161 25.5241 43.6318 28.7322C27.5475 31.9403 15.9554 41.7948 17.7401 50.7428C19.5248 59.6908 34.0106 64.3439 50.0949 61.1358Z" fill="white"/>
</mask>
<g mask="url(#mask1_2409_33365)">
<path d="M32.0679 61.7529C45.4642 61.7529 56.324 53.0459 56.324 42.3052C56.324 31.5645 45.4642 22.8574 32.0679 22.8574C18.6716 22.8574 7.81177 31.5645 7.81177 42.3052C7.81177 53.0459 18.6716 61.7529 32.0679 61.7529Z" fill="#BEBB32"/>
</g>
<path d="M50.0949 61.1358C66.1792 57.9276 77.7713 48.0731 75.9866 39.1252C74.2018 30.1772 59.7161 25.5241 43.6318 28.7322C27.5475 31.9403 15.9554 41.7948 17.7401 50.7428C19.5248 59.6908 34.0106 64.3439 50.0949 61.1358Z" stroke="#66652B" stroke-width="1.30662" stroke-miterlimit="10"/>
</g>
<path d="M70.3391 73.9585C70.3391 73.9585 78.0089 56.165 75.5551 43.0779C73.1012 29.9907 42.6282 28.9664 29.3869 35.9202C16.1456 42.874 15.8373 51.7695 20.5411 59.1336C25.2449 66.4977 32.7267 78.8688 32.7267 78.8688C32.7267 78.8688 48.0481 90.1162 70.3391 73.9612V73.9585Z" stroke="#66652B" stroke-width="1.30662" stroke-miterlimit="10"/>
<path d="M77.7004 63.4621L84.1081 82.6772L102.923 87.4569L93.4217 55.8262L77.7004 63.4621Z" fill="#F9ED31"/>
<mask id="mask2_2409_33365" style="mask-type:luminance" maskUnits="userSpaceOnUse" x="77" y="55" width="26" height="33">
<path d="M77.7004 63.4601L84.1081 82.6753L102.923 87.4549L93.4217 55.8242L77.7004 63.4601Z" fill="white"/>
</mask>
<g mask="url(#mask2_2409_33365)">
<path d="M80.8337 62.8521L90.3146 89.3373C90.3146 89.3373 70.3024 82.4357 70.5062 81.3878C70.71 80.3399 75.3119 62.1387 75.3119 62.1387L81.3146 62.5489" fill="#BEBB32"/>
</g>
<path d="M77.7004 63.4621L84.1081 82.6772L102.923 87.4569L93.4217 55.8262L77.7004 63.4621Z" stroke="#66652B" stroke-width="1.30662" stroke-linecap="round" stroke-linejoin="round"/>
<path d="M70.0672 37.8284L64.4749 53.6438L76.0385 66.5976L92.0184 62.9155L98.1517 46.8284L84.832 34.5566L70.0672 37.8284Z" fill="#C39C3D" stroke="#66652B" stroke-width="1.30662" stroke-miterlimit="10"/>
<path d="M34.1403 94.3996L5.76831 93.1949C7.99741 90.1348 8.0157 85.2481 14.0967 81.5608C17.8127 79.3082 18.0767 77.8108 20.8702 76.998C24.5053 77.377 31.3912 77.9205 35.0262 78.2968L34.1403 94.397V94.3996Z" fill="#F9ED31"/>
<path d="M34.1403 94.3996L5.76831 93.1949C7.99741 90.1348 8.0157 85.2481 14.0967 81.5608C17.8127 79.3082 18.0767 77.8108 20.8702 76.998C24.5053 77.377 31.3912 77.9205 35.0262 78.2968L34.1403 94.397V94.3996Z" stroke="#66652B" stroke-width="1.30662" stroke-linecap="round" stroke-linejoin="round"/>
<path d="M54.5237 78.3234C54.5237 78.3234 47.5019 67.144 34.1404 77.9497V94.4027C34.1404 94.4027 48.7954 96.7625 52.6317 92.8112L54.5237 78.326V78.3234Z" fill="#F9ED31"/>
<mask id="mask3_2409_33365" style="mask-type:luminance" maskUnits="userSpaceOnUse" x="34" y="73" width="21" height="23">
<path d="M54.5237 78.3234C54.5237 78.3234 47.5019 67.144 34.1404 77.9497V94.4027C34.1404 94.4027 48.7954 96.7625 52.6317 92.8112L54.5237 78.326V78.3234Z" fill="white"/>
</mask>
<g mask="url(#mask3_2409_33365)">
<path d="M36.9496 75.9284C36.9496 75.9284 35.6194 83.7498 41.3529 85.0956C47.0863 86.4415 56.3999 80.8465 59.447 76.9972C62.494 73.1479 54.521 103.71 54.521 103.71L30.1159 108.97C30.1159 108.97 25.4748 83.6113 25.6786 82.6732C25.8825 81.735 36.9469 75.9258 36.9469 75.9258" fill="#BEBB32"/>
</g>
<path d="M54.5237 78.3234C54.5237 78.3234 47.5019 67.144 34.1404 77.9497V94.4027C34.1404 94.4027 48.7954 96.7625 52.6317 92.8112L54.5237 78.326V78.3234Z" stroke="#66652B" stroke-width="1.30662" stroke-miterlimit="10"/>
<path d="M34.1404 77.9473L29.3843 94.165L36.6099 94.7191L34.1404 77.9473Z" fill="#C39C3D" stroke="#66652B" stroke-width="1.30662" stroke-linecap="round" stroke-linejoin="round"/>
<path d="M2.6926 81.3903L20.8703 77L5.76839 93.1969C2.54103 92.9983 0.319778 89.8728 1.18999 86.7579L2.6926 81.3929V81.3903Z" fill="#C39C3D" stroke="#66652B" stroke-width="1.30662" stroke-linecap="round" stroke-linejoin="round"/>
<path d="M42.5132 18.9191L47.1987 5.6543L48.3303 18.8695L42.5132 18.9191Z" fill="#F9ED31" stroke="#66652B" stroke-width="1.30662" stroke-miterlimit="10"/>
<path d="M28.7205 28.0963C28.7205 28.0963 32.4757 16.6425 46.9086 18.8925C61.3416 21.1425 60.4217 33.3097 60.2153 35.7662C60.0088 38.2226 56.69 51.6103 42.3198 51.1059C27.2884 50.578 25.8564 34.862 28.7205 28.0989V28.0963Z" fill="#BEBB32"/>
<mask id="mask4_2409_33365" style="mask-type:luminance" maskUnits="userSpaceOnUse" x="27" y="18" width="34" height="34">
<path d="M28.7202 28.0963C28.7202 28.0963 32.4755 16.6425 46.9084 18.8925C61.3413 21.1425 60.4215 33.3097 60.215 35.7662C60.0086 38.2226 56.6898 51.6103 42.3195 51.1059C27.2882 50.578 25.8561 34.862 28.7202 28.0989V28.0963Z" fill="white"/>
</mask>
<g mask="url(#mask4_2409_33365)">
<path d="M46.757 48.4662C55.4613 48.4662 62.5175 41.41 62.5175 32.7058C62.5175 24.0015 55.4613 16.9453 46.757 16.9453C38.0528 16.9453 30.9966 24.0015 30.9966 32.7058C30.9966 41.41 38.0528 48.4662 46.757 48.4662Z" fill="#F9ED31"/>
</g>
<path d="M28.7205 28.0963C28.7205 28.0963 32.4757 16.6425 46.9086 18.8925C61.3416 21.1425 60.4217 33.3097 60.2153 35.7662C60.0088 38.2226 56.69 51.6103 42.3198 51.1059C27.2884 50.578 25.8564 34.862 28.7205 28.0989V28.0963Z" stroke="#66652B" stroke-width="1.30662" stroke-miterlimit="10"/>
<path d="M65.2747 21.2457C68.6353 22.0845 70.6135 22.939 70.5456 23.6603C70.3888 25.3485 59.0917 25.6803 45.3147 24.3998C31.5377 23.1194 20.4968 20.7126 20.6536 19.0218C20.7215 18.3005 22.8225 17.8275 26.2799 17.6211C17.8051 17.6995 12.2128 18.5854 12.0664 20.1638C11.8234 22.7718 26.5621 26.2735 44.9828 27.9852C63.4036 29.6969 78.5343 28.9704 78.7773 26.365C78.9236 24.7892 73.59 22.8842 65.2747 21.2457Z" fill="#C39C3D" stroke="#66652B" stroke-width="1.30662" stroke-linejoin="round"/>
<path d="M54.9655 13.1233C56.421 13.6512 57.2651 14.2287 57.2155 14.7671C57.0979 16.0267 52.1196 16.5937 46.0935 16.0345C40.0674 15.4753 35.2799 13.9988 35.3975 12.7392C35.4472 12.2009 36.3853 11.788 37.9114 11.5371C34.1823 11.835 31.6945 12.6556 31.5848 13.8315C31.4045 15.7758 37.7886 17.9605 45.8452 18.7105C53.9019 19.4605 60.5787 18.4883 60.759 16.5441C60.8688 15.3681 58.5744 14.1033 54.9655 13.1233Z" fill="#C39C3D" stroke="#66652B" stroke-width="1.30662" stroke-linejoin="round"/>
<path d="M49.2448 8.74767C49.6525 9.03252 49.8799 9.3644 49.8485 9.70151C49.7753 10.4881 48.3093 10.9951 46.5767 10.8357C44.8441 10.6736 43.4957 9.90534 43.5689 9.11875C43.6002 8.78165 43.8851 8.4968 44.3372 8.29297C43.2448 8.59349 42.4948 9.18147 42.4269 9.91579C42.3145 11.1309 44.102 12.2912 46.4199 12.5055C48.7379 12.7198 50.7083 11.9097 50.8232 10.6972C50.8912 9.96283 50.264 9.2468 49.2448 8.75029V8.74767Z" fill="#C39C3D" stroke="#66652B" stroke-width="1.30662" stroke-linejoin="round"/>
<path d="M47.3581 5.90767C48.7133 5.90767 49.812 4.80905 49.812 3.45383C49.812 2.09862 48.7133 1 47.3581 1C46.0029 1 44.9043 2.09862 44.9043 3.45383C44.9043 4.80905 46.0029 5.90767 47.3581 5.90767Z" fill="#C39C3D" stroke="#66652B" stroke-width="1.30662" stroke-miterlimit="10"/>
<path d="M37.6264 39.4949C37.4095 39.7118 37.075 39.7458 36.7666 39.7614C35.5436 39.8294 34.3154 39.8424 33.0924 39.8032C32.703 39.7902 32.3084 39.7745 31.9321 39.8738C31.6734 39.9444 31.4304 40.0672 31.203 40.2109C30.6673 40.5532 30.1917 41.0393 30.0166 41.6508C29.7736 42.5106 30.1238 43.5663 29.5358 44.2379C29.3555 44.4444 29.102 44.5829 28.8302 44.6247C28.122 44.7292 27.4243 44.0628 27.453 43.3468C27.2832 43.6525 27.4609 44.0576 27.7457 44.2562C28.0306 44.4548 28.3938 44.5071 28.7414 44.5489C29.2901 44.6168 29.9121 44.6665 30.3276 44.3032C30.6464 44.0262 30.7562 43.5768 31.0175 43.2423C31.3781 42.7797 31.9948 42.5863 32.5802 42.5759C33.1656 42.5654 33.7405 42.7066 34.3206 42.7928C34.8302 42.8686 35.345 42.9026 35.8624 42.8947C36.095 42.8895 36.3328 42.8764 36.5523 42.798C37.1377 42.5863 37.4696 41.9487 37.5715 41.3346C37.6734 40.7205 37.6055 40.0881 37.6786 39.4688" fill="#66652B"/>
<path d="M37.1638 39.0339C37.0515 39.1332 36.7745 39.1097 36.6412 39.1176C36.3041 39.1359 35.967 39.1489 35.6273 39.1594C34.9504 39.1777 34.2762 39.1803 33.5994 39.1672C32.9905 39.1541 32.3581 39.0888 31.7597 39.2482C31.1612 39.4076 30.6177 39.7683 30.1865 40.189C29.7553 40.6097 29.4574 41.1036 29.345 41.6681C29.2431 42.1803 29.2901 42.6951 29.2431 43.2125C29.2117 43.5496 29.0837 44.0096 28.6577 43.9886C28.3468 43.973 28.1116 43.6515 28.1116 43.3536C28.1116 42.7474 27.1708 42.4076 26.8938 43.0244C26.6482 43.5731 26.7292 44.169 27.1577 44.6106C27.5863 45.0522 28.1403 45.1332 28.6943 45.2038C29.1856 45.2665 29.7083 45.3057 30.1813 45.1332C30.7405 44.9294 31.0645 44.5087 31.3337 43.9991C31.5454 43.5993 31.7727 43.3798 32.2222 43.2778C32.7318 43.1629 33.2753 43.2831 33.7797 43.3693C34.8955 43.5627 36.4269 43.858 37.3755 43.0636C38.4469 42.1646 38.2065 40.7064 38.3372 39.4756C38.3738 39.1254 38.0105 38.8223 37.6839 38.8223C37.2997 38.8223 37.0672 39.1228 37.0306 39.4756C36.9652 40.0949 37.0541 40.7456 36.9077 41.3519C36.8215 41.7047 36.649 42.1019 36.2727 42.209C35.9853 42.29 35.6456 42.2561 35.3529 42.243C35.0602 42.2299 34.7832 42.209 34.5009 42.1698C33.8503 42.0784 33.1996 41.9059 32.5384 41.932C31.9896 41.9529 31.4199 42.0914 30.9705 42.4181C30.7431 42.5801 30.5602 42.7683 30.4034 43.0008C30.257 43.2177 30.1682 43.4712 30.0166 43.6855C29.7736 44.0305 29.3189 43.9651 28.9426 43.9259C28.71 43.9024 28.4095 43.892 28.2004 43.777C28.1508 43.7508 28.1194 43.7038 28.075 43.6751C27.9835 43.6176 28.0985 43.513 28.0227 43.6803L26.805 43.351C26.805 44.3571 27.636 45.2717 28.6577 45.2927C29.1935 45.3031 29.7239 45.0418 30.061 44.6315C30.3982 44.2212 30.5131 43.7299 30.5523 43.2125C30.5837 42.7866 30.5288 42.3397 30.6255 41.9216C30.7222 41.5035 31.0018 41.1663 31.3389 40.9102C31.7283 40.615 32.1386 40.4555 32.6273 40.4503C33.2048 40.4425 33.7849 40.4791 34.3624 40.4817C35.0393 40.4817 35.7135 40.4686 36.3903 40.4373C37.0123 40.4085 37.6003 40.3876 38.0915 39.959C38.3581 39.7264 38.3293 39.2717 38.0915 39.0339C37.8276 38.77 37.433 38.8014 37.1665 39.0339H37.1638Z" fill="#66652B"/>
<path d="M39.5838 39.4949C39.8007 39.7118 40.1352 39.7458 40.4435 39.7614C41.6665 39.8294 42.8947 39.8424 44.1177 39.8032C44.5071 39.7902 44.9017 39.7745 45.278 39.8738C45.5367 39.9444 45.7798 40.0672 46.0071 40.2109C46.5428 40.5532 47.0184 41.0393 47.1935 41.6508C47.4366 42.5106 47.0864 43.5663 47.6744 44.2379C47.8547 44.4444 48.1082 44.5829 48.3799 44.6247C49.0881 44.7292 49.7859 44.0628 49.7571 43.3468C49.927 43.6525 49.7493 44.0576 49.4644 44.2562C49.1796 44.4548 48.8163 44.5071 48.4688 44.5489C47.92 44.6168 47.2981 44.6665 46.8825 44.3032C46.5637 44.0262 46.454 43.5768 46.1927 43.2423C45.832 42.7797 45.2153 42.5863 44.6299 42.5759C44.0446 42.5654 43.4697 42.7066 42.8895 42.7928C42.3799 42.8686 41.8651 42.9026 41.3477 42.8947C41.1151 42.8895 40.8773 42.8764 40.6578 42.798C40.0724 42.5863 39.7406 41.9487 39.6386 41.3346C39.5367 40.7205 39.6047 40.0881 39.5315 39.4688" fill="#66652B"/>
<path d="M39.1212 39.9584C39.5446 40.3268 40.0254 40.3948 40.569 40.4235C41.1596 40.4549 41.7502 40.4732 42.3434 40.4784C42.9366 40.4836 43.5272 40.4784 44.1177 40.4601C44.6482 40.4444 45.1108 40.4418 45.5786 40.7188C45.9444 40.9357 46.2894 41.2284 46.4801 41.6152C46.6709 42.0019 46.6369 42.4174 46.6448 42.8225C46.6657 43.8547 46.9688 44.947 48.1029 45.2397C49.2371 45.5324 50.4078 44.5185 50.4078 43.353L49.1901 43.6822C49.1143 43.515 49.2266 43.6195 49.1378 43.677C49.0934 43.7058 49.062 43.7502 49.0124 43.7789C48.8033 43.8939 48.5028 43.9044 48.2702 43.9279C47.8965 43.9671 47.4392 44.0298 47.1961 43.6875C47.0446 43.4732 46.9583 43.2197 46.8094 43.0028C46.6526 42.7728 46.4671 42.5821 46.2423 42.42C45.7902 42.096 45.2232 41.9575 44.6744 41.934C44.0132 41.9078 43.3625 42.0803 42.7118 42.1718C42.4296 42.211 42.1448 42.2345 41.8599 42.245C41.5751 42.2554 41.2275 42.292 40.94 42.211C40.5637 42.1038 40.3887 41.704 40.305 41.3538C40.1587 40.7476 40.2475 40.0943 40.1822 39.4775C40.1456 39.1274 39.9078 38.8242 39.5289 38.8242C39.2049 38.8242 38.839 39.1247 38.8756 39.4775C38.9958 40.6169 38.7998 41.8112 39.5603 42.7728C40.3599 43.7868 41.792 43.6117 42.9313 43.4523C43.7127 43.3425 45.082 42.8826 45.6831 43.6613C46.0202 44.1004 46.1404 44.6047 46.6265 44.9366C47.0576 45.2319 47.6143 45.2868 48.1212 45.2476C48.7406 45.2005 49.4252 45.1352 49.9244 44.7275C50.4496 44.2963 50.5934 43.6352 50.319 43.0263C50.0446 42.4174 49.1012 42.7493 49.1012 43.3556C49.1012 43.6535 48.866 43.9749 48.555 43.9906C48.1291 44.0115 47.9984 43.5542 47.9697 43.2145C47.9226 42.697 47.9697 42.1822 47.8678 41.67C47.7554 41.103 47.4366 40.5882 47.0263 40.1909C46.5951 39.7702 46.0385 39.407 45.4531 39.2502C44.8677 39.0934 44.2223 39.1561 43.6134 39.1692C42.9366 39.1822 42.2623 39.1796 41.5855 39.1613C41.2484 39.1509 40.9087 39.1378 40.5716 39.1195C40.4383 39.1117 40.1613 39.1352 40.0489 39.0359C39.7824 38.8033 39.3852 38.7746 39.1238 39.0359C38.886 39.2737 38.8573 39.7258 39.1238 39.961L39.1212 39.9584Z" fill="#66652B"/>
<path d="M45.5851 38.0106C46.5268 37.8669 47.1416 36.7776 46.9584 35.5778C46.7753 34.3779 45.8634 33.5217 44.9218 33.6655C43.9801 33.8092 43.3653 34.8985 43.5485 36.0983C43.7316 37.2982 44.6435 38.1544 45.5851 38.0106Z" fill="#66652B"/>
<path d="M42.7485 30.4616C42.7485 30.4616 41.4706 30.8196 41.3687 31.6114C41.2668 32.4032 41.7267 34.6794 42.2886 34.9093C42.8504 35.1393 51.2625 34.3475 52.5403 33.0931C52.5403 33.0931 52.8983 31.0731 51.9001 30.459C51.9001 30.459 44.7581 31.9747 43.9924 31.8231C43.2267 31.6715 42.7485 30.459 42.7485 30.459V30.4616Z" fill="#66652B" stroke="#66652B" stroke-width="0.261324" stroke-miterlimit="10"/>
<path d="M34.6972 35.4574C34.8804 34.2575 34.2655 33.1683 33.3239 33.0245C32.3823 32.8808 31.4704 33.7369 31.2872 34.9368C31.1041 36.1367 31.7189 37.2259 32.6606 37.3697C33.6022 37.5134 34.514 36.6573 34.6972 35.4574Z" fill="#66652B"/>
<path d="M35.4965 29.8268C35.4965 29.8268 36.7744 30.1848 36.8763 30.9767C36.9782 31.7685 36.5183 34.0446 35.9565 34.2746C35.3946 34.5045 28.9478 33.7127 27.6699 32.4584C27.6699 32.4584 27.3119 30.4383 28.3101 29.8242C28.3101 29.8242 33.4843 31.3399 34.2526 31.1883C35.0209 31.0368 35.4965 29.8242 35.4965 29.8242V29.8268Z" fill="#66652B" stroke="#66652B" stroke-width="0.261324" stroke-miterlimit="10"/>
<path d="M37.1455 43.666C37.1455 43.666 32.4416 47.2462 31.4434 48.8298C31.4434 48.8298 29.7056 48.8298 28.2212 50.7218L29.7866 50.288C29.7866 50.288 28.527 50.7479 28.5035 51.6939L29.5514 51.0798C29.5514 51.0798 27.7874 52.9718 28.2212 54.8899C28.2212 54.8899 29.3214 52.1277 30.189 51.5658C30.189 51.5658 29.7787 53.9935 31.1611 55.7575C31.1611 55.7575 30.8293 52.9953 31.2892 51.4639C31.2892 51.4639 31.1115 54.2758 31.9791 54.8899C31.9791 54.8899 32.5409 52.0519 32.0052 50.1599C32.0052 50.1599 32.2535 51.132 32.797 52.1538C32.797 52.1538 32.8989 50.288 32.1333 49.0101C32.1333 49.0101 33.385 47.1442 37.1428 43.666H37.1455Z" fill="#66652B"/>
<path d="M49.8748 69.4678L42.7093 68.6002C41.3425 68.4356 40.1012 69.4077 39.934 70.7744L38.9514 78.8729C40.7676 80.4408 43.13 81.392 45.7171 81.392C47.6979 81.392 49.5481 80.8354 51.1213 79.8711L52.0464 72.2431C52.211 70.8763 51.2389 69.6351 49.8722 69.4678H49.8748Z" fill="#C39C3D"/>
<mask id="mask5_2409_33365" style="mask-type:luminance" maskUnits="userSpaceOnUse" x="38" y="68" width="15" height="14">
<path d="M49.8748 69.4659L42.7093 68.5983C41.3425 68.4336 40.1012 69.4057 39.934 70.7725L38.9514 78.8709C40.7676 80.4389 43.13 81.3901 45.7171 81.3901C47.6979 81.3901 49.5481 80.8335 51.1213 79.8692L52.0464 72.2411C52.211 70.8744 51.2389 69.6331 49.8722 69.4659H49.8748Z" fill="white"/>
</mask>
<g mask="url(#mask5_2409_33365)">
<path d="M38.2931 72.6059C38.2931 72.6059 44.0187 79.2095 54.3463 73.9595L53.3584 82.6773C53.3584 82.6773 36.3828 85.8811 35.9752 77.9473C35.5675 70.0135 38.2931 72.6032 38.2931 72.6032V72.6059Z" fill="white" stroke="#66652B" stroke-width="1.45035" stroke-miterlimit="10"/>
</g>
<path d="M49.8748 69.4678L42.7093 68.6002C41.3425 68.4356 40.1012 69.4077 39.934 70.7744L38.9514 78.8729C40.7676 80.4408 43.13 81.392 45.7171 81.392C47.6979 81.392 49.5481 80.8354 51.1213 79.8711L52.0464 72.2431C52.211 70.8763 51.2389 69.6351 49.8722 69.4678H49.8748Z" stroke="#66652B" stroke-width="1.45035" stroke-miterlimit="10"/>
<path d="M52.1567 71.3364C52.322 69.9724 49.7439 68.538 46.3984 68.1325C43.0529 67.7271 40.2068 68.5042 40.0415 69.8682C39.8762 71.2322 42.4543 72.6666 45.7998 73.072C49.1453 73.4775 51.9914 72.7004 52.1567 71.3364Z" fill="#C39C3D" stroke="#66652B" stroke-width="1.45035" stroke-miterlimit="10"/>
<path d="M45.3458 71.133C45.6869 70.6214 45.4562 69.8686 44.8305 69.4515C44.2049 69.0344 43.4212 69.111 43.0802 69.6226C42.7391 70.1341 42.9698 70.887 43.5955 71.3041C44.2211 71.7212 45.0048 71.6446 45.3458 71.133Z" fill="#66652B"/>
<path d="M51.2831 68.4892C50.1359 66.7069 44.5096 68.1364 44.9356 70.4909C45.8162 72.5266 49.4774 71.8289 50.7579 70.5771C51.3223 70.078 51.7431 69.213 51.304 68.5231L51.2831 68.4892ZM46.1429 70.2479L47.1255 70.4752C46.8589 70.4543 46.4669 70.4151 46.2474 70.2374C46.0488 69.9656 46.8458 69.6259 47.0523 69.8298C47.2587 69.9343 47.5775 70.4334 47.1751 70.4726H47.1255L46.1429 70.2479ZM50.0288 69.3228C49.9582 69.7853 49.284 70.1433 48.8293 70.1198C48.4269 70.1015 48.095 69.6207 48.3093 69.3228C48.5784 68.9125 49.8485 68.7766 50.0235 69.2888V69.3228H50.0288Z" fill="white" stroke="#66652B" stroke-width="0.522648" stroke-miterlimit="10"/>
<path d="M32.2013 34.2031C32.2013 34.2031 32.1857 35.3138 33.0716 35.3033C33.9574 35.2928 33.9731 34.4932 33.9731 34.4932L32.1987 34.2057L32.2013 34.2031Z" fill="white"/>
<path d="M46.0253 34.791C46.0253 34.791 45.9757 35.9016 45.0898 35.8363C44.2039 35.771 44.2352 34.9739 44.2352 34.9739L46.0227 34.791H46.0253Z" fill="white"/>
</svg>
