<svg width="121" height="87" viewBox="0 0 121 87" fill="none" xmlns="http://www.w3.org/2000/svg">
<path d="M84.2025 25.4181C86.2532 27.0355 87.6836 29.3099 88.3577 31.8336C89.6153 36.5496 92.3231 45.9363 95.3425 57.8721C98.5941 70.7285 108.207 69.9637 116.181 82.6247C125.417 97.291 113.963 121.786 99.1861 128.436C99.1861 128.436 111.601 111.736 92.9802 98.7327C74.3598 85.729 70.9609 66.0748 71.2555 52.4792C71.55 38.8835 80.9141 30.6723 76.824 23.9169C76.824 23.9169 80.1323 22.209 84.2053 25.4181H84.2025Z" fill="#5C59A7"/>
<mask id="mask0_2674_43346" style="mask-type:luminance" maskUnits="userSpaceOnUse" x="71" y="23" width="49" height="106">
<path d="M84.2028 25.4201C86.2534 27.0374 87.6838 29.3118 88.3579 31.8355C89.6155 36.5515 92.3233 45.9382 95.3427 57.8741C98.5943 70.7305 108.208 69.9657 116.181 82.6267C125.417 97.293 113.963 121.788 99.1863 128.438C99.1863 128.438 111.601 111.738 92.9805 98.7347C74.3601 85.731 70.9611 66.0768 71.2557 52.4811C71.5503 38.8855 80.9143 30.6742 76.8243 23.9189C76.8243 23.9189 80.1326 22.2109 84.2056 25.4201H84.2028Z" fill="white"/>
</mask>
<g mask="url(#mask0_2674_43346)">
<path d="M99.1806 128.441C99.1806 128.441 131.507 106.26 98.3818 78.3974C98.3818 78.3974 81.0417 65.3427 84.7437 36.7012C84.7437 36.7012 46.3784 92.3952 99.1806 128.441Z" fill="#C1C9E6" stroke="#2A358E" stroke-width="1.41621" stroke-linecap="round" stroke-linejoin="round"/>
<path d="M91.8646 54.2743C91.8646 54.2743 91.7003 66.5926 104.644 75.9537C117.589 85.3149 122.837 112.277 99.1807 128.441C99.1807 128.441 129.196 116.084 125.265 79.4348C121.336 42.786 91.8646 54.2743 91.8646 54.2743Z" fill="#4A429A"/>
</g>
<path d="M84.2025 25.4181C86.2532 27.0355 87.6836 29.3099 88.3577 31.8336C89.6153 36.5496 92.3231 45.9363 95.3425 57.8721C98.5941 70.7285 108.207 69.9638 116.181 82.6247C125.417 97.291 113.963 121.786 99.1861 128.436C99.1861 128.436 111.601 111.736 92.9802 98.7327C74.3598 85.7291 70.9609 66.0748 71.2555 52.4792C71.55 38.8835 80.9141 30.6723 76.824 23.9169C76.824 23.9169 80.1323 22.209 84.2053 25.4181H84.2025Z" stroke="#2A358E" stroke-width="1.41621" stroke-linecap="round" stroke-linejoin="round"/>
<path d="M48.0269 26.4306C48.0269 26.4306 48.9616 39.8846 40.2122 52.2963C31.4628 64.708 33.015 84.586 46.8316 99.3628C54.9691 108.067 49.9104 120.124 54.9465 128.438C59.9825 136.751 65.0073 133.794 65.0073 133.794C65.0073 133.794 59.8353 132.76 65.0073 120.051C70.1793 107.342 67.0523 87.9821 60.0279 79.7086C47.4207 64.8581 75.6714 28.1215 48.024 26.4277L48.0269 26.4306Z" fill="#5C59A7"/>
<mask id="mask1_2674_43346" style="mask-type:luminance" maskUnits="userSpaceOnUse" x="34" y="26" width="34" height="109">
<path d="M48.0266 26.4286C48.0266 26.4286 48.9613 39.8827 40.2119 52.2944C31.4626 64.7061 33.0147 84.584 46.8313 99.3608C54.9689 108.065 49.9102 120.123 54.9462 128.436C59.9823 136.749 65.007 133.792 65.007 133.792C65.007 133.792 59.835 132.758 65.007 120.049C70.179 107.34 67.052 87.9801 60.0276 79.7066C47.4205 64.8562 75.6711 28.1196 48.0238 26.4258L48.0266 26.4286Z" fill="white"/>
</mask>
<g mask="url(#mask1_2674_43346)">
<path d="M52.012 27.541C52.012 27.541 49.7376 46.1812 43.4382 56.9615C36.765 68.3818 39.9317 81.1221 43.6337 86.5773C47.3357 92.0326 58.4416 115.998 57.8581 121.26C57.2747 126.523 58.3255 131.525 65.01 133.797C71.6946 136.068 69.355 39.8168 52.0148 27.541" fill="#C1C9E6"/>
<path d="M52.012 27.541C52.012 27.541 49.7376 46.1812 43.4382 56.9615C36.765 68.3818 39.9317 81.1221 43.6337 86.5773C47.3357 92.0326 58.4416 115.998 57.8581 121.26C57.2747 126.523 58.3255 131.525 65.01 133.797C71.6946 136.068 69.355 39.8168 52.0148 27.541" stroke="#2A358E" stroke-width="1.41621" stroke-linecap="round" stroke-linejoin="round"/>
</g>
<path d="M48.0269 26.4306C48.0269 26.4306 48.9616 39.8846 40.2122 52.2963C31.4628 64.708 33.015 84.586 46.8316 99.3628C54.9691 108.067 49.9104 120.124 54.9465 128.438C59.9825 136.751 65.0073 133.794 65.0073 133.794C65.0073 133.794 59.8353 132.76 65.0073 120.051C70.1793 107.342 67.0523 87.9821 60.0279 79.7086C47.4207 64.8581 75.6714 28.1215 48.024 26.4277L48.0269 26.4306Z" stroke="#2A358E" stroke-width="1.57766" stroke-linecap="round" stroke-linejoin="round"/>
<path d="M85.217 67.443C86.0314 67.2015 86.4067 66.0452 86.0553 64.8604C85.7039 63.6756 84.7588 62.911 83.9445 63.1525C83.1301 63.394 82.7548 64.5503 83.1062 65.7351C83.4576 66.9199 84.4027 67.6845 85.217 67.443Z" fill="#4A429A"/>
<path d="M83.9781 63.1428L82.9978 63.4336L84.2703 67.7241L85.2506 67.4333L83.9781 63.1428Z" fill="#4A429A"/>
<path d="M84.291 67.7184C85.1054 67.4769 85.4807 66.3206 85.1293 65.1358C84.7779 63.951 83.8328 63.1864 83.0185 63.4279C82.2041 63.6694 81.8288 64.8257 82.1802 66.0105C82.5316 67.1953 83.4766 67.9599 84.291 67.7184Z" fill="#5B5AA7"/>
<path d="M93.7226 80.3729C94.6539 79.667 94.5769 77.9973 93.5508 76.6434C92.5246 75.2895 90.9378 74.7642 90.0065 75.47C89.0753 76.1758 89.1522 77.8456 90.1784 79.1995C91.2045 80.5534 92.7913 81.0787 93.7226 80.3729Z" fill="#4A429A"/>
<path d="M90.0449 75.4405L88.9253 76.2891L92.6414 81.1919L93.761 80.3433L90.0449 75.4405Z" fill="#4A429A"/>
<path d="M92.6652 81.1737C93.5965 80.4678 93.5196 78.7981 92.4934 77.4442C91.4672 76.0903 89.8804 75.5649 88.9492 76.2708C88.0179 76.9766 88.0948 78.6464 89.121 80.0003C90.1472 81.3542 91.734 81.8795 92.6652 81.1737Z" fill="#5B5AA7"/>
<path d="M91.5464 88.8144C92.4914 88.3468 92.7062 86.8538 92.0262 85.4799C91.3463 84.1059 90.029 83.3712 89.0841 83.8388C88.1391 84.3064 87.9243 85.7994 88.6042 87.1733C89.2842 88.5473 90.6014 89.282 91.5464 88.8144Z" fill="#4A429A"/>
<path d="M89.1246 83.818L87.9873 84.3809L90.4496 89.3565L91.5869 88.7936L89.1246 83.818Z" fill="#4A429A"/>
<path d="M90.4746 89.3457C91.4196 88.878 91.6344 87.3851 90.9544 86.0111C90.2745 84.6371 88.9572 83.9024 88.0123 84.3701C87.0673 84.8377 86.8525 86.3306 87.5324 87.7046C88.2124 89.0786 89.5297 89.8133 90.4746 89.3457Z" fill="#5B5AA7"/>
<path d="M102.602 88.3741C103.333 87.6149 103.032 86.1371 101.928 85.0733C100.824 84.0095 99.3359 83.7626 98.6042 84.5218C97.8726 85.281 98.1744 86.7588 99.2783 87.8226C100.382 88.8864 101.87 89.1333 102.602 88.3741Z" fill="#4A429A"/>
<path d="M98.6284 84.467L97.748 85.3809L101.746 89.2324L102.627 88.3185L98.6284 84.467Z" fill="#4A429A"/>
<path d="M101.768 89.2335C102.499 88.4743 102.198 86.9965 101.094 85.9327C99.9898 84.8689 98.5019 84.622 97.7703 85.3812C97.0387 86.1404 97.3404 87.6182 98.4443 88.682C99.5482 89.7458 101.036 89.9927 101.768 89.2335Z" fill="#5B5AA7"/>
<path d="M84.7954 75.8863C85.8983 75.5001 86.3371 73.8872 85.7756 72.2838C85.2142 70.6805 83.8649 69.6938 82.7621 70.08C81.6592 70.4662 81.2203 72.0791 81.7818 73.6824C82.3433 75.2858 83.6925 76.2725 84.7954 75.8863Z" fill="#4A429A"/>
<path d="M82.8086 70.063L81.4827 70.5273L83.516 76.3336L84.8419 75.8693L82.8086 70.063Z" fill="#4A429A"/>
<path d="M83.5437 76.3257C84.6466 75.9395 85.0854 74.3266 84.5239 72.7233C83.9624 71.1199 82.6132 70.1332 81.5103 70.5194C80.4075 70.9057 79.9686 72.5185 80.5301 74.1219C81.0916 75.7253 82.4408 76.712 83.5437 76.3257Z" fill="#5B5AA7"/>
<path d="M73.7254 29.4638C73.7254 29.4638 78.0392 81.5918 92.2721 103.685C96.8352 110.766 98.985 124.614 87.9442 136.207C85.7179 138.543 83.1121 140.481 80.2966 142.059C77.3396 143.716 72.3601 147.177 72.9861 151.417C72.9861 151.417 69.6608 141.775 75.4248 133.683C81.1888 125.591 66.9842 120.235 61.6819 106.936C56.3767 93.6353 47.718 57.5049 61.6819 29.4638C61.6819 29.4638 67.2618 18.0491 73.7254 29.4638Z" fill="#5C59A7"/>
<mask id="mask2_2674_43346" style="mask-type:luminance" maskUnits="userSpaceOnUse" x="54" y="24" width="42" height="128">
<path d="M73.7256 29.4619C73.7256 29.4619 78.0394 81.5899 92.2724 103.683C96.8354 110.764 98.9852 124.612 87.9444 136.205C85.7181 138.542 83.1123 140.479 80.2969 142.057C77.3398 143.714 72.3604 147.175 72.9864 151.415C72.9864 151.415 69.6611 141.773 75.4251 133.681C81.1891 125.589 66.9844 120.233 61.6821 106.934C56.377 93.6334 47.7183 57.5029 61.6821 29.4619C61.6821 29.4619 67.262 18.0472 73.7256 29.4619Z" fill="white"/>
</mask>
<g mask="url(#mask2_2674_43346)">
<path d="M72.9891 151.418C72.9891 151.418 71.1083 142.691 81.628 135.287C92.1476 127.883 92.5385 115.412 86.6952 105.476C80.8519 95.5394 69.3551 64.1051 74.2891 48.6457C79.2232 33.1863 59.8069 45.462 59.8069 45.462C59.8069 45.462 48.1798 88.243 72.9891 151.415" fill="#C1C9E6"/>
<path d="M72.9891 151.418C72.9891 151.418 71.1083 142.691 81.628 135.287C92.1476 127.883 92.5385 115.412 86.6952 105.476C80.8519 95.5394 69.3551 64.1051 74.2891 48.6457C79.2232 33.1863 59.8069 45.462 59.8069 45.462C59.8069 45.462 48.1798 88.243 72.9891 151.415" stroke="#2A358E" stroke-width="1.41621" stroke-linecap="round" stroke-linejoin="round"/>
<path d="M74.4817 41.7266C74.5978 42.3242 74.7819 63.3068 81.135 84.5444C83.0498 90.9457 87.3834 99.2022 90.3149 104.819C99.3787 122.185 87.1624 134.593 81.9536 138.836C81.0104 139.604 79.9992 140.278 78.9456 140.884C76.96 142.026 72.2695 145.391 72.9861 151.415C73.8925 159.026 107.29 143.363 107.29 143.363L74.4788 41.7266H74.4817Z" fill="#4A429A"/>
</g>
<path d="M73.7254 29.4638C73.7254 29.4638 78.0392 81.5918 92.2721 103.685C96.8352 110.766 98.985 124.614 87.9442 136.207C85.7179 138.543 83.1121 140.481 80.2966 142.059C77.3396 143.716 72.3602 147.177 72.9861 151.417C72.9861 151.417 69.6608 141.775 75.4248 133.683C81.1888 125.591 66.9842 120.235 61.6819 106.936C56.3767 93.6353 47.718 57.5049 61.6819 29.4638C61.6819 29.4638 67.2618 18.0491 73.7254 29.4638Z" stroke="#2A358E" stroke-width="1.41621" stroke-linecap="round" stroke-linejoin="round"/>
<path d="M49.3056 62.0284C49.9036 60.4383 49.5017 58.8158 48.4079 58.4045C47.3142 57.9931 45.9427 58.9487 45.3447 60.5388C44.7467 62.1289 45.1486 63.7514 46.2424 64.1627C47.3361 64.5741 48.7076 63.6185 49.3056 62.0284Z" fill="#4A429A"/>
<path d="M48.4568 58.4223L47.1418 57.9277L44.9763 63.686L46.2913 64.1806L48.4568 58.4223Z" fill="#4A429A"/>
<path d="M48.0621 61.5635C48.6601 59.9734 48.2583 58.3509 47.1645 57.9396C46.0708 57.5283 44.6993 58.4839 44.1013 60.074C43.5033 61.6641 43.9052 63.2866 44.999 63.6979C46.0927 64.1092 47.4641 63.1536 48.0621 61.5635Z" fill="#5B5AA7"/>
<path d="M70.3343 76.3194C71.1836 76.309 71.8599 75.2989 71.8448 74.0632C71.8297 72.8274 71.1289 71.8341 70.2796 71.8445C69.4302 71.8549 68.7539 72.865 68.769 74.1007C68.7841 75.3364 69.4849 76.3298 70.3343 76.3194Z" fill="#4A429A"/>
<path d="M70.3137 71.843L69.2913 71.8555L69.3459 76.3304L70.3684 76.3179L70.3137 71.843Z" fill="#4A429A"/>
<path d="M69.3684 76.3311C70.2178 76.3207 70.8941 75.3106 70.879 74.0749C70.8639 72.8392 70.1631 71.8458 69.3138 71.8562C68.4644 71.8666 67.7881 72.8767 67.8032 74.1125C67.8183 75.3482 68.5191 76.3415 69.3684 76.3311Z" fill="#5B5AA7"/>
<path d="M75.6029 91.8907C76.6914 91.4657 77.0729 89.8383 76.4549 88.2558C75.837 86.6733 74.4537 85.735 73.3652 86.1601C72.2767 86.5851 71.8952 88.2125 72.5132 89.795C73.1311 91.3775 74.5144 92.3157 75.6029 91.8907Z" fill="#4A429A"/>
<path d="M73.4058 86.1413L72.0972 86.6523L74.3349 92.383L75.6436 91.872L73.4058 86.1413Z" fill="#4A429A"/>
<path d="M74.3644 92.3712C75.4529 91.9461 75.8343 90.3187 75.2164 88.7362C74.5985 87.1538 73.2151 86.2155 72.1267 86.6405C71.0382 87.0656 70.6567 88.693 71.2746 90.2755C71.8926 91.8579 73.2759 92.7962 74.3644 92.3712Z" fill="#5B5AA7"/>
<path d="M68.3684 85.0748C69.5348 85.0038 70.3967 83.5717 70.2936 81.876C70.1905 80.1803 69.1614 78.8631 67.995 78.9341C66.8286 79.005 65.9667 80.4371 66.0698 82.1328C66.1729 83.8285 67.202 85.1457 68.3684 85.0748Z" fill="#4A429A"/>
<path d="M68.0427 78.9303L66.6404 79.0156L67.0138 85.1563L68.4161 85.071L68.0427 78.9303Z" fill="#4A429A"/>
<path d="M67.0444 85.1529C68.2108 85.082 69.0728 83.6498 68.9696 81.9541C68.8665 80.2584 67.8374 78.9413 66.671 79.0122C65.5046 79.0831 64.6427 80.5153 64.7458 82.211C64.8489 83.9067 65.8781 85.2238 67.0444 85.1529Z" fill="#5B5AA7"/>
<path d="M47.6472 28.9835C47.6472 28.9835 44.0613 17.0137 40.5151 17.0137C36.9689 17.0137 33.4227 23.1346 37.6345 26.4287C37.6345 26.4287 32.168 26.4712 31.576 31.5695C30.984 36.6679 35.5669 36.7415 35.5669 36.7415C35.5669 36.7415 29.0636 43.613 39.9996 45.607C50.9356 47.6011 47.65 28.9807 47.65 28.9807L47.6472 28.9835Z" fill="#C1C9E6"/>
<mask id="mask3_2674_43346" style="mask-type:luminance" maskUnits="userSpaceOnUse" x="31" y="17" width="18" height="29">
<path d="M47.6474 28.9855C47.6474 28.9855 44.0616 17.0156 40.5154 17.0156C36.9692 17.0156 33.423 23.1365 37.6348 26.4306C37.6348 26.4306 32.1682 26.4731 31.5762 31.5715C30.9842 36.6699 35.5671 36.7435 35.5671 36.7435C35.5671 36.7435 29.0639 43.615 39.9999 45.609C50.9359 47.603 47.6503 28.9826 47.6503 28.9826L47.6474 28.9855Z" fill="white"/>
</mask>
<g mask="url(#mask3_2674_43346)">
<path d="M41.1045 27.543C43.1325 27.7667 45.1407 29.1291 46.0839 30.9419C44.0531 30.7238 42.0534 29.3501 41.1045 27.543Z" fill="#2A358E"/>
<path d="M38.0737 36.408C38.0737 36.408 41.9712 35.5866 44.4269 36.408H38.0737Z" fill="#C1C9E6"/>
<path d="M38.0737 36.4088C39.4446 35.3466 41.2687 35.1172 42.9115 35.5449C43.4582 35.7092 44.0077 35.9641 44.4269 36.4088C43.8264 36.5277 43.3194 36.5985 42.8039 36.6524C41.2036 36.8053 39.6599 36.879 38.0737 36.4088Z" fill="#2A358E"/>
</g>
<path d="M47.6472 28.9835C47.6472 28.9835 44.0613 17.0137 40.5151 17.0137C36.9689 17.0137 33.4227 23.1346 37.6345 26.4287C37.6345 26.4287 32.168 26.4712 31.576 31.5695C30.984 36.6679 35.5669 36.7415 35.5669 36.7415C35.5669 36.7415 29.0636 43.613 39.9996 45.607C50.9356 47.6011 47.65 28.9807 47.65 28.9807L47.6472 28.9835Z" stroke="#2A358E" stroke-width="1.41621" stroke-linecap="round" stroke-linejoin="round"/>
<path d="M75.4079 51.0005C74.0936 54.5212 71.8843 56.722 70.0886 58.6566C58.5663 77.1608 65.2253 91.2663 65.2253 91.2663C65.2253 91.2663 46.7522 98.8034 40.9146 88.8276C35.0769 78.8518 43.1833 67.0462 46.5086 64.1628C48.1826 62.7098 49.3212 60.5713 50.0095 58.92C50.5335 57.6652 49.9443 56.2349 48.7009 55.6882C43.1862 53.2721 39.9175 50.2584 39.0621 45.7719C38.5721 43.2057 40.2121 38.5322 40.2121 38.5322C48.5253 13.8419 65.5199 24.9478 65.5199 24.9478C71.0856 27.3044 75.3286 31.4681 76.8213 35.4023C78.7133 40.3902 77.1866 46.2336 75.4079 50.9977V51.0005Z" fill="#9199CD"/>
<mask id="mask4_2674_43346" style="mask-type:luminance" maskUnits="userSpaceOnUse" x="38" y="22" width="40" height="72">
<path d="M75.4079 51.0025C74.0936 54.5232 71.8843 56.724 70.0886 58.6585C58.5663 77.1628 65.2253 91.2683 65.2253 91.2683C65.2253 91.2683 46.7522 98.8054 40.9146 88.8296C35.0769 78.8538 43.1833 67.0482 46.5086 64.1648C48.1826 62.7117 49.3212 60.5733 50.0095 58.922C50.5335 57.6672 49.9443 56.2368 48.7009 55.6902C43.1862 53.2741 39.9175 50.2604 39.0621 45.7738C38.5721 43.2076 40.2121 38.5341 40.2121 38.5341C48.5253 13.8438 65.5199 24.9498 65.5199 24.9498C71.0856 27.3064 75.3286 31.47 76.8213 35.4043C78.7133 40.3922 77.1866 46.2355 75.4079 50.9997V51.0025Z" fill="white"/>
</mask>
<g mask="url(#mask4_2674_43346)">
<path opacity="0.5" d="M50.0634 56.4424C50.0634 56.4424 59.6115 59.3655 65.3274 58.0654C65.3274 58.0654 58.8978 67.1575 45.5825 62.0931L49.6952 56.3574" fill="#6E79BA"/>
<path d="M48.9587 58.3672C48.9587 58.3672 51.1453 61.6783 51.2331 63.8451C51.2331 63.8451 62.9452 58.3898 71.6918 62.1145L64.9364 75.2768C64.9364 75.2768 61.8179 77.2906 61.2996 74.1721C61.2996 74.1721 57.2719 76.6392 57.1416 73.1326C57.1416 73.1326 53.4169 75.5345 53.332 71.7249C53.332 71.7249 49.2618 73.7161 49.6073 70.4248C49.6073 70.4248 46.1433 71.8977 46.7494 68.6942C46.7494 68.6942 43.3731 70.946 44.1521 67.9153C44.1521 67.9153 39.3029 69.6459 40.7758 66.3575C42.2487 63.069 48.9587 58.37 48.9587 58.37V58.3672Z" fill="#5C59A7" stroke="#2A358E" stroke-width="1.41621" stroke-linecap="round" stroke-linejoin="round"/>
<path opacity="0.5" d="M50.3863 26.696C50.3863 26.696 54.7171 31.2704 50.8423 29.0979C47.5964 27.2795 35.2555 44.6848 45.9706 53.9723C55.1816 61.9541 43.9794 52.9328 43.9794 52.9328C43.9794 52.9328 32.5279 49.1005 38.8923 35.0715C45.2568 21.0425 50.3892 26.6932 50.3892 26.6932L50.3863 26.696Z" fill="#6E79BA"/>
<path opacity="0.5" d="M61.9907 32.1509C61.9907 32.1509 73.7255 29.4629 74.8726 38.3851C75.762 45.3019 70.6523 52.7398 70.9752 57.351C70.9752 57.351 83.7693 49.3636 82.5995 41.7642C81.4297 34.1647 73.9606 21.9541 62.4666 31.5023" fill="#6E79BA"/>
<path d="M65.1801 50.5391C67.9105 51.2103 70.4824 52.0459 73.244 52.4538C74.1475 52.6067 75.0511 52.6606 76.0396 52.7767C72.6124 54.5611 67.7774 53.2384 65.1772 50.5391H65.1801Z" fill="#2A358E"/>
<path d="M64.1972 53.5527C66.9276 54.224 69.4995 55.0596 72.2611 55.4675C73.1646 55.6204 74.0682 55.6742 75.0567 55.7904C71.6295 57.5748 66.7945 56.252 64.1943 53.5527H64.1972Z" fill="#2A358E"/>
<path d="M63.1322 56.0664C65.8627 56.7377 68.4345 57.5733 71.1962 57.9811C72.0997 58.1341 73.0032 58.1879 73.9918 58.304C70.5645 60.0885 65.7296 58.7657 63.1294 56.0664H63.1322Z" fill="#2A358E"/>
<path d="M65.6275 85.8398C65.6275 85.8398 64.3274 81.424 60.6905 84.7153C60.6905 84.7153 59.4783 79.9512 56.102 82.7241C56.102 82.7241 55.7565 77.5294 51.3379 81.2512C51.3379 81.2512 50.0378 76.1415 46.0554 79.0873C46.0554 79.0873 45.8826 74.2381 41.6396 76.4899C41.6396 76.4899 41.1213 71.7258 37.4816 75.4504C33.842 79.1751 40.079 95.9742 40.079 95.9742L68.222 96.2348L65.6246 85.8426L65.6275 85.8398Z" fill="#5C59A7" stroke="#2A358E" stroke-width="1.41621" stroke-linecap="round" stroke-linejoin="round"/>
</g>
<path d="M75.4079 51.0005C74.0936 54.5212 71.8843 56.722 70.0886 58.6566C58.5663 77.1608 65.2253 91.2663 65.2253 91.2663C65.2253 91.2663 46.7522 98.8034 40.9146 88.8276C35.0769 78.8518 43.1833 67.0462 46.5086 64.1628C48.1826 62.7098 49.3212 60.5713 50.0095 58.92C50.5335 57.6652 49.9443 56.2349 48.7009 55.6882C43.1862 53.2721 39.9175 50.2584 39.0621 45.7719C38.5721 43.2057 40.2121 38.5322 40.2121 38.5322C48.5253 13.8419 65.5199 24.9478 65.5199 24.9478C71.0856 27.3044 75.3286 31.4681 76.8213 35.4023C78.7133 40.3902 77.1866 46.2336 75.4079 50.9977V51.0005Z" stroke="#2A358E" stroke-width="1.41621" stroke-miterlimit="10"/>
<path d="M65.2253 91.267C65.2253 91.267 79.7641 107.522 67.1287 120.823C56.8526 131.638 44.5967 126.281 40.3764 123.902C39.0933 123.18 37.8074 122.463 36.5101 121.767C29.1741 117.821 7.24262 104.421 8.16599 85.5766C9.27347 62.9653 65.2281 91.267 65.2281 91.267H65.2253Z" fill="#5C59A7"/>
<mask id="mask5_2674_43346" style="mask-type:luminance" maskUnits="userSpaceOnUse" x="8" y="76" width="65" height="52">
<path d="M65.2253 91.267C65.2253 91.267 79.7641 107.522 67.1287 120.823C56.8526 131.638 44.5967 126.281 40.3764 123.902C39.0933 123.18 37.8074 122.463 36.5101 121.767C29.1741 117.821 7.24262 104.421 8.16599 85.5766C9.27347 62.9653 65.2281 91.267 65.2281 91.267H65.2253Z" fill="white"/>
</mask>
<g mask="url(#mask5_2674_43346)">
<path d="M37.5724 80.0848C37.5724 80.0848 12.0891 71.9303 3.13574 97.0426C3.13574 97.0426 3.25754 55.6325 37.5724 80.0848Z" fill="#4A429A"/>
</g>
<path d="M65.2253 91.267C65.2253 91.267 79.7641 107.522 67.1287 120.823C56.8526 131.638 44.5967 126.281 40.3764 123.902C39.0933 123.18 37.8074 122.463 36.5101 121.767C29.1741 117.821 7.24262 104.421 8.16599 85.5766C9.27347 62.9653 65.2281 91.267 65.2281 91.267H65.2253Z" stroke="#2A358E" stroke-width="1.41621" stroke-linecap="round" stroke-linejoin="round"/>
<path d="M24.5913 73.3657C23.5716 74.0653 23.7019 75.6118 24.8207 76.1386C30.7773 78.9314 45.8799 85.548 50.6072 83.1574C56.5439 80.155 60.1241 69.5334 59.3169 68.4967C58.5097 67.4601 44.339 59.838 24.5913 73.3685V73.3657Z" fill="#C1C9E6"/>
<mask id="mask6_2674_43346" style="mask-type:luminance" maskUnits="userSpaceOnUse" x="23" y="65" width="37" height="19">
<path d="M24.5911 73.3676C23.5714 74.0672 23.7017 75.6137 24.8205 76.1406C30.7771 78.9334 45.8796 85.5499 50.6069 83.1593C56.5437 80.157 60.1239 69.5354 59.3167 68.4987C58.5094 67.462 44.3388 59.8399 24.5911 73.3705V73.3676Z" fill="white"/>
</mask>
<g mask="url(#mask6_2674_43346)">
<path d="M55.3456 71.1018C55.3456 71.1018 42.5629 66.4481 23.9028 74.5488L55.3456 71.1018Z" fill="#C1C9E6"/>
<path d="M55.3457 71.1009C52.7484 70.4664 50.0576 70.2171 47.3951 70.1577C40.7162 70.0047 34.0713 71.2595 27.7239 73.2648C26.4436 73.667 25.1889 74.1486 23.9058 74.5508C24.5119 74.259 25.1209 73.9729 25.7327 73.6925C27.1206 73.0099 28.973 72.3471 30.4288 71.8146C35.2468 70.2426 40.3169 69.3193 45.3954 69.4127C48.7518 69.4722 52.1989 69.8942 55.3457 71.1009Z" fill="#2A358E"/>
<path d="M49.0378 80.0531C49.0378 80.0531 34.21 77.9231 23.9028 74.5469L49.0378 80.0531Z" fill="#C1C9E6"/>
<path d="M49.0378 80.0531C44.741 79.7557 40.4924 79.0448 36.2777 78.1837C32.0744 77.2688 27.8852 76.1925 23.9028 74.5469C32.0064 76.5069 40.9172 78.2177 49.0378 80.0531Z" fill="#2A358E"/>
<path d="M53.0004 75.9536C53.0004 75.9536 37.4277 72.2856 24.3503 74.5515L53.0004 75.9536Z" fill="#C1C9E6"/>
<path d="M53.0004 75.9527C43.5202 74.579 33.9211 73.6442 24.3503 74.5506C33.4 72.4688 44.1037 73.4516 53.0004 75.9527Z" fill="#2A358E"/>
</g>
<path d="M24.5913 73.3657C23.5716 74.0653 23.7019 75.6118 24.8207 76.1386C30.7773 78.9314 45.8799 85.548 50.6072 83.1574C56.544 80.155 60.1241 69.5334 59.3169 68.4967C58.5097 67.4601 44.339 59.838 24.5913 73.3685V73.3657Z" stroke="#2A358E" stroke-width="1.4757" stroke-linecap="round" stroke-linejoin="round"/>
<path d="M9.94192 80.3672C9.94192 80.3672 -22.5517 129.482 39.96 165.394C39.96 165.394 27.7692 155.642 33.7542 138.35C39.7391 121.061 42.6197 107.76 39.96 101.109" fill="#5C59A7"/>
<mask id="mask7_2674_43346" style="mask-type:luminance" maskUnits="userSpaceOnUse" x="1" y="80" width="40" height="86">
<path d="M9.94192 80.3672C9.94192 80.3672 -22.5517 129.482 39.96 165.394C39.96 165.394 27.7692 155.642 33.7542 138.35C39.7391 121.061 42.6197 107.76 39.96 101.109" fill="white"/>
</mask>
<g mask="url(#mask7_2674_43346)">
<path d="M32.7544 157.925C-4.23148 131.515 4.3791 99.9424 8.94498 88.9667C10.2394 85.8539 12.5677 83.2764 15.5559 81.7157C25.8857 76.3171 37.5865 80.0588 37.5865 80.0588C16.9353 65.3443 8.6674 74.4817 5.35913 84.0921C-31.471 82.0924 20.0113 179.347 20.0113 179.347C20.0113 179.347 78.8068 190.807 32.7572 157.925H32.7544Z" fill="#4A429A"/>
</g>
<path d="M9.94192 80.3672C9.94192 80.3672 -22.5517 129.482 39.96 165.394C39.96 165.394 27.7692 155.642 33.7542 138.35C39.7391 121.061 42.6197 107.76 39.96 101.109" stroke="#2A358E" stroke-width="1.41621" stroke-linecap="round" stroke-linejoin="round"/>
<path d="M24.0757 45.7837C21.7588 45.9536 17.2156 46.8289 14.3917 50.9132C13.9555 51.542 13.9186 52.3634 14.2727 53.0404C15.5076 55.3856 18.595 61.025 20.8893 63.2909C21.3396 63.7356 21.9826 63.9169 22.5944 63.7611C24.8065 63.2003 30.4855 61.5008 31.8394 58.5126C32.1 57.9405 32.0802 57.2805 31.8253 56.7055C30.9954 54.8305 28.5991 49.5848 26.6136 46.9422C26.016 46.1491 25.0643 45.7101 24.0729 45.7809L24.0757 45.7837Z" fill="#C1C9E6"/>
<mask id="mask8_2674_43346" style="mask-type:luminance" maskUnits="userSpaceOnUse" x="14" y="45" width="19" height="19">
<path d="M24.076 45.7837C21.7591 45.9536 17.2158 46.8289 14.3919 50.9132C13.9557 51.542 13.9189 52.3634 14.2729 53.0404C15.5079 55.3856 18.5952 61.025 20.8895 63.2909C21.3399 63.7356 21.9828 63.9169 22.5946 63.7611C24.8068 63.2003 30.4858 61.5008 31.8397 58.5126C32.1003 57.9405 32.0804 57.2805 31.8255 56.7055C30.9956 54.8305 28.5994 49.5848 26.6138 46.9422C26.0162 46.1491 25.0645 45.7101 24.0731 45.7809L24.076 45.7837Z" fill="white"/>
</mask>
<g mask="url(#mask8_2674_43346)">
<path opacity="0.5" d="M25.0333 46.2402C25.0333 46.2402 26.3561 48.2286 22.9827 50.5795L30.2139 62.3511L34.4852 57.7569L25.0305 46.2402" fill="#6E79BA"/>
<path d="M26.6124 48.5942L22.0975 50.9686C21.6462 51.206 21.4724 51.7638 21.7094 52.2144C21.9464 52.6651 22.5044 52.838 22.9558 52.6006L27.4707 50.2262C27.9221 49.9889 28.0958 49.4311 27.8588 48.9804C27.6218 48.5298 27.0638 48.3569 26.6124 48.5942Z" fill="#2A358E"/>
<path d="M28.4613 51.3618L23.9464 53.7362C23.495 53.9736 23.3213 54.5313 23.5583 54.982C23.7953 55.4327 24.3533 55.6056 24.8047 55.3682L29.3196 52.9938C29.7709 52.7564 29.9447 52.1987 29.7077 51.748C29.4707 51.2974 28.9127 51.1244 28.4613 51.3618Z" fill="#2A358E"/>
<path d="M29.9577 54.1138L25.4427 56.4882C24.9914 56.7255 24.8176 57.2833 25.0546 57.734C25.2916 58.1846 25.8497 58.3575 26.301 58.1202L30.8159 55.7458C31.2673 55.5084 31.441 54.9506 31.204 54.5C30.967 54.0493 30.409 53.8764 29.9577 54.1138Z" fill="#2A358E"/>
</g>
<path d="M24.0757 45.7837C21.7588 45.9536 17.2156 46.8289 14.3917 50.9132C13.9555 51.542 13.9186 52.3634 14.2727 53.0404C15.5076 55.3856 18.595 61.025 20.8893 63.2909C21.3396 63.7356 21.9826 63.9169 22.5944 63.7611C24.8065 63.2003 30.4855 61.5008 31.8394 58.5126C32.1 57.9405 32.0802 57.2805 31.8253 56.7055C30.9954 54.8305 28.5991 49.5848 26.6136 46.9422C26.016 46.1491 25.0643 45.7101 24.0729 45.7809L24.0757 45.7837Z" stroke="#2A358E" stroke-width="1.4757" stroke-linecap="round" stroke-linejoin="round"/>
<path d="M54.1589 33.2271C54.1589 33.2271 52.754 28.4233 48.0267 26.4293C48.0267 26.4293 44.3247 14.0459 60.0306 13.8477C60.0306 13.8477 58.8891 30.7912 54.1618 33.23L54.1589 33.2271Z" fill="#5C59A7" stroke="#2A358E" stroke-width="1.57766" stroke-linecap="round" stroke-linejoin="round"/>
<path d="M55.2298 32.6606C55.2298 32.6606 53.9863 9.03252 65.4378 10.6583C76.8894 12.2842 80.2968 16.3119 80.3676 18.8044C80.4384 21.2969 58.3794 33.5953 58.3794 33.5953L55.2298 32.6606Z" fill="#5C59A7"/>
<mask id="mask9_2674_43346" style="mask-type:luminance" maskUnits="userSpaceOnUse" x="55" y="10" width="26" height="24">
<path d="M55.2295 32.6626C55.2295 32.6626 53.9861 9.03448 65.4376 10.6603C76.8891 12.2861 80.2965 16.3138 80.3673 18.8064C80.4381 21.2989 58.3792 33.5973 58.3792 33.5973L55.2295 32.6626Z" fill="white"/>
</mask>
<g mask="url(#mask9_2674_43346)">
<path d="M60.9793 30.4453C60.9793 30.4453 63.5285 18.5775 59.4272 12.9013C55.3258 7.22508 55.66 17.5323 55.66 17.5323C55.66 17.5323 55.1049 34.3796 60.9793 30.4453Z" fill="#4A429A"/>
<path d="M57.433 28.0598C57.433 28.0598 75.1867 18.7836 70.0798 11.5439C64.973 4.30424 86.9186 17.0134 86.9186 17.0134L76.94 30.3144L56.5918 32.2093L57.433 28.0627V28.0598Z" fill="#4A429A"/>
</g>
<path d="M55.2298 32.6606C55.2298 32.6606 53.9863 9.03252 65.4378 10.6583C76.8894 12.2842 80.2968 16.3119 80.3676 18.8044C80.4384 21.2969 58.3794 33.5953 58.3794 33.5953L55.2298 32.6606Z" stroke="#2A358E" stroke-width="1.57766" stroke-linecap="round" stroke-linejoin="round"/>
<path d="M57.1528 34.0763C57.1528 34.0763 69.9328 25.1089 76.6654 34.6712C76.6654 34.6712 91.5498 37.6962 86.6724 23.9164C81.795 10.1367 60.1467 27.8677 57.1528 34.0763Z" fill="#5C59A7"/>
<mask id="mask10_2674_43346" style="mask-type:luminance" maskUnits="userSpaceOnUse" x="57" y="18" width="31" height="17">
<path d="M57.1531 34.0783C57.1531 34.0783 69.933 25.1108 76.6657 34.6731C76.6657 34.6731 91.5501 37.6981 86.6726 23.9184C81.7952 10.1386 60.147 27.8696 57.1531 34.0783Z" fill="white"/>
</mask>
<g mask="url(#mask10_2674_43346)">
<path d="M71.2361 30.6627C71.2361 30.6627 83.3419 30.5891 81.4668 18.9506C79.5917 7.31215 99.7728 32.2035 99.7728 32.2035L82.5318 42.4484L71.2361 30.6599" fill="#4A429A"/>
</g>
<path d="M57.1528 34.0763C57.1528 34.0763 69.9328 25.1089 76.6654 34.6712C76.6654 34.6712 91.5498 37.6962 86.6724 23.9164C81.795 10.1367 60.1467 27.8677 57.1528 34.0763Z" stroke="#2A358E" stroke-width="1.57766" stroke-linecap="round" stroke-linejoin="round"/>
<path d="M91.9409 37.5923C91.9409 37.5923 95.6571 38.2437 93.5526 42.2318C91.4453 46.2227 86.4347 45.5174 86.4347 45.5174C86.4347 45.5174 91.8645 57.2097 76.7053 50.1966C76.5099 50.106 76.3201 50.0153 76.136 49.9247C77.9148 45.1605 78.6625 39.5155 76.7704 34.5276C81.461 31.8991 96.6428 23.8182 97.5775 28.7806C98.6878 34.6551 91.9409 37.5923 91.9409 37.5923Z" fill="#C1C9E6"/>
<mask id="mask11_2674_43346" style="mask-type:luminance" maskUnits="userSpaceOnUse" x="76" y="27" width="22" height="26">
<path d="M91.9409 37.5923C91.9409 37.5923 95.6571 38.2437 93.5526 42.2318C91.4453 46.2227 86.4347 45.5174 86.4347 45.5174C86.4347 45.5174 91.8645 57.2097 76.7053 50.1966C76.5099 50.106 76.3201 50.0153 76.136 49.9247C77.9148 45.1605 78.6625 39.5155 76.7704 34.5276C81.461 31.8991 96.6428 23.8182 97.5775 28.7806C98.6878 34.6551 91.9409 37.5923 91.9409 37.5923Z" fill="white"/>
</mask>
<g mask="url(#mask11_2674_43346)">
<path d="M74.8416 38.7479C74.8416 38.7479 83.336 39.8526 85.9787 38.2324L74.8416 38.7479Z" fill="#C1C9E6"/>
<path d="M74.8416 38.7479C76.7308 38.4165 78.5832 38.4137 80.4668 38.408C82.1011 38.3797 84.3783 38.5582 85.9787 38.2324C83.6164 40.5437 77.6711 40.014 74.8416 38.7479Z" fill="#2A358E"/>
<path d="M75.2354 43.9912C77.7534 43.2122 80.9625 43.4388 83.3418 44.5803C80.8237 45.3677 77.6146 45.127 75.2354 43.9912Z" fill="#2A358E"/>
</g>
<path d="M91.9409 37.5923C91.9409 37.5923 95.6571 38.2437 93.5526 42.2318C91.4453 46.2227 86.4347 45.5174 86.4347 45.5174C86.4347 45.5174 91.8645 57.2097 76.7053 50.1966C76.5099 50.106 76.3201 50.0153 76.136 49.9247C77.9148 45.1605 78.6625 39.5155 76.7704 34.5276C81.461 31.8991 96.6428 23.8182 97.5775 28.7806C98.6878 34.6551 91.9409 37.5923 91.9409 37.5923Z" stroke="#2A358E" stroke-width="1.41621" stroke-linecap="round" stroke-linejoin="round"/>
<path d="M64.4153 71.7744C64.4153 71.7744 88.2105 53.1455 112.261 54.032C112.261 54.032 115.696 53.9867 117.138 47.6364C118.58 41.2861 119.466 33.6385 117.138 32.5311C114.81 31.4236 75.8668 30.8854 64.4153 71.7744Z" fill="#C1C9E6"/>
<mask id="mask12_2674_43346" style="mask-type:luminance" maskUnits="userSpaceOnUse" x="64" y="32" width="55" height="40">
<path d="M64.4153 71.7744C64.4153 71.7744 88.2105 53.1455 112.261 54.032C112.261 54.032 115.696 53.9867 117.138 47.6364C118.58 41.2861 119.466 33.6385 117.138 32.5311C114.81 31.4236 75.8668 30.8854 64.4153 71.7744Z" fill="white"/>
</mask>
<g mask="url(#mask12_2674_43346)">
<path d="M116.373 36.0949C116.373 36.0949 79.1496 33.2285 64.4153 71.775L116.373 36.0949Z" fill="#C1C9E6"/>
<path d="M116.373 36.094C103.48 36.0912 90.4651 40.5183 80.5998 48.8683C73.3488 54.9693 68.0691 63.0616 64.4153 71.777C64.9195 70.4656 65.3896 69.1372 65.9476 67.8456C66.2479 67.1629 66.9673 65.6079 67.2562 64.9593C67.5536 64.3957 68.4203 62.7415 68.7376 62.1524C69.1993 61.3027 69.8762 60.2688 70.3719 59.4304C75.5014 51.3608 82.9535 44.7953 91.6604 40.8214C99.359 37.3431 107.924 35.5502 116.373 36.0969V36.094Z" fill="#2A358E"/>
<path d="M115.45 42.4536C115.45 42.4536 84.517 38.712 64.4153 71.7749L115.45 42.4536Z" fill="#C1C9E6"/>
<path d="M115.45 42.4526C106.46 42.1013 97.4726 44.4239 89.454 48.4063C83.7664 51.3096 78.5208 55.1872 74.0484 59.7446C70.4512 63.404 67.242 67.4544 64.4153 71.7739C65.0752 70.6664 65.721 69.5476 66.4206 68.4599C67.8312 66.3243 69.3465 64.1433 71.0007 62.1974C75.1077 57.201 80.1013 52.8448 85.6642 49.5365C94.558 44.2965 105.117 41.4131 115.453 42.4526H115.45Z" fill="#2A358E"/>
<path d="M114.045 49.2901C114.045 49.2901 91.4905 44.4636 64.4153 71.7739L114.045 49.2901Z" fill="#C1C9E6"/>
<path d="M114.045 49.2898C109.386 48.7319 104.675 49.3833 100.143 50.4568C92.207 52.4083 84.7662 56.1103 78.0392 60.713C73.1986 64.01 68.6922 67.7573 64.4124 71.7737C65.2196 70.9211 66.0325 70.0714 66.8539 69.2301C68.3636 67.7459 70.4454 65.7802 72.0344 64.4405C80.1068 57.6002 89.5757 52.0769 99.9933 49.8138C104.588 48.8536 109.405 48.3891 114.042 49.2898H114.045Z" fill="#2A358E"/>
</g>
<path d="M64.4153 71.7744C64.4153 71.7744 88.2105 53.1455 112.261 54.032C112.261 54.032 115.696 53.9867 117.138 47.6364C118.58 41.2861 119.466 33.6385 117.138 32.5311C114.81 31.4236 75.8668 30.8854 64.4153 71.7744Z" stroke="#2A358E" stroke-width="1.41621" stroke-linecap="round" stroke-linejoin="round"/>
<path d="M57.153 34.0773C64.4153 14.4288 50.0747 -9.51943 25.4071 5.55475C-2.40735 22.5522 17.4876 49.2903 17.4876 49.2903C13.9414 42.787 14.3833 35.8419 14.3833 35.8419C12.8793 13.2816 38.7903 -1.29123 48.9644 8.35603C58.0962 17.0148 54.1591 33.2276 54.1591 33.2276" fill="#9199CD"/>
<path d="M57.153 34.0773C64.4153 14.4288 50.0747 -9.51943 25.4071 5.55475C-2.40735 22.5522 17.4876 49.2903 17.4876 49.2903C13.9414 42.787 14.3833 35.8419 14.3833 35.8419C12.8793 13.2816 38.7903 -1.29123 48.9644 8.35603C58.0962 17.0148 54.1591 33.2276 54.1591 33.2276" stroke="#2A358E" stroke-width="1.41621" stroke-linecap="round" stroke-linejoin="round"/>
<path d="M53.6606 44.6971C55.0626 47.3142 54.4055 50.4752 52.5049 51.7357C50.6044 52.9961 47.9277 51.8943 46.5257 49.2771C45.1236 46.6599 45.5287 43.5159 47.4292 42.2555C49.3298 40.9951 52.2585 42.0799 53.6606 44.6971Z" fill="#5C59A7"/>
<mask id="mask13_2674_43346" style="mask-type:luminance" maskUnits="userSpaceOnUse" x="45" y="41" width="10" height="12">
<path d="M53.6603 44.6951C55.0624 47.3123 54.4053 50.4733 52.5047 51.7337C50.6041 52.9941 47.9275 51.8923 46.5254 49.2752C45.1234 46.658 45.5284 43.514 47.429 42.2536C49.3296 40.9931 52.2583 42.0779 53.6603 44.6951Z" fill="white"/>
</mask>
<g mask="url(#mask13_2674_43346)">
<path d="M55.0822 54.7284C52.7709 56.2607 49.9612 55.7594 48.8084 53.6068C47.6556 51.4541 48.5959 48.4687 50.9072 46.9364C53.2185 45.404 56.0282 45.9054 57.181 48.058C58.3338 50.2107 57.3935 53.1961 55.0822 54.7284Z" fill="#6E79BA" stroke="#2A358E" stroke-width="1.41621" stroke-linecap="round" stroke-linejoin="round"/>
</g>
<path d="M53.6606 44.6971C55.0626 47.3142 54.4055 50.4752 52.5049 51.7357C50.6044 52.9961 47.9277 51.8943 46.5257 49.2771C45.1236 46.6599 45.5287 43.5159 47.4292 42.2555C49.3298 40.9951 52.2585 42.0799 53.6606 44.6971Z" stroke="#2A358E" stroke-width="1.41621" stroke-linecap="round" stroke-linejoin="round"/>
<path d="M56.592 39.4355C56.592 39.4355 58.402 45.31 65.4575 44.6274C65.4575 44.6274 66.3441 45.8453 68.1002 45.3468C68.1002 45.3468 66.531 44.4773 66.4007 42.9648C66.4007 42.9648 62.4297 42.5965 56.592 39.4355Z" fill="#2A358E"/>
<path d="M48.5254 35.9186C48.5254 35.9186 47.3074 38.1477 44.1634 37.2187C40.7305 36.2075 41.4726 33.7461 41.4726 33.7461C42.4243 34.1936 43.5403 34.6496 44.8092 35.049C46.1716 35.4739 47.4264 35.7458 48.5226 35.9186H48.5254Z" fill="#2A358E"/>
</svg>
