<svg width="179" height="290" viewBox="0 0 179 290" fill="none" xmlns="http://www.w3.org/2000/svg">
<path d="M128.15 244.581C128.484 244.505 128.789 244.768 128.771 245.108C128.507 249.282 127.324 271.552 131.682 276.944C136.497 282.898 142.226 279.579 146.01 282.213C148.699 284.087 149.185 285.96 149.243 286.885C149.261 287.201 148.986 287.453 148.669 287.412L141.71 286.546C141.353 286.499 141.06 286.832 141.154 287.178L141.3 287.752C141.418 288.197 140.931 288.559 140.545 288.314C139.069 287.394 135.865 286.329 128.964 286.493C126.428 286.551 124.009 285.714 121.836 284.403C120.693 283.712 119.118 283.648 117.243 285.849C116.933 286.212 116.33 286.007 116.335 285.527C116.359 283.706 116.898 280.27 119.985 276.259C124.208 270.774 122.802 249.587 122.556 246.267C122.539 246.015 122.708 245.787 122.954 245.734L128.144 244.587L128.15 244.581Z" fill="#ED8C3D"/>
<mask id="mask0_2675_61857" style="mask-type:luminance" maskUnits="userSpaceOnUse" x="116" y="244" width="34" height="45">
<path d="M128.15 244.581C128.484 244.505 128.789 244.768 128.771 245.108C128.507 249.282 127.324 271.552 131.682 276.944C136.497 282.898 142.226 279.579 146.01 282.213C148.699 284.087 149.185 285.96 149.243 286.885C149.261 287.201 148.986 287.453 148.669 287.412L141.71 286.546C141.353 286.499 141.06 286.832 141.154 287.178L141.3 287.752C141.418 288.197 140.931 288.559 140.545 288.314C139.069 287.394 135.865 286.329 128.964 286.493C126.428 286.551 124.009 285.714 121.836 284.403C120.693 283.712 119.118 283.648 117.243 285.849C116.933 286.212 116.33 286.007 116.335 285.527C116.359 283.706 116.898 280.27 119.985 276.259C124.208 270.774 122.802 249.587 122.556 246.267C122.539 246.015 122.708 245.787 122.954 245.734L128.144 244.587L128.15 244.581Z" fill="white"/>
</mask>
<g mask="url(#mask0_2675_61857)">
<path d="M140.545 288.32C140.545 288.32 126.616 282.213 123.558 274.269L108.586 286.177L113.096 232.626L136.702 238.686L159.559 284.198L143.421 296.112L140.539 288.32" fill="#AA6C35"/>
</g>
<path d="M128.15 244.581C128.484 244.505 128.789 244.768 128.771 245.108C128.507 249.282 127.324 271.552 131.682 276.944C136.497 282.898 142.226 279.579 146.01 282.213C148.699 284.087 149.185 285.96 149.243 286.885C149.261 287.201 148.986 287.453 148.669 287.412L141.71 286.546C141.353 286.499 141.06 286.832 141.154 287.178L141.3 287.752C141.418 288.197 140.931 288.559 140.545 288.314C139.069 287.394 135.865 286.329 128.964 286.493C126.428 286.551 124.009 285.714 121.836 284.403C120.693 283.712 119.118 283.648 117.243 285.849C116.933 286.212 116.33 286.007 116.335 285.527C116.359 283.706 116.898 280.27 119.985 276.259C124.208 270.774 122.802 249.587 122.556 246.267C122.539 246.015 122.708 245.787 122.954 245.734L128.144 244.587L128.15 244.581Z" stroke="#744A1D" stroke-width="2.84905" stroke-miterlimit="10"/>
<path d="M84.3472 242.362C84.605 242.397 84.7983 242.625 84.7865 242.889C84.605 246.653 83.5096 272.477 87.3287 278.513C89.9998 282.728 91.8098 281.85 92.1027 285.468C92.132 285.813 91.8039 286.094 91.4701 286.007C89.4433 285.491 83.3339 284.163 80.3523 286.083C80.1825 286.194 79.9657 286.206 79.7959 286.1C78.6302 285.369 73.9031 282.798 69.1936 285.872C68.8832 286.071 68.4614 285.884 68.4146 285.521C68.233 284.057 68.7368 280.749 75.7893 277.963C78.8235 276.763 78.5658 246.729 78.5072 242.11C78.5072 241.794 78.7825 241.56 79.093 241.601L84.3472 242.362Z" fill="#ED8C3D"/>
<mask id="mask1_2675_61857" style="mask-type:luminance" maskUnits="userSpaceOnUse" x="68" y="241" width="25" height="46">
<path d="M84.3472 242.362C84.605 242.397 84.7983 242.625 84.7865 242.889C84.605 246.653 83.5096 272.477 87.3287 278.513C89.9998 282.728 91.8098 281.85 92.1027 285.468C92.132 285.813 91.8039 286.094 91.4701 286.007C89.4433 285.491 83.3339 284.163 80.3523 286.083C80.1825 286.194 79.9657 286.206 79.7959 286.1C78.6302 285.369 73.9031 282.798 69.1936 285.872C68.8832 286.071 68.4614 285.884 68.4146 285.521C68.233 284.057 68.7368 280.749 75.7893 277.963C78.8235 276.763 78.5658 246.729 78.5072 242.11C78.5072 241.794 78.7825 241.56 79.093 241.601L84.3472 242.362Z" fill="white"/>
</mask>
<g mask="url(#mask1_2675_61857)">
<path d="M78.8295 290.989C78.8295 290.989 82.2152 284.707 80.2471 273.426C80.2471 273.426 80.8621 280.714 74.1669 281.862C72.2573 282.19 71.0858 284.485 68.4147 285.515L76.3811 229.828C76.3811 229.828 96.1446 236.73 96.045 237.743C95.9454 238.756 102.664 283.044 102.664 283.044C102.664 283.044 84.3298 301.527 83.7148 300.912C83.0997 300.297 78.8237 290.983 78.8237 290.983L78.8295 290.989Z" fill="#AA6C35"/>
</g>
<path d="M84.3472 242.362C84.605 242.397 84.7983 242.625 84.7865 242.889C84.605 246.653 83.5096 272.477 87.3287 278.513C89.9998 282.728 91.8098 281.85 92.1027 285.468C92.132 285.813 91.8039 286.094 91.4701 286.007C89.4433 285.491 83.3339 284.163 80.3523 286.083C80.1825 286.194 79.9657 286.206 79.7959 286.1C78.6302 285.369 73.9031 282.798 69.1936 285.872C68.8832 286.071 68.4614 285.884 68.4146 285.521C68.233 284.057 68.7368 280.749 75.7893 277.963C78.8235 276.763 78.5658 246.729 78.5072 242.11C78.5072 241.794 78.7825 241.56 79.093 241.601L84.3472 242.362Z" stroke="#744A1D" stroke-width="2.84905" stroke-miterlimit="10"/>
<path d="M72.4336 161.946C72.4336 161.946 17.7296 100.55 4.58516 108.185C-8.55927 115.819 35.1442 165.611 35.1442 165.611C35.1442 165.611 18.3329 158.585 18.6434 165.611C18.9538 172.636 43.7021 189.438 43.7021 189.438L72.4277 161.946H72.4336Z" fill="#F1B149"/>
<mask id="mask2_2675_61857" style="mask-type:luminance" maskUnits="userSpaceOnUse" x="2" y="107" width="71" height="83">
<path d="M72.4336 161.946C72.4336 161.946 17.7296 100.55 4.58516 108.185C-8.55927 115.819 35.1442 165.611 35.1442 165.611C35.1442 165.611 18.3329 158.585 18.6434 165.611C18.9538 172.636 43.7021 189.438 43.7021 189.438L72.4277 161.946H72.4336Z" fill="white"/>
</mask>
<g mask="url(#mask2_2675_61857)">
<path d="M72.4336 161.946C72.4336 161.946 35.5718 120.192 25.9419 126.608C16.312 133.025 62.9209 182.811 62.9209 182.811C62.9209 182.811 35.1091 167.232 31.4422 171.354C27.7754 175.475 59.8632 197.166 59.8632 197.166L3.02118 172.109L-9.96508 113.623L-1.25485 103.29L41.6813 108.296L72.4336 161.94" fill="#ED8C3D"/>
<mask id="mask3_2675_61857" style="mask-type:luminance" maskUnits="userSpaceOnUse" x="-10" y="103" width="83" height="95">
<path d="M72.4336 161.946C72.4336 161.946 35.5718 120.192 25.9419 126.608C16.312 133.025 62.9209 182.811 62.9209 182.811C62.9209 182.811 35.1091 167.232 31.4422 171.354C27.7754 175.475 59.8632 197.166 59.8632 197.166L3.02118 172.109L-9.96508 113.623L-1.25485 103.29L41.6813 108.296L72.4336 161.94" fill="white"/>
</mask>
<g mask="url(#mask3_2675_61857)">
<path d="M84.3721 172.513C6.89961 95.311 -0.434089 119.466 -0.434089 119.466C-0.434089 119.466 -57.0477 68.7377 6.21428 92.1027C69.4762 115.468 84.3721 172.513 84.3721 172.513Z" fill="#AA6C35"/>
</g>
<path d="M72.4336 161.946C72.4336 161.946 35.5718 120.192 25.9419 126.608C16.312 133.025 62.9209 182.811 62.9209 182.811C62.9209 182.811 35.1091 167.232 31.4422 171.354C27.7754 175.475 59.8632 197.166 59.8632 197.166L3.02118 172.109L-9.96508 113.623L-1.25485 103.29L41.6813 108.296L72.4336 161.94" stroke="#744A1D" stroke-width="2.84905" stroke-miterlimit="10"/>
</g>
<path d="M72.4336 161.946C72.4336 161.946 17.7296 100.55 4.58516 108.185C-8.55927 115.819 35.1442 165.611 35.1442 165.611C35.1442 165.611 18.3329 158.585 18.6434 165.611C18.9538 172.636 43.7021 189.438 43.7021 189.438L72.4277 161.946H72.4336Z" stroke="#744A1D" stroke-width="2.84905" stroke-miterlimit="10"/>
<path d="M144.874 170.23C147.967 194.725 150.919 241.583 129.216 246.419C125.889 247.163 122.416 246.273 119.692 244.23C116.049 241.496 108.492 237.544 102.535 239.376C96.947 241.092 81.6177 249.282 72.9075 241.267C66.634 235.495 60.3254 229.67 68.3854 208.705C73.0422 196.586 78.4488 183.507 79.9542 172.021C81.9985 156.431 94.9906 144.546 110.706 143.996C114.157 143.873 117.765 144.101 121.438 144.821C133.897 147.274 143.281 157.637 144.868 170.23H144.874Z" fill="#F1B149"/>
<mask id="mask4_2675_61857" style="mask-type:luminance" maskUnits="userSpaceOnUse" x="64" y="143" width="84" height="104">
<path d="M144.873 170.23C147.966 194.725 150.918 241.583 129.215 246.419C125.888 247.163 122.415 246.273 119.691 244.23C116.048 241.496 108.491 237.544 102.534 239.376C96.946 241.092 81.6167 249.282 72.9065 241.267C66.633 235.495 60.3244 229.67 68.3844 208.705C73.0412 196.586 78.4478 183.507 79.9532 172.021C81.9975 156.431 94.9896 144.546 110.706 143.996C114.156 143.873 117.764 144.101 121.437 144.821C133.896 147.274 143.28 157.637 144.867 170.23H144.873Z" fill="white"/>
</mask>
<g mask="url(#mask4_2675_61857)">
<path d="M128.355 215.537C128.355 215.537 123.622 232.978 108.978 239.248C94.3342 245.518 107.859 260.757 107.859 260.757C107.859 260.757 153.929 260.985 154.158 260.64C154.386 260.294 159.084 205.889 159.084 205.889L134.558 201.967L128.349 215.537H128.355Z" fill="#C3903B"/>
<path d="M155.171 204.074C155.171 204.074 112.85 239.201 63.6519 196.13L97.667 142.696L139.051 150.869L155.171 204.068V204.074Z" fill="white"/>
<mask id="mask5_2675_61857" style="mask-type:luminance" maskUnits="userSpaceOnUse" x="63" y="142" width="93" height="76">
<path d="M155.171 204.074C155.171 204.074 112.85 239.201 63.6519 196.13L97.667 142.696L139.051 150.869L155.171 204.068V204.074Z" fill="white"/>
</mask>
<g mask="url(#mask5_2675_61857)">
<path d="M132.332 153.258C132.332 153.258 137.51 184.924 128.162 216.187C125.268 225.859 153.982 233.434 153.982 233.434L174.542 191.288L132.326 153.252" fill="#D1D3D4"/>
</g>
<path d="M155.171 204.074C155.171 204.074 112.85 239.201 63.6519 196.13L97.667 142.696L139.051 150.869L155.171 204.068V204.074Z" stroke="#744A1D" stroke-width="2.84905" stroke-miterlimit="10"/>
<path d="M122.053 170.189C122.053 170.189 119.657 208.641 116.336 217.557Z" fill="#F1B149"/>
<path d="M122.053 170.189C122.053 170.189 119.657 208.641 116.336 217.557" stroke="#744A1D" stroke-width="2.84905" stroke-miterlimit="10"/>
</g>
<path d="M144.874 170.23C147.967 194.725 150.919 241.583 129.216 246.419C125.889 247.163 122.416 246.273 119.692 244.23C116.049 241.496 108.492 237.544 102.535 239.376C96.947 241.092 81.6177 249.282 72.9075 241.267C66.634 235.495 60.3254 229.67 68.3854 208.705C73.0422 196.586 78.4488 183.507 79.9542 172.021C81.9985 156.431 94.9906 144.546 110.706 143.996C114.157 143.873 117.765 144.101 121.438 144.821C133.897 147.274 143.281 157.637 144.868 170.23H144.874Z" stroke="#744A1D" stroke-width="2.84905" stroke-miterlimit="10"/>
<path d="M126.698 155.553C126.698 155.553 133.803 181.669 142.285 198.39C150.767 215.11 143.89 239.482 134.494 244.136C134.494 244.136 167.73 249.475 175.761 214.952C185.432 173.391 130.136 144.558 126.698 155.553Z" fill="#ED8C3D"/>
<mask id="mask6_2675_61857" style="mask-type:luminance" maskUnits="userSpaceOnUse" x="126" y="153" width="51" height="92">
<path d="M126.697 155.553C126.697 155.553 133.802 181.669 142.284 198.39C150.766 215.11 143.889 239.482 134.493 244.136C134.493 244.136 167.729 249.475 175.76 214.952C185.431 173.391 130.135 144.558 126.697 155.553Z" fill="white"/>
</mask>
<g mask="url(#mask6_2675_61857)">
<path d="M165.961 175.709C165.961 175.709 197.487 226.233 136.287 231.245L131.852 253.187L185.947 236.432V177.22L165.961 175.709Z" fill="#AA6C35"/>
</g>
<path d="M126.698 155.553C126.698 155.553 133.803 181.669 142.285 198.39C150.767 215.11 143.89 239.482 134.494 244.136C134.494 244.136 167.73 249.475 175.761 214.952C185.432 173.391 130.136 144.558 126.698 155.553Z" stroke="#744A1D" stroke-width="2.84905" stroke-miterlimit="10"/>
<path d="M113.097 154.253C113.097 154.253 106.882 181.072 74.3605 206.89C68.5966 211.468 65.2226 218.534 65.6561 225.881C65.9021 230.038 67.3314 234.687 70.9689 239.429C70.9689 239.429 33.7732 249.492 28.4604 214.178C21.7008 169.275 106.929 136.859 113.103 154.253H113.097Z" fill="#ED8C3D"/>
<mask id="mask7_2675_61857" style="mask-type:luminance" maskUnits="userSpaceOnUse" x="28" y="149" width="86" height="92">
<path d="M113.096 154.253C113.096 154.253 106.881 181.072 74.3595 206.89C68.5956 211.468 65.2216 218.534 65.6551 225.881C65.9011 230.038 67.3304 234.687 70.9679 239.429C70.9679 239.429 33.7723 249.492 28.4594 214.178C21.6998 169.275 106.928 136.859 113.102 154.253H113.096Z" fill="white"/>
</mask>
<g mask="url(#mask7_2675_61857)">
<path d="M92.7125 189.438C92.7125 189.438 73.4059 210.648 61.7552 214.974C53.7303 217.954 46.8418 220.782 39.5901 234.915C36.837 240.289 57.4733 252.355 57.4733 252.355C57.4733 252.355 99.0505 226.637 92.7067 189.438" fill="#AA6C35"/>
</g>
<path d="M113.097 154.253C113.097 154.253 106.882 181.072 74.3605 206.89C68.5966 211.468 65.2226 218.534 65.6561 225.881C65.9021 230.038 67.3314 234.687 70.9689 239.429C70.9689 239.429 33.7732 249.492 28.4604 214.178C21.7008 169.275 106.929 136.859 113.103 154.253H113.097Z" stroke="#744A1D" stroke-width="2.84905" stroke-miterlimit="10"/>
<path d="M134.319 140.202C134.319 140.202 131.262 131.497 135.391 112.253C139.521 93.0097 141.811 83.6953 135.391 71.3249C128.971 58.9545 130.348 51.6248 130.348 51.6248C130.348 51.6248 158.997 19.9347 143.486 3.67115C134.243 -6.02963 118.58 21.9955 118.58 21.9955C118.58 21.9955 103.912 3.05644 94.2825 9.47289C84.6527 15.8893 89.2392 39.8632 89.2392 39.8632C89.2392 39.8632 67.9996 38.0308 66.0138 53.1528C66.0138 53.1528 64.7896 61.5539 69.833 67.2034C69.833 67.2034 52.2602 73.9242 59.2893 84.4622C66.3184 95.0002 82.8192 103.249 87.7103 109.203C94.429 117.387 96.0457 121.573 91.5295 138.065L121.632 152.42L134.313 140.202H134.319Z" fill="#F1B149"/>
<mask id="mask8_2675_61857" style="mask-type:luminance" maskUnits="userSpaceOnUse" x="57" y="1" width="92" height="152">
<path d="M134.318 140.203C134.318 140.203 131.261 131.497 135.39 112.254C139.52 93.0102 141.81 83.6958 135.39 71.3254C128.97 58.955 130.347 51.6252 130.347 51.6252C130.347 51.6252 158.996 19.9352 143.485 3.67164C134.242 -6.02914 118.579 21.996 118.579 21.996C118.579 21.996 103.911 3.05693 94.2816 9.47338C84.6517 15.8898 89.2382 39.8637 89.2382 39.8637C89.2382 39.8637 67.9986 38.0313 66.0129 53.1532C66.0129 53.1532 64.7886 61.5543 69.832 67.2039C69.832 67.2039 52.2592 73.9247 59.2883 84.4627C66.3175 95.0007 82.8183 103.25 87.7094 109.203C94.428 117.388 96.0447 121.574 91.5285 138.066L121.631 152.421L134.312 140.203H134.318Z" fill="white"/>
</mask>
<g mask="url(#mask8_2675_61857)">
<path d="M134.582 69.7036C134.582 69.7036 125.76 55.6647 116.019 56.8122C116.019 56.8122 148.025 33.6169 144.856 5.29909C144.856 5.29909 168.152 22.6867 134.576 69.7036" fill="#C3903B"/>
<path d="M118.772 36.9421C118.772 36.9421 117.343 51.9646 108.785 53.6448C108.785 53.6448 113.173 47.5562 111.158 32.844C108.873 16.1648 118.778 36.9421 118.778 36.9421H118.772Z" fill="#C3903B"/>
<path d="M130.347 51.6191C130.347 51.6191 144.288 23.8222 135.121 19.2441C125.954 14.6659 116.787 40.9289 116.787 40.9289C116.787 40.9289 107.122 22.142 102.863 27.0305C98.6048 31.9189 99.214 51.4668 99.214 51.4668C99.214 51.4668 83.0177 51.0102 80.1124 60.0202C77.207 69.0301 83.7792 74.9899 83.7792 74.9899C83.7792 74.9899 54.8193 82.1206 72.4331 97.1548L42.5184 86.289L51.3809 -1.37521L139.051 -13.7456L163.524 16.0359L130.347 51.6191Z" fill="#ED8C3D"/>
<mask id="mask9_2675_61857" style="mask-type:luminance" maskUnits="userSpaceOnUse" x="42" y="-14" width="122" height="112">
<path d="M130.348 51.6191C130.348 51.6191 144.289 23.8222 135.122 19.2441C125.955 14.6659 116.788 40.9289 116.788 40.9289C116.788 40.9289 107.123 22.142 102.864 27.0305C98.6058 31.9189 99.2149 51.4668 99.2149 51.4668C99.2149 51.4668 83.0187 51.0102 80.1133 60.0202C77.208 69.0301 83.7802 74.9899 83.7802 74.9899C83.7802 74.9899 54.8203 82.1206 72.4341 97.1548L42.5193 86.289L51.3819 -1.37521L139.052 -13.7456L163.525 16.0359L130.348 51.6191Z" fill="white"/>
</mask>
<g mask="url(#mask9_2675_61857)">
<path d="M136.556 68.1929C136.556 68.1929 127.735 54.154 117.994 55.3014C117.994 55.3014 150 32.1062 146.831 3.78835C146.831 3.78835 170.126 21.176 136.551 68.1929" fill="#AE672A"/>
<path d="M115.112 42.726C115.112 42.726 120.05 34.7933 118.697 24.0445C117.344 13.2958 101.294 0.492188 101.294 0.492188C101.294 0.492188 110.162 13.8286 111.404 34.6586C112.019 44.9975 101.663 58.3281 115.118 42.7319" fill="#AE672A"/>
<path d="M100.374 52.5263C100.374 52.5263 99.1146 48.153 90.4044 40.917C81.6942 33.6809 64.8478 42.7318 64.8478 42.7318C64.8478 42.7318 81.6942 40.2144 100.374 52.5263Z" fill="#AE672A"/>
<path d="M83.7793 74.99C83.7793 74.99 75.7017 67.8125 69.8382 67.2036C63.9748 66.5948 54.8077 73.9831 54.8077 73.9831C54.8077 73.9831 67.6651 68.2164 83.7852 74.9959" fill="#AE672A"/>
</g>
<path d="M130.347 51.6191C130.347 51.6191 144.288 23.8222 135.121 19.2441C125.954 14.6659 116.787 40.9289 116.787 40.9289C116.787 40.9289 107.122 22.142 102.863 27.0305C98.6048 31.9189 99.214 51.4668 99.214 51.4668C99.214 51.4668 83.0177 51.0102 80.1124 60.0202C77.207 69.0301 83.7792 74.9899 83.7792 74.9899C83.7792 74.9899 54.8193 82.1206 72.4331 97.1548L42.5184 86.289L51.3809 -1.37521L139.051 -13.7456L163.524 16.0359L130.347 51.6191Z" stroke="#744A1D" stroke-width="2.84905" stroke-miterlimit="10"/>
<path d="M133.51 124.418C133.51 124.418 130.412 147.502 112.101 147.871C93.7901 148.24 125.644 156.624 125.644 156.624L141.922 141.595L133.51 124.418Z" fill="#C3903B"/>
</g>
<path d="M134.319 140.202C134.319 140.202 131.262 131.497 135.391 112.253C139.521 93.0097 141.811 83.6953 135.391 71.3249C128.971 58.9545 130.348 51.6248 130.348 51.6248C130.348 51.6248 158.997 19.9347 143.486 3.67115C134.243 -6.02963 118.58 21.9955 118.58 21.9955C118.58 21.9955 103.912 3.05644 94.2825 9.47289C84.6527 15.8893 89.2392 39.8632 89.2392 39.8632C89.2392 39.8632 67.9996 38.0308 66.0138 53.1528C66.0138 53.1528 64.7896 61.5539 69.833 67.2034C69.833 67.2034 52.2602 73.9242 59.2893 84.4622C66.3184 95.0002 82.8192 103.249 87.7103 109.203C94.429 117.387 96.0457 121.573 91.5295 138.065L121.632 152.42L134.313 140.202H134.319Z" stroke="#744A1D" stroke-width="2.84905" stroke-miterlimit="10"/>
<path d="M133.235 131.116C133.235 131.116 142.344 129.284 144.177 134.207C146.011 139.131 144.177 157.385 144.177 157.385L120.683 167.537L80.0836 154.364C80.0836 154.364 78.1096 153.79 80.0836 144.857C81.2844 139.429 81.1204 136.414 80.8099 134.881C80.6225 133.95 81.0325 133.007 81.8585 132.551C84.0375 131.356 88.3311 129.694 93.1285 131.538L91.5352 138.06L121.637 152.415L134.319 140.196C134.319 140.196 133.054 136.637 133.235 131.11V131.116Z" fill="white"/>
<mask id="mask10_2675_61857" style="mask-type:luminance" maskUnits="userSpaceOnUse" x="79" y="130" width="66" height="38">
<path d="M133.234 131.117C133.234 131.117 142.343 129.284 144.176 134.208C146.01 139.131 144.176 157.385 144.176 157.385L120.682 167.537L80.0826 154.365C80.0826 154.365 78.1086 153.791 80.0826 144.857C81.2834 139.43 81.1194 136.415 80.809 134.881C80.6215 133.95 81.0316 133.008 81.8575 132.551C84.0365 131.357 88.3301 129.694 93.1275 131.538L91.5342 138.06L121.636 152.415L134.318 140.197C134.318 140.197 133.053 136.637 133.234 131.111V131.117Z" fill="white"/>
</mask>
<g mask="url(#mask10_2675_61857)">
<path d="M121.636 152.421C121.636 152.421 116.194 166.062 97.702 170.95C79.2096 175.838 164.502 173.906 164.502 173.906C164.502 173.906 157.168 121.615 156.776 121.463C156.383 121.31 124.131 121.404 124.131 121.404L121.636 152.415" fill="#D1D3D4"/>
</g>
<path d="M133.235 131.116C133.235 131.116 142.344 129.284 144.177 134.207C146.011 139.131 144.177 157.385 144.177 157.385L120.683 167.537L80.0836 154.364C80.0836 154.364 78.1096 153.79 80.0836 144.857C81.2844 139.429 81.1204 136.414 80.8099 134.881C80.6225 133.95 81.0325 133.007 81.8585 132.551C84.0375 131.356 88.3311 129.694 93.1285 131.538L91.5352 138.06L121.637 152.415L134.319 140.196C134.319 140.196 133.054 136.637 133.235 131.11V131.116Z" stroke="#744A1D" stroke-width="2.84905" stroke-miterlimit="10"/>
<path d="M126.627 158.011C126.627 158.011 140.381 145.067 148.171 146.326C155.962 147.585 157.268 154.903 147.474 158.011C147.474 158.011 151.61 162.25 148.628 166.371C145.647 170.493 140.521 166.828 140.521 166.828C140.521 166.828 141.476 174.597 133.65 171.283C125.825 167.97 119.867 164.422 126.627 158.006V158.011Z" fill="#ED8C3D" stroke="#744A1D" stroke-width="2.84905" stroke-miterlimit="10"/>
<path d="M119.522 119.472C116.533 119.472 114.11 117.33 114.11 114.689C114.11 112.047 116.533 109.906 119.522 109.906C122.511 109.906 124.935 112.047 124.935 114.689C124.935 117.33 122.511 119.472 119.522 119.472Z" fill="#ED8C3D" stroke="#744A1D" stroke-width="2.84905" stroke-miterlimit="10"/>
<path d="M116.394 158.011C116.394 158.011 102.64 145.067 94.8497 146.326C87.0591 147.585 85.7529 154.903 95.5468 158.011C95.5468 158.011 91.4113 162.25 94.3928 166.371C97.3744 170.493 102.5 166.828 102.5 166.828C102.5 166.828 101.545 174.597 109.371 171.283C117.196 167.97 123.154 164.422 116.394 158.006V158.011Z" fill="#ED8C3D" stroke="#744A1D" stroke-width="2.84905" stroke-miterlimit="10"/>
<path d="M122.053 170.189C118.303 170.189 115.264 167.151 115.264 163.403C115.264 159.656 118.303 156.618 122.053 156.618C125.802 156.618 128.842 159.656 128.842 163.403C128.842 167.151 125.802 170.189 122.053 170.189Z" fill="#ED8C3D" stroke="#744A1D" stroke-width="2.84905" stroke-miterlimit="10"/>
<path d="M118.931 112.751C111.112 112.751 104.773 106.416 104.773 98.6008C104.773 90.7859 111.112 84.4507 118.931 84.4507C126.75 84.4507 133.089 90.7859 133.089 98.6008C133.089 106.416 126.75 112.751 118.931 112.751Z" fill="white" stroke="#744A1D" stroke-width="2.84905" stroke-miterlimit="10"/>
<path d="M119.575 108.301C113.963 108.301 109.412 103.754 109.412 98.1438C109.412 92.534 113.963 87.9863 119.575 87.9863C125.188 87.9863 129.738 92.534 129.738 98.1438C129.738 103.754 125.188 108.301 119.575 108.301Z" fill="#DAF0F5" stroke="#744A1D" stroke-width="1.70943" stroke-miterlimit="10"/>
<path d="M115.715 109.162C115.715 109.162 120.243 104.812 125.456 109.162C130.669 113.512 127.231 121.819 124.484 122.732C124.484 122.732 123.107 114.483 115.258 114.144C115.258 114.144 114.11 112.944 115.715 109.162Z" fill="#ED8C3D" stroke="#744A1D" stroke-width="2.84905" stroke-miterlimit="10"/>
<path d="M125.878 95.7377C125.878 95.7377 124.015 101.838 121.379 103.155C118.743 104.473 113.671 96.0246 113.671 96.0246C113.671 96.0246 118.023 95.2518 120.231 99.0045C120.231 99.0045 123.242 95.3689 125.878 95.7377Z" fill="#744A1D"/>
<path d="M126.211 178.73C125.377 178.73 124.7 178.054 124.7 177.22C124.7 176.386 125.377 175.709 126.211 175.709C127.046 175.709 127.723 176.386 127.723 177.22C127.723 178.054 127.046 178.73 126.211 178.73Z" fill="#ED8C3D"/>
<path d="M125.644 186.979C124.809 186.979 124.133 186.303 124.133 185.468C124.133 184.634 124.809 183.958 125.644 183.958C126.479 183.958 127.155 184.634 127.155 185.468C127.155 186.303 126.479 186.979 125.644 186.979Z" fill="#ED8C3D"/>
<path d="M125.07 195.228C124.235 195.228 123.559 194.552 123.559 193.717C123.559 192.883 124.235 192.207 125.07 192.207C125.904 192.207 126.581 192.883 126.581 193.717C126.581 194.552 125.904 195.228 125.07 195.228Z" fill="#ED8C3D"/>
<path d="M124.501 203.476C123.667 203.476 122.99 202.8 122.99 201.966C122.99 201.132 123.667 200.456 124.501 200.456C125.336 200.456 126.013 201.132 126.013 201.966C126.013 202.8 125.336 203.476 124.501 203.476Z" fill="#ED8C3D"/>
<path d="M123.927 211.725C123.093 211.725 122.416 211.049 122.416 210.215C122.416 209.381 123.093 208.705 123.927 208.705C124.762 208.705 125.438 209.381 125.438 210.215C125.438 211.049 124.762 211.725 123.927 211.725Z" fill="#ED8C3D"/>
<path d="M38.6642 224.599C36.6552 224.599 35.0266 222.972 35.0266 220.964C35.0266 218.956 36.6552 217.328 38.6642 217.328C40.6732 217.328 42.3018 218.956 42.3018 220.964C42.3018 222.972 40.6732 224.599 38.6642 224.599Z" fill="white" stroke="#744A1D" stroke-width="1.70943" stroke-miterlimit="10"/>
<path d="M45.4061 232.62C43.8662 232.62 42.6179 231.373 42.6179 229.834C42.6179 228.295 43.8662 227.047 45.4061 227.047C46.946 227.047 48.1943 228.295 48.1943 229.834C48.1943 231.373 46.946 232.62 45.4061 232.62Z" fill="white" stroke="#744A1D" stroke-width="1.70943" stroke-miterlimit="10"/>
<path d="M56.0789 236.431C54.6458 236.431 53.484 235.27 53.484 233.838C53.484 232.405 54.6458 231.244 56.0789 231.244C57.512 231.244 58.6738 232.405 58.6738 233.838C58.6738 235.27 57.512 236.431 56.0789 236.431Z" fill="white" stroke="#744A1D" stroke-width="1.70943" stroke-miterlimit="10"/>
<path d="M164.286 227.667C162.277 227.667 160.649 226.039 160.649 224.032C160.649 222.024 162.277 220.396 164.286 220.396C166.295 220.396 167.924 222.024 167.924 224.032C167.924 226.039 166.295 227.667 164.286 227.667Z" fill="white" stroke="#744A1D" stroke-width="1.70943" stroke-miterlimit="10"/>
<path d="M156.776 236.226C155.236 236.226 153.988 234.979 153.988 233.44C153.988 231.9 155.236 230.653 156.776 230.653C158.316 230.653 159.564 231.9 159.564 233.44C159.564 234.979 158.316 236.226 156.776 236.226Z" fill="white" stroke="#744A1D" stroke-width="1.70943" stroke-miterlimit="10"/>
<path d="M147.644 240.342C146.211 240.342 145.049 239.181 145.049 237.749C145.049 236.316 146.211 235.155 147.644 235.155C149.077 235.155 150.239 236.316 150.239 237.749C150.239 239.181 149.077 240.342 147.644 240.342Z" fill="white" stroke="#744A1D" stroke-width="1.70943" stroke-miterlimit="10"/>
<path d="M106.835 111.65C105.696 111.65 104.773 110.728 104.773 109.59C104.773 108.451 105.696 107.529 106.835 107.529C107.973 107.529 108.896 108.451 108.896 109.59C108.896 110.728 107.973 111.65 106.835 111.65Z" fill="#ED8C3D" stroke="#744A1D" stroke-width="1.70943" stroke-miterlimit="10"/>
<path d="M106.835 115.777C105.696 115.777 104.773 114.855 104.773 113.717C104.773 112.578 105.696 111.656 106.835 111.656C107.973 111.656 108.896 112.578 108.896 113.717C108.896 114.855 107.973 115.777 106.835 115.777Z" fill="#ED8C3D" stroke="#744A1D" stroke-width="1.70943" stroke-miterlimit="10"/>
<path d="M106.835 119.899C105.696 119.899 104.773 118.977 104.773 117.839C104.773 116.7 105.696 115.778 106.835 115.778C107.973 115.778 108.896 116.7 108.896 117.839C108.896 118.977 107.973 119.899 106.835 119.899Z" fill="#ED8C3D" stroke="#744A1D" stroke-width="1.70943" stroke-miterlimit="10"/>
<path d="M106.835 124.02C105.696 124.02 104.773 123.098 104.773 121.96C104.773 120.822 105.696 119.899 106.835 119.899C107.973 119.899 108.896 120.822 108.896 121.96C108.896 123.098 107.973 124.02 106.835 124.02Z" fill="#ED8C3D" stroke="#744A1D" stroke-width="1.70943" stroke-miterlimit="10"/>
</svg>
