<svg width="164" height="295" viewBox="0 0 164 295" fill="none" xmlns="http://www.w3.org/2000/svg">
<path d="M160.603 158.312C160.045 167.603 124.701 173.37 81.5881 171.199C38.4191 169.024 3.80069 159.702 4.27234 150.391C4.28248 150.142 4.32306 149.894 4.38391 149.65C4.41942 149.534 4.45492 149.412 4.49042 149.295C4.49549 149.285 4.50056 149.275 4.50056 149.265C7.64492 140.613 41.8829 135.374 83.2871 137.463C123.743 139.507 156.683 147.814 160.283 156.517C160.283 156.522 160.283 156.527 160.283 156.532C160.4 157.126 160.501 157.714 160.598 158.312H160.603Z" fill="#AF4132" stroke="#86211A" stroke-width="2.53577" stroke-miterlimit="10"/>
<path d="M131.721 155.173C131.361 161.163 108.61 164.885 80.8581 163.486C53.0711 162.081 30.7867 156.071 31.091 150.066C31.096 149.904 31.1214 149.747 31.162 149.59C31.1873 149.514 31.2076 149.437 31.233 149.361C31.233 149.356 31.238 149.346 31.238 149.341C33.2616 143.762 55.3025 140.385 81.9535 141.729C107.996 143.047 129.195 148.403 131.513 154.017C131.513 154.017 131.513 154.022 131.513 154.027C131.589 154.408 131.655 154.788 131.716 155.173H131.721Z" fill="#86211A"/>
<path d="M61.9816 112.897C61.9816 112.897 37.2426 112.633 38.2974 132.478C39.3523 152.323 75.2082 116.736 75.2082 116.736L61.9765 112.897H61.9816Z" fill="#AB5954" stroke="#86211A" stroke-width="2.53577" stroke-miterlimit="10"/>
<path d="M104.284 153.6L137.492 104.65C137.492 104.65 152.443 127.274 132.466 140.769C132.466 140.769 143.578 148.179 120.69 156.643C97.8025 165.113 104.284 153.6 104.284 153.6Z" fill="#E1675A" stroke="#86211A" stroke-width="2.53577" stroke-miterlimit="10"/>
<path d="M60.8917 111.639L45.0127 169.718L112.089 173.877L97.1381 110.843L60.8917 111.639Z" fill="#E1675A"/>
<mask id="mask0_2675_61067" style="mask-type:luminance" maskUnits="userSpaceOnUse" x="45" y="110" width="68" height="64">
<path d="M60.8917 111.639L45.0127 169.718L112.089 173.877L97.1381 110.843L60.8917 111.639Z" fill="white"/>
</mask>
<g mask="url(#mask0_2675_61067)">
<path d="M52.7669 104.65L115.827 106.152L112.089 146.638C112.089 146.638 101.783 154.402 86.4775 152.602C71.1716 150.801 32.5264 137.905 32.5264 137.905L52.7669 104.65Z" fill="#AB5954"/>
</g>
<path d="M60.8917 111.639L45.0127 169.718L112.089 173.877L97.1381 110.843L60.8917 111.639Z" stroke="#86211A" stroke-width="2.53577" stroke-miterlimit="10"/>
<path d="M60.0194 114.824C60.0194 114.824 60.1614 140.019 97.914 113.891L99.2428 119.114L88.8055 123.841L97.1381 175.86L45.0127 169.718L60.0194 114.824Z" fill="white"/>
<mask id="mask1_2675_61067" style="mask-type:luminance" maskUnits="userSpaceOnUse" x="45" y="113" width="55" height="63">
<path d="M60.0194 114.824C60.0194 114.824 60.1614 140.019 97.914 113.891L99.2428 119.114L88.8055 123.841L97.1381 175.86L45.0127 169.718L60.0194 114.824Z" fill="white"/>
</mask>
<g mask="url(#mask1_2675_61067)">
<path d="M54.4656 171.656L66.9467 110.843L38.2671 112.897L31.0908 172.833L54.4656 171.656Z" fill="#BCBEC0"/>
<path d="M110.907 108.019L43.5361 112.517L52.0918 132.205L98.1922 141.43L110.907 108.019Z" fill="#BCBEC0"/>
</g>
<path d="M60.0194 114.824C60.0194 114.824 60.1614 140.019 97.914 113.891L99.2428 119.114L88.8055 123.841L97.1381 175.86L45.0127 169.718L60.0194 114.824Z" stroke="#86211A" stroke-width="2.53577" stroke-miterlimit="10"/>
<path d="M38.0793 68.5056C38.0793 68.5056 25.1823 69.0989 26.1713 74.1603C27.1602 79.2217 39.3675 79.3181 39.3675 79.3181C39.3675 79.3181 27.6573 78.1263 26.7647 83.8825C25.8721 89.6387 43.5363 89.1417 43.5363 89.1417L38.0793 68.5005V68.5056Z" fill="#AB5954" stroke="#86211A" stroke-width="2.53577" stroke-miterlimit="10"/>
<path d="M95.0231 128.507C95.0231 128.507 93.0655 116.863 103.437 116.204C113.808 115.544 116.116 139.081 111.825 142.058C99.2426 150.791 78.8803 151.131 59.9635 137.24C41.0466 123.349 59.9635 136.703 77.4248 131.814C94.8861 126.925 95.0231 128.507 95.0231 128.507Z" fill="#E1675A"/>
<mask id="mask2_2675_61067" style="mask-type:luminance" maskUnits="userSpaceOnUse" x="52" y="116" width="62" height="33">
<path d="M95.0231 128.508C95.0231 128.508 93.0655 116.863 103.437 116.204C113.808 115.545 116.116 139.082 111.825 142.059C99.2426 150.792 78.8803 151.132 59.9635 137.241C41.0466 123.35 59.9635 136.703 77.4248 131.814C94.8861 126.925 95.0231 128.508 95.0231 128.508Z" fill="white"/>
</mask>
<g mask="url(#mask2_2675_61067)">
<path d="M95.0234 128.507C95.0234 128.507 95.708 118.886 106.723 116.883C106.723 116.883 92.8173 111.568 95.0234 128.507Z" fill="#AB5954"/>
<path d="M58.4424 131.864C58.4424 131.864 93.7607 139.187 95.6473 129.917C98.8576 114.139 58.4424 131.864 58.4424 131.864Z" fill="#AB5954"/>
</g>
<path d="M95.0231 128.507C95.0231 128.507 93.0655 116.863 103.437 116.204C113.808 115.544 116.116 139.081 111.825 142.058C99.2426 150.791 78.8803 151.131 59.9635 137.24C41.0466 123.349 59.9635 136.703 77.4248 131.814C94.8861 126.925 95.0231 128.507 95.0231 128.507Z" stroke="#86211A" stroke-width="2.53577" stroke-linejoin="round"/>
<path d="M39.0937 125.692C39.0937 125.692 59.0452 106.867 85.402 129.724C85.402 129.724 49.181 149.939 39.9204 137.235C39.9204 137.235 36.8115 134.223 39.0937 125.692Z" fill="#E1675A"/>
<mask id="mask3_2675_61067" style="mask-type:luminance" maskUnits="userSpaceOnUse" x="38" y="118" width="48" height="24">
<path d="M39.0937 125.692C39.0937 125.692 59.0452 106.867 85.402 129.724C85.402 129.724 49.181 149.939 39.9204 137.235C39.9204 137.235 36.8115 134.223 39.0937 125.692Z" fill="white"/>
</mask>
<g mask="url(#mask3_2675_61067)">
<path d="M50.5859 119.592C50.5859 119.592 45.1137 125.241 47.1575 132.2C49.2014 139.158 59.0452 140.289 59.0452 140.289L43.5314 149.646L29.6201 131.256C29.6201 131.256 44.424 117.218 50.5808 119.587" fill="#AB5954"/>
</g>
<path d="M39.0937 125.692C39.0937 125.692 59.0452 106.867 85.402 129.724C85.402 129.724 49.181 149.939 39.9204 137.235C39.9204 137.235 36.8115 134.223 39.0937 125.692Z" stroke="#86211A" stroke-width="2.53577" stroke-miterlimit="10"/>
<path d="M138.796 84.4862C137.472 87.9247 130.595 87.7928 130.595 87.7928C130.595 87.7928 136.681 94.0105 133.638 95.0654C130.595 96.1254 122.141 94.2743 122.141 94.2743C122.141 94.2743 120.543 98.3214 116.359 102.992C118.697 93.4476 119.985 73.1158 84.3882 83.0966C84.3882 83.0966 72.8656 63.0386 49.5771 80.4086C49.5771 80.4086 38.9116 74.3279 34.0784 78.6945C34.0023 76.9144 34.0683 75.1748 34.2762 73.5012C36.3961 56.3036 44.0694 34.2068 59.0152 20.5847C73.9661 6.95741 71.7195 15.29 71.7195 15.29L74.2299 33.0201C74.2299 33.0201 84.5505 32.3557 94.8051 35.8652C94.8051 35.8652 107.504 26.5336 119.017 23.7595C119.017 23.7595 130.727 49.7562 129.535 77.5382C129.535 77.5382 140.119 81.0426 138.796 84.4862Z" fill="#E1675A"/>
<mask id="mask4_2675_61067" style="mask-type:luminance" maskUnits="userSpaceOnUse" x="34" y="12" width="105" height="91">
<path d="M138.796 84.4867C137.472 87.9252 130.595 87.7933 130.595 87.7933C130.595 87.7933 136.681 94.011 133.638 95.0659C130.595 96.1259 122.141 94.2747 122.141 94.2747C122.141 94.2747 120.543 98.3218 116.359 102.993C118.697 93.4481 119.985 73.1163 84.3882 83.0971C84.3882 83.0971 72.8656 63.0391 49.5771 80.4091C49.5771 80.4091 38.9116 74.3284 34.0784 78.695C34.0023 76.9148 34.0683 75.1753 34.2762 73.5017C36.3961 56.3041 44.0694 34.2073 59.0152 20.5852C73.9661 6.9579 71.7195 15.2905 71.7195 15.2905L74.2299 33.0206C74.2299 33.0206 84.5505 32.3562 94.8051 35.8657C94.8051 35.8657 107.504 26.5341 119.017 23.7599C119.017 23.7599 130.727 49.7567 129.535 77.5386C129.535 77.5386 140.119 81.0431 138.796 84.4867Z" fill="white"/>
</mask>
<g mask="url(#mask4_2675_61067)">
<path d="M70.8165 12.7695C70.8165 12.7695 19.8626 58.4439 52.7719 109.342L26.5723 101.298C26.5723 101.298 32.5263 26.6554 70.8165 12.7695Z" fill="#AB5954"/>
<path d="M119.017 23.7593C119.017 23.7593 112.094 26.2139 99.2429 47.5296L97.3158 25.58L119.017 23.7593Z" fill="#AB5954"/>
</g>
<path d="M138.796 84.4862C137.472 87.9247 130.595 87.7928 130.595 87.7928C130.595 87.7928 136.681 94.0105 133.638 95.0654C130.595 96.1254 122.141 94.2743 122.141 94.2743C122.141 94.2743 120.543 98.3214 116.359 102.992C118.697 93.4476 119.985 73.1158 84.3882 83.0966C84.3882 83.0966 72.8656 63.0386 49.5771 80.4086C49.5771 80.4086 38.9116 74.3279 34.0784 78.6945C34.0023 76.9143 34.0683 75.1748 34.2762 73.5012C36.3961 56.3036 44.0694 34.2068 59.0152 20.5847C73.9661 6.95741 71.7195 15.29 71.7195 15.29L74.2299 33.0201C74.2299 33.0201 84.5505 32.3557 94.8051 35.8652C94.8051 35.8652 107.504 26.5336 119.017 23.7595C119.017 23.7595 130.727 49.7562 129.535 77.5382C129.535 77.5382 140.119 81.0426 138.796 84.4862Z" stroke="#86211A" stroke-width="2.53577" stroke-linecap="round" stroke-linejoin="round"/>
<path d="M116.359 102.992C110.253 109.803 98.644 117.943 78.4643 116.766C47.7764 114.971 34.7628 95.1814 34.0781 78.6938C38.9113 74.3272 49.5768 80.408 49.5768 80.408C72.8653 63.038 84.3879 83.0959 84.3879 83.0959C119.985 73.1151 118.697 93.447 116.359 102.992Z" fill="#F9B7B1"/>
<mask id="mask5_2675_61067" style="mask-type:luminance" maskUnits="userSpaceOnUse" x="34" y="73" width="84" height="44">
<path d="M116.359 102.992C110.253 109.803 98.644 117.943 78.4643 116.766C47.7764 114.971 34.7628 95.1814 34.0781 78.6938C38.9113 74.3272 49.5768 80.408 49.5768 80.408C72.8653 63.038 84.3879 83.0959 84.3879 83.0959C119.985 73.1151 118.697 93.447 116.359 102.992Z" fill="white"/>
</mask>
<g mask="url(#mask5_2675_61067)">
<path d="M41.8374 77.6901C41.8374 77.6901 41.4064 104.65 61.3173 112.897C76.5116 119.191 52.7666 109.347 52.7666 109.347C52.7666 109.347 34.4533 112.592 33.2716 100.385C32.0899 88.178 31.0908 77.6951 31.0908 77.6951C31.0908 77.6951 38.7641 75.3774 41.8374 77.6951" fill="#C39797"/>
</g>
<path d="M116.359 102.992C110.253 109.803 98.644 117.943 78.4643 116.766C47.7764 114.971 34.7628 95.1814 34.0781 78.6938C38.9113 74.3272 49.5768 80.408 49.5768 80.408C72.8653 63.038 84.3879 83.0959 84.3879 83.0959C119.985 73.1151 118.697 93.447 116.359 102.992Z" stroke="#86211A" stroke-width="2.53577" stroke-linecap="round" stroke-linejoin="round"/>
<path d="M60.4245 64.9708C60.4245 64.9708 62.9045 64.276 62.4075 61.796C61.9105 59.316 55.8601 53.6612 52.8831 57.1302C49.9061 60.5991 57.4475 66.1575 60.4245 64.9708Z" fill="#F9B7B1" stroke="#86211A" stroke-width="1.52146" stroke-miterlimit="10"/>
<path d="M85.6197 66.2284C85.6197 66.2284 82.4348 65.5235 83.1347 63.3275C83.8346 61.1315 91.7867 56.3034 95.5448 59.5086C99.3028 62.7088 89.4335 67.3949 85.6197 66.2284Z" fill="#F9B7B1" stroke="#86211A" stroke-width="1.52146" stroke-miterlimit="10"/>
<path d="M130.828 74.9106C121 77.3957 111.125 79.7793 100.83 76.9595C100.83 76.9595 101.459 75.4127 101.784 73.5464C112.18 75.3569 120.325 73.2674 130.524 70.9092L130.828 74.9106Z" fill="white" stroke="#86211A" stroke-width="1.48596" stroke-linejoin="round"/>
<path d="M58.1481 70.4324C57.0526 69.4688 53.9539 68.0284 51.7934 66.3295C51.3826 66.0049 50.9617 65.7057 50.4444 65.6296C49.0091 65.4267 47.1124 65.5789 47.1631 66.2128C47.224 67.004 49.3033 70.9598 53.4417 72.8971C54.0756 73.1913 54.811 73.1761 55.4196 72.8261L58.1684 71.2387C58.4828 71.0562 58.4219 70.6758 58.1481 70.4374V70.4324Z" fill="#86211A"/>
<path d="M81.2641 72.294C81.0917 72.3903 81.6597 74.8754 83.9115 74.9413C86.1632 75.0073 94.6936 71.5028 95.6876 70.2451C96.6816 68.9873 89.0743 67.9984 81.2692 72.294H81.2641Z" fill="#86211A"/>
<path d="M45.5042 84.4553C44.8855 86.2202 45.6259 88.2234 46.98 89.4406C48.5218 90.8302 50.6772 91.1903 52.6906 91.0483C57.0369 90.7491 61.1499 88.7407 65.5419 88.8827C69.4622 89.0095 72.8956 91.2309 76.3899 92.7574C78.3526 93.6145 80.3508 94.2789 82.4758 94.5832C84.6007 94.8875 86.888 94.9585 89.0891 94.7454C91.2901 94.5324 93.5825 93.9898 95.0279 92.2604C96.3465 90.673 96.879 88.2944 95.6618 86.494C94.754 85.1501 92.5529 86.418 93.4709 87.7721C94.1403 88.761 93.7295 90.0391 92.8826 90.8505C91.7516 91.9358 89.9715 92.159 88.4805 92.2655C84.6718 92.5292 80.9797 92.0423 77.4752 90.4904C74.2294 89.0501 71.0749 87.128 67.5198 86.5549C63.5589 85.9159 59.7857 87.1229 55.9566 87.98C54.0497 88.406 51.9096 88.8827 49.9874 88.2894C48.6536 87.8786 47.4466 86.5752 47.9487 85.1298C48.1769 84.4857 47.69 83.7453 47.0611 83.5678C46.3613 83.375 45.7273 83.8061 45.4991 84.4553H45.5042Z" fill="#86211A"/>
<path d="M71.1264 78.5575C70.7967 77.6548 69.752 77.2643 68.8188 77.0411C68.0277 76.8484 67.2061 76.7013 66.3997 76.8281C65.5933 76.9549 64.8021 77.4012 64.4471 78.1366C64.3914 78.2583 64.3457 78.3851 64.3457 78.5169C64.3457 78.6691 64.4066 78.8111 64.4624 78.948C64.9188 80.0283 65.3752 81.1136 66.0295 82.0873C66.2526 82.422 66.5518 82.7669 66.9525 82.7923C67.3379 82.8176 67.6676 82.5387 67.9465 82.275C69.1434 81.1389 70.1526 79.8964 71.1162 78.5575" fill="#86211A"/>
<path d="M72.3477 78.2174C72.0384 77.4415 71.5413 76.8329 70.7958 76.4271C70.1517 76.0721 69.4316 75.8693 68.7165 75.7171C67.0632 75.3723 65.1563 75.4078 63.9137 76.7213C63.2342 77.4364 62.8741 78.3848 63.2697 79.3382C63.5993 80.1294 63.929 80.9256 64.3245 81.6813C64.7201 82.4369 65.1613 83.2382 65.8714 83.7048C66.8299 84.3337 67.8949 84.0091 68.6962 83.3092C70.0503 82.1276 71.1762 80.6416 72.2209 79.1911C72.6114 78.6536 72.3325 77.7559 71.7645 77.4567C71.1103 77.1118 70.4459 77.335 70.03 77.9131C69.8627 78.1464 69.6902 78.3797 69.5178 78.6079C69.4671 78.6738 69.4214 78.7398 69.3707 78.8006C69.4062 78.7601 69.4975 78.6383 69.3454 78.8361C69.2439 78.9629 69.1425 79.0897 69.0411 79.2165C68.6556 79.6882 68.255 80.1497 67.8391 80.5909C67.6413 80.7988 67.4435 81.0017 67.2356 81.2045C67.124 81.311 67.0074 81.4125 66.9009 81.519C66.9161 81.5038 67.0682 81.4176 66.9465 81.4835C66.906 81.5139 66.8603 81.5443 66.8147 81.5697L66.9313 81.5241C66.9313 81.5241 66.6118 81.5545 66.9668 81.519C67.0378 81.5139 67.1088 81.5241 67.1747 81.5494C67.2255 81.5646 67.3928 81.7269 67.2965 81.6204C67.266 81.5849 67.2255 81.5494 67.19 81.5139C67.0277 81.3516 67.1646 81.4835 67.195 81.5291C67.1545 81.4683 67.1088 81.4074 67.0682 81.3466C66.977 81.2096 66.8958 81.0727 66.8147 80.9358C66.5053 80.4134 66.2416 79.8657 65.9981 79.3129C65.9424 79.181 65.8866 79.0542 65.8308 78.9224C65.8105 78.8716 65.6634 78.5318 65.7446 78.7246C65.7192 78.6637 65.6888 78.5673 65.6533 78.5065C65.6026 78.4203 65.6482 78.3138 65.6228 78.5166C65.6127 78.5876 65.5924 78.6485 65.5772 78.7144C65.5417 78.8767 65.6229 78.6434 65.6431 78.6028C65.6736 78.542 65.7902 78.4253 65.6127 78.6231C65.6431 78.5876 65.6736 78.5521 65.7091 78.5166C65.7902 78.4304 65.9779 78.2985 65.7801 78.4304C65.8916 78.3594 65.9981 78.2935 66.1148 78.2276C66.1351 78.2174 66.2872 78.1363 66.1401 78.2073C65.9779 78.2884 66.2264 78.1768 66.2669 78.1667C66.3785 78.1312 66.4901 78.1008 66.6017 78.0805C66.6321 78.0754 66.8299 78.05 66.7031 78.0602C66.5763 78.0703 66.7842 78.0602 66.7893 78.0602C66.9617 78.0602 67.1291 78.05 67.3015 78.0602C67.3675 78.0602 67.4283 78.0703 67.4943 78.0754C67.5653 78.0805 67.7833 78.116 67.6058 78.0855C67.9507 78.1413 68.2905 78.2174 68.6252 78.3036C68.7368 78.3341 69.3555 78.4406 69.3961 78.5521C69.3961 78.5572 69.178 78.4456 69.3099 78.5166C69.3809 78.5521 69.4519 78.5826 69.5178 78.6231C69.5584 78.6485 69.7866 78.8311 69.8272 78.8209C69.7359 78.8463 69.6649 78.6637 69.7815 78.7956C69.8119 78.8311 70.0047 78.9883 69.8627 78.8666C69.7562 78.7753 69.8424 78.8311 69.8677 78.8818C69.9032 78.9426 70.025 79.2013 69.9032 78.9021C70.1467 79.5157 70.7603 80.0127 71.4653 79.7896C72.0586 79.5969 72.6165 78.8869 72.3528 78.2276L72.3477 78.2174Z" fill="#86211A"/>
<path d="M69.3303 7.02819C69.3303 7.02819 64.5985 1.73856 58.0359 4.91335C51.4734 8.08814 55.9718 18.0132 55.9718 18.0132L62.4786 39.8411V44.9989C62.4786 44.9989 65.3643 52.2765 81.9026 52.6721C98.441 53.0677 100.424 45.5263 100.424 45.5263L101.083 40.7641L109.816 17.08C109.816 17.08 112.332 7.29191 105.186 5.83637C98.0403 4.38084 93.9425 8.35186 93.9425 8.35186C93.9425 8.35186 84.6819 -5.01167 69.3353 7.02819H69.3303Z" fill="white"/>
<mask id="mask6_2675_61067" style="mask-type:luminance" maskUnits="userSpaceOnUse" x="54" y="2" width="57" height="51">
<path d="M69.3303 7.02819C69.3303 7.02819 64.5985 1.73856 58.0359 4.91335C51.4734 8.08814 55.9718 18.0132 55.9718 18.0132L62.4786 39.8411V44.9989C62.4786 44.9989 65.3643 52.2765 81.9026 52.6721C98.441 53.0677 100.424 45.5263 100.424 45.5263L101.083 40.7641L109.816 17.08C109.816 17.08 112.332 7.29191 105.186 5.83637C98.0403 4.38084 93.9425 8.35186 93.9425 8.35186C93.9425 8.35186 84.6819 -5.01167 69.3353 7.02819H69.3303Z" fill="white"/>
</mask>
<g mask="url(#mask6_2675_61067)">
<path d="M66.9474 5.19266C66.9474 5.19266 57.9758 6.75977 60.7551 16.1523C63.5343 25.5448 66.9474 38.5127 66.9474 38.5127V48.3008L59.6951 50.0201C59.6951 50.0201 44.2218 8.08344 43.4256 6.8967C42.6293 5.70996 65.5223 -3.02832 65.5223 -3.02832L66.9525 5.19266" fill="#BCBEC0"/>
<path d="M80.8025 2.75836C80.8025 2.75836 72.2113 5.01013 71.8106 17.3441L69.001 8.1342C69.001 8.1342 69.0923 1.56655 80.8025 2.75836Z" fill="#BCBEC0"/>
<path d="M93.6947 10.0361L92.5029 16.8472C92.5029 16.8472 97.5136 5.58832 105.922 6.02447C105.922 6.02447 94.7496 1.50065 93.6947 10.0361Z" fill="#BCBEC0"/>
</g>
<path d="M69.3303 7.02819C69.3303 7.02819 64.5985 1.73856 58.0359 4.91335C51.4734 8.08814 55.9718 18.0132 55.9718 18.0132L62.4786 39.8411V44.9989C62.4786 44.9989 65.3643 52.2765 81.9026 52.6721C98.441 53.0677 100.424 45.5263 100.424 45.5263L101.083 40.7641L109.816 17.08C109.816 17.08 112.332 7.29191 105.186 5.83637C98.0403 4.38084 93.9425 8.35186 93.9425 8.35186C93.9425 8.35186 84.6819 -5.01167 69.3353 7.02819H69.3303Z" stroke="#86211A" stroke-width="2.53577" stroke-miterlimit="10"/>
<path d="M91.5591 21.4468L89.0791 33.5526" stroke="#86211A" stroke-width="2.53577" stroke-miterlimit="10"/>
<path d="M71.8105 21.4468C71.8105 21.6649 73.8189 33.0201 73.8189 33.0201" stroke="#86211A" stroke-width="2.53577" stroke-miterlimit="10"/>
<path d="M66.9473 41.687C66.9473 41.687 81.036 49.5276 97.3106 42.3818" stroke="#86211A" stroke-width="2.53577" stroke-miterlimit="10"/>
<path d="M76.3088 65.9092C76.2733 65.1587 76.8362 64.5146 77.5817 64.4436C82.6026 63.9618 100.221 62.3997 102.346 63.9313C104.826 65.7165 100.86 80.4037 96.5392 81.9911C92.2182 83.5785 78.0078 83.9285 77.3738 80.4545C76.8717 77.6803 76.4508 69.2108 76.3037 65.9143L76.3088 65.9092Z" fill="#86211A" fill-opacity="0.5" stroke="#86211A" stroke-width="2.53577" stroke-miterlimit="10"/>
<path d="M160.603 158.115C160.045 167.406 124.701 173.172 81.5881 171.002C38.4191 168.826 3.80069 159.504 4.27234 150.193C4.28248 149.945 4.32306 149.696 4.38391 149.453C4.41942 149.336 4.45492 149.214 4.49042 149.098L31.182 150.639C32.7187 156.38 54.3133 161.939 80.9491 163.283C106.429 164.566 127.694 161.553 131.355 156.426L160.603 158.115Z" fill="#AF4132"/>
<path d="M161.541 169.835C161.541 211.335 125.706 244.98 81.4972 244.98C37.2885 244.98 1.45801 211.335 1.45801 169.835C1.45801 162.841 2.47739 156.07 4.38429 149.65C4.32343 149.893 4.28286 150.142 4.27272 150.39C3.80106 159.702 38.4195 169.023 81.5885 171.199C124.702 173.37 160.045 167.603 160.603 158.312C161.222 162.07 161.541 165.914 161.541 169.835Z" fill="#AB5954"/>
<mask id="mask7_2675_61067" style="mask-type:luminance" maskUnits="userSpaceOnUse" x="1" y="149" width="161" height="96">
<path d="M161.541 169.834C161.541 211.335 125.706 244.979 81.4972 244.979C37.2885 244.979 1.45801 211.335 1.45801 169.834C1.45801 162.841 2.47739 156.07 4.38429 149.649C4.32343 149.893 4.28286 150.141 4.27272 150.39C3.80106 159.701 38.4195 169.023 81.5885 171.198C124.702 173.369 160.045 167.603 160.603 158.312C161.222 162.07 161.541 165.914 161.541 169.834Z" fill="white"/>
</mask>
<g mask="url(#mask7_2675_61067)">
<path d="M173.438 172.463C174.45 135.297 134.526 104.058 84.2648 102.69C34.0038 101.321 -7.56138 130.34 -8.57355 167.506C-9.58572 204.672 30.3384 235.91 80.5994 237.279C130.86 238.648 172.426 209.629 173.438 172.463Z" fill="#C39797"/>
<mask id="mask8_2675_61067" style="mask-type:luminance" maskUnits="userSpaceOnUse" x="-9" y="102" width="183" height="136">
<path d="M173.438 172.464C174.45 135.298 134.526 104.059 84.2648 102.691C34.0038 101.322 -7.56138 130.341 -8.57355 167.507C-9.58572 204.673 30.3384 235.911 80.5994 237.28C130.86 238.649 172.426 209.63 173.438 172.464Z" fill="white"/>
</mask>
<g mask="url(#mask8_2675_61067)">
<path d="M97.9737 253.201C137.859 253.201 170.193 223.422 170.193 186.688C170.193 149.953 137.859 120.174 97.9737 120.174C58.0884 120.174 25.7549 149.953 25.7549 186.688C25.7549 223.422 58.0884 253.201 97.9737 253.201Z" fill="#F9B7B1"/>
</g>
<path d="M173.438 172.463C174.45 135.297 134.526 104.058 84.2648 102.69C34.0038 101.321 -7.56138 130.34 -8.57355 167.506C-9.58572 204.672 30.3384 235.91 80.5994 237.279C130.86 238.648 172.426 209.629 173.438 172.463Z" stroke="#86211A" stroke-width="2.76907" stroke-linecap="round" stroke-linejoin="round"/>
</g>
<path d="M161.541 169.835C161.541 211.335 125.706 244.98 81.4972 244.98C37.2885 244.98 1.45801 211.335 1.45801 169.835C1.45801 162.841 2.47739 156.07 4.38429 149.65C4.32343 149.893 4.28286 150.142 4.27272 150.39C3.80106 159.702 38.4195 169.023 81.5885 171.199C124.702 173.37 160.045 167.603 160.603 158.312C161.222 162.07 161.541 165.914 161.541 169.835Z" stroke="#86211A" stroke-width="2.53577" stroke-linecap="round" stroke-linejoin="round"/>
<path d="M20.7196 149.716C23.949 149.716 26.5671 149.028 26.5671 148.179C26.5671 147.331 23.949 146.643 20.7196 146.643C17.4901 146.643 14.8721 147.331 14.8721 148.179C14.8721 149.028 17.4901 149.716 20.7196 149.716Z" fill="white" stroke="#86211A" stroke-width="2.53577" stroke-miterlimit="10"/>
<path d="M19.8623 147.53C19.9485 147.601 20.268 147.845 20.7448 147.834C21.191 147.829 21.4903 147.601 21.5816 147.53V129.374H19.8623V147.53Z" fill="white" stroke="#86211A" stroke-width="2.53577" stroke-miterlimit="10"/>
<path d="M27.7638 121.432C27.7638 127.625 24.6093 132.645 20.7143 132.645C16.8194 132.645 13.6699 127.625 13.6699 121.432C13.6699 118.896 14.1974 116.563 15.0849 114.687H26.3488C27.2363 116.563 27.7638 118.896 27.7638 121.432Z" fill="white" stroke="#86211A" stroke-width="2.53577" stroke-miterlimit="10"/>
<path d="M160.603 123.334L144.749 139.188L128.891 123.334H160.603Z" fill="white" stroke="#86211A" stroke-width="2.53577" stroke-miterlimit="10"/>
<path d="M144.749 159.525C147.978 159.525 150.596 158.837 150.596 157.988C150.596 157.14 147.978 156.452 144.749 156.452C141.519 156.452 138.901 157.14 138.901 157.988C138.901 158.837 141.519 159.525 144.749 159.525Z" fill="white" stroke="#86211A" stroke-width="2.53577" stroke-miterlimit="10"/>
<path d="M143.888 157.344C143.974 157.415 144.293 157.658 144.77 157.648C145.216 157.643 145.516 157.415 145.607 157.344V139.188H143.888V157.344Z" fill="white" stroke="#86211A" stroke-width="2.53577" stroke-miterlimit="10"/>
<path d="M129.976 155.437C126.416 160.564 105.729 163.576 80.9394 162.293C55.0288 160.949 34.0225 155.391 32.5264 149.65" stroke="#86211A" stroke-width="2.50027" stroke-miterlimit="10"/>
<path d="M58.3961 137.904L53.3702 161.315C52.432 161.837 50.4439 162.78 47.7611 162.826C44.8551 162.872 42.7048 161.842 41.7564 161.315C40.0828 153.509 38.4041 145.709 36.7305 137.904C37.2021 139.101 41.8781 140.039 47.5633 140.039C53.2485 140.039 57.9245 139.101 58.3961 137.904Z" fill="white" stroke="#86211A" stroke-width="2.53577" stroke-miterlimit="10"/>
<path d="M58.4415 137.702L58.3959 137.905C57.9242 139.102 53.2482 140.04 47.563 140.04C41.8778 140.04 37.2019 139.102 36.7302 137.905L36.6846 137.702C36.6846 136.409 41.5583 135.364 47.563 135.364C53.5678 135.364 58.4415 136.409 58.4415 137.702Z" fill="white" stroke="#86211A" stroke-width="2.75892" stroke-miterlimit="10"/>
<path opacity="0.5" d="M105.495 259.19C105.277 262.832 91.4217 265.094 74.5233 264.242C57.5995 263.389 44.0331 259.733 44.2157 256.086C44.2157 255.99 44.236 255.894 44.2613 255.797C44.2765 255.752 44.2867 255.706 44.3019 255.66V255.65C45.5343 252.257 58.9536 250.203 75.1826 251.025C91.0413 251.826 103.953 255.082 105.363 258.495C105.363 258.495 105.363 258.495 105.363 258.501C105.409 258.734 105.45 258.962 105.485 259.2L105.495 259.19Z" stroke="#AF4132" stroke-width="5.07155" stroke-miterlimit="10"/>
<path d="M105.495 259.19C105.277 262.832 91.4217 265.094 74.5233 264.242C57.5995 263.389 44.0331 259.733 44.2157 256.086C44.2157 255.99 44.236 255.894 44.2613 255.797C44.2765 255.752 44.2867 255.706 44.3019 255.66V255.65C45.5343 252.257 58.9536 250.203 75.1826 251.025C91.0413 251.826 103.953 255.082 105.363 258.495C105.363 258.495 105.363 258.495 105.363 258.501C105.409 258.734 105.45 258.962 105.485 259.2L105.495 259.19Z" stroke="#86211A" stroke-width="2.53577" stroke-miterlimit="10"/>
<path opacity="0.5" d="M89.5611 277.813C89.4546 279.563 82.8058 280.648 74.6964 280.238C66.5769 279.827 60.065 278.077 60.1512 276.322C60.1512 276.277 60.1614 276.231 60.1715 276.185C60.1766 276.165 60.1867 276.14 60.1918 276.119C60.1918 276.119 60.1918 276.119 60.1918 276.114C60.7852 274.486 67.226 273.503 75.0159 273.893C82.6283 274.278 88.8258 275.841 89.5003 277.479C89.5206 277.59 89.5409 277.702 89.5611 277.813Z" stroke="#AF4132" stroke-width="5.07155" stroke-miterlimit="10"/>
<path d="M89.5611 277.813C89.4546 279.563 82.8058 280.648 74.6964 280.238C66.5769 279.827 60.065 278.077 60.1512 276.322C60.1512 276.277 60.1614 276.231 60.1715 276.185C60.1766 276.165 60.1867 276.14 60.1918 276.119C60.1918 276.119 60.1918 276.119 60.1918 276.114C60.7852 274.486 67.226 273.503 75.0159 273.893C82.6283 274.278 88.8258 275.841 89.5003 277.479C89.5206 277.59 89.5409 277.702 89.5611 277.813Z" stroke="#86211A" stroke-width="2.53577" stroke-miterlimit="10"/>
<path opacity="0.5" d="M81.2739 290.903C81.2283 291.664 78.3274 292.141 74.7874 291.963C71.2424 291.786 68.4023 291.02 68.4378 290.254C68.4378 290.234 68.4378 290.214 68.448 290.193C68.448 290.183 68.453 290.173 68.4581 290.163C68.7168 289.453 71.5264 289.022 74.9294 289.194C78.2513 289.362 80.9544 290.046 81.2536 290.756C81.2638 290.807 81.2739 290.853 81.279 290.903H81.2739Z" stroke="#AF4132" stroke-width="5.07155" stroke-miterlimit="10"/>
<path d="M81.2739 290.903C81.2283 291.664 78.3274 292.141 74.7874 291.963C71.2424 291.786 68.4023 291.02 68.4378 290.254C68.4378 290.234 68.4378 290.214 68.448 290.193C68.448 290.183 68.453 290.173 68.4581 290.163C68.7168 289.453 71.5264 289.022 74.9294 289.194C78.2513 289.362 80.9544 290.046 81.2536 290.756C81.2638 290.807 81.2739 290.853 81.279 290.903H81.2739Z" stroke="#86211A" stroke-width="2.53577" stroke-miterlimit="10"/>
</svg>
