<svg width="191" height="294" viewBox="0 0 191 294" fill="none" xmlns="http://www.w3.org/2000/svg">
<path d="M133.189 41.129C136.45 43.7007 138.724 47.3173 139.796 51.3302C141.796 58.8291 146.102 73.7547 150.903 92.7339C156.073 113.177 171.359 111.961 184.037 132.093C198.724 155.414 180.511 194.363 157.014 204.938C157.014 204.938 176.755 178.383 147.146 157.706C117.538 137.029 112.134 105.777 112.602 84.1586C113.071 62.5402 127.96 49.4836 121.457 38.742C121.457 38.742 126.717 36.0262 133.194 41.129H133.189Z" fill="#5C59A7"/>
<mask id="mask0_2675_61965" style="mask-type:luminance" maskUnits="userSpaceOnUse" x="112" y="38" width="78" height="167">
<path d="M133.189 41.129C136.45 43.7007 138.724 47.3173 139.796 51.3302C141.796 58.8291 146.102 73.7547 150.903 92.7339C156.073 113.177 171.359 111.961 184.037 132.093C198.724 155.414 180.511 194.363 157.014 204.938C157.014 204.938 176.755 178.383 147.146 157.706C117.538 137.029 112.134 105.777 112.602 84.1586C113.071 62.5402 127.96 49.4836 121.457 38.742C121.457 38.742 126.717 36.0262 133.194 41.129H133.189Z" fill="white"/>
</mask>
<g mask="url(#mask0_2675_61965)">
<path d="M157.006 204.942C157.006 204.942 208.408 169.673 155.736 125.369C155.736 125.369 128.163 104.611 134.05 59.0679C134.05 59.0679 73.0454 147.627 157.006 204.942Z" fill="#C1C9E6" stroke="#2A358E" stroke-width="2.25191" stroke-linecap="round" stroke-linejoin="round"/>
<path d="M145.372 87.0095C145.372 87.0095 145.111 106.597 165.693 121.482C186.276 136.367 194.621 179.239 157.005 204.942C157.005 204.942 204.732 185.292 198.481 127.017C192.234 68.742 145.372 87.0095 145.372 87.0095Z" fill="#4A429A"/>
</g>
<path d="M133.189 41.129C136.45 43.7007 138.724 47.3173 139.796 51.3302C141.796 58.8291 146.102 73.7547 150.903 92.7339C156.073 113.177 171.359 111.961 184.037 132.093C198.724 155.414 180.511 194.363 157.014 204.938C157.014 204.938 176.755 178.383 147.146 157.706C117.538 137.029 112.134 105.777 112.602 84.1586C113.071 62.5402 127.96 49.4836 121.457 38.742C121.457 38.742 126.717 36.0262 133.194 41.129H133.189Z" stroke="#2A358E" stroke-width="2.25191" stroke-linecap="round" stroke-linejoin="round"/>
<path d="M75.667 42.7369C75.667 42.7369 77.1533 64.1301 63.241 83.8658C49.3287 103.602 51.7968 135.209 73.7664 158.706C86.7059 172.546 78.6621 191.719 86.6699 204.938C94.6777 218.156 102.667 213.454 102.667 213.454C102.667 213.454 94.4435 211.81 102.667 191.602C110.891 171.393 105.919 140.61 94.7497 127.454C74.7032 103.84 119.624 45.4257 75.6625 42.7324L75.667 42.7369Z" fill="#5C59A7"/>
<mask id="mask1_2675_61965" style="mask-type:luminance" maskUnits="userSpaceOnUse" x="54" y="42" width="53" height="173">
<path d="M75.666 42.7364C75.666 42.7364 77.1523 64.1296 63.24 83.8654C49.3277 103.601 51.7958 135.209 73.7654 158.705C86.7049 172.546 78.6611 191.718 86.6689 204.937C94.6767 218.156 102.666 213.454 102.666 213.454C102.666 213.454 94.4425 211.81 102.666 191.601C110.89 171.393 105.918 140.609 94.7487 127.453C74.7022 103.84 119.623 45.4252 75.6615 42.7319L75.666 42.7364Z" fill="white"/>
</mask>
<g mask="url(#mask1_2675_61965)">
<path d="M82.0041 44.502C82.0041 44.502 78.3876 74.1416 68.3711 91.2832C57.76 109.443 62.7953 129.701 68.6818 138.375C74.5683 147.05 92.2278 185.156 91.3 193.524C90.3722 201.893 92.0431 209.846 102.672 213.458C113.301 217.07 109.581 64.0215 82.0086 44.502" fill="#C1C9E6"/>
<path d="M82.0041 44.502C82.0041 44.502 78.3876 74.1416 68.3711 91.2832C57.76 109.443 62.7953 129.701 68.6818 138.375C74.5683 147.05 92.2278 185.156 91.3 193.524C90.3722 201.893 92.0431 209.846 102.672 213.458C113.301 217.07 109.581 64.0215 82.0086 44.502" stroke="#2A358E" stroke-width="2.25191" stroke-linecap="round" stroke-linejoin="round"/>
</g>
<path d="M75.667 42.7369C75.667 42.7369 77.1533 64.1301 63.241 83.8658C49.3287 103.602 51.7968 135.209 73.7664 158.706C86.7059 172.546 78.6621 191.719 86.6699 204.938C94.6777 218.156 102.667 213.454 102.667 213.454C102.667 213.454 94.4435 211.81 102.667 191.602C110.891 171.393 105.919 140.61 94.7497 127.454C74.7032 103.84 119.624 45.4257 75.6625 42.7324L75.667 42.7369Z" stroke="#2A358E" stroke-width="2.50863" stroke-linecap="round" stroke-linejoin="round"/>
<path d="M134.803 107.952C136.098 107.568 136.694 105.729 136.136 103.846C135.577 101.962 134.074 100.746 132.779 101.13C131.484 101.514 130.888 103.352 131.446 105.236C132.005 107.12 133.508 108.336 134.803 107.952Z" fill="#4A429A"/>
<path d="M132.832 101.115L131.273 101.577L133.297 108.399L134.856 107.937L132.832 101.115Z" fill="#4A429A"/>
<path d="M133.33 108.389C134.625 108.005 135.222 106.166 134.663 104.283C134.104 102.399 132.601 101.183 131.307 101.567C130.012 101.951 129.415 103.789 129.974 105.673C130.532 107.557 132.035 108.773 133.33 108.389Z" fill="#5B5AA7"/>
<path d="M148.327 128.51C149.808 127.388 149.686 124.732 148.054 122.58C146.423 120.427 143.899 119.592 142.419 120.714C140.938 121.836 141.06 124.491 142.692 126.644C144.323 128.797 146.847 129.632 148.327 128.51Z" fill="#4A429A"/>
<path d="M142.48 120.669L140.699 122.018L146.608 129.814L148.388 128.465L142.48 120.669Z" fill="#4A429A"/>
<path d="M146.646 129.784C148.127 128.661 148.004 126.006 146.373 123.854C144.741 121.701 142.218 120.865 140.737 121.988C139.256 123.11 139.378 125.765 141.01 127.918C142.642 130.071 145.165 130.906 146.646 129.784Z" fill="#5B5AA7"/>
<path d="M144.866 141.933C146.369 141.19 146.711 138.816 145.629 136.631C144.548 134.446 142.454 133.278 140.951 134.022C139.449 134.765 139.107 137.139 140.188 139.324C141.269 141.509 143.364 142.677 144.866 141.933Z" fill="#4A429A"/>
<path d="M141.015 133.99L139.207 134.885L143.122 142.797L144.931 141.902L141.015 133.99Z" fill="#4A429A"/>
<path d="M143.162 142.779C144.665 142.035 145.007 139.661 143.925 137.476C142.844 135.292 140.75 134.123 139.247 134.867C137.744 135.611 137.403 137.984 138.484 140.169C139.565 142.354 141.66 143.522 143.162 142.779Z" fill="#5B5AA7"/>
<path d="M162.445 141.233C163.609 140.025 163.129 137.676 161.373 135.984C159.618 134.293 157.252 133.9 156.089 135.107C154.925 136.314 155.405 138.664 157.161 140.356C158.916 142.047 161.282 142.44 162.445 141.233Z" fill="#4A429A"/>
<path d="M156.127 135.02L154.728 136.474L161.085 142.598L162.485 141.145L156.127 135.02Z" fill="#4A429A"/>
<path d="M161.12 142.601C162.283 141.394 161.803 139.044 160.048 137.353C158.293 135.661 155.927 135.269 154.764 136.476C153.6 137.683 154.08 140.033 155.835 141.724C157.591 143.416 159.957 143.808 161.12 142.601Z" fill="#5B5AA7"/>
<path d="M171.134 157.768C172.694 156.586 172.564 153.787 170.844 151.517C169.123 149.247 166.464 148.366 164.904 149.548C163.344 150.731 163.474 153.529 165.194 155.799C166.914 158.069 169.574 158.95 171.134 157.768Z" fill="#4A429A"/>
<path d="M164.959 149.5L163.082 150.923L169.315 159.146L171.192 157.723L164.959 149.5Z" fill="#4A429A"/>
<path d="M169.361 159.116C170.921 157.933 170.792 155.135 169.071 152.865C167.351 150.595 164.692 149.714 163.131 150.896C161.571 152.079 161.701 154.877 163.422 157.147C165.142 159.417 167.801 160.298 169.361 159.116Z" fill="#5B5AA7"/>
<path d="M156.356 154.822C157.647 153.844 157.538 151.527 156.114 149.648C154.689 147.769 152.488 147.038 151.198 148.017C149.907 148.995 150.016 151.311 151.44 153.19C152.865 155.07 155.066 155.8 156.356 154.822Z" fill="#4A429A"/>
<path d="M151.253 147.978L149.699 149.156L154.855 155.958L156.409 154.78L151.253 147.978Z" fill="#4A429A"/>
<path d="M154.889 155.938C156.18 154.96 156.071 152.643 154.647 150.764C153.223 148.885 151.022 148.154 149.731 149.132C148.441 150.11 148.549 152.427 149.974 154.306C151.398 156.185 153.599 156.916 154.889 155.938Z" fill="#5B5AA7"/>
<path d="M168.333 170.973C169.885 170.512 170.6 168.306 169.93 166.046C169.259 163.785 167.457 162.325 165.905 162.786C164.352 163.246 163.637 165.452 164.308 167.713C164.978 169.974 166.78 171.433 168.333 170.973Z" fill="#4A429A"/>
<path d="M165.97 162.768L164.101 163.323L166.527 171.505L168.397 170.951L165.97 162.768Z" fill="#4A429A"/>
<path d="M166.568 171.494C168.121 171.033 168.836 168.827 168.165 166.567C167.495 164.306 165.693 162.846 164.14 163.307C162.588 163.767 161.873 165.973 162.543 168.234C163.214 170.495 165.016 171.954 166.568 171.494Z" fill="#5B5AA7"/>
<path d="M174.508 177.933C174.517 176.186 173.552 174.766 172.353 174.76C171.154 174.754 170.175 176.164 170.166 177.911C170.158 179.657 171.122 181.077 172.321 181.083C173.52 181.089 174.499 179.679 174.508 177.933Z" fill="#4A429A"/>
<path d="M172.436 174.763L170.99 174.755L170.958 181.079L172.404 181.086L172.436 174.763Z" fill="#4A429A"/>
<path d="M173.146 177.928C173.155 176.182 172.19 174.762 170.991 174.756C169.792 174.749 168.813 176.16 168.804 177.906C168.795 179.652 169.76 181.073 170.959 181.079C172.158 181.085 173.137 179.674 173.146 177.928Z" fill="#5B5AA7"/>
<path d="M167.978 186.972C168.169 185.579 167.546 184.344 166.588 184.213C165.629 184.081 164.697 185.104 164.506 186.496C164.316 187.888 164.938 189.124 165.897 189.255C166.856 189.386 167.787 188.364 167.978 186.972Z" fill="#4A429A"/>
<path d="M166.602 184.213L165.451 184.056L164.76 189.098L165.912 189.256L166.602 184.213Z" fill="#4A429A"/>
<path d="M166.89 186.824C167.081 185.432 166.458 184.196 165.5 184.065C164.541 183.934 163.609 184.956 163.419 186.349C163.228 187.741 163.85 188.976 164.809 189.107C165.768 189.239 166.699 188.216 166.89 186.824Z" fill="#5B5AA7"/>
<path d="M134.132 121.376C135.886 120.762 136.584 118.198 135.691 115.648C134.798 113.099 132.653 111.53 130.899 112.144C129.145 112.758 128.447 115.323 129.34 117.872C130.233 120.422 132.378 121.991 134.132 121.376Z" fill="#4A429A"/>
<path d="M130.973 112.116L128.864 112.854L132.097 122.087L134.206 121.349L130.973 112.116Z" fill="#4A429A"/>
<path d="M132.142 122.076C133.896 121.462 134.593 118.897 133.701 116.348C132.808 113.798 130.662 112.229 128.909 112.844C127.155 113.458 126.457 116.022 127.35 118.572C128.243 121.121 130.388 122.69 132.142 122.076Z" fill="#5B5AA7"/>
<path d="M116.529 47.5605C116.529 47.5605 123.389 130.449 146.02 165.579C153.276 176.838 156.694 198.857 139.138 217.292C135.598 221.007 131.455 224.088 126.978 226.596C122.276 229.231 114.358 234.735 115.354 241.477C115.354 241.477 110.066 226.146 119.232 213.279C128.397 200.411 105.81 191.895 97.379 170.749C88.9433 149.599 75.1752 92.1484 97.379 47.5605C97.379 47.5605 106.252 29.4101 116.529 47.5605Z" fill="#5C59A7"/>
<mask id="mask2_2675_61965" style="mask-type:luminance" maskUnits="userSpaceOnUse" x="85" y="39" width="67" height="203">
<path d="M116.529 47.5605C116.529 47.5605 123.389 130.449 146.02 165.579C153.276 176.838 156.694 198.857 139.138 217.292C135.598 221.007 131.455 224.088 126.978 226.596C122.276 229.231 114.358 234.735 115.354 241.477C115.354 241.477 110.066 226.146 119.232 213.279C128.397 200.411 105.81 191.895 97.379 170.749C88.9433 149.599 75.1752 92.1484 97.379 47.5605C97.379 47.5605 106.252 29.4101 116.529 47.5605Z" fill="white"/>
</mask>
<g mask="url(#mask2_2675_61965)">
<path d="M115.358 241.482C115.358 241.482 112.367 227.606 129.095 215.833C145.822 204.06 146.443 184.229 137.152 168.43C127.861 152.631 109.58 102.647 117.425 78.0653C125.271 53.4834 94.3971 73.003 94.3971 73.003C94.3971 73.003 75.909 141.029 115.358 241.478" fill="#C1C9E6"/>
<path d="M115.358 241.482C115.358 241.482 112.367 227.606 129.095 215.833C145.822 204.06 146.443 184.229 137.152 168.43C127.861 152.631 109.58 102.647 117.425 78.0653C125.271 53.4834 94.3971 73.003 94.3971 73.003C94.3971 73.003 75.909 141.029 115.358 241.478" stroke="#2A358E" stroke-width="2.25191" stroke-linecap="round" stroke-linejoin="round"/>
<path d="M117.732 67.0625C117.916 68.0128 118.209 101.377 128.311 135.147C131.356 145.325 138.247 158.454 142.908 167.385C157.32 194.998 137.895 214.729 129.613 221.476C128.113 222.697 126.505 223.769 124.83 224.732C121.673 226.547 114.214 231.898 115.354 241.478C116.795 253.579 169.899 228.673 169.899 228.673L117.727 67.0625H117.732Z" fill="#4A429A"/>
</g>
<path d="M116.529 47.5605C116.529 47.5605 123.389 130.449 146.02 165.579C153.276 176.838 156.694 198.857 139.138 217.292C135.598 221.007 131.455 224.088 126.978 226.596C122.276 229.231 114.358 234.735 115.354 241.477C115.354 241.477 110.066 226.146 119.232 213.279C128.397 200.411 105.81 191.895 97.379 170.749C88.9433 149.599 75.1752 92.1484 97.379 47.5605C97.379 47.5605 106.252 29.4101 116.529 47.5605Z" stroke="#2A358E" stroke-width="2.25191" stroke-linecap="round" stroke-linejoin="round"/>
<path d="M77.6995 99.3422C78.6503 96.8138 78.0113 94.2339 76.2721 93.5798C74.533 92.9258 72.3523 94.4452 71.4014 96.9736C70.4505 99.5021 71.0896 102.082 72.8287 102.736C74.5679 103.39 76.7486 101.871 77.6995 99.3422Z" fill="#4A429A"/>
<path d="M76.3497 93.6076L74.2588 92.8213L70.8154 101.978L72.9063 102.764L76.3497 93.6076Z" fill="#4A429A"/>
<path d="M75.7229 98.6029C76.6738 96.0745 76.0347 93.4946 74.2956 92.8406C72.5564 92.1865 70.3757 93.706 69.4248 96.2344C68.474 98.7628 69.113 101.343 70.8522 101.997C72.5913 102.651 74.772 101.131 75.7229 98.6029Z" fill="#5B5AA7"/>
<path d="M96.5892 203.61C97.4534 203.395 97.9003 202.201 97.5874 200.943C97.2746 199.686 96.3204 198.841 95.4563 199.056C94.5921 199.271 94.1452 200.464 94.4581 201.722C94.7709 202.98 95.7251 203.825 96.5892 203.61Z" fill="#4A429A"/>
<path d="M95.4972 199.048L94.457 199.307L95.5889 203.856L96.6291 203.598L95.4972 199.048Z" fill="#4A429A"/>
<path d="M95.6097 203.853C96.4739 203.638 96.9208 202.444 96.6079 201.187C96.2951 199.929 95.3409 199.084 94.4768 199.299C93.6126 199.514 93.1657 200.707 93.4786 201.965C93.7914 203.223 94.7456 204.068 95.6097 203.853Z" fill="#5B5AA7"/>
<path d="M111.138 122.066C112.488 122.049 113.564 120.443 113.54 118.478C113.516 116.513 112.401 114.934 111.051 114.95C109.7 114.967 108.625 116.573 108.649 118.538C108.673 120.503 109.787 122.082 111.138 122.066Z" fill="#4A429A"/>
<path d="M111.104 114.949L109.479 114.969L109.565 122.085L111.191 122.065L111.104 114.949Z" fill="#4A429A"/>
<path d="M109.602 122.084C110.952 122.068 112.028 120.461 112.004 118.497C111.98 116.532 110.865 114.952 109.515 114.969C108.164 114.985 107.089 116.591 107.113 118.556C107.137 120.521 108.251 122.101 109.602 122.084Z" fill="#5B5AA7"/>
<path d="M119.515 146.825C121.246 146.15 121.853 143.562 120.87 141.046C119.888 138.529 117.688 137.037 115.957 137.713C114.226 138.389 113.62 140.977 114.602 143.493C115.585 146.009 117.785 147.501 119.515 146.825Z" fill="#4A429A"/>
<path d="M116.021 137.685L113.94 138.497L117.499 147.609L119.58 146.797L116.021 137.685Z" fill="#4A429A"/>
<path d="M117.546 147.588C119.276 146.912 119.883 144.325 118.9 141.808C117.918 139.292 115.718 137.8 113.987 138.476C112.257 139.152 111.65 141.74 112.633 144.256C113.615 146.772 115.815 148.264 117.546 147.588Z" fill="#5B5AA7"/>
<path d="M111.538 157.53C113.186 157.224 114.162 155.034 113.718 152.637C113.274 150.24 111.578 148.545 109.929 148.85C108.281 149.156 107.304 151.346 107.749 153.743C108.193 156.14 109.889 157.835 111.538 157.53Z" fill="#4A429A"/>
<path d="M109.995 148.837L108.011 149.205L109.619 157.884L111.603 157.517L109.995 148.837Z" fill="#4A429A"/>
<path d="M109.664 157.879C111.312 157.573 112.288 155.383 111.844 152.986C111.4 150.589 109.703 148.894 108.055 149.199C106.407 149.505 105.43 151.695 105.875 154.092C106.319 156.489 108.015 158.184 109.664 157.879Z" fill="#5B5AA7"/>
<path d="M126.897 164.297C128.346 163.453 128.525 161.061 127.297 158.955C126.069 156.849 123.9 155.827 122.452 156.671C121.003 157.515 120.824 159.907 122.052 162.013C123.28 164.119 125.449 165.142 126.897 164.297Z" fill="#4A429A"/>
<path d="M122.508 156.636L120.765 157.652L125.21 165.278L126.954 164.262L122.508 156.636Z" fill="#4A429A"/>
<path d="M125.248 165.254C126.696 164.41 126.875 162.018 125.648 159.912C124.42 157.806 122.251 156.784 120.802 157.628C119.354 158.472 119.175 160.864 120.403 162.97C121.63 165.076 123.8 166.099 125.248 165.254Z" fill="#5B5AA7"/>
<path d="M135.234 182.13C137.057 181.418 137.696 178.691 136.66 176.038C135.624 173.385 133.306 171.811 131.482 172.523C129.659 173.235 129.02 175.963 130.056 178.616C131.092 181.269 133.41 182.843 135.234 182.13Z" fill="#4A429A"/>
<path d="M131.554 172.49L129.359 173.347L133.113 182.959L135.307 182.102L131.554 172.49Z" fill="#4A429A"/>
<path d="M133.161 182.933C134.984 182.221 135.623 179.493 134.587 176.84C133.551 174.187 131.233 172.613 129.409 173.325C127.586 174.038 126.947 176.765 127.983 179.418C129.019 182.071 131.337 183.645 133.161 182.933Z" fill="#5B5AA7"/>
<path d="M118.22 177.515C119.728 176.926 120.256 174.668 119.398 172.471C118.54 170.275 116.622 168.971 115.114 169.56C113.606 170.149 113.078 172.408 113.936 174.604C114.794 176.801 116.712 178.104 118.22 177.515Z" fill="#4A429A"/>
<path d="M115.175 169.533L113.358 170.242L116.463 178.192L118.279 177.483L115.175 169.533Z" fill="#4A429A"/>
<path d="M116.504 178.179C118.013 177.59 118.54 175.332 117.682 173.135C116.825 170.939 114.907 169.636 113.398 170.225C111.89 170.814 111.362 173.072 112.22 175.268C113.078 177.465 114.996 178.768 116.504 178.179Z" fill="#5B5AA7"/>
<path d="M124.772 195.003C126.223 194.285 126.552 191.99 125.506 189.876C124.46 187.763 122.436 186.632 120.984 187.35C119.533 188.068 119.204 190.364 120.25 192.477C121.296 194.59 123.32 195.722 124.772 195.003Z" fill="#4A429A"/>
<path d="M121.045 187.322L119.297 188.187L123.082 195.836L124.83 194.971L121.045 187.322Z" fill="#4A429A"/>
<path d="M123.12 195.816C124.572 195.098 124.9 192.803 123.854 190.689C122.809 188.576 120.784 187.445 119.333 188.163C117.882 188.881 117.553 191.177 118.599 193.29C119.645 195.403 121.669 196.534 123.12 195.816Z" fill="#5B5AA7"/>
<path d="M136.093 202.439C136.578 200.761 136.037 199.131 134.885 198.798C133.733 198.466 132.407 199.556 131.922 201.233C131.437 202.911 131.978 204.54 133.129 204.873C134.281 205.206 135.608 204.116 136.093 202.439Z" fill="#4A429A"/>
<path d="M134.947 198.819L133.559 198.418L131.803 204.493L133.192 204.894L134.947 198.819Z" fill="#4A429A"/>
<path d="M134.784 202.057C135.269 200.379 134.728 198.75 133.577 198.417C132.425 198.084 131.098 199.174 130.613 200.851C130.128 202.529 130.669 204.159 131.821 204.491C132.973 204.824 134.299 203.734 134.784 202.057Z" fill="#5B5AA7"/>
<path d="M126.776 213.508C127.339 212.22 127.077 210.862 126.19 210.475C125.304 210.087 124.129 210.816 123.565 212.104C123.002 213.392 123.265 214.75 124.151 215.138C125.038 215.525 126.213 214.796 126.776 213.508Z" fill="#4A429A"/>
<path d="M126.246 210.503L125.182 210.037L123.143 214.7L124.207 215.166L126.246 210.503Z" fill="#4A429A"/>
<path d="M125.771 213.067C126.334 211.779 126.072 210.421 125.185 210.034C124.299 209.646 123.124 210.376 122.561 211.663C121.997 212.951 122.26 214.309 123.146 214.697C124.033 215.084 125.208 214.355 125.771 213.067Z" fill="#5B5AA7"/>
<path d="M108.012 135.988C109.866 135.875 111.237 133.598 111.073 130.902C110.909 128.206 109.272 126.111 107.418 126.224C105.563 126.337 104.192 128.614 104.356 131.31C104.52 134.007 106.157 136.101 108.012 135.988Z" fill="#4A429A"/>
<path d="M107.493 126.219L105.264 126.354L105.857 136.119L108.087 135.983L107.493 126.219Z" fill="#4A429A"/>
<path d="M105.906 136.111C107.761 135.999 109.131 133.721 108.967 131.025C108.803 128.329 107.167 126.234 105.312 126.347C103.458 126.46 102.087 128.737 102.251 131.433C102.415 134.13 104.051 136.224 105.906 136.111Z" fill="#5B5AA7"/>
<path d="M39.9063 244.206C39.9063 244.206 29.6105 283.241 43.7075 290.294C57.8045 297.347 56.3948 280.251 56.3948 280.251C56.3948 280.251 69.9648 294.528 80.8911 290.65C91.8174 286.772 91.1148 270.383 91.1148 270.383C91.1148 270.383 105.743 266.681 106.621 254.696C107.5 242.711 86.665 245.706 86.665 245.706C86.665 245.706 87.4126 233.019 72.2572 235.131C57.1019 237.244 45.2929 224.029 45.2929 224.029L39.9018 244.211L39.9063 244.206Z" fill="#C1C9E6"/>
<mask id="mask3_2675_61965" style="mask-type:luminance" maskUnits="userSpaceOnUse" x="36" y="224" width="71" height="68">
<path d="M39.9063 244.206C39.9063 244.206 29.6105 283.241 43.7075 290.294C57.8045 297.347 56.3948 280.251 56.3948 280.251C56.3948 280.251 69.9648 294.528 80.8911 290.65C91.8174 286.772 91.1148 270.383 91.1148 270.383C91.1148 270.383 105.743 266.681 106.621 254.696C107.5 242.711 86.665 245.706 86.665 245.706C86.665 245.706 87.4126 233.019 72.2572 235.131C57.1019 237.244 45.2929 224.029 45.2929 224.029L39.9018 244.211L39.9063 244.206Z" fill="white"/>
</mask>
<g mask="url(#mask3_2675_61965)">
<path d="M55.1883 276.431C55.1883 276.431 53.0715 271.144 54.3956 263.699Z" fill="#C1C9E6"/>
<path d="M55.1881 276.431C52.8957 272.729 52.738 267.68 54.3954 263.699C54.6251 267.995 54.7062 272.152 55.1881 276.431Z" fill="#2A358E"/>
<path d="M86.2648 270.09C86.2648 270.09 74.9872 270.797 67.8486 265.068Z" fill="#C1C9E6"/>
<path d="M86.2648 270.09C80.0225 271.234 72.3389 269.801 67.8486 265.068C73.5325 268.23 79.8874 269.288 86.2648 270.09Z" fill="#2A358E"/>
</g>
<path d="M39.9063 244.206C39.9063 244.206 29.6105 283.241 43.7075 290.294C57.8045 297.347 56.3948 280.251 56.3948 280.251C56.3948 280.251 69.9648 294.528 80.8911 290.65C91.8174 286.772 91.1148 270.383 91.1148 270.383C91.1148 270.383 105.743 266.681 106.621 254.696C107.5 242.711 86.665 245.706 86.665 245.706C86.665 245.706 87.4126 233.019 72.2572 235.131C57.1019 237.244 45.2929 224.029 45.2929 224.029L39.9018 244.211L39.9063 244.206Z" stroke="#2A358E" stroke-width="2.34649" stroke-linecap="round" stroke-linejoin="round"/>
<path d="M75.0624 46.7993C75.0624 46.7993 69.3606 27.7661 63.7218 27.7661C58.083 27.7661 52.4442 37.4989 59.1414 42.7368C59.1414 42.7368 50.4491 42.8044 49.5078 50.9113C48.5665 59.0181 55.8536 59.1352 55.8536 59.1352C55.8536 59.1352 45.5129 70.0615 62.9021 73.2322C80.2914 76.4029 75.067 46.7948 75.067 46.7948L75.0624 46.7993Z" fill="#C1C9E6"/>
<mask id="mask4_2675_61965" style="mask-type:luminance" maskUnits="userSpaceOnUse" x="49" y="27" width="27" height="47">
<path d="M75.0634 46.7993C75.0634 46.7993 69.3616 27.7661 63.7228 27.7661C58.084 27.7661 52.4452 37.4989 59.1424 42.7368C59.1424 42.7368 50.45 42.8044 49.5087 50.9113C48.5674 59.0181 55.8546 59.1352 55.8546 59.1352C55.8546 59.1352 45.5138 70.0615 62.9031 73.2322C80.2924 76.4029 75.0679 46.7948 75.0679 46.7948L75.0634 46.7993Z" fill="white"/>
</mask>
<g mask="url(#mask4_2675_61965)">
<path d="M64.6592 44.5068C67.8839 44.8626 71.0771 47.029 72.5769 49.9114C69.3477 49.5646 66.168 47.3803 64.6592 44.5068Z" fill="#2A358E"/>
<path d="M59.8398 58.6039C59.8398 58.6039 66.0371 57.2978 69.9419 58.6039Z" fill="#C1C9E6"/>
<path d="M59.8398 58.6038C62.0197 56.9149 64.9202 56.5501 67.5324 57.2302C68.4016 57.4914 69.2754 57.8967 69.9419 58.6038C68.9871 58.793 68.1809 58.9056 67.3612 58.9912C64.8166 59.2344 62.362 59.3515 59.8398 58.6038Z" fill="#2A358E"/>
</g>
<path d="M75.0624 46.7993C75.0624 46.7993 69.3606 27.7661 63.7218 27.7661C58.083 27.7661 52.4442 37.4989 59.1414 42.7368C59.1414 42.7368 50.4491 42.8044 49.5078 50.9113C48.5665 59.0181 55.8536 59.1352 55.8536 59.1352C55.8536 59.1352 45.5129 70.0615 62.9021 73.2322C80.2914 76.4029 75.067 46.7948 75.067 46.7948L75.0624 46.7993Z" stroke="#2A358E" stroke-width="2.25191" stroke-linecap="round" stroke-linejoin="round"/>
<path d="M119.205 81.8077C117.116 87.4059 113.603 90.9054 110.747 93.9815C92.4256 123.405 103.014 145.834 103.014 145.834C103.014 145.834 73.6401 157.819 64.3578 141.956C55.0754 126.094 67.9653 107.322 73.2528 102.737C75.9146 100.427 77.7251 97.0261 78.8195 94.4004C79.6527 92.4052 78.7159 90.1308 76.7388 89.2615C67.9698 85.4198 62.7724 80.6277 61.4123 73.4936C60.6331 69.4132 63.2408 61.9819 63.2408 61.9819C76.4595 22.722 103.482 40.3815 103.482 40.3815C112.332 44.1287 119.079 50.7493 121.453 57.0051C124.461 64.9364 122.034 74.2278 119.205 81.8032V81.8077Z" fill="#9199CD"/>
<mask id="mask5_2675_61965" style="mask-type:luminance" maskUnits="userSpaceOnUse" x="61" y="36" width="62" height="115">
<path d="M119.204 81.8077C117.115 87.4059 113.602 90.9054 110.746 93.9815C92.4246 123.405 103.013 145.834 103.013 145.834C103.013 145.834 73.6392 157.819 64.3568 141.956C55.0744 126.094 67.9643 107.322 73.2518 102.737C75.9136 100.427 77.7241 97.0261 78.8186 94.4004C79.6518 92.4052 78.715 90.1308 76.7378 89.2615C67.9688 85.4198 62.7714 80.6277 61.4113 73.4936C60.6321 69.4132 63.2398 61.9819 63.2398 61.9819C76.4586 22.722 103.482 40.3815 103.482 40.3815C112.332 44.1287 119.078 50.7493 121.452 57.0051C124.46 64.9364 122.033 74.2278 119.204 81.8032V81.8077Z" fill="white"/>
</mask>
<g mask="url(#mask5_2675_61965)">
<path opacity="0.5" d="M78.9043 90.4598C78.9043 90.4598 94.0867 95.1078 103.175 93.0405C103.175 93.0405 92.9518 107.498 71.7793 99.445L78.3189 90.3247" fill="#6E79BA"/>
<path d="M77.1477 93.5225C77.1477 93.5225 80.6247 98.7874 80.7643 102.233C80.7643 102.233 99.3876 93.5585 113.295 99.481L102.554 120.41C102.554 120.41 97.5951 123.613 96.7709 118.654C96.7709 118.654 90.3664 122.577 90.1593 117.001C90.1593 117.001 84.2367 120.82 84.1016 114.762C84.1016 114.762 77.6296 117.929 78.1791 112.695C78.1791 112.695 72.6709 115.037 73.6347 109.943C73.6347 109.943 68.2662 113.524 69.5047 108.705C69.5047 108.705 61.7942 111.457 64.1362 106.228C66.4782 100.999 77.1477 93.527 77.1477 93.527V93.5225Z" fill="#5C59A7" stroke="#2A358E" stroke-width="2.25191" stroke-linecap="round" stroke-linejoin="round"/>
<path opacity="0.5" d="M79.4174 43.1607C79.4174 43.1607 86.3037 50.4344 80.1425 46.98C74.9811 44.0885 55.358 71.7645 72.3959 86.5326C87.0424 99.2243 69.2297 84.8797 69.2297 84.8797C69.2297 84.8797 51.0208 78.786 61.1409 56.4785C71.261 34.1711 79.4219 43.1562 79.4219 43.1562L79.4174 43.1607Z" fill="#6E79BA"/>
<path opacity="0.5" d="M97.8701 51.8353C97.8701 51.8353 116.529 47.5612 118.353 61.7482C119.768 72.7465 111.643 84.5736 112.156 91.9058C112.156 91.9058 132.5 79.205 130.64 67.1213C128.78 55.0375 116.903 35.6215 98.6268 50.8039" fill="#6E79BA"/>
<path d="M102.941 81.0737C107.283 82.1411 111.372 83.4698 115.763 84.1183C117.2 84.3615 118.637 84.4471 120.209 84.6317C114.759 87.4692 107.071 85.3659 102.937 81.0737H102.941Z" fill="#2A358E"/>
<path d="M101.379 85.8662C105.72 86.9336 109.81 88.2622 114.201 88.9108C115.638 89.154 117.074 89.2396 118.646 89.4242C113.197 92.2616 105.509 90.1584 101.374 85.8662H101.379Z" fill="#2A358E"/>
<path d="M99.6852 89.8608C104.027 90.9282 108.116 92.2569 112.508 92.9054C113.944 93.1486 115.381 93.2342 116.953 93.4189C111.503 96.2563 103.815 94.153 99.6807 89.8608H99.6852Z" fill="#2A358E"/>
<path d="M103.653 137.205C103.653 137.205 101.585 130.184 95.8025 135.417C95.8025 135.417 93.8749 127.842 88.5063 132.251C88.5063 132.251 87.9568 123.991 80.9309 129.909C80.9309 129.909 78.8636 121.784 72.5312 126.468C72.5312 126.468 72.2565 118.758 65.5098 122.338C65.5098 122.338 64.6856 114.763 58.8982 120.685C53.1108 126.608 63.0282 153.32 63.0282 153.32L107.778 153.734L103.648 137.21L103.653 137.205Z" fill="#5C59A7" stroke="#2A358E" stroke-width="2.25191" stroke-linecap="round" stroke-linejoin="round"/>
</g>
<path d="M119.205 81.8077C117.116 87.4059 113.603 90.9054 110.747 93.9815C92.4256 123.405 103.014 145.834 103.014 145.834C103.014 145.834 73.6401 157.819 64.3578 141.956C55.0754 126.094 67.9653 107.322 73.2528 102.737C75.9146 100.427 77.7251 97.0261 78.8195 94.4004C79.6527 92.4052 78.7159 90.1308 76.7388 89.2615C67.9698 85.4198 62.7724 80.6277 61.4123 73.4936C60.6331 69.4132 63.2408 61.9819 63.2408 61.9819C76.4595 22.722 103.482 40.3815 103.482 40.3815C112.332 44.1287 119.079 50.7493 121.453 57.0051C124.461 64.9364 122.034 74.2278 119.205 81.8032V81.8077Z" stroke="#2A358E" stroke-width="2.25191" stroke-miterlimit="10"/>
<path d="M103.014 145.834C103.014 145.834 126.132 171.682 106.04 192.832C89.7005 210.027 70.2124 201.51 63.5017 197.727C61.4615 196.579 59.4168 195.439 57.354 194.331C45.6891 188.058 10.816 166.75 12.2843 136.786C14.0452 100.832 103.018 145.834 103.018 145.834H103.014Z" fill="#5C59A7"/>
<mask id="mask6_2675_61965" style="mask-type:luminance" maskUnits="userSpaceOnUse" x="12" y="122" width="103" height="82">
<path d="M103.014 145.834C103.014 145.834 126.132 171.681 106.04 192.831C89.7005 210.027 70.2124 201.51 63.5017 197.727C61.4615 196.578 59.4168 195.439 57.354 194.331C45.6891 188.057 10.816 166.749 12.2843 136.785C14.0452 100.831 103.018 145.834 103.018 145.834H103.014Z" fill="white"/>
</mask>
<g mask="url(#mask6_2675_61965)">
<path d="M59.0429 128.053C59.0429 128.053 18.522 115.086 4.28538 155.017C4.28538 155.017 4.47904 89.1712 59.0429 128.053Z" fill="#4A429A"/>
<path d="M106.742 208.933C114.39 198.836 108.302 181.345 93.1448 169.865C77.9878 158.385 59.5014 157.264 51.8542 167.361C44.2071 177.458 50.295 194.949 65.4519 206.429C80.6089 217.908 99.0953 219.029 106.742 208.933Z" fill="#4A429A"/>
<path d="M96.01 188.548C96.01 188.548 116.692 184.364 103.009 145.834C103.009 145.834 133.522 179.595 108.855 201.344C84.1874 223.093 96.0055 188.553 96.0055 188.553L96.01 188.548Z" fill="#4A429A"/>
</g>
<path d="M103.014 145.834C103.014 145.834 126.132 171.682 106.04 192.832C89.7005 210.027 70.2124 201.51 63.5017 197.727C61.4615 196.579 59.4168 195.439 57.354 194.331C45.6891 188.058 10.816 166.75 12.2843 136.786C14.0452 100.832 103.018 145.834 103.018 145.834H103.014Z" stroke="#2A358E" stroke-width="2.25191" stroke-linecap="round" stroke-linejoin="round"/>
<path d="M38.4015 117.37C36.7802 118.482 36.9873 120.942 38.7664 121.779C48.2379 126.22 72.2523 136.741 79.7692 132.94C89.2092 128.166 94.902 111.276 93.6184 109.628C92.3348 107.979 69.8022 95.8597 38.4015 117.374V117.37Z" fill="#C1C9E6"/>
<mask id="mask7_2675_61965" style="mask-type:luminance" maskUnits="userSpaceOnUse" x="37" y="104" width="57" height="30">
<path d="M38.4015 117.37C36.7802 118.482 36.9873 120.942 38.7664 121.779C48.2379 126.22 72.2523 136.741 79.7692 132.94C89.2092 128.166 94.902 111.276 93.6184 109.628C92.3348 107.979 69.8022 95.8597 38.4015 117.374V117.37Z" fill="white"/>
</mask>
<g mask="url(#mask7_2675_61965)">
<path d="M87.3046 113.767C87.3046 113.767 66.9788 106.367 37.3076 119.248Z" fill="#C1C9E6"/>
<path d="M87.304 113.767C83.174 112.758 78.8953 112.362 74.6617 112.267C64.0417 112.024 53.4757 114.019 43.3827 117.208C41.3469 117.847 39.3518 118.613 37.3115 119.253C38.2753 118.789 39.2437 118.334 40.2165 117.888C42.4234 116.802 45.3689 115.749 47.6838 114.902C55.3448 112.402 63.4067 110.934 71.482 111.083C76.8191 111.177 82.3002 111.848 87.304 113.767Z" fill="#2A358E"/>
<path d="M77.2745 128.003C77.2745 128.003 53.697 124.617 37.3076 119.248Z" fill="#C1C9E6"/>
<path d="M77.2745 128.003C70.4422 127.531 63.6865 126.4 56.9848 125.031C50.3011 123.576 43.64 121.865 37.3076 119.248C50.1931 122.365 64.3621 125.085 77.2745 128.003Z" fill="#2A358E"/>
<path d="M83.5757 121.482C83.5757 121.482 58.8137 115.649 38.0195 119.252Z" fill="#C1C9E6"/>
<path d="M83.5757 121.482C68.5014 119.298 53.238 117.811 38.0195 119.253C52.4092 115.942 69.4292 117.505 83.5757 121.482Z" fill="#2A358E"/>
</g>
<path d="M38.4015 117.37C36.7802 118.482 36.9873 120.942 38.7664 121.779C48.2379 126.22 72.2523 136.741 79.7692 132.94C89.2092 128.166 94.902 111.276 93.6184 109.628C92.3348 107.979 69.8022 95.8597 38.4015 117.374V117.37Z" stroke="#2A358E" stroke-width="2.34649" stroke-linecap="round" stroke-linejoin="round"/>
<path d="M15.108 128.503C15.108 128.503 -36.5599 206.599 62.8395 263.703C62.8395 263.703 43.4551 248.197 52.9717 220.701C62.4882 193.209 67.0686 172.059 62.8395 161.484" fill="#5C59A7"/>
<mask id="mask8_2675_61965" style="mask-type:luminance" maskUnits="userSpaceOnUse" x="1" y="128" width="64" height="136">
<path d="M15.108 128.503C15.108 128.503 -36.5599 206.599 62.8395 263.703C62.8395 263.703 43.4551 248.197 52.9717 220.701C62.4882 193.209 67.0686 172.059 62.8395 161.484" fill="white"/>
</mask>
<g mask="url(#mask8_2675_61965)">
<path d="M68.9471 159.939C68.9471 159.939 58.9666 155.778 59.399 170.424C60.016 191.182 43.0951 219.507 46.1532 236.662C49.9589 258.024 62.8354 263.699 62.8354 263.699L68.9471 159.939Z" fill="#4A429A"/>
<path d="M51.382 251.827C-7.42896 209.833 6.26267 159.629 13.5228 142.177C15.5811 137.227 19.2832 133.128 24.0348 130.647C40.4602 122.063 59.0655 128.012 59.0655 128.012C26.2281 104.615 13.0815 119.144 7.82099 134.426C-50.7422 131.246 31.1193 285.889 31.1193 285.889C31.1193 285.889 124.61 304.112 51.3865 251.827H51.382Z" fill="#4A429A"/>
</g>
<path d="M15.108 128.503C15.108 128.503 -36.5599 206.599 62.8395 263.703C62.8395 263.703 43.4551 248.197 52.9717 220.701C62.4882 193.209 67.0686 172.059 62.8395 161.484" stroke="#2A358E" stroke-width="2.25191" stroke-linecap="round" stroke-linejoin="round"/>
<path d="M37.5822 73.5114C33.8981 73.7817 26.674 75.1733 22.1837 81.6679C21.4901 82.6677 21.4315 83.9738 21.9945 85.0502C23.9582 88.7794 28.8673 97.7465 32.5154 101.35C33.2315 102.057 34.2539 102.345 35.2267 102.097C38.7442 101.205 47.7744 98.5032 49.9272 93.7516C50.3416 92.8418 50.31 91.7925 49.9047 90.8782C48.5851 87.8966 44.7748 79.5556 41.6177 75.3535C40.6673 74.0924 39.1541 73.3943 37.5777 73.5069L37.5822 73.5114Z" fill="#C1C9E6"/>
<mask id="mask9_2675_61965" style="mask-type:luminance" maskUnits="userSpaceOnUse" x="21" y="73" width="30" height="30">
<path d="M37.5822 73.5114C33.8981 73.7817 26.674 75.1733 22.1837 81.6679C21.4901 82.6677 21.4315 83.9738 21.9945 85.0502C23.9582 88.7794 28.8673 97.7465 32.5154 101.35C33.2315 102.057 34.2539 102.345 35.2267 102.097C38.7442 101.205 47.7744 98.5032 49.9272 93.7516C50.3416 92.8418 50.31 91.7925 49.9047 90.8782C48.5851 87.8966 44.7748 79.5556 41.6177 75.3535C40.6673 74.0924 39.1541 73.3943 37.5777 73.5069L37.5822 73.5114Z" fill="white"/>
</mask>
<g mask="url(#mask9_2675_61965)">
<path opacity="0.5" d="M39.1045 74.2363C39.1045 74.2363 41.2078 77.398 35.8438 81.1362L47.342 99.8541L54.1338 92.5489L39.1 74.2363" fill="#6E79BA"/>
<path d="M41.6154 77.9805L34.4362 81.756C33.7185 82.1335 33.4422 83.0204 33.8191 83.737C34.1959 84.4536 35.0832 84.7285 35.8009 84.3511L42.9801 80.5755C43.6978 80.1981 43.9741 79.3112 43.5972 78.5946C43.2204 77.878 42.333 77.6031 41.6154 77.9805Z" fill="#2A358E"/>
<path d="M44.5548 82.3794L37.3757 86.155C36.658 86.5324 36.3817 87.4193 36.7585 88.1359C37.1354 88.8525 38.0227 89.1274 38.7404 88.75L45.9195 84.9745C46.6372 84.597 46.9135 83.7101 46.5367 82.9935C46.1598 82.2769 45.2725 82.002 44.5548 82.3794Z" fill="#2A358E"/>
<path d="M46.9337 86.7554L39.7546 90.5309C39.0369 90.9084 38.7606 91.7953 39.1374 92.5119C39.5143 93.2285 40.4016 93.5034 41.1193 93.126L48.2984 89.3504C49.0161 88.973 49.2924 88.0861 48.9156 87.3695C48.5387 86.6529 47.6514 86.378 46.9337 86.7554Z" fill="#2A358E"/>
</g>
<path d="M37.5822 73.5114C33.8981 73.7817 26.674 75.1733 22.1837 81.6679C21.4901 82.6677 21.4315 83.9738 21.9945 85.0502C23.9582 88.7794 28.8673 97.7465 32.5154 101.35C33.2315 102.057 34.2539 102.345 35.2267 102.097C38.7442 101.205 47.7744 98.5032 49.9272 93.7516C50.3416 92.8418 50.31 91.7925 49.9047 90.8782C48.5851 87.8966 44.7748 79.5556 41.6177 75.3535C40.6673 74.0924 39.1541 73.3943 37.5777 73.5069L37.5822 73.5114Z" stroke="#2A358E" stroke-width="2.34649" stroke-linecap="round" stroke-linejoin="round"/>
<path d="M85.4175 53.5461C85.4175 53.5461 83.1836 45.9076 75.6667 42.7369C75.6667 42.7369 69.7802 23.0462 94.7539 22.731C94.7539 22.731 92.9389 49.6728 85.422 53.5506L85.4175 53.5461Z" fill="#5C59A7" stroke="#2A358E" stroke-width="2.50863" stroke-linecap="round" stroke-linejoin="round"/>
<path d="M87.1196 52.6455C87.1196 52.6455 85.1424 15.0746 103.351 17.6598C121.56 20.245 126.978 26.6494 127.091 30.6128C127.204 34.5761 92.1278 54.1317 92.1278 54.1317L87.1196 52.6455Z" fill="#5C59A7"/>
<mask id="mask10_2675_61965" style="mask-type:luminance" maskUnits="userSpaceOnUse" x="87" y="17" width="41" height="38">
<path d="M87.1196 52.6455C87.1196 52.6455 85.1424 15.0746 103.351 17.6598C121.56 20.245 126.978 26.6494 127.091 30.6128C127.204 34.5761 92.1278 54.1317 92.1278 54.1317L87.1196 52.6455Z" fill="white"/>
</mask>
<g mask="url(#mask10_2675_61965)">
<path d="M96.2617 49.1186C96.2617 49.1186 100.315 30.2476 93.7936 21.2219C87.2721 12.1962 87.8036 28.5857 87.8036 28.5857C87.8036 28.5857 86.9208 55.3744 96.2617 49.1186Z" fill="#4A429A"/>
<path d="M90.6228 45.3264C90.6228 45.3264 118.853 30.5764 110.732 19.0646C102.612 7.55283 137.508 27.7615 137.508 27.7615L121.641 48.9115L89.2852 51.9245L90.6228 45.3309V45.3264Z" fill="#4A429A"/>
</g>
<path d="M87.1196 52.6455C87.1196 52.6455 85.1424 15.0746 103.351 17.6598C121.56 20.245 126.978 26.6494 127.091 30.6128C127.204 34.5761 92.1278 54.1317 92.1278 54.1317L87.1196 52.6455Z" stroke="#2A358E" stroke-width="2.50863" stroke-linecap="round" stroke-linejoin="round"/>
<path d="M90.1777 54.8972C90.1777 54.8972 110.499 40.6381 121.205 55.843C121.205 55.843 144.872 60.653 137.117 38.7419C129.361 16.8308 94.9383 45.0248 90.1777 54.8972Z" fill="#5C59A7"/>
<mask id="mask11_2675_61965" style="mask-type:luminance" maskUnits="userSpaceOnUse" x="90" y="30" width="49" height="27">
<path d="M90.1777 54.8972C90.1777 54.8972 110.499 40.6381 121.205 55.843C121.205 55.843 144.872 60.653 137.117 38.7419C129.361 16.8308 94.9383 45.0248 90.1777 54.8972Z" fill="white"/>
</mask>
<g mask="url(#mask11_2675_61965)">
<path d="M112.571 49.4705C112.571 49.4705 131.821 49.3534 128.839 30.8472C125.858 12.341 157.947 51.9206 157.947 51.9206L130.533 68.2109L112.571 49.466" fill="#4A429A"/>
</g>
<path d="M90.1777 54.8972C90.1777 54.8972 110.499 40.6381 121.205 55.843C121.205 55.843 144.872 60.653 137.117 38.7419C129.361 16.8308 94.9383 45.0248 90.1777 54.8972Z" stroke="#2A358E" stroke-width="2.50863" stroke-linecap="round" stroke-linejoin="round"/>
<path d="M145.494 60.4867C145.494 60.4867 151.403 61.5226 148.056 67.864C144.705 74.2098 136.738 73.0884 136.738 73.0884C136.738 73.0884 145.372 91.6802 121.268 80.5287C120.957 80.3846 120.655 80.2405 120.362 80.0963C123.191 72.5209 124.38 63.5448 121.371 55.6136C128.829 51.434 152.97 38.5846 154.456 46.4753C156.222 55.8162 145.494 60.4867 145.494 60.4867Z" fill="#C1C9E6"/>
<mask id="mask12_2675_61965" style="mask-type:luminance" maskUnits="userSpaceOnUse" x="120" y="43" width="35" height="42">
<path d="M145.494 60.4867C145.494 60.4867 151.403 61.5226 148.056 67.864C144.705 74.2098 136.738 73.0884 136.738 73.0884C136.738 73.0884 145.372 91.6802 121.268 80.5287C120.957 80.3846 120.655 80.2405 120.362 80.0963C123.191 72.5209 124.38 63.5448 121.371 55.6136C128.829 51.434 152.97 38.5846 154.456 46.4753C156.222 55.8162 145.494 60.4867 145.494 60.4867Z" fill="white"/>
</mask>
<g mask="url(#mask12_2675_61965)">
<path d="M118.305 62.3241C118.305 62.3241 131.812 64.0806 136.014 61.5044Z" fill="#C1C9E6"/>
<path d="M118.305 62.3241C121.309 61.7971 124.254 61.7926 127.249 61.7836C129.848 61.7386 133.469 62.0223 136.014 61.5044C132.258 65.1795 122.804 64.3373 118.305 62.3241Z" fill="#2A358E"/>
<path d="M118.931 70.6608C122.935 69.4222 128.037 69.7826 131.821 71.5976C127.817 72.8497 122.714 72.4668 118.931 70.6608Z" fill="#2A358E"/>
</g>
<path d="M145.494 60.4867C145.494 60.4867 151.403 61.5226 148.056 67.864C144.705 74.2098 136.738 73.0884 136.738 73.0884C136.738 73.0884 145.372 91.6802 121.268 80.5287C120.957 80.3846 120.655 80.2405 120.362 80.0963C123.191 72.5209 124.38 63.5448 121.371 55.6136C128.829 51.434 152.97 38.5846 154.456 46.4753C156.222 55.8162 145.494 60.4867 145.494 60.4867Z" stroke="#2A358E" stroke-width="2.25191" stroke-linecap="round" stroke-linejoin="round"/>
<path d="M101.726 114.839C101.726 114.839 139.562 85.2172 177.804 86.6269C177.804 86.6269 183.267 86.5549 185.56 76.4573C187.852 66.3597 189.262 54.1994 185.56 52.4384C181.858 50.6774 119.935 49.8217 101.726 114.839Z" fill="#C1C9E6"/>
<mask id="mask13_2675_61965" style="mask-type:luminance" maskUnits="userSpaceOnUse" x="101" y="51" width="87" height="64">
<path d="M101.725 114.838C101.725 114.838 139.561 85.2167 177.803 86.6264C177.803 86.6264 183.266 86.5544 185.559 76.4568C187.851 66.3592 189.261 54.1989 185.559 52.4379C181.857 50.6769 119.934 49.8212 101.725 114.838Z" fill="white"/>
</mask>
<g mask="url(#mask13_2675_61965)">
<path d="M184.344 58.1042C184.344 58.1042 125.154 53.5464 101.726 114.839Z" fill="#C1C9E6"/>
<path d="M184.344 58.1041C163.842 58.0996 143.147 65.1391 127.46 78.4164C115.931 88.1176 107.536 100.985 101.726 114.843C102.527 112.758 103.275 110.646 104.162 108.592C104.64 107.507 105.784 105.034 106.243 104.003C106.716 103.106 108.094 100.476 108.598 99.5393C109.333 98.1881 110.409 96.5443 111.197 95.2111C119.354 82.3797 131.203 71.9399 145.048 65.621C157.289 60.0903 170.909 57.2394 184.344 58.1086V58.1041Z" fill="#2A358E"/>
<path d="M182.875 68.2154C182.875 68.2154 133.689 62.2658 101.726 114.839Z" fill="#C1C9E6"/>
<path d="M182.875 68.2149C168.58 67.6564 154.29 71.3496 141.539 77.6819C132.496 82.2984 124.155 88.4641 117.043 95.7107C111.323 101.53 106.22 107.97 101.726 114.838C102.775 113.077 103.802 111.298 104.914 109.569C107.157 106.173 109.567 102.705 112.197 99.6111C118.728 91.6663 126.668 84.7394 135.513 79.479C149.655 71.1469 166.446 66.562 182.88 68.2149H182.875Z" fill="#2A358E"/>
<path d="M180.642 79.0874C180.642 79.0874 144.778 71.4128 101.726 114.839Z" fill="#C1C9E6"/>
<path d="M180.641 79.0872C173.232 78.1999 165.743 79.2358 158.536 80.9428C145.917 84.0459 134.085 89.9324 123.389 97.2511C115.692 102.494 108.526 108.452 101.721 114.839C103.004 113.483 104.297 112.132 105.603 110.794C108.004 108.434 111.314 105.308 113.84 103.178C126.676 92.3014 141.733 83.5189 158.298 79.9204C165.603 78.3936 173.264 77.655 180.637 79.0872H180.641Z" fill="#2A358E"/>
</g>
<path d="M101.726 114.839C101.726 114.839 139.562 85.2172 177.804 86.6269C177.804 86.6269 183.267 86.5549 185.56 76.4573C187.852 66.3597 189.262 54.1994 185.56 52.4384C181.858 50.6774 119.935 49.8217 101.726 114.839Z" stroke="#2A358E" stroke-width="2.25191" stroke-linecap="round" stroke-linejoin="round"/>
<path d="M90.1778 54.8972C101.726 23.6542 78.9228 -14.4256 39.699 9.54373C-4.5286 36.5712 27.1063 79.0873 27.1063 79.0873C21.4675 68.7465 22.1701 57.7031 22.1701 57.7031C19.7785 21.8302 60.9795 -1.34201 77.1573 13.998C91.6776 27.7662 85.4173 53.5461 85.4173 53.5461" fill="#9199CD"/>
<path d="M90.1778 54.8972C101.726 23.6542 78.9228 -14.4256 39.699 9.54373C-4.5286 36.5712 27.1063 79.0873 27.1063 79.0873C21.4675 68.7465 22.1701 57.7031 22.1701 57.7031C19.7785 21.8302 60.9795 -1.34201 77.1573 13.998C91.6776 27.7662 85.4173 53.5461 85.4173 53.5461" stroke="#2A358E" stroke-width="2.25191" stroke-linecap="round" stroke-linejoin="round"/>
<path d="M84.625 71.7821C86.8544 75.9436 85.8095 80.9699 82.7875 82.9741C79.7654 84.9783 75.5093 83.2263 73.2799 79.0648C71.0505 74.9033 71.6946 69.904 74.7166 67.8998C77.7387 65.8956 82.3956 67.6206 84.625 71.7821Z" fill="#5C59A7"/>
<mask id="mask14_2675_61965" style="mask-type:luminance" maskUnits="userSpaceOnUse" x="71" y="67" width="15" height="17">
<path d="M84.6241 71.7816C86.8535 75.9432 85.8086 80.9694 82.7865 82.9736C79.7644 84.9778 75.5083 83.2258 73.2789 79.0643C71.0495 74.9028 71.6936 69.9035 74.7156 67.8993C77.7377 65.8951 82.3947 67.6201 84.6241 71.7816Z" fill="white"/>
</mask>
<g mask="url(#mask14_2675_61965)">
<path d="M86.885 87.7344C83.2099 90.171 78.7421 89.3738 76.909 85.9509C75.076 82.528 76.5712 77.781 80.2463 75.3444C83.9215 72.9078 88.3893 73.705 90.2223 77.1279C92.0554 80.5508 90.5601 85.2979 86.885 87.7344Z" fill="#6E79BA" stroke="#2A358E" stroke-width="2.25191" stroke-linecap="round" stroke-linejoin="round"/>
</g>
<path d="M84.625 71.7821C86.8544 75.9436 85.8095 80.9699 82.7875 82.9741C79.7654 84.9783 75.5093 83.2263 73.2799 79.0648C71.0505 74.9033 71.6946 69.904 74.7166 67.8998C77.7387 65.8956 82.3956 67.6206 84.625 71.7821Z" stroke="#2A358E" stroke-width="2.25191" stroke-linecap="round" stroke-linejoin="round"/>
<path d="M89.2861 63.4185C89.2861 63.4185 92.1641 72.7594 103.383 71.674C103.383 71.674 104.793 73.6106 107.585 72.8179C107.585 72.8179 105.09 71.4353 104.883 69.0302C104.883 69.0302 98.5685 68.4447 89.2861 63.4185Z" fill="#2A358E"/>
<path d="M76.4587 57.8245C76.4587 57.8245 74.5221 61.3691 69.5229 59.8918C64.0642 58.2839 65.2442 54.3701 65.2442 54.3701C66.7575 55.0817 68.532 55.8068 70.5497 56.4419C72.7161 57.1174 74.7113 57.5498 76.4542 57.8245H76.4587Z" fill="#2A358E"/>
<path d="M83.5621 249.939C83.5621 249.939 78.5088 258.632 62.4121 255.403Z" fill="#C1C9E6"/>
<path d="M83.5621 249.939C81.0534 254.844 74.8021 256.871 69.5867 256.691C67.1411 256.655 64.7226 256.168 62.4121 255.403C64.6505 255.475 67.3303 255.655 69.5687 255.506C74.6625 255.263 79.977 253.795 83.5621 249.939Z" fill="#2A358E"/>
</svg>
