<svg width="243" height="293" viewBox="0 0 243 293" fill="none" xmlns="http://www.w3.org/2000/svg">
<path d="M194.855 126.69C193.125 128.444 188.588 132.925 181.533 137.937C182.217 134.293 182.571 130.536 182.571 126.69C182.571 92.9675 155.227 65.6239 121.496 65.6239C87.7652 65.6239 60.4296 92.9675 60.4296 126.69C60.4296 130.528 60.7836 134.277 61.4674 137.921C54.372 132.893 49.8349 128.404 48.1455 126.69C48.1455 86.1779 80.9916 53.3398 121.496 53.3398C162.001 53.3398 194.855 86.1779 194.855 126.69Z" fill="#D8EEEB" stroke="#386B34" stroke-width="4.0223" stroke-miterlimit="10"/>
<path d="M123.307 224.472C123.307 224.472 120.314 284.597 131.963 286.641C143.611 288.684 175.403 289.633 180.914 285.852C186.425 282.071 189.256 271.372 187.366 266.489C185.475 261.606 179.337 260.094 178.396 256.449C177.455 252.805 179.973 224.472 179.973 224.472H123.315H123.307Z" fill="#D3E7BB"/>
<mask id="mask0_2675_62455" style="mask-type:luminance" maskUnits="userSpaceOnUse" x="122" y="224" width="66" height="65">
<path d="M123.306 224.472C123.306 224.472 120.313 284.597 131.962 286.64C143.61 288.684 175.403 289.633 180.913 285.852C186.424 282.071 189.255 271.372 187.365 266.489C185.474 261.606 179.336 260.093 178.395 256.449C177.454 252.805 179.972 224.472 179.972 224.472H123.314H123.306Z" fill="white"/>
</mask>
<g mask="url(#mask0_2675_62455)">
<path d="M117.996 248.461C117.996 248.461 164.205 270.101 178.242 255.363C192.28 240.625 177.639 211.81 177.639 211.81L112.027 215.743L117.996 248.461Z" fill="#A1C18F"/>
<mask id="mask1_2675_62455" style="mask-type:luminance" maskUnits="userSpaceOnUse" x="112" y="211" width="73" height="50">
<path d="M117.997 248.46C117.997 248.46 164.206 270.1 178.243 255.363C192.281 240.625 177.64 211.809 177.64 211.809L112.028 215.743L117.997 248.46Z" fill="white"/>
</mask>
<g mask="url(#mask1_2675_62455)">
<path d="M183.118 220.852H169.997V260.608H183.118V220.852Z" fill="#7A956C"/>
</g>
<path d="M124.625 291.837C124.625 291.837 126.91 279.561 132.364 279.77C137.819 279.979 157.061 280.036 161.293 271.508C161.293 271.508 168.782 274.42 172.764 272.506C176.746 270.591 169.45 259.763 169.45 259.763L187.132 248.46L207.211 270.937L182.297 300.501L124.609 291.845L124.625 291.837Z" fill="#ACC19B"/>
</g>
<path d="M123.307 224.472C123.307 224.472 120.314 284.597 131.963 286.641C143.611 288.684 175.403 289.633 180.914 285.852C186.425 282.071 189.256 271.372 187.366 266.489C185.475 261.606 179.337 260.094 178.396 256.449C177.455 252.805 179.973 224.472 179.973 224.472H123.315H123.307Z" stroke="#386B34" stroke-width="4.0223" stroke-miterlimit="10"/>
<path d="M123.104 250.73C123.104 250.73 165.29 269.434 178.242 255.356" stroke="#386B34" stroke-width="3.44309" stroke-miterlimit="10"/>
<path d="M123.104 243.522C123.104 243.522 165.29 262.226 178.242 248.148" stroke="#386B34" stroke-width="3.44309" stroke-miterlimit="10"/>
<path d="M123.748 236.314C123.748 236.314 165.934 255.018 178.886 240.94" stroke="#386B34" stroke-width="3.44309" stroke-miterlimit="10"/>
<path d="M124.625 229.098C124.625 229.098 166.811 247.802 179.763 233.724" stroke="#386B34" stroke-width="3.44309" stroke-miterlimit="10"/>
<path d="M162.097 271.509C162.097 271.509 174.904 275.29 181.774 269.201" stroke="#386B34" stroke-width="3.44309" stroke-miterlimit="10" stroke-linecap="round"/>
<path d="M25.9825 125.556C20.9546 125.556 16.707 121.308 16.707 116.28C16.707 111.252 20.9546 107.005 25.9825 107.005C27.1248 107.005 28.1545 107.182 29.1359 107.552C39.5135 111.437 50.4943 113.424 61.5476 113.424C62.9232 113.424 64.2908 113.392 65.6665 113.336C65.8837 113.328 66.117 113.32 66.3583 113.32C68.5464 113.32 69.3026 113.706 69.5922 113.851C70.2841 114.205 70.9276 114.752 70.9276 116.28C70.9276 117.809 70.2841 118.348 69.5922 118.71C69.3026 118.855 68.5545 119.241 66.3583 119.241C66.125 119.241 65.8837 119.241 65.6423 119.225C64.2747 119.16 62.9072 119.136 61.5476 119.136C50.4863 119.136 39.5054 121.123 29.1279 125.009C28.1465 125.379 27.1167 125.556 25.9744 125.556H25.9825Z" fill="#B0D461"/>
<path d="M25.9825 125.556C20.9546 125.556 16.707 121.308 16.707 116.28C16.707 111.252 20.9546 107.005 25.9825 107.005C27.1248 107.005 28.1545 107.182 29.1359 107.552C39.5135 111.437 50.4943 113.424 61.5476 113.424C62.9232 113.424 64.2908 113.392 65.6665 113.336C65.8837 113.328 66.117 113.32 66.3583 113.32C68.5464 113.32 69.3026 113.706 69.5922 113.851C70.2841 114.205 70.9276 114.752 70.9276 116.28C70.9276 117.809 70.2841 118.348 69.5922 118.71C69.3026 118.855 68.5545 119.241 66.3583 119.241C66.125 119.241 65.8837 119.241 65.6423 119.225C64.2747 119.16 62.9072 119.136 61.5476 119.136C50.4863 119.136 39.5054 121.123 29.1279 125.009C28.1465 125.379 27.1167 125.556 25.9744 125.556H25.9825Z" stroke="#386B34" stroke-width="4.0223" stroke-miterlimit="10"/>
<path d="M217.025 125.556C215.883 125.556 214.853 125.379 213.872 125.009C203.494 121.123 192.514 119.136 181.452 119.136C180.085 119.136 178.725 119.168 177.358 119.225C177.116 119.233 176.875 119.241 176.642 119.241C174.453 119.241 173.697 118.855 173.408 118.71C172.716 118.356 172.072 117.809 172.072 116.28C172.072 114.752 172.716 114.213 173.408 113.851C173.689 113.706 174.445 113.32 176.642 113.32C176.883 113.32 177.116 113.32 177.333 113.336C178.709 113.4 180.085 113.424 181.452 113.424C192.514 113.424 203.494 111.437 213.864 107.552C214.845 107.182 215.875 107.005 217.017 107.005C222.045 107.005 226.293 111.252 226.293 116.28C226.293 121.308 222.045 125.556 217.017 125.556H217.025Z" fill="#8CC756"/>
<path d="M217.025 125.556C215.883 125.556 214.853 125.379 213.872 125.009C203.494 121.123 192.514 119.136 181.452 119.136C180.085 119.136 178.725 119.168 177.358 119.225C177.116 119.233 176.875 119.241 176.642 119.241C174.453 119.241 173.697 118.855 173.408 118.71C172.716 118.356 172.072 117.809 172.072 116.28C172.072 114.752 172.716 114.213 173.408 113.851C173.689 113.706 174.445 113.32 176.642 113.32C176.883 113.32 177.116 113.32 177.333 113.336C178.709 113.4 180.085 113.424 181.452 113.424C192.514 113.424 203.494 111.437 213.864 107.552C214.845 107.182 215.875 107.005 217.017 107.005C222.045 107.005 226.293 111.252 226.293 116.28C226.293 121.308 222.045 125.556 217.017 125.556H217.025Z" stroke="#386B34" stroke-width="4.0223" stroke-miterlimit="10"/>
<path d="M138.615 12.5451C135.092 15.7307 130.41 17.1949 125.688 18.0798V32.2061H117.313V18.0798C112.599 17.1949 107.917 15.7307 104.385 12.5451C102.793 11.0971 101.417 9.09395 101.682 6.96213C101.851 5.62672 102.664 4.42808 103.734 3.62362C104.804 2.81111 106.115 2.36062 107.442 2.15146C110.314 1.69292 113.355 2.31235 115.817 3.88105C118.278 5.4417 120.145 7.91943 120.949 10.719C120.949 10.719 121.376 12.1992 121.48 14.2988C121.48 14.5804 122.051 10.719 122.051 10.719C122.856 7.91943 124.722 5.4417 127.184 3.88105C127.94 3.39837 128.761 3.00418 129.605 2.70653C131.504 2.03079 133.563 1.83772 135.558 2.15146C136.886 2.36062 138.197 2.81111 139.267 3.62362C140.337 4.42808 141.157 5.62672 141.326 6.96213C141.592 9.09395 140.208 11.0971 138.615 12.5451Z" fill="#B0D461"/>
<path d="M138.615 12.5454C135.091 15.731 130.409 17.1952 125.687 18.0801V32.2064H117.312V25.5455C119.114 24.4433 120.764 22.585 121.737 19.52C121.737 19.52 137.191 13.3498 129.846 3.06884C129.757 2.94013 129.677 2.81946 129.605 2.70684C131.503 2.03109 133.563 1.83802 135.558 2.15176C136.885 2.36092 138.196 2.81142 139.266 3.62392C140.336 4.42838 141.157 5.62703 141.326 6.96243C141.591 9.09425 140.207 11.0974 138.615 12.5454Z" fill="#8CC756"/>
<path d="M137.191 11.1293C133.853 14.0897 129.444 15.3285 125.148 16.1491C124.288 16.31 123.668 17.2592 123.668 18.0878V32.2141L125.679 30.203H117.305L119.316 32.2141V18.0878C119.316 17.2673 118.697 16.31 117.836 16.1491C114.859 15.586 111.859 14.8378 109.164 13.422C107.056 12.3118 103.951 10.3972 103.661 7.76661C103.331 4.79816 107.458 3.97761 109.606 4.03392C112.51 4.10632 115.213 5.45781 117.08 7.66203C117.965 8.69979 118.632 9.97083 119.002 11.2821C119.332 12.4647 119.316 13.6633 119.533 14.8619C119.839 16.5835 122.429 16.7927 123.21 15.3446C123.845 14.1621 123.692 12.5692 123.982 11.2821C124.545 8.76414 126.572 6.5197 128.768 5.28888C131.254 3.90521 134.818 3.43058 137.4 4.83034C138.422 5.38541 139.395 6.35881 139.339 7.61377C139.275 9.03766 138.165 10.2202 137.183 11.1373C135.285 12.9071 138.132 15.7469 140.031 13.9851C142.324 11.8452 144.198 8.59521 142.983 5.4015C141.777 2.21584 138.704 0.566699 135.462 0.140335C128.921 -0.720437 122.695 3.18924 120.394 9.31118C120.112 10.0513 120.016 10.7592 119.903 11.5395C119.831 12.0222 119.758 12.4968 119.686 12.9715C119.622 13.3496 119.308 14.1138 119.742 13.3093L123.419 13.792C123.491 14.1942 123.435 13.5829 123.435 13.5587C123.427 13.3335 123.387 13.1002 123.362 12.8669C123.298 12.352 123.226 11.8372 123.137 11.3223C123.065 10.9442 122.992 10.5661 122.888 10.1961C122.373 8.35387 121.424 6.6645 120.233 5.17625C117.771 2.10322 114.023 0.285138 110.113 0.0277105C106.203 -0.229717 101.61 1.29071 100.065 5.24865C98.5208 9.2066 101.626 13.1484 104.771 15.4251C108.271 17.9672 112.567 19.2221 116.774 20.0266L115.294 18.0878V32.2141C115.294 33.3002 116.219 34.2253 117.305 34.2253H125.679C126.765 34.2253 127.69 33.3002 127.69 32.2141V18.0878L126.21 20.0266C131.23 19.0693 136.145 17.4121 140.023 13.977C141.962 12.2555 139.114 9.4238 137.175 11.1293H137.191Z" fill="#386B34"/>
<path d="M62.8184 226.041C62.8184 226.041 59.8258 286.166 71.4744 288.21C83.123 290.253 114.915 291.202 120.426 287.421C125.936 283.64 128.768 272.941 126.878 268.058C124.987 263.175 118.849 261.662 117.908 258.018C116.967 254.374 119.485 226.041 119.485 226.041H62.8264H62.8184Z" fill="#D3E7BB"/>
<mask id="mask2_2675_62455" style="mask-type:luminance" maskUnits="userSpaceOnUse" x="62" y="226" width="66" height="64">
<path d="M62.8184 226.041C62.8184 226.041 59.8258 286.166 71.4744 288.21C83.123 290.253 114.915 291.202 120.426 287.421C125.936 283.64 128.768 272.941 126.878 268.058C124.987 263.175 118.849 261.662 117.908 258.018C116.967 254.374 119.485 226.041 119.485 226.041H62.8264H62.8184Z" fill="white"/>
</mask>
<g mask="url(#mask2_2675_62455)">
<path d="M57.5169 250.03C57.5169 250.03 103.725 271.67 117.763 256.932C131.801 242.194 117.16 213.378 117.16 213.378L51.5479 217.312L57.5169 250.03Z" fill="#A1C18F"/>
<mask id="mask3_2675_62455" style="mask-type:luminance" maskUnits="userSpaceOnUse" x="51" y="213" width="73" height="50">
<path d="M57.5169 250.03C57.5169 250.03 103.725 271.67 117.763 256.932C131.801 242.195 117.16 213.379 117.16 213.379L51.5479 217.313L57.5169 250.03Z" fill="white"/>
</mask>
<g mask="url(#mask3_2675_62455)">
<path d="M122.638 222.421H109.518V262.177H122.638V222.421Z" fill="#7A956C"/>
</g>
<path d="M64.146 293.406C64.146 293.406 66.4306 281.13 71.8849 281.339C77.3391 281.549 96.5818 281.605 100.813 273.078C100.813 273.078 108.303 275.99 112.285 274.075C116.267 272.16 108.97 261.332 108.97 261.332L126.653 250.03L146.732 272.506L121.818 302.07L64.1299 293.414L64.146 293.406Z" fill="#ACC19B"/>
</g>
<path d="M62.8184 226.041C62.8184 226.041 59.8258 286.166 71.4744 288.21C83.123 290.253 114.915 291.202 120.426 287.421C125.936 283.64 128.768 272.941 126.878 268.058C124.987 263.175 118.849 261.662 117.908 258.018C116.967 254.374 119.485 226.041 119.485 226.041H62.8264H62.8184Z" stroke="#386B34" stroke-width="4.0223" stroke-miterlimit="10"/>
<path d="M62.626 252.299C62.626 252.299 104.812 271.003 117.764 256.924" stroke="#386B34" stroke-width="3.44309" stroke-miterlimit="10"/>
<path d="M62.626 245.09C62.626 245.09 104.812 263.794 117.764 249.716" stroke="#386B34" stroke-width="3.44309" stroke-miterlimit="10"/>
<path d="M63.2695 237.882C63.2695 237.882 105.455 256.586 118.407 242.508" stroke="#386B34" stroke-width="3.44309" stroke-miterlimit="10"/>
<path d="M64.1455 230.675C64.1455 230.675 106.331 249.378 119.283 235.3" stroke="#386B34" stroke-width="3.44309" stroke-miterlimit="10"/>
<path d="M101.618 273.078C101.618 273.078 114.425 276.859 121.295 270.769" stroke="#386B34" stroke-width="3.44309" stroke-miterlimit="10" stroke-linecap="round"/>
<path d="M196.239 149.047C199.103 148.797 214.556 147.743 227.13 159.038C228.852 160.582 238.843 169.834 239.921 184.563C240.034 186.108 241.152 204.2 231.418 208.657C228.385 210.041 223.607 210.202 220.091 208.054C215.948 205.528 216.141 201.32 212.939 200.717C209.641 200.098 208.933 204.458 203.495 205.125C199.835 205.576 195.442 204.184 192.385 201.803C192.249 201.698 192.144 201.61 192.072 201.554C183.85 194.925 186.296 173.703 196.239 149.047Z" fill="#ACC19B"/>
<mask id="mask4_2675_62455" style="mask-type:luminance" maskUnits="userSpaceOnUse" x="187" y="148" width="54" height="62">
<path d="M196.238 149.047C199.102 148.798 214.555 147.744 227.129 159.038C228.851 160.583 238.842 169.834 239.92 184.564C240.033 186.108 241.151 204.201 231.417 208.658C228.384 210.041 223.606 210.202 220.09 208.054C215.947 205.528 216.14 201.321 212.938 200.717C209.64 200.098 208.932 204.458 203.494 205.126C199.834 205.576 195.441 204.185 192.384 201.804C192.248 201.699 192.143 201.61 192.071 201.554C183.849 194.925 186.295 173.704 196.238 149.047Z" fill="white"/>
</mask>
<g mask="url(#mask4_2675_62455)">
<path d="M247.024 191.023C247.024 191.023 215.859 175.916 187.687 191.337C169.45 201.32 174.027 133.657 174.027 133.657L258.093 136.883L247.024 191.023Z" fill="#7A956C" stroke="#386B34" stroke-width="2.41338" stroke-miterlimit="10"/>
<path d="M187.55 186.945C187.55 186.945 210.211 165.385 250.241 185.32" stroke="#386B34" stroke-width="2.41338" stroke-miterlimit="10"/>
<path d="M242.061 171.249C242.061 171.249 210.164 159.762 188.17 182.343" stroke="#386B34" stroke-width="2.41338" stroke-miterlimit="10"/>
<path d="M190.769 175.344C190.769 175.344 208.185 155.965 232.319 159.255" stroke="#386B34" stroke-width="2.41338" stroke-miterlimit="10"/>
<path d="M192.546 173.454C192.546 173.454 196.238 149.055 229.583 148.91" stroke="#386B34" stroke-width="2.41338" stroke-miterlimit="10"/>
</g>
<path d="M196.239 149.047C199.103 148.797 214.556 147.743 227.13 159.038C228.852 160.582 238.843 169.834 239.921 184.563C240.034 186.108 241.152 204.2 231.418 208.657C228.385 210.041 223.607 210.202 220.091 208.054C215.948 205.528 216.141 201.32 212.939 200.717C209.641 200.098 208.933 204.458 203.495 205.125C199.835 205.576 195.442 204.184 192.385 201.803C192.249 201.698 192.144 201.61 192.072 201.554C183.85 194.925 186.296 173.703 196.239 149.047Z" stroke="#386B34" stroke-width="4.0223" stroke-miterlimit="10"/>
<path d="M46.7618 149.047C43.8979 148.797 28.4442 147.743 15.8705 159.038C14.149 160.582 4.15758 169.834 3.0796 184.563C2.96698 186.108 1.84878 204.2 11.5827 208.657C14.6156 210.041 19.394 210.202 22.9095 208.054C27.0525 205.528 26.8594 201.32 30.0612 200.717C33.3595 200.098 34.0674 204.458 39.5055 205.125C43.1658 205.576 47.5582 204.184 50.6151 201.803C50.7519 201.698 50.8565 201.61 50.9289 201.554C59.1505 194.925 56.7049 173.703 46.7618 149.047Z" fill="#D4E8BC"/>
<mask id="mask5_2675_62455" style="mask-type:luminance" maskUnits="userSpaceOnUse" x="2" y="148" width="54" height="62">
<path d="M46.7618 149.047C43.8979 148.798 28.4442 147.744 15.8705 159.038C14.149 160.583 4.15758 169.834 3.0796 184.564C2.96698 186.108 1.84878 204.201 11.5827 208.658C14.6156 210.041 19.394 210.202 22.9095 208.054C27.0525 205.528 26.8594 201.321 30.0612 200.717C33.3595 200.098 34.0674 204.458 39.5055 205.126C43.1658 205.576 47.5582 204.185 50.6151 201.804C50.7519 201.699 50.8565 201.61 50.9289 201.554C59.1505 194.925 56.7049 173.704 46.7618 149.047Z" fill="white"/>
</mask>
<g mask="url(#mask5_2675_62455)">
<path d="M2.99121 220.249C2.99121 220.249 35.3546 195.03 29.4419 184.451C23.5291 173.872 75.9959 191.402 75.9959 191.45C75.9959 191.498 67.533 241.865 67.533 241.865L2.99926 220.249H2.99121Z" fill="#ACC19B"/>
<path d="M-4.02341 191.023C-4.02341 191.023 27.1414 175.916 55.3135 191.337C73.5506 201.32 68.9733 133.657 68.9733 133.657L-15.0928 136.883L-4.02341 191.023Z" fill="#A1C18F"/>
<mask id="mask6_2675_62455" style="mask-type:luminance" maskUnits="userSpaceOnUse" x="-16" y="133" width="86" height="60">
<path d="M-4.02341 191.023C-4.02341 191.023 27.1414 175.916 55.3135 191.337C73.5506 201.32 68.9733 133.657 68.9733 133.657L-15.0928 136.883L-4.02341 191.023Z" fill="white"/>
</mask>
<g mask="url(#mask6_2675_62455)">
<path d="M18.4287 188.031C18.4287 188.031 50.1003 178.828 55.8763 148.91C61.6523 118.992 76.559 213.283 76.559 213.283L18.4287 188.039V188.031Z" fill="#7A956C"/>
</g>
<path d="M-4.02341 191.023C-4.02341 191.023 27.1414 175.916 55.3135 191.337C73.5506 201.32 68.9733 133.657 68.9733 133.657L-15.0928 136.883L-4.02341 191.023Z" stroke="#386B34" stroke-width="2.41338" stroke-miterlimit="10"/>
<path d="M55.4494 186.945C55.4494 186.945 32.7877 165.385 -7.24219 185.32" stroke="#386B34" stroke-width="2.41338" stroke-miterlimit="10"/>
<path d="M0.948242 171.249C0.948242 171.249 32.8451 159.762 54.839 182.343" stroke="#386B34" stroke-width="2.41338" stroke-miterlimit="10"/>
<path d="M52.2398 175.344C52.2398 175.344 34.8232 155.965 10.6895 159.255" stroke="#386B34" stroke-width="2.41338" stroke-miterlimit="10"/>
<path d="M50.4543 173.454C50.4543 173.454 46.7619 149.055 13.417 148.91" stroke="#386B34" stroke-width="2.41338" stroke-miterlimit="10"/>
</g>
<path d="M46.7618 149.047C43.8979 148.797 28.4442 147.743 15.8705 159.038C14.149 160.582 4.15758 169.834 3.0796 184.563C2.96698 186.108 1.84878 204.2 11.5827 208.657C14.6156 210.041 19.394 210.202 22.9095 208.054C27.0525 205.528 26.8594 201.32 30.0612 200.717C33.3595 200.098 34.0674 204.458 39.5055 205.125C43.1658 205.576 47.5582 204.184 50.6151 201.803C50.7519 201.698 50.8565 201.61 50.9289 201.554C59.1505 194.925 56.7049 173.703 46.7618 149.047Z" stroke="#386B34" stroke-width="4.0223" stroke-miterlimit="10"/>
<path d="M184.55 128.669C184.55 132.635 184.188 136.521 183.48 140.278C170.6 149.416 149.572 160.277 121.979 160.397C93.9354 160.518 72.5609 149.505 59.5367 140.262C58.8288 136.497 58.4668 132.627 58.4668 128.669C58.4668 93.8603 86.6953 65.6318 121.504 65.6318C156.313 65.6318 184.55 93.8603 184.55 128.669Z" fill="#B0D461"/>
<mask id="mask7_2675_62455" style="mask-type:luminance" maskUnits="userSpaceOnUse" x="58" y="65" width="127" height="96">
<path d="M184.55 128.669C184.55 132.635 184.188 136.521 183.48 140.278C170.6 149.416 149.572 160.277 121.979 160.397C93.9354 160.518 72.5609 149.505 59.5367 140.262C58.8288 136.497 58.4668 132.627 58.4668 128.669C58.4668 93.8603 86.6953 65.6318 121.504 65.6318C156.313 65.6318 184.55 93.8603 184.55 128.669Z" fill="white"/>
</mask>
<g mask="url(#mask7_2675_62455)">
<path d="M143.61 160.397C143.61 160.397 174.839 148.507 181.211 95.437C187.582 42.3587 204.476 183.702 204.476 183.702L143.61 160.397Z" fill="#8CC756"/>
</g>
<path d="M184.55 128.669C184.55 132.635 184.188 136.521 183.48 140.278C170.6 149.416 149.572 160.277 121.979 160.397C93.9354 160.518 72.5609 149.505 59.5367 140.262C58.8288 136.497 58.4668 132.627 58.4668 128.669C58.4668 93.8603 86.6953 65.6318 121.504 65.6318C156.313 65.6318 184.55 93.8603 184.55 128.669Z" stroke="#386B34" stroke-width="4.15101" stroke-miterlimit="10"/>
<path d="M194.855 126.691V148.661C193.125 150.414 188.588 154.895 181.533 159.907C169.056 168.756 148.687 179.278 121.955 179.399C94.7881 179.52 74.0813 168.845 61.4674 159.891C54.372 154.863 49.8349 150.374 48.1455 148.661V126.691C49.8349 128.404 54.372 132.893 61.4674 137.921C74.0813 146.875 94.7881 157.55 121.955 157.429C148.687 157.309 169.056 146.786 181.533 137.937C188.588 132.925 193.125 128.445 194.855 126.691Z" fill="#A1C18F"/>
<mask id="mask8_2675_62455" style="mask-type:luminance" maskUnits="userSpaceOnUse" x="48" y="126" width="147" height="54">
<path d="M194.855 126.691V148.661C193.125 150.415 188.588 154.896 181.533 159.908C169.056 168.757 148.687 179.279 121.955 179.4C94.7881 179.52 74.0813 168.845 61.4674 159.891C54.372 154.864 49.8349 150.375 48.1455 148.661V126.691C49.8349 128.405 54.372 132.894 61.4674 137.922C74.0813 146.875 94.7881 157.55 121.955 157.43C148.687 157.309 169.056 146.787 181.533 137.938C188.588 132.926 193.125 128.445 194.855 126.691Z" fill="white"/>
</mask>
<g mask="url(#mask8_2675_62455)">
<path d="M147.006 183.059C147.006 183.059 175.846 165.425 173.698 132.474C171.55 99.5237 267.361 64.8193 267.361 64.8193L275.084 176.406L146.998 183.059H147.006Z" fill="#7A956C"/>
</g>
<path d="M194.855 126.691V148.661C193.125 150.414 188.588 154.895 181.533 159.907C169.056 168.756 148.687 179.278 121.955 179.399C94.7881 179.52 74.0813 168.845 61.4674 159.891C54.372 154.863 49.8349 150.374 48.1455 148.661V126.691C49.8349 128.404 54.372 132.893 61.4674 137.921C74.0813 146.875 94.7881 157.55 121.955 157.429C148.687 157.309 169.056 146.786 181.533 137.937C188.588 132.925 193.125 128.445 194.855 126.691Z" stroke="#386B34" stroke-width="3.3546" stroke-miterlimit="10"/>
<path d="M48.1455 137.928C49.8349 139.642 54.372 144.131 61.4674 149.158C74.0813 158.112 94.7881 168.787 121.955 168.667C148.687 168.546 169.056 158.024 181.533 149.175C188.588 144.163 193.125 139.682 194.855 137.928" stroke="#386B34" stroke-width="4.07861" stroke-miterlimit="10"/>
<path d="M194.855 148.66V196.308C194.855 217.248 177.881 234.223 156.941 234.223H86.0597C65.1196 234.223 48.1455 217.248 48.1455 196.308V148.66C49.8349 150.374 54.372 154.863 61.4674 159.89C74.0813 168.844 94.7881 179.519 121.955 179.399C148.687 179.278 169.056 168.756 181.533 159.907C188.588 154.895 193.125 150.414 194.855 148.66Z" fill="#D4E8BC"/>
<mask id="mask9_2675_62455" style="mask-type:luminance" maskUnits="userSpaceOnUse" x="48" y="148" width="147" height="87">
<path d="M194.855 148.66V196.308C194.855 217.248 177.881 234.223 156.941 234.223H86.0597C65.1196 234.223 48.1455 217.248 48.1455 196.308V148.66C49.8349 150.374 54.372 154.863 61.4674 159.89C74.0813 168.844 94.7881 179.519 121.955 179.399C148.687 179.278 169.056 168.756 181.533 159.907C188.588 154.895 193.125 150.414 194.855 148.66Z" fill="white"/>
</mask>
<g mask="url(#mask9_2675_62455)">
<path d="M85.5444 213.227H72.3271V220.99H85.5444V213.227Z" fill="#A1C18F" stroke="#386B34" stroke-width="3.3546" stroke-miterlimit="10"/>
<path d="M85.5444 205.511H72.3271V213.274H85.5444V205.511Z" fill="#A1C18F" stroke="#386B34" stroke-width="3.3546" stroke-miterlimit="10"/>
<path d="M85.5444 197.797H72.3271V205.56H85.5444V197.797Z" fill="#A1C18F" stroke="#386B34" stroke-width="3.3546" stroke-miterlimit="10"/>
<path d="M85.5444 190.09H72.3271V197.853H85.5444V190.09Z" fill="#A1C18F" stroke="#386B34" stroke-width="3.3546" stroke-miterlimit="10"/>
<path d="M85.5444 182.375H72.3271V190.139H85.5444V182.375Z" fill="#A1C18F" stroke="#386B34" stroke-width="3.3546" stroke-miterlimit="10"/>
<path d="M85.5444 174.661H72.3271V182.424H85.5444V174.661Z" fill="#A1C18F" stroke="#386B34" stroke-width="3.3546" stroke-miterlimit="10"/>
<path d="M85.5444 166.946H72.3271V174.709H85.5444V166.946Z" fill="#A1C18F" stroke="#386B34" stroke-width="3.3546" stroke-miterlimit="10"/>
<path d="M85.5444 159.231H72.3271V166.994H85.5444V159.231Z" fill="#A1C18F" stroke="#386B34" stroke-width="3.3546" stroke-miterlimit="10"/>
<path d="M85.5444 228.655H72.3271V236.418H85.5444V228.655Z" fill="#A1C18F" stroke="#386B34" stroke-width="3.3546" stroke-miterlimit="10"/>
<path d="M85.5444 220.941H72.3271V228.704H85.5444V220.941Z" fill="#A1C18F" stroke="#386B34" stroke-width="3.3546" stroke-miterlimit="10"/>
<path d="M161.301 163.607C161.301 163.607 171.759 237.569 141.6 241.125C141.6 241.125 236.743 252.79 236.743 247.44C236.743 242.09 207.783 124.961 207.783 124.961L161.301 163.607Z" fill="#ACC19B"/>
</g>
<path d="M194.855 148.66V196.308C194.855 217.248 177.881 234.223 156.941 234.223H86.0597C65.1196 234.223 48.1455 217.248 48.1455 196.308V148.66C49.8349 150.374 54.372 154.863 61.4674 159.89C74.0813 168.844 94.7881 179.519 121.955 179.399C148.687 179.278 169.056 168.756 181.533 159.907C188.588 154.895 193.125 150.414 194.855 148.66Z" stroke="#386B34" stroke-width="4.0223" stroke-miterlimit="10"/>
<path d="M168.18 178.393C166.08 179.181 163.972 179.977 162.082 181.184C160.191 182.383 158.518 184.04 157.673 186.116C156.829 188.191 156.933 190.725 158.277 192.519C159.66 194.361 162.05 195.134 164.326 195.496C166.016 195.761 167.858 195.825 169.314 194.932C170.384 194.281 171.116 193.171 171.566 191.996C171.969 190.942 172.178 189.8 172.081 188.674C171.759 184.925 168.228 181.916 168.308 178.151" fill="#B0D461"/>
<path d="M167.849 177.178C164.237 178.537 160.448 180.018 157.987 183.147C155.702 186.051 154.962 190.331 157.383 193.396C159.467 196.042 163.658 197.136 166.908 196.895C168.887 196.75 170.584 195.914 171.759 194.289C172.933 192.664 173.497 190.604 173.336 188.674C173.175 186.743 172.33 185.021 171.429 183.348C170.528 181.675 169.563 180.058 169.563 178.151C169.563 176.534 167.045 176.534 167.053 178.151C167.053 181.079 168.75 183.445 169.973 185.979C170.609 187.298 171.019 188.706 170.778 190.178C170.552 191.545 169.901 193.082 168.686 193.846C167.375 194.667 165.605 194.458 164.157 194.192C162.797 193.943 161.406 193.557 160.279 192.736C157.81 190.942 158.035 187.547 159.579 185.222C161.591 182.198 165.275 180.838 168.525 179.615C170.021 179.052 169.378 176.623 167.857 177.194L167.849 177.178Z" fill="#386B34"/>
<path d="M164.213 186.51C163.706 190.411 163.272 194.329 162.902 198.247C162.837 198.923 163.521 199.502 164.157 199.502C164.889 199.502 165.347 198.923 165.412 198.247C165.782 194.329 166.216 190.411 166.723 186.51C166.811 185.834 166.079 185.255 165.468 185.255C164.72 185.255 164.301 185.834 164.213 186.51Z" fill="#386B34"/>
<path d="M166.521 204.956L168.516 208.383L172.393 207.547C174.083 207.177 175.249 209.188 174.099 210.475L171.46 213.435L173.455 216.862C174.324 218.351 172.78 220.088 171.195 219.388L167.567 217.788L164.928 220.748C163.778 222.035 161.654 221.102 161.823 219.38L162.217 215.439L158.589 213.838C157.004 213.138 157.245 210.829 158.927 210.467L162.804 209.63L163.198 205.689C163.375 203.967 165.644 203.476 166.513 204.973L166.521 204.956Z" fill="#B0D461" stroke="#386B34" stroke-width="2.41338" stroke-miterlimit="10"/>
<path d="M108.85 130.261C108.029 131.621 109.155 132.94 110.426 133.383C111.762 133.849 113.403 133.962 114.77 133.632C117.12 133.069 119.018 130.977 121.496 130.977C122.686 130.977 122.694 129.119 121.496 129.119C119.34 129.119 117.626 130.358 115.776 131.283C114.875 131.726 113.95 132.007 112.936 131.951C112.349 131.919 111.746 131.838 111.183 131.677C110.981 131.621 110.724 131.557 110.563 131.404C110.507 131.348 110.451 131.299 110.418 131.219C110.37 131.106 110.394 131.275 110.442 131.195C111.062 130.173 109.461 129.24 108.842 130.261H108.85Z" fill="#386B34"/>
<path d="M132.549 131.203C132.606 131.299 132.598 131.131 132.582 131.203C132.565 131.267 132.541 131.316 132.493 131.356C132.316 131.501 132.131 131.589 131.914 131.661C131.359 131.83 130.755 131.919 130.176 131.951C129.122 132.023 128.173 131.758 127.232 131.291C125.382 130.374 123.668 129.135 121.512 129.127C120.322 129.127 120.314 130.986 121.512 130.986C123.99 130.986 125.896 133.077 128.237 133.64C129.605 133.97 131.254 133.858 132.582 133.391C133.909 132.924 134.979 131.621 134.158 130.27C133.539 129.248 131.93 130.181 132.557 131.203H132.549Z" fill="#386B34"/>
<path d="M103.082 126.988C103.082 126.988 110.057 127.382 110.451 119.667C110.845 111.952 99.7517 109.354 92.3506 115.178C84.9496 121.003 87.7089 123.995 89.358 124.776C91.0072 125.556 98.9553 127.076 103.074 126.98L103.082 126.988Z" fill="#386B34"/>
<path d="M105.945 116.055L106.525 117.833H108.399C109.107 117.833 109.405 118.742 108.833 119.16L107.321 120.262L107.9 122.04C108.118 122.716 107.345 123.279 106.774 122.861L105.262 121.759L103.749 122.861C103.17 123.279 102.398 122.716 102.623 122.04L103.202 120.262L101.69 119.16C101.111 118.742 101.408 117.833 102.124 117.833H103.999L104.578 116.055C104.795 115.379 105.752 115.379 105.978 116.055H105.945Z" fill="white"/>
<path d="M102.535 110.014C104.272 110.014 105.681 108.861 105.681 107.44C105.681 106.018 104.272 104.865 102.535 104.865C100.798 104.865 99.3896 106.018 99.3896 107.44C99.3896 108.861 100.798 110.014 102.535 110.014Z" fill="#386B34"/>
<path d="M139.926 126.988C139.926 126.988 132.951 127.382 132.557 119.667C132.163 111.952 143.256 109.354 150.657 115.178C158.058 121.003 155.299 123.995 153.65 124.776C152.001 125.556 144.053 127.076 139.934 126.98L139.926 126.988Z" fill="#386B34"/>
<path d="M147.705 116.12L148.284 117.897H150.159C150.867 117.897 151.164 118.806 150.593 119.225L149.081 120.327L149.66 122.105C149.877 122.781 149.105 123.344 148.534 122.925L147.021 121.823L145.509 122.925C144.93 123.344 144.158 122.781 144.383 122.105L144.962 120.327L143.45 119.225C142.87 118.806 143.168 117.897 143.884 117.897H145.758L146.338 116.12C146.555 115.444 147.512 115.444 147.737 116.12H147.705Z" fill="white"/>
<path d="M140.474 110.014C142.211 110.014 143.619 108.861 143.619 107.44C143.619 106.018 142.211 104.865 140.474 104.865C138.736 104.865 137.328 106.018 137.328 107.44C137.328 108.861 138.736 110.014 140.474 110.014Z" fill="#386B34"/>
<path d="M203.422 117.117C203.374 117.157 203.325 117.206 203.269 117.246C199.496 120.52 199.746 112.862 199.746 112.813C199.746 74.2072 161.301 38.0789 121.488 38.0789C81.6751 38.0789 43.246 74.2072 43.246 112.813C43.246 112.853 43.4954 120.52 39.7225 117.246C39.6742 117.206 39.6259 117.157 39.5777 117.117C36.5207 114.454 34.8635 110.561 35.1612 106.587C38.4514 63.1218 75.8508 28.8438 121.496 28.8438C167.141 28.8438 204.548 63.1137 207.839 106.587C208.136 110.561 206.479 114.454 203.422 117.117Z" fill="#A1C18F"/>
<mask id="mask10_2675_62455" style="mask-type:luminance" maskUnits="userSpaceOnUse" x="35" y="28" width="173" height="91">
<path d="M203.422 117.117C203.374 117.157 203.325 117.206 203.269 117.246C199.496 120.52 199.746 112.862 199.746 112.813C199.746 74.2072 161.301 38.0789 121.488 38.0789C81.6751 38.0789 43.246 74.2072 43.246 112.813C43.246 112.853 43.4954 120.52 39.7225 117.246C39.6742 117.206 39.6259 117.157 39.5777 117.117C36.5207 114.454 34.8635 110.561 35.1612 106.587C38.4514 63.1218 75.8508 28.8438 121.496 28.8438C167.141 28.8438 204.548 63.1137 207.839 106.587C208.136 110.561 206.479 114.454 203.422 117.117Z" fill="white"/>
</mask>
<g mask="url(#mask10_2675_62455)">
<path d="M139.338 20.7759C139.338 20.7759 157.414 41.1126 159.039 60.653C160.664 80.1933 242.985 181.949 242.985 181.949C242.985 181.949 281.599 86.4761 281.599 83.6364C281.599 80.7966 139.338 20.7759 139.338 20.7759Z" fill="#7A956C"/>
</g>
<path d="M203.422 117.117C203.374 117.157 203.325 117.206 203.269 117.246C199.496 120.52 199.746 112.862 199.746 112.813C199.746 74.2072 161.301 38.0789 121.488 38.0789C81.6751 38.0789 43.246 74.2072 43.246 112.813C43.246 112.853 43.4954 120.52 39.7225 117.246C39.6742 117.206 39.6259 117.157 39.5777 117.117C36.5207 114.454 34.8635 110.561 35.1612 106.587C38.4514 63.1218 75.8508 28.8438 121.496 28.8438C167.141 28.8438 204.548 63.1137 207.839 106.587C208.136 110.561 206.479 114.454 203.422 117.117Z" stroke="#386B34" stroke-width="4.08666" stroke-miterlimit="10"/>
<path d="M86.349 83.6359C96.7265 75.2293 108.85 71.4725 114.923 70.0164L113.451 58.4644C98.4883 59.5504 86.8478 65.5195 78.2803 72.2769L86.341 83.6359H86.349Z" fill="white"/>
<path d="M76.3252 73.877C70.3561 78.937 66.0442 84.2464 63.293 88.1722L75.1588 96.2409C77.7813 91.9693 80.9669 88.3492 84.4181 85.2762L76.3252 73.877Z" fill="white"/>
<path d="M61.8857 90.2559C60.317 92.6612 59.5527 94.1816 59.5527 94.1816L72.7941 100.625C73.1481 99.8772 73.5182 99.1451 73.9043 98.4292L61.8857 90.2559Z" fill="white"/>
<path d="M117.393 69.4774C118.302 69.3004 118.809 69.22 118.809 69.22L118.335 58.2793C117.538 58.2793 116.758 58.2954 115.978 58.3276L117.393 69.4774Z" fill="white"/>
<path d="M48.145 91.6235H28.9023V140.937H48.145V91.6235Z" fill="#A1C18F" stroke="#386B34" stroke-width="3.3546" stroke-miterlimit="10"/>
<path d="M214.097 91.6235H194.854V140.937H214.097V91.6235Z" fill="#7A956C"/>
<path d="M214.097 91.6235H194.854V140.937H214.097V91.6235Z" stroke="#386B34" stroke-width="4.0223" stroke-miterlimit="10"/>
</svg>
