<svg width="107" height="89" viewBox="0 0 107 89" fill="none" xmlns="http://www.w3.org/2000/svg">
<path d="M67.6525 79.6799L62.0012 65.1953L23.0008 89.8148L37.2047 91.5051L35.2539 99.023L43.9751 94.9243L59.9104 104.161C67.6256 104.994 73.5743 96.6065 73.5743 96.6065L67.4009 79.9015L67.6568 79.682L67.6525 79.6799Z" fill="#268ECE" stroke="#268ECE" stroke-width="1.06872" stroke-miterlimit="10"/>
<path d="M53.9608 68.8495L40.8891 79.1814L55.6563 84.1708L53.9608 68.8495Z" fill="#E1F3F9" stroke="#268ECE" stroke-width="1.06872" stroke-miterlimit="10"/>
<path d="M43.5078 78.3009L37.7531 82.8358L47.6844 82.9497L48.8318 86.9391L55.4083 84.1711L43.5078 78.3009Z" fill="white" stroke="#268ECE" stroke-width="1.06872" stroke-miterlimit="10"/>
<path d="M53.0908 71.1539L58.9687 66.7787L56.4897 76.3951L60.0418 78.5435L55.6563 84.1702L53.0908 71.1539Z" fill="white" stroke="#268ECE" stroke-width="1.06872" stroke-miterlimit="10"/>
<path d="M66.0478 95.1329L70.5962 89.7206L76.0085 93.4074L76.5626 91.6077C78.1034 86.5983 77.8625 82.704 75.8467 80.0359C73.8639 77.412 70.756 76.7716 69.0466 76.6238L67.325 68.9442C68.6967 68.5223 71.2032 67.887 74.0517 67.8233C81.4026 67.6592 86.3286 71.2051 88.6927 78.3636C90.8803 84.9895 88.8687 91.2238 82.7099 96.8987C79.0858 100.238 75.0059 102.414 73.2357 103.274L66.0498 95.1307L66.0478 95.1329Z" fill="#E1F3F9"/>
<path d="M74.0809 69.2148C76.9892 69.1498 79.5056 69.7264 81.5636 70.9291C84.202 72.4715 86.1554 75.1195 87.3729 78.8017C88.4804 82.155 88.4244 85.2948 87.2003 88.4008C86.1907 90.9632 84.3801 93.4644 81.8162 95.835C78.848 98.5823 75.5412 100.523 73.5674 101.554L67.8819 95.1114L70.8517 91.5773L73.6697 93.4984L76.7829 95.6203L77.8912 92.0209C79.5716 86.5593 79.2572 82.2476 76.955 79.2033C75.0164 76.6404 72.1948 75.7093 70.1906 75.3777L68.9701 69.9339C70.2967 69.6007 72.1043 69.2632 74.0831 69.219M74.0188 66.4368C69.4031 66.5399 65.6951 68.0359 65.6951 68.0359L67.9247 77.9789C67.9247 77.9789 67.9504 77.9784 67.9974 77.9773C68.9654 77.9557 79.287 78.0288 75.2347 91.2015L70.3412 87.8665L64.2163 95.1569L72.8805 104.973C72.8805 104.973 95.7548 95.3163 90.0131 77.9303C86.8372 68.3141 79.735 66.3091 74.021 66.4367L74.0188 66.4368Z" fill="#AFE1F1"/>
<path d="M67.9266 77.9778C67.9266 77.9778 79.4862 77.384 75.2345 91.2004L70.341 87.8655L64.2161 95.1559L72.8803 104.972C72.8803 104.972 95.7546 95.3153 90.0129 77.9293C84.2712 60.5454 65.697 68.0326 65.697 68.0326L67.9266 77.9757L67.9266 77.9778Z" stroke="#268ECE" stroke-width="1.4962" stroke-miterlimit="10"/>
<path d="M44.4301 79.2102L55.1753 77.9568L51.9855 82.9347L56.1396 82.8419" stroke="#268ECE" stroke-width="1.06872" stroke-miterlimit="10"/>
<path d="M54.0131 72.0617L49.7307 81.823L55.761 80.923L54.2812 84.0689" stroke="#268ECE" stroke-width="1.06872" stroke-miterlimit="10"/>
<path d="M33.003 80.8546C26.9599 80.9895 22.0233 77.7346 18.3279 71.1788C16.0037 67.0531 14.9947 62.2716 15.3316 56.9641C15.605 52.6478 16.762 47.9741 18.7671 43.074C20.8107 38.0832 23.3354 33.8621 25.0641 31.2344L25.6839 36.2041L27.754 33.1669C35.896 21.2284 49.5666 12.2515 56.1865 8.36007L44.0841 33.0865L76.6546 9.95112L53.8727 40.4043L63.2624 35.893L55.878 48.9199L65.8693 46.268L56.3343 62.2656L60.2731 62.4876C51.4427 73.8514 41.369 80.6699 32.9988 80.8568L33.003 80.8546Z" fill="#E1F3F9"/>
<path d="M52.8398 12.047L45.2439 27.5672L40.4389 37.383L49.3475 31.0545L70.2355 16.2166L56.1623 35.0286L49.3697 44.1084L59.5906 39.1959L59.872 39.0613L56.3053 45.3539L53.0429 51.1073L59.4339 49.4103L62.9322 48.4813L56.3172 59.5796L53.97 63.5167L57.4978 63.7159C54.0185 67.8878 50.3236 71.4082 46.6431 74.0431C41.8222 77.4967 37.0942 79.3704 32.97 79.4625C27.4803 79.5851 22.9595 76.5667 19.5379 70.4944C17.3518 66.6157 16.4022 62.1045 16.7156 57.0839C16.9755 52.9262 18.089 48.4095 20.0289 43.6584C21.3242 40.4866 22.8189 37.6268 24.1739 35.3068L24.7624 40.0229L28.9048 33.9505C34.4985 25.7504 42.7907 19.006 48.762 14.7934C50.1954 13.7822 51.5688 12.8643 52.8376 12.047M83.0826 3.68342L47.7405 28.7899L59.3869 4.99298C59.3869 4.99298 37.9277 15.7922 26.6122 32.3854L26.0005 27.4903C26.0005 27.4903 6.3168 52.6939 17.1204 71.8611C21.2946 79.27 26.8928 82.3818 33.0364 82.2446C42.7892 82.0268 53.9222 73.6282 62.9522 61.2466L58.7073 61.0057L68.8131 44.0483L58.7219 46.7281L66.6637 32.7181L58.3867 36.6957L83.0826 3.68342Z" fill="#AFE1F1"/>
<path d="M26.0005 27.4903C26.0005 27.4903 6.3168 52.6939 17.1204 71.8611C27.924 91.0282 48.232 81.4285 62.9522 61.2444L58.7072 61.0036L68.8131 44.0462L58.7219 46.7259L66.6637 32.7159L58.3866 36.6935L83.0827 3.68342L47.7405 28.7899L59.3869 4.99298C59.3869 4.99298 37.9277 15.7922 26.6122 32.3854L26.0005 27.4903Z" stroke="#268ECE" stroke-width="1.4962" stroke-miterlimit="10"/>
<path d="M24.3073 65.8872L57.9355 51.2479L39.7791 78.7799L24.3073 65.8872Z" fill="#268ECE"/>
<mask id="mask0_2409_33263" style="mask-type:luminance" maskUnits="userSpaceOnUse" x="24" y="51" width="34" height="28">
<path d="M24.3071 65.8891L57.9353 51.2499L39.7788 78.7819L24.3071 65.8891Z" fill="white"/>
</mask>
<g mask="url(#mask0_2409_33263)">
<path d="M35.5209 76.225C35.5209 76.225 33.7751 66.2177 51.3786 60.7362C68.9842 55.2546 40.7454 81.6521 40.7454 81.6521L35.5187 76.2229" fill="#AFE1F1"/>
<path d="M25.924 69.6458L31.9192 66.4995L35.1434 68.5184L36.4302 64.3912L60.4658 53.3121L60.0032 48.0118L20.0769 66.3043L25.924 69.6458Z" fill="white" stroke="#268ECE" stroke-width="1.06872" stroke-miterlimit="10"/>
<path d="M33.4834 76.0434L38.5269 73.3652L39.8062 69.3771L41.9032 70.8932L53.2312 63.6683L40.2557 84.2388L33.4834 76.0434Z" fill="white" stroke="#268ECE" stroke-width="1.06872" stroke-miterlimit="10"/>
</g>
<path d="M24.3073 65.8872L57.9355 51.2479L39.7791 78.7799L24.3073 65.8872Z" stroke="#268ECE" stroke-width="1.06872" stroke-miterlimit="10"/>
<path d="M27.6788 53.9187L2.35303 21.2988L10.335 44.031L3.73427 43.1308L18.35 68.2376L27.7572 57.4296C27.7572 57.4296 36.1798 72.4125 43.0643 66.0116C49.9488 59.6108 43.6178 39.0053 43.6178 39.0053L27.6788 53.9187Z" fill="#268ECE"/>
<mask id="mask1_2409_33263" style="mask-type:luminance" maskUnits="userSpaceOnUse" x="2" y="21" width="45" height="48">
<path d="M27.6788 53.9187L2.35303 21.2988L10.335 44.031L3.73427 43.1308L18.35 68.2376L27.7572 57.4296C27.7572 57.4296 36.1798 72.4125 43.0643 66.0116C49.9488 59.6108 43.6178 39.0053 43.6178 39.0053L27.6788 53.9187Z" fill="white"/>
</mask>
<g mask="url(#mask1_2409_33263)">
<path d="M29.1841 59.6754L37.1731 51.9906L39.2893 55.0391L48.3342 46.095L48.4014 49.1059L38.7925 59.0247L36.6689 55.6428L29.7053 62.24L28.4052 60.2188L29.1841 59.6754Z" fill="#F8FCFF" stroke="#268ECE" stroke-width="0.213743" stroke-miterlimit="10"/>
<path d="M10.7405 57.5914L18.7295 49.9066L20.8479 52.9551L29.8927 44.0109L29.9599 47.0197L20.3511 56.9407L18.2252 53.5567L11.2617 60.1539L9.96159 58.1348L10.7405 57.5914Z" fill="#F8FCFF" stroke="#268ECE" stroke-width="0.213743" stroke-miterlimit="10"/>
</g>
<path d="M27.6788 53.9187L2.35303 21.2988L10.335 44.031L3.73427 43.1308L18.35 68.2376L27.7572 57.4296C27.7572 57.4296 36.1798 72.4125 43.0643 66.0116C49.9488 59.6108 43.6178 39.0053 43.6178 39.0053L27.6788 53.9187Z" stroke="#268ECE" stroke-width="1.06872" stroke-miterlimit="10"/>
<path d="M75.4691 73.0808L66.4091 72.056L70.7081 59.6902L62.6293 64.7879L68.2827 79.2725L75.4691 73.0808Z" fill="#268ECE" stroke="#268ECE" stroke-width="1.06872" stroke-miterlimit="10"/>
</svg>
