<svg width="44" height="73" viewBox="0 0 44 73" fill="none" xmlns="http://www.w3.org/2000/svg">
<path fill-rule="evenodd" clip-rule="evenodd" d="M23.8789 5.15271C23.2396 3.39962 20.7602 3.39962 20.1209 5.1527L16.3729 15.4307C16.173 15.9791 15.7435 16.4127 15.197 16.6179L4.98641 20.4519C3.25713 21.1012 3.25714 23.5473 4.98641 24.1966L14.9365 27.9327C15.6269 28.1919 16.1186 28.8101 16.2159 29.5412L20.0174 58.104C20.3255 60.4189 23.6743 60.4189 23.9824 58.104L27.7839 29.5412C27.8812 28.8101 28.3729 28.1919 29.0633 27.9327L39.0134 24.1966C40.7427 23.5473 40.7427 21.1012 39.0134 20.4519L28.8028 16.6179C28.2564 16.4127 27.8268 15.9791 27.6269 15.4307L23.8789 5.15271ZM21.9998 27.2348C24.6729 27.2348 26.8398 25.0359 26.8398 22.3235C26.8398 19.611 24.6729 17.4122 21.9998 17.4122C19.3268 17.4122 17.1598 19.611 17.1598 22.3235C17.1598 25.0359 19.3268 27.2348 21.9998 27.2348Z" fill="white"/>
</svg>
